M48
; DRILL file {KiCad (6.0.2-0)} date 2022 July 28, Thursday 16:30:03
; FORMAT={-:-/ absolute / metric / decimal}
; #@! TF.CreationDate,2022-07-28T16:30:03+02:00
; #@! TF.GenerationSoftware,Kicad,Pcbnew,(6.0.2-0)
; #@! TF.FileFunction,MixedPlating,1,2
FMAT,2
METRIC
; #@! TA.AperFunction,Plated,PTH,ViaDrill
T1C0.250
; #@! TA.AperFunction,Plated,PTH,ViaDrill
T2C0.400
; #@! TA.AperFunction,Plated,PTH,ComponentDrill
T3C0.800
; #@! TA.AperFunction,Plated,PTH,ComponentDrill
T4C1.000
; #@! TA.AperFunction,Plated,PTH,ComponentDrill
T5C1.100
; #@! TA.AperFunction,Plated,PTH,ComponentDrill
T6C1.300
%
G90
G05
T1
X127.036Y-48.04
X127.086Y-93.565
X127.561Y-99.69
X127.936Y-102.915
X128.011Y-43.19
X128.27Y-59.182
X128.411Y-109.64
X128.561Y-73.265
X128.636Y-113.24
X128.686Y-54.415
X128.836Y-67.165
X128.886Y-90.565
X128.886Y-96.19
X129.011Y-86.715
X129.536Y-63.84
X129.736Y-105.915
X129.794Y-79.502
X129.836Y-111.44
X130.486Y-72.29
X130.561Y-99.565
X130.811Y-93.315
X131.336Y-43.89
X131.611Y-47.765
X132.011Y-62.865
X140.647Y-99.453
X140.99Y-48.95
X142.375Y-64.75
X142.6Y-67.59
X143.002Y-54.356
X143.002Y-56.642
X143.002Y-58.674
X143.14Y-71.4
X143.74Y-92.83
X144.2Y-89.34
X145.034Y-54.356
X145.035Y-56.539
X145.035Y-58.639
X145.36Y-44.04
X146.22Y-79.35
X147.066Y-54.356
X147.066Y-56.388
X147.066Y-58.62
X147.29Y-84.98
X147.43Y-99.31
X147.55Y-75.54
X147.675Y-111.1
X147.782Y-115.036
X148.59Y-88.392
X149.098Y-96.266
X149.352Y-103.632
X150.05Y-64.825
X150.09Y-114.33
X150.76Y-54.49
X150.79Y-56.65
X150.91Y-58.5
X151.02Y-42.26
X151.03Y-110.42
X151.8Y-77.06
X152.11Y-86.79
X152.8Y-58.41
X152.909Y-54.531
X152.909Y-56.539
X153.0Y-68.13
X153.416Y-107.95
X153.924Y-103.378
X154.178Y-100.838
X154.94Y-56.642
X154.95Y-54.52
X154.95Y-58.5
X155.51Y-108.44
X156.43Y-74.18
X156.9Y-72.35
X157.25Y-55.125
X157.34Y-111.0
X157.38Y-44.04
X157.6Y-60.28
X157.95Y-88.54
X158.725Y-84.725
X158.95Y-80.43
X159.11Y-67.88
X160.275Y-100.8
X160.301Y-86.314
X161.13Y-72.15
X161.7Y-58.28
X161.75Y-62.81
X161.75Y-71.15
X163.38Y-80.76
X164.18Y-54.56
X166.07Y-49.81
X166.18Y-46.69
X166.85Y-85.6
X170.3Y-63.525
X170.44Y-56.99
X171.51Y-67.99
X172.22Y-42.86
X172.974Y-49.784
X173.425Y-105.95
X173.45Y-90.7
X173.45Y-102.2
X173.482Y-95.25
X173.55Y-88.25
X173.55Y-104.125
X174.32Y-54.61
X175.1Y-113.725
X176.8Y-72.2
X177.39Y-67.34
X177.45Y-60.44
X177.95Y-100.875
X178.125Y-86.225
X178.308Y-42.926
X178.47Y-54.45
X187.286Y-66.065
X187.436Y-71.74
X187.561Y-45.84
X187.711Y-98.965
X187.961Y-107.115
X188.186Y-112.165
X188.311Y-77.34
X188.561Y-83.115
X188.976Y-55.118
X189.161Y-89.84
X189.386Y-105.19
X189.511Y-46.515
X190.236Y-100.765
X190.336Y-59.965
X190.461Y-73.74
X190.61Y-102.72
X191.436Y-91.99
X191.561Y-81.79
X191.77Y-115.57
T2
X151.384Y-51.308
X157.275Y-98.2
X166.624Y-69.342
X169.925Y-83.8
T3
X144.579Y-96.764
X144.579Y-99.304
X144.579Y-101.844
X144.579Y-104.384
X152.199Y-96.764
X152.199Y-99.304
X152.199Y-101.844
X152.199Y-104.384
X164.074Y-83.302
X164.074Y-85.842
X164.074Y-88.382
X164.074Y-90.922
X164.074Y-98.034
X164.074Y-100.574
X164.074Y-103.114
X164.074Y-105.654
X165.862Y-76.773
X165.862Y-79.273
X166.116Y-63.5
X166.116Y-66.0
X171.694Y-83.302
X171.694Y-85.842
X171.694Y-88.382
X171.694Y-90.922
X171.694Y-98.034
X171.694Y-100.574
X171.694Y-103.114
X171.694Y-105.654
X173.228Y-76.773
X173.228Y-79.273
X173.736Y-63.5
X173.736Y-66.0
T4
X135.128Y-55.113
X135.128Y-57.653
X135.128Y-60.193
X135.128Y-62.733
X135.128Y-65.273
X135.128Y-67.813
X135.128Y-70.353
X135.128Y-72.893
X135.133Y-77.973
X135.133Y-80.513
X135.133Y-83.053
X135.133Y-85.593
X135.133Y-88.133
X135.133Y-90.673
X135.133Y-93.213
X135.133Y-95.753
X135.133Y-98.293
X135.133Y-100.833
X135.133Y-103.373
X135.133Y-105.913
X135.133Y-108.453
X135.133Y-110.993
X135.133Y-113.533
X137.414Y-44.959
X137.414Y-50.039
X137.668Y-55.113
X137.668Y-57.653
X137.668Y-60.193
X137.668Y-62.733
X137.668Y-65.273
X137.668Y-67.813
X137.668Y-70.353
X137.668Y-72.893
X137.673Y-77.973
X137.673Y-80.513
X137.673Y-83.053
X137.673Y-85.593
X137.673Y-88.133
X137.673Y-90.673
X137.673Y-93.213
X137.673Y-95.753
X137.673Y-98.293
X137.673Y-100.833
X137.673Y-103.373
X137.673Y-105.913
X137.673Y-108.453
X137.673Y-110.993
X137.673Y-113.533
X148.988Y-44.958
X153.665Y-113.698
X154.068Y-44.958
X156.205Y-113.698
X158.745Y-113.698
X161.285Y-113.698
X163.825Y-113.698
X163.89Y-44.958
X166.365Y-113.698
X168.905Y-113.698
X168.97Y-44.958
X171.445Y-113.698
X176.961Y-45.979
X176.961Y-48.519
X180.811Y-72.893
X180.811Y-75.433
X180.811Y-77.973
X180.811Y-80.513
X180.811Y-83.053
X180.811Y-85.593
X180.811Y-88.133
X180.811Y-90.673
X180.811Y-93.213
X180.811Y-95.753
X180.811Y-98.293
X180.811Y-100.833
X180.811Y-103.373
X180.811Y-105.913
X180.811Y-108.453
X180.811Y-110.993
X180.811Y-113.533
X180.818Y-45.72
X180.818Y-48.26
X180.818Y-50.8
X180.818Y-53.34
X180.818Y-55.88
X180.818Y-58.42
X180.818Y-60.96
X180.818Y-63.5
X180.818Y-66.04
X180.818Y-68.58
X183.351Y-72.893
X183.351Y-75.433
X183.351Y-77.973
X183.351Y-80.513
X183.351Y-83.053
X183.351Y-85.593
X183.351Y-88.133
X183.351Y-90.673
X183.351Y-93.213
X183.351Y-95.753
X183.351Y-98.293
X183.351Y-100.833
X183.351Y-103.373
X183.351Y-105.913
X183.351Y-108.453
X183.351Y-110.993
X183.351Y-113.533
X183.358Y-45.72
X183.358Y-48.26
X183.358Y-50.8
X183.358Y-53.34
X183.358Y-55.88
X183.358Y-58.42
X183.358Y-60.96
X183.358Y-63.5
X183.358Y-66.04
X183.358Y-68.58
T5
X166.624Y-72.162
X166.878Y-58.928
X169.164Y-72.162
X169.418Y-58.928
X171.704Y-72.162
X171.958Y-58.928
T6
X142.24Y-77.216
X142.24Y-79.756
X142.24Y-82.296
X154.94Y-77.216
X154.94Y-79.756
X154.94Y-82.296
T3
G00X146.05Y-69.566
M15
G01X146.05Y-69.566
M16
G05
G00X148.59Y-69.566
M15
G01X148.59Y-69.566
M16
G05
G00X151.13Y-69.566
M15
G01X151.13Y-69.566
M16
G05
T0
M30
