%TF.GenerationSoftware,KiCad,Pcbnew,(6.0.2-0)*%
%TF.CreationDate,2022-07-28T16:30:58+02:00*%
%TF.ProjectId,stepper_testbench,73746570-7065-4725-9f74-65737462656e,rev?*%
%TF.SameCoordinates,Original*%
%TF.FileFunction,Paste,Bot*%
%TF.FilePolarity,Positive*%
%FSLAX46Y46*%
G04 Gerber Fmt 4.6, Leading zero omitted, Abs format (unit mm)*
G04 Created by KiCad (PCBNEW (6.0.2-0)) date 2022-07-28 16:30:58*
%MOMM*%
%LPD*%
G01*
G04 APERTURE LIST*
G04 Aperture macros list*
%AMRoundRect*
0 Rectangle with rounded corners*
0 $1 Rounding radius*
0 $2 $3 $4 $5 $6 $7 $8 $9 X,Y pos of 4 corners*
0 Add a 4 corners polygon primitive as box body*
4,1,4,$2,$3,$4,$5,$6,$7,$8,$9,$2,$3,0*
0 Add four circle primitives for the rounded corners*
1,1,$1+$1,$2,$3*
1,1,$1+$1,$4,$5*
1,1,$1+$1,$6,$7*
1,1,$1+$1,$8,$9*
0 Add four rect primitives between the rounded corners*
20,1,$1+$1,$2,$3,$4,$5,0*
20,1,$1+$1,$4,$5,$6,$7,0*
20,1,$1+$1,$6,$7,$8,$9,0*
20,1,$1+$1,$8,$9,$2,$3,0*%
G04 Aperture macros list end*
%ADD10RoundRect,0.200000X0.275000X-0.200000X0.275000X0.200000X-0.275000X0.200000X-0.275000X-0.200000X0*%
%ADD11RoundRect,0.200000X-0.275000X0.200000X-0.275000X-0.200000X0.275000X-0.200000X0.275000X0.200000X0*%
%ADD12R,0.450000X0.600000*%
%ADD13RoundRect,0.225000X0.225000X0.250000X-0.225000X0.250000X-0.225000X-0.250000X0.225000X-0.250000X0*%
%ADD14R,2.750000X3.050000*%
%ADD15R,1.200000X2.200000*%
%ADD16RoundRect,0.200000X-0.200000X-0.275000X0.200000X-0.275000X0.200000X0.275000X-0.200000X0.275000X0*%
%ADD17RoundRect,0.225000X-0.250000X0.225000X-0.250000X-0.225000X0.250000X-0.225000X0.250000X0.225000X0*%
%ADD18RoundRect,0.200000X0.200000X0.275000X-0.200000X0.275000X-0.200000X-0.275000X0.200000X-0.275000X0*%
%ADD19RoundRect,0.250000X0.250000X0.475000X-0.250000X0.475000X-0.250000X-0.475000X0.250000X-0.475000X0*%
%ADD20RoundRect,0.225000X-0.225000X-0.250000X0.225000X-0.250000X0.225000X0.250000X-0.225000X0.250000X0*%
%ADD21R,2.500000X1.800000*%
%ADD22R,0.600000X0.450000*%
%ADD23RoundRect,0.250000X-0.450000X0.262500X-0.450000X-0.262500X0.450000X-0.262500X0.450000X0.262500X0*%
%ADD24RoundRect,0.250000X-0.250000X-0.475000X0.250000X-0.475000X0.250000X0.475000X-0.250000X0.475000X0*%
G04 APERTURE END LIST*
D10*
%TO.C,R1*%
X155175000Y-66850000D03*
X155175000Y-65200000D03*
%TD*%
%TO.C,R25*%
X157533000Y-101663000D03*
X157533000Y-100013000D03*
%TD*%
D11*
%TO.C,R6*%
X176784000Y-89853000D03*
X176784000Y-91503000D03*
%TD*%
D12*
%TO.C,D2*%
X159766000Y-50512000D03*
X159766000Y-52612000D03*
%TD*%
D13*
%TO.C,C2*%
X152667000Y-72912000D03*
X151117000Y-72912000D03*
%TD*%
D10*
%TO.C,R8*%
X175006000Y-85153000D03*
X175006000Y-83503000D03*
%TD*%
D14*
%TO.C,Q1*%
X151384000Y-54864000D03*
X151384000Y-58214000D03*
X154434000Y-58214000D03*
X154434000Y-54864000D03*
D15*
X155189000Y-62839000D03*
X150629000Y-62839000D03*
%TD*%
D16*
%TO.C,R21*%
X158330500Y-72898000D03*
X159980500Y-72898000D03*
%TD*%
D10*
%TO.C,R28*%
X147300000Y-66850000D03*
X147300000Y-65200000D03*
%TD*%
D17*
%TO.C,C1*%
X175006000Y-89903000D03*
X175006000Y-91453000D03*
%TD*%
D16*
%TO.C,R17*%
X160300810Y-85000000D03*
X161950810Y-85000000D03*
%TD*%
D18*
%TO.C,R19*%
X146124000Y-116274000D03*
X144474000Y-116274000D03*
%TD*%
D13*
%TO.C,C11*%
X173495000Y-74701500D03*
X171945000Y-74701500D03*
%TD*%
D11*
%TO.C,R15*%
X176784000Y-86551000D03*
X176784000Y-88201000D03*
%TD*%
%TO.C,R9*%
X176784000Y-104839000D03*
X176784000Y-106489000D03*
%TD*%
D13*
%TO.C,C8*%
X166383000Y-61285000D03*
X164833000Y-61285000D03*
%TD*%
D16*
%TO.C,R16*%
X160300810Y-91604000D03*
X161950810Y-91604000D03*
%TD*%
D19*
%TO.C,C17*%
X162075810Y-88302000D03*
X160175810Y-88302000D03*
%TD*%
D20*
%TO.C,C5*%
X163817000Y-93472000D03*
X165367000Y-93472000D03*
%TD*%
D21*
%TO.C,D3*%
X166878000Y-52604000D03*
X170878000Y-52604000D03*
%TD*%
D16*
%TO.C,R3*%
X151800000Y-65278000D03*
X153450000Y-65278000D03*
%TD*%
%TO.C,R23*%
X160275000Y-106404000D03*
X161925000Y-106404000D03*
%TD*%
D10*
%TO.C,R14*%
X155755000Y-98361000D03*
X155755000Y-96711000D03*
%TD*%
D13*
%TO.C,C10*%
X166142000Y-74701500D03*
X164592000Y-74701500D03*
%TD*%
D16*
%TO.C,R5*%
X143892000Y-65278000D03*
X145542000Y-65278000D03*
%TD*%
D22*
%TO.C,D5*%
X150402000Y-49022000D03*
X148302000Y-49022000D03*
%TD*%
D13*
%TO.C,C12*%
X174003000Y-61285000D03*
X172453000Y-61285000D03*
%TD*%
D19*
%TO.C,C18*%
X162050000Y-103102000D03*
X160150000Y-103102000D03*
%TD*%
D17*
%TO.C,C4*%
X175006000Y-104889000D03*
X175006000Y-106439000D03*
%TD*%
D18*
%TO.C,R18*%
X146124000Y-112464000D03*
X144474000Y-112464000D03*
%TD*%
D16*
%TO.C,R27*%
X140647000Y-105300000D03*
X142297000Y-105300000D03*
%TD*%
D18*
%TO.C,R2*%
X146375000Y-71975000D03*
X144725000Y-71975000D03*
%TD*%
D10*
%TO.C,R10*%
X175006000Y-103187000D03*
X175006000Y-101537000D03*
%TD*%
D16*
%TO.C,R24*%
X160275000Y-99800000D03*
X161925000Y-99800000D03*
%TD*%
D10*
%TO.C,R22*%
X176784000Y-103187000D03*
X176784000Y-101537000D03*
%TD*%
%TO.C,R7*%
X175006000Y-88353000D03*
X175006000Y-86703000D03*
%TD*%
%TO.C,R13*%
X155702000Y-101663000D03*
X155702000Y-100013000D03*
%TD*%
D16*
%TO.C,R26*%
X140647000Y-98442000D03*
X142297000Y-98442000D03*
%TD*%
D14*
%TO.C,Q2*%
X143510000Y-54864000D03*
X146560000Y-54864000D03*
X143510000Y-58214000D03*
X146560000Y-58214000D03*
D15*
X147315000Y-62839000D03*
X142755000Y-62839000D03*
%TD*%
D16*
%TO.C,R20*%
X158707000Y-56388000D03*
X160357000Y-56388000D03*
%TD*%
D23*
%TO.C,FB1*%
X159766000Y-46585500D03*
X159766000Y-48410500D03*
%TD*%
D10*
%TO.C,R11*%
X175006000Y-99885000D03*
X175006000Y-98235000D03*
%TD*%
D17*
%TO.C,C6*%
X155755000Y-103365000D03*
X155755000Y-104915000D03*
%TD*%
D19*
%TO.C,C19*%
X142422000Y-101871000D03*
X140522000Y-101871000D03*
%TD*%
D22*
%TO.C,D1*%
X154720000Y-49022000D03*
X152620000Y-49022000D03*
%TD*%
D20*
%TO.C,C7*%
X144259000Y-106934000D03*
X145809000Y-106934000D03*
%TD*%
%TO.C,C3*%
X163817000Y-108204000D03*
X165367000Y-108204000D03*
%TD*%
D24*
%TO.C,C9*%
X144592000Y-73928000D03*
X146492000Y-73928000D03*
%TD*%
D11*
%TO.C,R12*%
X157533000Y-103315000D03*
X157533000Y-104965000D03*
%TD*%
D18*
%TO.C,R4*%
X154495000Y-51308000D03*
X152845000Y-51308000D03*
%TD*%
M02*
