M48
; DRILL file {KiCad (6.0.2-0)} date 2022 July 26, Tuesday 16:16:21
; FORMAT={-:-/ absolute / metric / decimal}
; #@! TF.CreationDate,2022-07-26T16:16:21+02:00
; #@! TF.GenerationSoftware,Kicad,Pcbnew,(6.0.2-0)
; #@! TF.FileFunction,MixedPlating,1,2
FMAT,2
METRIC
; #@! TA.AperFunction,Plated,PTH,ViaDrill
T1C0.250
; #@! TA.AperFunction,Plated,PTH,ComponentDrill
T2C0.800
; #@! TA.AperFunction,Plated,PTH,ComponentDrill
T3C1.000
; #@! TA.AperFunction,Plated,PTH,ComponentDrill
T4C1.100
; #@! TA.AperFunction,Plated,PTH,ComponentDrill
T5C1.300
%
G90
G05
T1
X112.05Y-70.9
X112.1Y-116.425
X112.575Y-122.55
X112.95Y-125.775
X113.025Y-66.05
X113.425Y-132.5
X113.575Y-96.125
X113.65Y-136.1
X113.7Y-77.275
X113.85Y-90.025
X113.9Y-113.425
X113.9Y-119.05
X114.025Y-109.575
X114.55Y-86.7
X114.75Y-128.775
X114.808Y-102.362
X114.85Y-134.3
X115.5Y-95.15
X115.575Y-122.425
X115.825Y-116.175
X116.35Y-66.75
X116.625Y-70.625
X117.025Y-85.725
X125.222Y-75.692
X125.525Y-115.35
X126.6Y-106.775
X126.746Y-89.408
X127.0Y-111.775
X127.254Y-122.174
X127.762Y-74.168
X128.778Y-67.564
X131.826Y-89.916
X132.08Y-100.584
X132.334Y-84.582
X132.842Y-77.216
X133.35Y-119.634
X133.35Y-119.634
X133.35Y-134.75
X133.35Y-137.414
X133.604Y-103.886
X134.55Y-130.025
X135.128Y-71.374
X135.275Y-133.6
X135.6Y-121.625
X135.636Y-90.424
X135.85Y-106.0
X136.144Y-122.936
X136.575Y-119.125
X139.275Y-130.425
X139.875Y-131.675
X140.716Y-68.326
X140.97Y-73.406
X140.97Y-96.774
X141.732Y-93.726
X142.125Y-101.075
X142.494Y-119.634
X142.75Y-123.325
X143.002Y-75.946
X143.525Y-109.775
X143.625Y-112.75
X143.8Y-104.9
X144.018Y-76.454
X144.272Y-114.554
X145.2Y-122.55
X145.3Y-100.95
X145.796Y-107.696
X146.05Y-83.312
X146.304Y-74.168
X146.304Y-78.486
X146.304Y-88.138
X147.15Y-130.45
X147.574Y-85.344
X148.082Y-75.946
X148.336Y-105.156
X149.098Y-80.01
X149.352Y-101.346
X149.975Y-103.425
X150.114Y-106.934
X150.725Y-96.85
X151.638Y-72.644
X152.55Y-117.9
X152.775Y-92.125
X152.85Y-98.05
X153.162Y-76.454
X153.162Y-78.486
X153.162Y-80.264
X153.275Y-112.917
X153.275Y-126.15
X153.416Y-100.838
X153.5Y-95.8
X154.686Y-76.454
X154.686Y-78.486
X154.686Y-80.264
X154.94Y-113.538
X155.05Y-93.85
X155.2Y-107.8
X155.425Y-84.35
X155.448Y-101.854
X156.21Y-76.454
X156.21Y-78.486
X156.21Y-80.264
X156.375Y-117.275
X156.718Y-106.172
X157.55Y-120.75
X157.734Y-76.454
X157.734Y-78.486
X157.734Y-80.264
X158.1Y-105.025
X158.75Y-73.66
X160.675Y-127.15
X160.775Y-91.35
X160.782Y-88.392
X161.036Y-102.87
X161.65Y-121.55
X161.798Y-78.994
X163.125Y-91.875
X163.65Y-80.15
X164.338Y-65.024
X172.3Y-88.925
X172.45Y-94.6
X172.575Y-68.7
X172.725Y-121.825
X172.975Y-127.7
X172.975Y-129.975
X173.2Y-135.025
X173.325Y-100.2
X173.575Y-105.975
X173.99Y-77.978
X174.175Y-112.7
X174.4Y-128.05
X174.4Y-130.475
X174.525Y-69.375
X175.25Y-123.625
X175.35Y-82.825
X175.475Y-96.6
X176.45Y-114.85
X176.575Y-104.65
T2
X128.27Y-97.855
X128.27Y-100.355
X128.524Y-84.582
X128.524Y-87.082
X130.8Y-103.622
X130.8Y-106.162
X130.8Y-108.702
X130.8Y-111.242
X131.054Y-117.846
X131.054Y-120.386
X131.054Y-122.926
X131.054Y-125.466
X135.636Y-97.855
X135.636Y-100.355
X136.144Y-84.582
X136.144Y-87.082
X138.42Y-103.622
X138.42Y-106.162
X138.42Y-108.702
X138.42Y-111.242
X138.674Y-117.846
X138.674Y-120.386
X138.674Y-122.926
X138.674Y-125.466
X149.616Y-90.434
X149.616Y-92.974
X149.616Y-95.514
X149.616Y-98.054
X157.236Y-90.434
X157.236Y-92.974
X157.236Y-95.514
X157.236Y-98.054
T3
X120.142Y-69.337
X120.142Y-71.877
X120.142Y-77.973
X120.142Y-80.513
X120.142Y-83.053
X120.142Y-85.593
X120.142Y-88.133
X120.142Y-90.673
X120.142Y-93.213
X120.142Y-95.753
X120.147Y-100.833
X120.147Y-103.373
X120.147Y-105.913
X120.147Y-108.453
X120.147Y-110.993
X120.147Y-113.533
X120.147Y-116.073
X120.147Y-118.613
X120.147Y-121.153
X120.147Y-123.693
X120.147Y-126.233
X120.147Y-128.773
X120.147Y-131.313
X120.147Y-133.853
X120.147Y-136.393
X122.682Y-77.973
X122.682Y-80.513
X122.682Y-83.053
X122.682Y-85.593
X122.682Y-88.133
X122.682Y-90.673
X122.682Y-93.213
X122.682Y-95.753
X122.687Y-100.833
X122.687Y-103.373
X122.687Y-105.913
X122.687Y-108.453
X122.687Y-110.993
X122.687Y-113.533
X122.687Y-116.073
X122.687Y-118.613
X122.687Y-121.153
X122.687Y-123.693
X122.687Y-126.233
X122.687Y-128.773
X122.687Y-131.313
X122.687Y-133.853
X122.687Y-136.393
X135.133Y-68.834
X137.673Y-68.834
X139.77Y-135.875
X142.31Y-135.875
X143.779Y-68.834
X144.85Y-135.875
X146.319Y-68.834
X147.39Y-135.875
X148.859Y-68.834
X149.93Y-135.875
X152.47Y-135.875
X154.178Y-68.834
X155.01Y-135.875
X156.718Y-68.834
X157.55Y-135.875
X161.975Y-68.839
X161.975Y-71.379
X165.825Y-95.753
X165.825Y-98.293
X165.825Y-100.833
X165.825Y-103.373
X165.825Y-105.913
X165.825Y-108.453
X165.825Y-110.993
X165.825Y-113.533
X165.825Y-116.073
X165.825Y-118.613
X165.825Y-121.153
X165.825Y-123.693
X165.825Y-126.233
X165.825Y-128.773
X165.825Y-131.313
X165.825Y-133.853
X165.825Y-136.393
X165.832Y-68.58
X165.832Y-71.12
X165.832Y-73.66
X165.832Y-76.2
X165.832Y-78.74
X165.832Y-81.28
X165.832Y-83.82
X165.832Y-86.36
X165.832Y-88.9
X165.832Y-91.44
X168.365Y-95.753
X168.365Y-98.293
X168.365Y-100.833
X168.365Y-103.373
X168.365Y-105.913
X168.365Y-108.453
X168.365Y-110.993
X168.365Y-113.533
X168.365Y-116.073
X168.365Y-118.613
X168.365Y-121.153
X168.365Y-123.693
X168.365Y-126.233
X168.365Y-128.773
X168.365Y-131.313
X168.365Y-133.853
X168.365Y-136.393
X168.372Y-68.58
X168.372Y-71.12
X168.372Y-73.66
X168.372Y-76.2
X168.372Y-78.74
X168.372Y-81.28
X168.372Y-83.82
X168.372Y-86.36
X168.372Y-88.9
X168.372Y-91.44
T4
X129.54Y-93.243
X129.794Y-80.01
X132.08Y-93.243
X132.334Y-80.01
X134.62Y-93.243
X134.874Y-80.01
T5
X148.082Y-111.196
X148.082Y-113.736
X148.082Y-116.276
X160.782Y-111.196
X160.782Y-113.736
X160.782Y-116.276
T2
G00X151.892Y-123.926
M15
G01X151.892Y-123.926
M16
G05
G00X154.432Y-123.926
M15
G01X154.432Y-123.926
M16
G05
G00X156.972Y-123.926
M15
G01X156.972Y-123.926
M16
G05
T0
M30
