%TF.GenerationSoftware,KiCad,Pcbnew,(6.0.2-0)*%
%TF.CreationDate,2022-07-28T16:30:59+02:00*%
%TF.ProjectId,stepper_testbench,73746570-7065-4725-9f74-65737462656e,rev?*%
%TF.SameCoordinates,Original*%
%TF.FileFunction,Legend,Top*%
%TF.FilePolarity,Positive*%
%FSLAX46Y46*%
G04 Gerber Fmt 4.6, Leading zero omitted, Abs format (unit mm)*
G04 Created by KiCad (PCBNEW (6.0.2-0)) date 2022-07-28 16:30:59*
%MOMM*%
%LPD*%
G01*
G04 APERTURE LIST*
%ADD10C,0.150000*%
%ADD11C,0.225000*%
%ADD12C,0.120000*%
G04 APERTURE END LIST*
D10*
X168148095Y-49284000D02*
X168052857Y-49236380D01*
X167910000Y-49236380D01*
X167767142Y-49284000D01*
X167671904Y-49379238D01*
X167624285Y-49474476D01*
X167576666Y-49664952D01*
X167576666Y-49807809D01*
X167624285Y-49998285D01*
X167671904Y-50093523D01*
X167767142Y-50188761D01*
X167910000Y-50236380D01*
X168005238Y-50236380D01*
X168148095Y-50188761D01*
X168195714Y-50141142D01*
X168195714Y-49807809D01*
X168005238Y-49807809D01*
X168624285Y-50236380D02*
X168624285Y-49236380D01*
X169195714Y-50236380D01*
X169195714Y-49236380D01*
X169671904Y-50236380D02*
X169671904Y-49236380D01*
X169910000Y-49236380D01*
X170052857Y-49284000D01*
X170148095Y-49379238D01*
X170195714Y-49474476D01*
X170243333Y-49664952D01*
X170243333Y-49807809D01*
X170195714Y-49998285D01*
X170148095Y-50093523D01*
X170052857Y-50188761D01*
X169910000Y-50236380D01*
X169671904Y-50236380D01*
X148628047Y-49885428D02*
X149389952Y-49885428D01*
X149009000Y-50266380D02*
X149009000Y-49504476D01*
X142228047Y-50085428D02*
X142989952Y-50085428D01*
X142609000Y-50466380D02*
X142609000Y-49704476D01*
X169297380Y-111318238D02*
X169297380Y-111775380D01*
X169297380Y-111546809D02*
X168297380Y-111546809D01*
X168440238Y-111623000D01*
X168535476Y-111699190D01*
X168583095Y-111775380D01*
X168392619Y-111013476D02*
X168345000Y-110975380D01*
X168297380Y-110899190D01*
X168297380Y-110708714D01*
X168345000Y-110632523D01*
X168392619Y-110594428D01*
X168487857Y-110556333D01*
X168583095Y-110556333D01*
X168725952Y-110594428D01*
X169297380Y-111051571D01*
X169297380Y-110556333D01*
X168297380Y-110327761D02*
X169297380Y-110061095D01*
X168297380Y-109794428D01*
D11*
X149828476Y-40067714D02*
X149971333Y-40110571D01*
X150018952Y-40153428D01*
X150066571Y-40239142D01*
X150066571Y-40367714D01*
X150018952Y-40453428D01*
X149971333Y-40496285D01*
X149876095Y-40539142D01*
X149495142Y-40539142D01*
X149495142Y-39639142D01*
X149828476Y-39639142D01*
X149923714Y-39682000D01*
X149971333Y-39724857D01*
X150018952Y-39810571D01*
X150018952Y-39896285D01*
X149971333Y-39982000D01*
X149923714Y-40024857D01*
X149828476Y-40067714D01*
X149495142Y-40067714D01*
X151066571Y-40539142D02*
X150733238Y-40110571D01*
X150495142Y-40539142D02*
X150495142Y-39639142D01*
X150876095Y-39639142D01*
X150971333Y-39682000D01*
X151018952Y-39724857D01*
X151066571Y-39810571D01*
X151066571Y-39939142D01*
X151018952Y-40024857D01*
X150971333Y-40067714D01*
X150876095Y-40110571D01*
X150495142Y-40110571D01*
X151447523Y-40282000D02*
X151923714Y-40282000D01*
X151352285Y-40539142D02*
X151685619Y-39639142D01*
X152018952Y-40539142D01*
X152352285Y-40539142D02*
X152352285Y-39639142D01*
X152923714Y-40539142D02*
X152495142Y-40024857D01*
X152923714Y-39639142D02*
X152352285Y-40153428D01*
X153352285Y-40067714D02*
X153685619Y-40067714D01*
X153828476Y-40539142D02*
X153352285Y-40539142D01*
X153352285Y-39639142D01*
X153828476Y-39639142D01*
D10*
X173863380Y-49301904D02*
X173863380Y-48730476D01*
X174863380Y-49016190D02*
X173863380Y-49016190D01*
X173863380Y-48492380D02*
X174863380Y-47825714D01*
X173863380Y-47825714D02*
X174863380Y-48492380D01*
D11*
X131342571Y-40279785D02*
X131485428Y-40322642D01*
X131723523Y-40322642D01*
X131818761Y-40279785D01*
X131866380Y-40236928D01*
X131914000Y-40151214D01*
X131914000Y-40065500D01*
X131866380Y-39979785D01*
X131818761Y-39936928D01*
X131723523Y-39894071D01*
X131533047Y-39851214D01*
X131437809Y-39808357D01*
X131390190Y-39765500D01*
X131342571Y-39679785D01*
X131342571Y-39594071D01*
X131390190Y-39508357D01*
X131437809Y-39465500D01*
X131533047Y-39422642D01*
X131771142Y-39422642D01*
X131914000Y-39465500D01*
X132199714Y-39422642D02*
X132771142Y-39422642D01*
X132485428Y-40322642D02*
X132485428Y-39422642D01*
X133104476Y-39851214D02*
X133437809Y-39851214D01*
X133580666Y-40322642D02*
X133104476Y-40322642D01*
X133104476Y-39422642D01*
X133580666Y-39422642D01*
X134009238Y-40322642D02*
X134009238Y-39422642D01*
X134390190Y-39422642D01*
X134485428Y-39465500D01*
X134533047Y-39508357D01*
X134580666Y-39594071D01*
X134580666Y-39722642D01*
X134533047Y-39808357D01*
X134485428Y-39851214D01*
X134390190Y-39894071D01*
X134009238Y-39894071D01*
X135009238Y-40322642D02*
X135009238Y-39422642D01*
X135390190Y-39422642D01*
X135485428Y-39465500D01*
X135533047Y-39508357D01*
X135580666Y-39594071D01*
X135580666Y-39722642D01*
X135533047Y-39808357D01*
X135485428Y-39851214D01*
X135390190Y-39894071D01*
X135009238Y-39894071D01*
X136009238Y-39851214D02*
X136342571Y-39851214D01*
X136485428Y-40322642D02*
X136009238Y-40322642D01*
X136009238Y-39422642D01*
X136485428Y-39422642D01*
X137485428Y-40322642D02*
X137152095Y-39894071D01*
X136914000Y-40322642D02*
X136914000Y-39422642D01*
X137294952Y-39422642D01*
X137390190Y-39465500D01*
X137437809Y-39508357D01*
X137485428Y-39594071D01*
X137485428Y-39722642D01*
X137437809Y-39808357D01*
X137390190Y-39851214D01*
X137294952Y-39894071D01*
X136914000Y-39894071D01*
X138675904Y-40322642D02*
X138675904Y-39422642D01*
X138914000Y-39422642D01*
X139056857Y-39465500D01*
X139152095Y-39551214D01*
X139199714Y-39636928D01*
X139247333Y-39808357D01*
X139247333Y-39936928D01*
X139199714Y-40108357D01*
X139152095Y-40194071D01*
X139056857Y-40279785D01*
X138914000Y-40322642D01*
X138675904Y-40322642D01*
X140247333Y-40322642D02*
X139914000Y-39894071D01*
X139675904Y-40322642D02*
X139675904Y-39422642D01*
X140056857Y-39422642D01*
X140152095Y-39465500D01*
X140199714Y-39508357D01*
X140247333Y-39594071D01*
X140247333Y-39722642D01*
X140199714Y-39808357D01*
X140152095Y-39851214D01*
X140056857Y-39894071D01*
X139675904Y-39894071D01*
X140675904Y-40322642D02*
X140675904Y-39422642D01*
X141009238Y-39422642D02*
X141342571Y-40322642D01*
X141675904Y-39422642D01*
X142009238Y-39851214D02*
X142342571Y-39851214D01*
X142485428Y-40322642D02*
X142009238Y-40322642D01*
X142009238Y-39422642D01*
X142485428Y-39422642D01*
X143485428Y-40322642D02*
X143152095Y-39894071D01*
X142914000Y-40322642D02*
X142914000Y-39422642D01*
X143294952Y-39422642D01*
X143390190Y-39465500D01*
X143437809Y-39508357D01*
X143485428Y-39594071D01*
X143485428Y-39722642D01*
X143437809Y-39808357D01*
X143390190Y-39851214D01*
X143294952Y-39894071D01*
X142914000Y-39894071D01*
X134771142Y-41728785D02*
X134914000Y-41771642D01*
X135152095Y-41771642D01*
X135247333Y-41728785D01*
X135294952Y-41685928D01*
X135342571Y-41600214D01*
X135342571Y-41514500D01*
X135294952Y-41428785D01*
X135247333Y-41385928D01*
X135152095Y-41343071D01*
X134961619Y-41300214D01*
X134866380Y-41257357D01*
X134818761Y-41214500D01*
X134771142Y-41128785D01*
X134771142Y-41043071D01*
X134818761Y-40957357D01*
X134866380Y-40914500D01*
X134961619Y-40871642D01*
X135199714Y-40871642D01*
X135342571Y-40914500D01*
X135771142Y-40871642D02*
X135771142Y-41600214D01*
X135818761Y-41685928D01*
X135866380Y-41728785D01*
X135961619Y-41771642D01*
X136152095Y-41771642D01*
X136247333Y-41728785D01*
X136294952Y-41685928D01*
X136342571Y-41600214D01*
X136342571Y-40871642D01*
X136818761Y-41771642D02*
X136818761Y-40871642D01*
X137199714Y-40871642D01*
X137294952Y-40914500D01*
X137342571Y-40957357D01*
X137390190Y-41043071D01*
X137390190Y-41171642D01*
X137342571Y-41257357D01*
X137294952Y-41300214D01*
X137199714Y-41343071D01*
X136818761Y-41343071D01*
X137818761Y-41771642D02*
X137818761Y-40871642D01*
X138199714Y-40871642D01*
X138294952Y-40914500D01*
X138342571Y-40957357D01*
X138390190Y-41043071D01*
X138390190Y-41171642D01*
X138342571Y-41257357D01*
X138294952Y-41300214D01*
X138199714Y-41343071D01*
X137818761Y-41343071D01*
X139294952Y-41771642D02*
X138818761Y-41771642D01*
X138818761Y-40871642D01*
X139818761Y-41343071D02*
X139818761Y-41771642D01*
X139485428Y-40871642D02*
X139818761Y-41343071D01*
X140152095Y-40871642D01*
X174934761Y-42687142D02*
X174934761Y-43415714D01*
X174982380Y-43501428D01*
X175030000Y-43544285D01*
X175125238Y-43587142D01*
X175315714Y-43587142D01*
X175410952Y-43544285D01*
X175458571Y-43501428D01*
X175506190Y-43415714D01*
X175506190Y-42687142D01*
X175934761Y-43330000D02*
X176410952Y-43330000D01*
X175839523Y-43587142D02*
X176172857Y-42687142D01*
X176506190Y-43587142D01*
X177410952Y-43587142D02*
X177077619Y-43158571D01*
X176839523Y-43587142D02*
X176839523Y-42687142D01*
X177220476Y-42687142D01*
X177315714Y-42730000D01*
X177363333Y-42772857D01*
X177410952Y-42858571D01*
X177410952Y-42987142D01*
X177363333Y-43072857D01*
X177315714Y-43115714D01*
X177220476Y-43158571D01*
X176839523Y-43158571D01*
X177696666Y-42687142D02*
X178268095Y-42687142D01*
X177982380Y-43587142D02*
X177982380Y-42687142D01*
D10*
X152265238Y-62639380D02*
X152265238Y-61639380D01*
X152646190Y-61639380D01*
X152741428Y-61687000D01*
X152789047Y-61734619D01*
X152836666Y-61829857D01*
X152836666Y-61972714D01*
X152789047Y-62067952D01*
X152741428Y-62115571D01*
X152646190Y-62163190D01*
X152265238Y-62163190D01*
X153170000Y-61639380D02*
X153408095Y-62639380D01*
X153598571Y-61925095D01*
X153789047Y-62639380D01*
X154027142Y-61639380D01*
X154408095Y-62639380D02*
X154408095Y-61639380D01*
X154741428Y-62353666D01*
X155074761Y-61639380D01*
X155074761Y-62639380D01*
X151860476Y-63725571D02*
X152003333Y-63773190D01*
X152050952Y-63820809D01*
X152098571Y-63916047D01*
X152098571Y-64058904D01*
X152050952Y-64154142D01*
X152003333Y-64201761D01*
X151908095Y-64249380D01*
X151527142Y-64249380D01*
X151527142Y-63249380D01*
X151860476Y-63249380D01*
X151955714Y-63297000D01*
X152003333Y-63344619D01*
X152050952Y-63439857D01*
X152050952Y-63535095D01*
X152003333Y-63630333D01*
X151955714Y-63677952D01*
X151860476Y-63725571D01*
X151527142Y-63725571D01*
X153098571Y-64249380D02*
X152765238Y-63773190D01*
X152527142Y-64249380D02*
X152527142Y-63249380D01*
X152908095Y-63249380D01*
X153003333Y-63297000D01*
X153050952Y-63344619D01*
X153098571Y-63439857D01*
X153098571Y-63582714D01*
X153050952Y-63677952D01*
X153003333Y-63725571D01*
X152908095Y-63773190D01*
X152527142Y-63773190D01*
X153479523Y-63963666D02*
X153955714Y-63963666D01*
X153384285Y-64249380D02*
X153717619Y-63249380D01*
X154050952Y-64249380D01*
X154384285Y-64249380D02*
X154384285Y-63249380D01*
X154955714Y-64249380D02*
X154527142Y-63677952D01*
X154955714Y-63249380D02*
X154384285Y-63820809D01*
X155384285Y-63725571D02*
X155717619Y-63725571D01*
X155860476Y-64249380D02*
X155384285Y-64249380D01*
X155384285Y-63249380D01*
X155860476Y-63249380D01*
X154122380Y-111783714D02*
X153122380Y-111783714D01*
X154122380Y-111212285D01*
X153122380Y-111212285D01*
X154027142Y-110164666D02*
X154074761Y-110212285D01*
X154122380Y-110355142D01*
X154122380Y-110450380D01*
X154074761Y-110593238D01*
X153979523Y-110688476D01*
X153884285Y-110736095D01*
X153693809Y-110783714D01*
X153550952Y-110783714D01*
X153360476Y-110736095D01*
X153265238Y-110688476D01*
X153170000Y-110593238D01*
X153122380Y-110450380D01*
X153122380Y-110355142D01*
X153170000Y-110212285D01*
X153217619Y-110164666D01*
X157869238Y-53030380D02*
X157393047Y-53030380D01*
X157393047Y-52030380D01*
X158202571Y-52506571D02*
X158535904Y-52506571D01*
X158678761Y-53030380D02*
X158202571Y-53030380D01*
X158202571Y-52030380D01*
X158678761Y-52030380D01*
X159107333Y-53030380D02*
X159107333Y-52030380D01*
X159345428Y-52030380D01*
X159488285Y-52078000D01*
X159583523Y-52173238D01*
X159631142Y-52268476D01*
X159678761Y-52458952D01*
X159678761Y-52601809D01*
X159631142Y-52792285D01*
X159583523Y-52887523D01*
X159488285Y-52982761D01*
X159345428Y-53030380D01*
X159107333Y-53030380D01*
X159869238Y-53125619D02*
X160631142Y-53125619D01*
X160821619Y-52125619D02*
X160869238Y-52078000D01*
X160964476Y-52030380D01*
X161202571Y-52030380D01*
X161297809Y-52078000D01*
X161345428Y-52125619D01*
X161393047Y-52220857D01*
X161393047Y-52316095D01*
X161345428Y-52458952D01*
X160774000Y-53030380D01*
X161393047Y-53030380D01*
X162250190Y-52363714D02*
X162250190Y-53030380D01*
X162012095Y-51982761D02*
X161774000Y-52697047D01*
X162393047Y-52697047D01*
X162631142Y-52030380D02*
X162964476Y-53030380D01*
X163297809Y-52030380D01*
X158270000Y-111382523D02*
X158222380Y-111458714D01*
X158222380Y-111573000D01*
X158270000Y-111687285D01*
X158365238Y-111763476D01*
X158460476Y-111801571D01*
X158650952Y-111839666D01*
X158793809Y-111839666D01*
X158984285Y-111801571D01*
X159079523Y-111763476D01*
X159174761Y-111687285D01*
X159222380Y-111573000D01*
X159222380Y-111496809D01*
X159174761Y-111382523D01*
X159127142Y-111344428D01*
X158793809Y-111344428D01*
X158793809Y-111496809D01*
X159222380Y-111001571D02*
X158222380Y-111001571D01*
X159222380Y-110544428D01*
X158222380Y-110544428D01*
X159222380Y-110163476D02*
X158222380Y-110163476D01*
X158222380Y-109973000D01*
X158270000Y-109858714D01*
X158365238Y-109782523D01*
X158460476Y-109744428D01*
X158650952Y-109706333D01*
X158793809Y-109706333D01*
X158984285Y-109744428D01*
X159079523Y-109782523D01*
X159174761Y-109858714D01*
X159222380Y-109973000D01*
X159222380Y-110163476D01*
D11*
X161822380Y-40539142D02*
X161822380Y-39639142D01*
X162203333Y-39639142D01*
X162298571Y-39682000D01*
X162346190Y-39724857D01*
X162393809Y-39810571D01*
X162393809Y-39939142D01*
X162346190Y-40024857D01*
X162298571Y-40067714D01*
X162203333Y-40110571D01*
X161822380Y-40110571D01*
X162727142Y-39639142D02*
X162965238Y-40539142D01*
X163155714Y-39896285D01*
X163346190Y-40539142D01*
X163584285Y-39639142D01*
X164536666Y-40539142D02*
X164203333Y-40110571D01*
X163965238Y-40539142D02*
X163965238Y-39639142D01*
X164346190Y-39639142D01*
X164441428Y-39682000D01*
X164489047Y-39724857D01*
X164536666Y-39810571D01*
X164536666Y-39939142D01*
X164489047Y-40024857D01*
X164441428Y-40067714D01*
X164346190Y-40110571D01*
X163965238Y-40110571D01*
X165679523Y-40496285D02*
X165822380Y-40539142D01*
X166060476Y-40539142D01*
X166155714Y-40496285D01*
X166203333Y-40453428D01*
X166250952Y-40367714D01*
X166250952Y-40282000D01*
X166203333Y-40196285D01*
X166155714Y-40153428D01*
X166060476Y-40110571D01*
X165870000Y-40067714D01*
X165774761Y-40024857D01*
X165727142Y-39982000D01*
X165679523Y-39896285D01*
X165679523Y-39810571D01*
X165727142Y-39724857D01*
X165774761Y-39682000D01*
X165870000Y-39639142D01*
X166108095Y-39639142D01*
X166250952Y-39682000D01*
X166679523Y-39639142D02*
X166679523Y-40367714D01*
X166727142Y-40453428D01*
X166774761Y-40496285D01*
X166870000Y-40539142D01*
X167060476Y-40539142D01*
X167155714Y-40496285D01*
X167203333Y-40453428D01*
X167250952Y-40367714D01*
X167250952Y-39639142D01*
X167727142Y-40539142D02*
X167727142Y-39639142D01*
X168108095Y-39639142D01*
X168203333Y-39682000D01*
X168250952Y-39724857D01*
X168298571Y-39810571D01*
X168298571Y-39939142D01*
X168250952Y-40024857D01*
X168203333Y-40067714D01*
X168108095Y-40110571D01*
X167727142Y-40110571D01*
X168727142Y-40539142D02*
X168727142Y-39639142D01*
X169108095Y-39639142D01*
X169203333Y-39682000D01*
X169250952Y-39724857D01*
X169298571Y-39810571D01*
X169298571Y-39939142D01*
X169250952Y-40024857D01*
X169203333Y-40067714D01*
X169108095Y-40110571D01*
X168727142Y-40110571D01*
X170203333Y-40539142D02*
X169727142Y-40539142D01*
X169727142Y-39639142D01*
X170727142Y-40110571D02*
X170727142Y-40539142D01*
X170393809Y-39639142D02*
X170727142Y-40110571D01*
X171060476Y-39639142D01*
D10*
X128894761Y-89182571D02*
X128942380Y-89039714D01*
X128942380Y-88801619D01*
X128894761Y-88706380D01*
X128847142Y-88658761D01*
X128751904Y-88611142D01*
X128656666Y-88611142D01*
X128561428Y-88658761D01*
X128513809Y-88706380D01*
X128466190Y-88801619D01*
X128418571Y-88992095D01*
X128370952Y-89087333D01*
X128323333Y-89134952D01*
X128228095Y-89182571D01*
X128132857Y-89182571D01*
X128037619Y-89134952D01*
X127990000Y-89087333D01*
X127942380Y-88992095D01*
X127942380Y-88754000D01*
X127990000Y-88611142D01*
X127942380Y-88325428D02*
X127942380Y-87754000D01*
X128942380Y-88039714D02*
X127942380Y-88039714D01*
X128418571Y-87087333D02*
X128466190Y-86944476D01*
X128513809Y-86896857D01*
X128609047Y-86849238D01*
X128751904Y-86849238D01*
X128847142Y-86896857D01*
X128894761Y-86944476D01*
X128942380Y-87039714D01*
X128942380Y-87420666D01*
X127942380Y-87420666D01*
X127942380Y-87087333D01*
X127990000Y-86992095D01*
X128037619Y-86944476D01*
X128132857Y-86896857D01*
X128228095Y-86896857D01*
X128323333Y-86944476D01*
X128370952Y-86992095D01*
X128418571Y-87087333D01*
X128418571Y-87420666D01*
X128561428Y-85658761D02*
X128561428Y-84896857D01*
X128942380Y-83087333D02*
X128466190Y-83420666D01*
X128942380Y-83658761D02*
X127942380Y-83658761D01*
X127942380Y-83277809D01*
X127990000Y-83182571D01*
X128037619Y-83134952D01*
X128132857Y-83087333D01*
X128275714Y-83087333D01*
X128370952Y-83134952D01*
X128418571Y-83182571D01*
X128466190Y-83277809D01*
X128466190Y-83658761D01*
X128894761Y-82277809D02*
X128942380Y-82373047D01*
X128942380Y-82563523D01*
X128894761Y-82658761D01*
X128799523Y-82706380D01*
X128418571Y-82706380D01*
X128323333Y-82658761D01*
X128275714Y-82563523D01*
X128275714Y-82373047D01*
X128323333Y-82277809D01*
X128418571Y-82230190D01*
X128513809Y-82230190D01*
X128609047Y-82706380D01*
X128275714Y-81896857D02*
X128942380Y-81658761D01*
X128275714Y-81420666D01*
X127942380Y-80087333D02*
X127942380Y-79992095D01*
X127990000Y-79896857D01*
X128037619Y-79849238D01*
X128132857Y-79801619D01*
X128323333Y-79754000D01*
X128561428Y-79754000D01*
X128751904Y-79801619D01*
X128847142Y-79849238D01*
X128894761Y-79896857D01*
X128942380Y-79992095D01*
X128942380Y-80087333D01*
X128894761Y-80182571D01*
X128847142Y-80230190D01*
X128751904Y-80277809D01*
X128561428Y-80325428D01*
X128323333Y-80325428D01*
X128132857Y-80277809D01*
X128037619Y-80230190D01*
X127990000Y-80182571D01*
X127942380Y-80087333D01*
X128847142Y-79325428D02*
X128894761Y-79277809D01*
X128942380Y-79325428D01*
X128894761Y-79373047D01*
X128847142Y-79325428D01*
X128942380Y-79325428D01*
X128942380Y-78325428D02*
X128942380Y-78896857D01*
X128942380Y-78611142D02*
X127942380Y-78611142D01*
X128085238Y-78706380D01*
X128180476Y-78801619D01*
X128228095Y-78896857D01*
X130028571Y-98063523D02*
X130028571Y-97730190D01*
X130552380Y-97587333D02*
X130552380Y-98063523D01*
X129552380Y-98063523D01*
X129552380Y-97587333D01*
X130552380Y-97254000D02*
X129885714Y-96730190D01*
X129885714Y-97254000D02*
X130552380Y-96730190D01*
X129885714Y-96349238D02*
X130885714Y-96349238D01*
X129933333Y-96349238D02*
X129885714Y-96254000D01*
X129885714Y-96063523D01*
X129933333Y-95968285D01*
X129980952Y-95920666D01*
X130076190Y-95873047D01*
X130361904Y-95873047D01*
X130457142Y-95920666D01*
X130504761Y-95968285D01*
X130552380Y-96063523D01*
X130552380Y-96254000D01*
X130504761Y-96349238D01*
X130552380Y-95015904D02*
X130028571Y-95015904D01*
X129933333Y-95063523D01*
X129885714Y-95158761D01*
X129885714Y-95349238D01*
X129933333Y-95444476D01*
X130504761Y-95015904D02*
X130552380Y-95111142D01*
X130552380Y-95349238D01*
X130504761Y-95444476D01*
X130409523Y-95492095D01*
X130314285Y-95492095D01*
X130219047Y-95444476D01*
X130171428Y-95349238D01*
X130171428Y-95111142D01*
X130123809Y-95015904D01*
X129885714Y-94539714D02*
X130552380Y-94539714D01*
X129980952Y-94539714D02*
X129933333Y-94492095D01*
X129885714Y-94396857D01*
X129885714Y-94254000D01*
X129933333Y-94158761D01*
X130028571Y-94111142D01*
X130552380Y-94111142D01*
X130504761Y-93682571D02*
X130552380Y-93587333D01*
X130552380Y-93396857D01*
X130504761Y-93301619D01*
X130409523Y-93254000D01*
X130361904Y-93254000D01*
X130266666Y-93301619D01*
X130219047Y-93396857D01*
X130219047Y-93539714D01*
X130171428Y-93634952D01*
X130076190Y-93682571D01*
X130028571Y-93682571D01*
X129933333Y-93634952D01*
X129885714Y-93539714D01*
X129885714Y-93396857D01*
X129933333Y-93301619D01*
X130552380Y-92825428D02*
X129885714Y-92825428D01*
X129552380Y-92825428D02*
X129600000Y-92873047D01*
X129647619Y-92825428D01*
X129600000Y-92777809D01*
X129552380Y-92825428D01*
X129647619Y-92825428D01*
X130552380Y-92206380D02*
X130504761Y-92301619D01*
X130457142Y-92349238D01*
X130361904Y-92396857D01*
X130076190Y-92396857D01*
X129980952Y-92349238D01*
X129933333Y-92301619D01*
X129885714Y-92206380D01*
X129885714Y-92063523D01*
X129933333Y-91968285D01*
X129980952Y-91920666D01*
X130076190Y-91873047D01*
X130361904Y-91873047D01*
X130457142Y-91920666D01*
X130504761Y-91968285D01*
X130552380Y-92063523D01*
X130552380Y-92206380D01*
X129885714Y-91444476D02*
X130552380Y-91444476D01*
X129980952Y-91444476D02*
X129933333Y-91396857D01*
X129885714Y-91301619D01*
X129885714Y-91158761D01*
X129933333Y-91063523D01*
X130028571Y-91015904D01*
X130552380Y-91015904D01*
X130552380Y-89777809D02*
X129552380Y-89777809D01*
X129933333Y-89777809D02*
X129885714Y-89682571D01*
X129885714Y-89492095D01*
X129933333Y-89396857D01*
X129980952Y-89349238D01*
X130076190Y-89301619D01*
X130361904Y-89301619D01*
X130457142Y-89349238D01*
X130504761Y-89396857D01*
X130552380Y-89492095D01*
X130552380Y-89682571D01*
X130504761Y-89777809D01*
X130552380Y-88730190D02*
X130504761Y-88825428D01*
X130457142Y-88873047D01*
X130361904Y-88920666D01*
X130076190Y-88920666D01*
X129980952Y-88873047D01*
X129933333Y-88825428D01*
X129885714Y-88730190D01*
X129885714Y-88587333D01*
X129933333Y-88492095D01*
X129980952Y-88444476D01*
X130076190Y-88396857D01*
X130361904Y-88396857D01*
X130457142Y-88444476D01*
X130504761Y-88492095D01*
X130552380Y-88587333D01*
X130552380Y-88730190D01*
X130552380Y-87539714D02*
X130028571Y-87539714D01*
X129933333Y-87587333D01*
X129885714Y-87682571D01*
X129885714Y-87873047D01*
X129933333Y-87968285D01*
X130504761Y-87539714D02*
X130552380Y-87634952D01*
X130552380Y-87873047D01*
X130504761Y-87968285D01*
X130409523Y-88015904D01*
X130314285Y-88015904D01*
X130219047Y-87968285D01*
X130171428Y-87873047D01*
X130171428Y-87634952D01*
X130123809Y-87539714D01*
X130552380Y-87063523D02*
X129885714Y-87063523D01*
X130076190Y-87063523D02*
X129980952Y-87015904D01*
X129933333Y-86968285D01*
X129885714Y-86873047D01*
X129885714Y-86777809D01*
X130552380Y-86015904D02*
X129552380Y-86015904D01*
X130504761Y-86015904D02*
X130552380Y-86111142D01*
X130552380Y-86301619D01*
X130504761Y-86396857D01*
X130457142Y-86444476D01*
X130361904Y-86492095D01*
X130076190Y-86492095D01*
X129980952Y-86444476D01*
X129933333Y-86396857D01*
X129885714Y-86301619D01*
X129885714Y-86111142D01*
X129933333Y-86015904D01*
X129885714Y-84920666D02*
X129885714Y-84539714D01*
X130552380Y-84777809D02*
X129695238Y-84777809D01*
X129600000Y-84730190D01*
X129552380Y-84634952D01*
X129552380Y-84539714D01*
X130552380Y-84063523D02*
X130504761Y-84158761D01*
X130457142Y-84206380D01*
X130361904Y-84254000D01*
X130076190Y-84254000D01*
X129980952Y-84206380D01*
X129933333Y-84158761D01*
X129885714Y-84063523D01*
X129885714Y-83920666D01*
X129933333Y-83825428D01*
X129980952Y-83777809D01*
X130076190Y-83730190D01*
X130361904Y-83730190D01*
X130457142Y-83777809D01*
X130504761Y-83825428D01*
X130552380Y-83920666D01*
X130552380Y-84063523D01*
X130552380Y-83301619D02*
X129885714Y-83301619D01*
X130076190Y-83301619D02*
X129980952Y-83254000D01*
X129933333Y-83206380D01*
X129885714Y-83111142D01*
X129885714Y-83015904D01*
X130552380Y-81920666D02*
X129552380Y-81920666D01*
X130552380Y-81349238D01*
X129552380Y-81349238D01*
X129552380Y-80873047D02*
X130361904Y-80873047D01*
X130457142Y-80825428D01*
X130504761Y-80777809D01*
X130552380Y-80682571D01*
X130552380Y-80492095D01*
X130504761Y-80396857D01*
X130457142Y-80349238D01*
X130361904Y-80301619D01*
X129552380Y-80301619D01*
X130457142Y-79254000D02*
X130504761Y-79301619D01*
X130552380Y-79444476D01*
X130552380Y-79539714D01*
X130504761Y-79682571D01*
X130409523Y-79777809D01*
X130314285Y-79825428D01*
X130123809Y-79873047D01*
X129980952Y-79873047D01*
X129790476Y-79825428D01*
X129695238Y-79777809D01*
X129600000Y-79682571D01*
X129552380Y-79539714D01*
X129552380Y-79444476D01*
X129600000Y-79301619D01*
X129647619Y-79254000D01*
X130552380Y-78349238D02*
X130552380Y-78825428D01*
X129552380Y-78825428D01*
X130028571Y-78015904D02*
X130028571Y-77682571D01*
X130552380Y-77539714D02*
X130552380Y-78015904D01*
X129552380Y-78015904D01*
X129552380Y-77539714D01*
X129552380Y-76920666D02*
X129552380Y-76730190D01*
X129600000Y-76634952D01*
X129695238Y-76539714D01*
X129885714Y-76492095D01*
X130219047Y-76492095D01*
X130409523Y-76539714D01*
X130504761Y-76634952D01*
X130552380Y-76730190D01*
X130552380Y-76920666D01*
X130504761Y-77015904D01*
X130409523Y-77111142D01*
X130219047Y-77158761D01*
X129885714Y-77158761D01*
X129695238Y-77111142D01*
X129600000Y-77015904D01*
X129552380Y-76920666D01*
X130171428Y-76063523D02*
X130171428Y-75301619D01*
X130552380Y-74825428D02*
X129552380Y-74825428D01*
X130028571Y-74825428D02*
X130028571Y-74254000D01*
X130552380Y-74254000D02*
X129552380Y-74254000D01*
X129552380Y-73873047D02*
X129552380Y-73206380D01*
X130552380Y-73634952D01*
X129647619Y-72873047D02*
X129600000Y-72825428D01*
X129552380Y-72730190D01*
X129552380Y-72492095D01*
X129600000Y-72396857D01*
X129647619Y-72349238D01*
X129742857Y-72301619D01*
X129838095Y-72301619D01*
X129980952Y-72349238D01*
X130552380Y-72920666D01*
X130552380Y-72301619D01*
X129552380Y-71968285D02*
X129552380Y-71349238D01*
X129933333Y-71682571D01*
X129933333Y-71539714D01*
X129980952Y-71444476D01*
X130028571Y-71396857D01*
X130123809Y-71349238D01*
X130361904Y-71349238D01*
X130457142Y-71396857D01*
X130504761Y-71444476D01*
X130552380Y-71539714D01*
X130552380Y-71825428D01*
X130504761Y-71920666D01*
X130457142Y-71968285D01*
X129552380Y-71015904D02*
X129552380Y-70349238D01*
X130552380Y-71015904D01*
X130552380Y-70349238D01*
X129600000Y-69444476D02*
X129552380Y-69539714D01*
X129552380Y-69682571D01*
X129600000Y-69825428D01*
X129695238Y-69920666D01*
X129790476Y-69968285D01*
X129980952Y-70015904D01*
X130123809Y-70015904D01*
X130314285Y-69968285D01*
X130409523Y-69920666D01*
X130504761Y-69825428D01*
X130552380Y-69682571D01*
X130552380Y-69587333D01*
X130504761Y-69444476D01*
X130457142Y-69396857D01*
X130123809Y-69396857D01*
X130123809Y-69587333D01*
X165772380Y-111820619D02*
X165772380Y-111363476D01*
X166772380Y-111592047D02*
X165772380Y-111592047D01*
X166772380Y-110639666D02*
X166296190Y-110906333D01*
X166772380Y-111096809D02*
X165772380Y-111096809D01*
X165772380Y-110792047D01*
X165820000Y-110715857D01*
X165867619Y-110677761D01*
X165962857Y-110639666D01*
X166105714Y-110639666D01*
X166200952Y-110677761D01*
X166248571Y-110715857D01*
X166296190Y-110792047D01*
X166296190Y-111096809D01*
X166867619Y-109763476D02*
X166820000Y-109839666D01*
X166724761Y-109915857D01*
X166581904Y-110030142D01*
X166534285Y-110106333D01*
X166534285Y-110182523D01*
X166772380Y-110144428D02*
X166724761Y-110220619D01*
X166629523Y-110296809D01*
X166439047Y-110334904D01*
X166105714Y-110334904D01*
X165915238Y-110296809D01*
X165820000Y-110220619D01*
X165772380Y-110144428D01*
X165772380Y-109992047D01*
X165820000Y-109915857D01*
X165915238Y-109839666D01*
X166105714Y-109801571D01*
X166439047Y-109801571D01*
X166629523Y-109839666D01*
X166724761Y-109915857D01*
X166772380Y-109992047D01*
X166772380Y-110144428D01*
X157496095Y-62047428D02*
X158258000Y-62047428D01*
X157877047Y-62428380D02*
X157877047Y-61666476D01*
X159258000Y-62428380D02*
X158686571Y-62428380D01*
X158972285Y-62428380D02*
X158972285Y-61428380D01*
X158877047Y-61571238D01*
X158781809Y-61666476D01*
X158686571Y-61714095D01*
X159638952Y-61523619D02*
X159686571Y-61476000D01*
X159781809Y-61428380D01*
X160019904Y-61428380D01*
X160115142Y-61476000D01*
X160162761Y-61523619D01*
X160210380Y-61618857D01*
X160210380Y-61714095D01*
X160162761Y-61856952D01*
X159591333Y-62428380D01*
X160210380Y-62428380D01*
X160496095Y-61428380D02*
X160829428Y-62428380D01*
X161162761Y-61428380D01*
X163222380Y-111795619D02*
X163222380Y-111338476D01*
X164222380Y-111567047D02*
X163222380Y-111567047D01*
X164222380Y-110614666D02*
X163746190Y-110881333D01*
X164222380Y-111071809D02*
X163222380Y-111071809D01*
X163222380Y-110767047D01*
X163270000Y-110690857D01*
X163317619Y-110652761D01*
X163412857Y-110614666D01*
X163555714Y-110614666D01*
X163650952Y-110652761D01*
X163698571Y-110690857D01*
X163746190Y-110767047D01*
X163746190Y-111071809D01*
X164317619Y-109738476D02*
X164270000Y-109814666D01*
X164174761Y-109890857D01*
X164031904Y-110005142D01*
X163984285Y-110081333D01*
X163984285Y-110157523D01*
X164222380Y-110119428D02*
X164174761Y-110195619D01*
X164079523Y-110271809D01*
X163889047Y-110309904D01*
X163555714Y-110309904D01*
X163365238Y-110271809D01*
X163270000Y-110195619D01*
X163222380Y-110119428D01*
X163222380Y-109967047D01*
X163270000Y-109890857D01*
X163365238Y-109814666D01*
X163555714Y-109776571D01*
X163889047Y-109776571D01*
X164079523Y-109814666D01*
X164174761Y-109890857D01*
X164222380Y-109967047D01*
X164222380Y-110119428D01*
D11*
X154612857Y-116130142D02*
X155184285Y-116130142D01*
X154898571Y-117030142D02*
X154898571Y-116130142D01*
X155708095Y-116130142D02*
X155898571Y-116130142D01*
X155993809Y-116173000D01*
X156089047Y-116258714D01*
X156136666Y-116430142D01*
X156136666Y-116730142D01*
X156089047Y-116901571D01*
X155993809Y-116987285D01*
X155898571Y-117030142D01*
X155708095Y-117030142D01*
X155612857Y-116987285D01*
X155517619Y-116901571D01*
X155470000Y-116730142D01*
X155470000Y-116430142D01*
X155517619Y-116258714D01*
X155612857Y-116173000D01*
X155708095Y-116130142D01*
X157136666Y-117030142D02*
X156803333Y-116601571D01*
X156565238Y-117030142D02*
X156565238Y-116130142D01*
X156946190Y-116130142D01*
X157041428Y-116173000D01*
X157089047Y-116215857D01*
X157136666Y-116301571D01*
X157136666Y-116430142D01*
X157089047Y-116515857D01*
X157041428Y-116558714D01*
X156946190Y-116601571D01*
X156565238Y-116601571D01*
X158231904Y-117115857D02*
X158136666Y-117073000D01*
X158041428Y-116987285D01*
X157898571Y-116858714D01*
X157803333Y-116815857D01*
X157708095Y-116815857D01*
X157755714Y-117030142D02*
X157660476Y-116987285D01*
X157565238Y-116901571D01*
X157517619Y-116730142D01*
X157517619Y-116430142D01*
X157565238Y-116258714D01*
X157660476Y-116173000D01*
X157755714Y-116130142D01*
X157946190Y-116130142D01*
X158041428Y-116173000D01*
X158136666Y-116258714D01*
X158184285Y-116430142D01*
X158184285Y-116730142D01*
X158136666Y-116901571D01*
X158041428Y-116987285D01*
X157946190Y-117030142D01*
X157755714Y-117030142D01*
X158612857Y-116130142D02*
X158612857Y-116858714D01*
X158660476Y-116944428D01*
X158708095Y-116987285D01*
X158803333Y-117030142D01*
X158993809Y-117030142D01*
X159089047Y-116987285D01*
X159136666Y-116944428D01*
X159184285Y-116858714D01*
X159184285Y-116130142D01*
X159660476Y-116558714D02*
X159993809Y-116558714D01*
X160136666Y-117030142D02*
X159660476Y-117030142D01*
X159660476Y-116130142D01*
X160136666Y-116130142D01*
X161184285Y-116130142D02*
X161755714Y-116130142D01*
X161470000Y-117030142D02*
X161470000Y-116130142D01*
X162660476Y-117030142D02*
X162327142Y-116601571D01*
X162089047Y-117030142D02*
X162089047Y-116130142D01*
X162470000Y-116130142D01*
X162565238Y-116173000D01*
X162612857Y-116215857D01*
X162660476Y-116301571D01*
X162660476Y-116430142D01*
X162612857Y-116515857D01*
X162565238Y-116558714D01*
X162470000Y-116601571D01*
X162089047Y-116601571D01*
X163041428Y-116773000D02*
X163517619Y-116773000D01*
X162946190Y-117030142D02*
X163279523Y-116130142D01*
X163612857Y-117030142D01*
X163946190Y-117030142D02*
X163946190Y-116130142D01*
X164517619Y-117030142D01*
X164517619Y-116130142D01*
X164946190Y-116987285D02*
X165089047Y-117030142D01*
X165327142Y-117030142D01*
X165422380Y-116987285D01*
X165470000Y-116944428D01*
X165517619Y-116858714D01*
X165517619Y-116773000D01*
X165470000Y-116687285D01*
X165422380Y-116644428D01*
X165327142Y-116601571D01*
X165136666Y-116558714D01*
X165041428Y-116515857D01*
X164993809Y-116473000D01*
X164946190Y-116387285D01*
X164946190Y-116301571D01*
X164993809Y-116215857D01*
X165041428Y-116173000D01*
X165136666Y-116130142D01*
X165374761Y-116130142D01*
X165517619Y-116173000D01*
X165946190Y-117030142D02*
X165946190Y-116130142D01*
X166184285Y-116130142D01*
X166327142Y-116173000D01*
X166422380Y-116258714D01*
X166470000Y-116344428D01*
X166517619Y-116515857D01*
X166517619Y-116644428D01*
X166470000Y-116815857D01*
X166422380Y-116901571D01*
X166327142Y-116987285D01*
X166184285Y-117030142D01*
X165946190Y-117030142D01*
X166946190Y-116130142D02*
X166946190Y-116858714D01*
X166993809Y-116944428D01*
X167041428Y-116987285D01*
X167136666Y-117030142D01*
X167327142Y-117030142D01*
X167422380Y-116987285D01*
X167470000Y-116944428D01*
X167517619Y-116858714D01*
X167517619Y-116130142D01*
X168565238Y-116944428D02*
X168517619Y-116987285D01*
X168374761Y-117030142D01*
X168279523Y-117030142D01*
X168136666Y-116987285D01*
X168041428Y-116901571D01*
X167993809Y-116815857D01*
X167946190Y-116644428D01*
X167946190Y-116515857D01*
X167993809Y-116344428D01*
X168041428Y-116258714D01*
X168136666Y-116173000D01*
X168279523Y-116130142D01*
X168374761Y-116130142D01*
X168517619Y-116173000D01*
X168565238Y-116215857D01*
X168993809Y-116558714D02*
X169327142Y-116558714D01*
X169470000Y-117030142D02*
X168993809Y-117030142D01*
X168993809Y-116130142D01*
X169470000Y-116130142D01*
X170470000Y-117030142D02*
X170136666Y-116601571D01*
X169898571Y-117030142D02*
X169898571Y-116130142D01*
X170279523Y-116130142D01*
X170374761Y-116173000D01*
X170422380Y-116215857D01*
X170470000Y-116301571D01*
X170470000Y-116430142D01*
X170422380Y-116515857D01*
X170374761Y-116558714D01*
X170279523Y-116601571D01*
X169898571Y-116601571D01*
D10*
X157837428Y-69794380D02*
X157361238Y-69794380D01*
X157361238Y-68794380D01*
X158170761Y-69270571D02*
X158504095Y-69270571D01*
X158646952Y-69794380D02*
X158170761Y-69794380D01*
X158170761Y-68794380D01*
X158646952Y-68794380D01*
X159075523Y-69794380D02*
X159075523Y-68794380D01*
X159313619Y-68794380D01*
X159456476Y-68842000D01*
X159551714Y-68937238D01*
X159599333Y-69032476D01*
X159646952Y-69222952D01*
X159646952Y-69365809D01*
X159599333Y-69556285D01*
X159551714Y-69651523D01*
X159456476Y-69746761D01*
X159313619Y-69794380D01*
X159075523Y-69794380D01*
X159837428Y-69889619D02*
X160599333Y-69889619D01*
X161313619Y-68794380D02*
X160837428Y-68794380D01*
X160789809Y-69270571D01*
X160837428Y-69222952D01*
X160932666Y-69175333D01*
X161170761Y-69175333D01*
X161266000Y-69222952D01*
X161313619Y-69270571D01*
X161361238Y-69365809D01*
X161361238Y-69603904D01*
X161313619Y-69699142D01*
X161266000Y-69746761D01*
X161170761Y-69794380D01*
X160932666Y-69794380D01*
X160837428Y-69746761D01*
X160789809Y-69699142D01*
X161646952Y-68794380D02*
X161980285Y-69794380D01*
X162313619Y-68794380D01*
X142128047Y-44710428D02*
X142889952Y-44710428D01*
X182880095Y-40140000D02*
X182784857Y-40092380D01*
X182642000Y-40092380D01*
X182499142Y-40140000D01*
X182403904Y-40235238D01*
X182356285Y-40330476D01*
X182308666Y-40520952D01*
X182308666Y-40663809D01*
X182356285Y-40854285D01*
X182403904Y-40949523D01*
X182499142Y-41044761D01*
X182642000Y-41092380D01*
X182737238Y-41092380D01*
X182880095Y-41044761D01*
X182927714Y-40997142D01*
X182927714Y-40663809D01*
X182737238Y-40663809D01*
X183356285Y-41092380D02*
X183356285Y-40092380D01*
X183927714Y-41092380D01*
X183927714Y-40092380D01*
X184403904Y-41092380D02*
X184403904Y-40092380D01*
X184642000Y-40092380D01*
X184784857Y-40140000D01*
X184880095Y-40235238D01*
X184927714Y-40330476D01*
X184975333Y-40520952D01*
X184975333Y-40663809D01*
X184927714Y-40854285D01*
X184880095Y-40949523D01*
X184784857Y-41044761D01*
X184642000Y-41092380D01*
X184403904Y-41092380D01*
X143634000Y-109341380D02*
X143157809Y-109341380D01*
X143157809Y-108341380D01*
X143967333Y-108817571D02*
X144300666Y-108817571D01*
X144443523Y-109341380D02*
X143967333Y-109341380D01*
X143967333Y-108341380D01*
X144443523Y-108341380D01*
X144872095Y-109341380D02*
X144872095Y-108341380D01*
X145110190Y-108341380D01*
X145253047Y-108389000D01*
X145348285Y-108484238D01*
X145395904Y-108579476D01*
X145443523Y-108769952D01*
X145443523Y-108912809D01*
X145395904Y-109103285D01*
X145348285Y-109198523D01*
X145253047Y-109293761D01*
X145110190Y-109341380D01*
X144872095Y-109341380D01*
X145634000Y-109436619D02*
X146395904Y-109436619D01*
X147157809Y-109341380D02*
X146586380Y-109341380D01*
X146872095Y-109341380D02*
X146872095Y-108341380D01*
X146776857Y-108484238D01*
X146681619Y-108579476D01*
X146586380Y-108627095D01*
X171872380Y-111343238D02*
X171872380Y-111800380D01*
X171872380Y-111571809D02*
X170872380Y-111571809D01*
X171015238Y-111648000D01*
X171110476Y-111724190D01*
X171158095Y-111800380D01*
X170967619Y-111038476D02*
X170920000Y-111000380D01*
X170872380Y-110924190D01*
X170872380Y-110733714D01*
X170920000Y-110657523D01*
X170967619Y-110619428D01*
X171062857Y-110581333D01*
X171158095Y-110581333D01*
X171300952Y-110619428D01*
X171872380Y-111076571D01*
X171872380Y-110581333D01*
X170872380Y-110352761D02*
X171872380Y-110086095D01*
X170872380Y-109819428D01*
X143584000Y-113416380D02*
X143107809Y-113416380D01*
X143107809Y-112416380D01*
X143917333Y-112892571D02*
X144250666Y-112892571D01*
X144393523Y-113416380D02*
X143917333Y-113416380D01*
X143917333Y-112416380D01*
X144393523Y-112416380D01*
X144822095Y-113416380D02*
X144822095Y-112416380D01*
X145060190Y-112416380D01*
X145203047Y-112464000D01*
X145298285Y-112559238D01*
X145345904Y-112654476D01*
X145393523Y-112844952D01*
X145393523Y-112987809D01*
X145345904Y-113178285D01*
X145298285Y-113273523D01*
X145203047Y-113368761D01*
X145060190Y-113416380D01*
X144822095Y-113416380D01*
X145584000Y-113511619D02*
X146345904Y-113511619D01*
X146536380Y-112511619D02*
X146584000Y-112464000D01*
X146679238Y-112416380D01*
X146917333Y-112416380D01*
X147012571Y-112464000D01*
X147060190Y-112511619D01*
X147107809Y-112606857D01*
X147107809Y-112702095D01*
X147060190Y-112844952D01*
X146488761Y-113416380D01*
X147107809Y-113416380D01*
X160820000Y-111382523D02*
X160772380Y-111458714D01*
X160772380Y-111573000D01*
X160820000Y-111687285D01*
X160915238Y-111763476D01*
X161010476Y-111801571D01*
X161200952Y-111839666D01*
X161343809Y-111839666D01*
X161534285Y-111801571D01*
X161629523Y-111763476D01*
X161724761Y-111687285D01*
X161772380Y-111573000D01*
X161772380Y-111496809D01*
X161724761Y-111382523D01*
X161677142Y-111344428D01*
X161343809Y-111344428D01*
X161343809Y-111496809D01*
X161772380Y-111001571D02*
X160772380Y-111001571D01*
X161772380Y-110544428D01*
X160772380Y-110544428D01*
X161772380Y-110163476D02*
X160772380Y-110163476D01*
X160772380Y-109973000D01*
X160820000Y-109858714D01*
X160915238Y-109782523D01*
X161010476Y-109744428D01*
X161200952Y-109706333D01*
X161343809Y-109706333D01*
X161534285Y-109744428D01*
X161629523Y-109782523D01*
X161724761Y-109858714D01*
X161772380Y-109973000D01*
X161772380Y-110163476D01*
X156547380Y-111808714D02*
X155547380Y-111808714D01*
X156547380Y-111237285D01*
X155547380Y-111237285D01*
X156452142Y-110189666D02*
X156499761Y-110237285D01*
X156547380Y-110380142D01*
X156547380Y-110475380D01*
X156499761Y-110618238D01*
X156404523Y-110713476D01*
X156309285Y-110761095D01*
X156118809Y-110808714D01*
X155975952Y-110808714D01*
X155785476Y-110761095D01*
X155690238Y-110713476D01*
X155595000Y-110618238D01*
X155547380Y-110475380D01*
X155547380Y-110380142D01*
X155595000Y-110237285D01*
X155642619Y-110189666D01*
X174913380Y-46131666D02*
X174437190Y-46465000D01*
X174913380Y-46703095D02*
X173913380Y-46703095D01*
X173913380Y-46322142D01*
X173961000Y-46226904D01*
X174008619Y-46179285D01*
X174103857Y-46131666D01*
X174246714Y-46131666D01*
X174341952Y-46179285D01*
X174389571Y-46226904D01*
X174437190Y-46322142D01*
X174437190Y-46703095D01*
X173913380Y-45798333D02*
X174913380Y-45131666D01*
X173913380Y-45131666D02*
X174913380Y-45798333D01*
X162480761Y-49236380D02*
X162814095Y-50236380D01*
X163147428Y-49236380D01*
X163480761Y-50236380D02*
X163480761Y-49236380D01*
X163956952Y-50236380D02*
X163956952Y-49236380D01*
X164528380Y-50236380D01*
X164528380Y-49236380D01*
X153797047Y-49855428D02*
X154558952Y-49855428D01*
X173466476Y-116038380D02*
X174037904Y-116038380D01*
X173752190Y-117038380D02*
X173752190Y-116038380D01*
X174561714Y-116038380D02*
X174752190Y-116038380D01*
X174847428Y-116086000D01*
X174942666Y-116181238D01*
X174990285Y-116371714D01*
X174990285Y-116705047D01*
X174942666Y-116895523D01*
X174847428Y-116990761D01*
X174752190Y-117038380D01*
X174561714Y-117038380D01*
X174466476Y-116990761D01*
X174371238Y-116895523D01*
X174323619Y-116705047D01*
X174323619Y-116371714D01*
X174371238Y-116181238D01*
X174466476Y-116086000D01*
X174561714Y-116038380D01*
X175990285Y-117038380D02*
X175656952Y-116562190D01*
X175418857Y-117038380D02*
X175418857Y-116038380D01*
X175799809Y-116038380D01*
X175895047Y-116086000D01*
X175942666Y-116133619D01*
X175990285Y-116228857D01*
X175990285Y-116371714D01*
X175942666Y-116466952D01*
X175895047Y-116514571D01*
X175799809Y-116562190D01*
X175418857Y-116562190D01*
X177085523Y-117133619D02*
X176990285Y-117086000D01*
X176895047Y-116990761D01*
X176752190Y-116847904D01*
X176656952Y-116800285D01*
X176561714Y-116800285D01*
X176609333Y-117038380D02*
X176514095Y-116990761D01*
X176418857Y-116895523D01*
X176371238Y-116705047D01*
X176371238Y-116371714D01*
X176418857Y-116181238D01*
X176514095Y-116086000D01*
X176609333Y-116038380D01*
X176799809Y-116038380D01*
X176895047Y-116086000D01*
X176990285Y-116181238D01*
X177037904Y-116371714D01*
X177037904Y-116705047D01*
X176990285Y-116895523D01*
X176895047Y-116990761D01*
X176799809Y-117038380D01*
X176609333Y-117038380D01*
X177466476Y-116038380D02*
X177466476Y-116847904D01*
X177514095Y-116943142D01*
X177561714Y-116990761D01*
X177656952Y-117038380D01*
X177847428Y-117038380D01*
X177942666Y-116990761D01*
X177990285Y-116943142D01*
X178037904Y-116847904D01*
X178037904Y-116038380D01*
X178514095Y-116514571D02*
X178847428Y-116514571D01*
X178990285Y-117038380D02*
X178514095Y-117038380D01*
X178514095Y-116038380D01*
X178990285Y-116038380D01*
%TO.C,C13*%
X165473142Y-61571142D02*
X165425523Y-61618761D01*
X165282666Y-61666380D01*
X165187428Y-61666380D01*
X165044571Y-61618761D01*
X164949333Y-61523523D01*
X164901714Y-61428285D01*
X164854095Y-61237809D01*
X164854095Y-61094952D01*
X164901714Y-60904476D01*
X164949333Y-60809238D01*
X165044571Y-60714000D01*
X165187428Y-60666380D01*
X165282666Y-60666380D01*
X165425523Y-60714000D01*
X165473142Y-60761619D01*
X166425523Y-61666380D02*
X165854095Y-61666380D01*
X166139809Y-61666380D02*
X166139809Y-60666380D01*
X166044571Y-60809238D01*
X165949333Y-60904476D01*
X165854095Y-60952095D01*
X166758857Y-60666380D02*
X167377904Y-60666380D01*
X167044571Y-61047333D01*
X167187428Y-61047333D01*
X167282666Y-61094952D01*
X167330285Y-61142571D01*
X167377904Y-61237809D01*
X167377904Y-61475904D01*
X167330285Y-61571142D01*
X167282666Y-61618761D01*
X167187428Y-61666380D01*
X166901714Y-61666380D01*
X166806476Y-61618761D01*
X166758857Y-61571142D01*
%TO.C,J5*%
X176450666Y-51014380D02*
X176450666Y-51728666D01*
X176403047Y-51871523D01*
X176307809Y-51966761D01*
X176164952Y-52014380D01*
X176069714Y-52014380D01*
X177403047Y-51014380D02*
X176926857Y-51014380D01*
X176879238Y-51490571D01*
X176926857Y-51442952D01*
X177022095Y-51395333D01*
X177260190Y-51395333D01*
X177355428Y-51442952D01*
X177403047Y-51490571D01*
X177450666Y-51585809D01*
X177450666Y-51823904D01*
X177403047Y-51919142D01*
X177355428Y-51966761D01*
X177260190Y-52014380D01*
X177022095Y-52014380D01*
X176926857Y-51966761D01*
X176879238Y-51919142D01*
%TO.C,U3*%
X166878095Y-107656380D02*
X166878095Y-108465904D01*
X166925714Y-108561142D01*
X166973333Y-108608761D01*
X167068571Y-108656380D01*
X167259047Y-108656380D01*
X167354285Y-108608761D01*
X167401904Y-108561142D01*
X167449523Y-108465904D01*
X167449523Y-107656380D01*
X167830476Y-107656380D02*
X168449523Y-107656380D01*
X168116190Y-108037333D01*
X168259047Y-108037333D01*
X168354285Y-108084952D01*
X168401904Y-108132571D01*
X168449523Y-108227809D01*
X168449523Y-108465904D01*
X168401904Y-108561142D01*
X168354285Y-108608761D01*
X168259047Y-108656380D01*
X167973333Y-108656380D01*
X167878095Y-108608761D01*
X167830476Y-108561142D01*
%TO.C,U6*%
X175006095Y-69302380D02*
X175006095Y-70111904D01*
X175053714Y-70207142D01*
X175101333Y-70254761D01*
X175196571Y-70302380D01*
X175387047Y-70302380D01*
X175482285Y-70254761D01*
X175529904Y-70207142D01*
X175577523Y-70111904D01*
X175577523Y-69302380D01*
X176482285Y-69302380D02*
X176291809Y-69302380D01*
X176196571Y-69350000D01*
X176148952Y-69397619D01*
X176053714Y-69540476D01*
X176006095Y-69730952D01*
X176006095Y-70111904D01*
X176053714Y-70207142D01*
X176101333Y-70254761D01*
X176196571Y-70302380D01*
X176387047Y-70302380D01*
X176482285Y-70254761D01*
X176529904Y-70207142D01*
X176577523Y-70111904D01*
X176577523Y-69873809D01*
X176529904Y-69778571D01*
X176482285Y-69730952D01*
X176387047Y-69683333D01*
X176196571Y-69683333D01*
X176101333Y-69730952D01*
X176053714Y-69778571D01*
X176006095Y-69873809D01*
%TO.C,J4*%
X159686666Y-41108380D02*
X159686666Y-41822666D01*
X159639047Y-41965523D01*
X159543809Y-42060761D01*
X159400952Y-42108380D01*
X159305714Y-42108380D01*
X160591428Y-41441714D02*
X160591428Y-42108380D01*
X160353333Y-41060761D02*
X160115238Y-41775047D01*
X160734285Y-41775047D01*
%TO.C,TP3*%
X158250095Y-59904380D02*
X158821523Y-59904380D01*
X158535809Y-60904380D02*
X158535809Y-59904380D01*
X159154857Y-60904380D02*
X159154857Y-59904380D01*
X159535809Y-59904380D01*
X159631047Y-59952000D01*
X159678666Y-59999619D01*
X159726285Y-60094857D01*
X159726285Y-60237714D01*
X159678666Y-60332952D01*
X159631047Y-60380571D01*
X159535809Y-60428190D01*
X159154857Y-60428190D01*
X160059619Y-59904380D02*
X160678666Y-59904380D01*
X160345333Y-60285333D01*
X160488190Y-60285333D01*
X160583428Y-60332952D01*
X160631047Y-60380571D01*
X160678666Y-60475809D01*
X160678666Y-60713904D01*
X160631047Y-60809142D01*
X160583428Y-60856761D01*
X160488190Y-60904380D01*
X160202476Y-60904380D01*
X160107238Y-60856761D01*
X160059619Y-60809142D01*
%TO.C,C14*%
X165219142Y-75033142D02*
X165171523Y-75080761D01*
X165028666Y-75128380D01*
X164933428Y-75128380D01*
X164790571Y-75080761D01*
X164695333Y-74985523D01*
X164647714Y-74890285D01*
X164600095Y-74699809D01*
X164600095Y-74556952D01*
X164647714Y-74366476D01*
X164695333Y-74271238D01*
X164790571Y-74176000D01*
X164933428Y-74128380D01*
X165028666Y-74128380D01*
X165171523Y-74176000D01*
X165219142Y-74223619D01*
X166171523Y-75128380D02*
X165600095Y-75128380D01*
X165885809Y-75128380D02*
X165885809Y-74128380D01*
X165790571Y-74271238D01*
X165695333Y-74366476D01*
X165600095Y-74414095D01*
X167028666Y-74461714D02*
X167028666Y-75128380D01*
X166790571Y-74080761D02*
X166552476Y-74795047D01*
X167171523Y-74795047D01*
%TO.C,J2*%
X150542666Y-115530380D02*
X150542666Y-116244666D01*
X150495047Y-116387523D01*
X150399809Y-116482761D01*
X150256952Y-116530380D01*
X150161714Y-116530380D01*
X150971238Y-115625619D02*
X151018857Y-115578000D01*
X151114095Y-115530380D01*
X151352190Y-115530380D01*
X151447428Y-115578000D01*
X151495047Y-115625619D01*
X151542666Y-115720857D01*
X151542666Y-115816095D01*
X151495047Y-115958952D01*
X150923619Y-116530380D01*
X151542666Y-116530380D01*
%TO.C,TP2*%
X175014095Y-114514380D02*
X175585523Y-114514380D01*
X175299809Y-115514380D02*
X175299809Y-114514380D01*
X175918857Y-115514380D02*
X175918857Y-114514380D01*
X176299809Y-114514380D01*
X176395047Y-114562000D01*
X176442666Y-114609619D01*
X176490285Y-114704857D01*
X176490285Y-114847714D01*
X176442666Y-114942952D01*
X176395047Y-114990571D01*
X176299809Y-115038190D01*
X175918857Y-115038190D01*
X176871238Y-114609619D02*
X176918857Y-114562000D01*
X177014095Y-114514380D01*
X177252190Y-114514380D01*
X177347428Y-114562000D01*
X177395047Y-114609619D01*
X177442666Y-114704857D01*
X177442666Y-114800095D01*
X177395047Y-114942952D01*
X176823619Y-115514380D01*
X177442666Y-115514380D01*
%TO.C,D6*%
X160976904Y-71831380D02*
X160976904Y-70831380D01*
X161215000Y-70831380D01*
X161357857Y-70879000D01*
X161453095Y-70974238D01*
X161500714Y-71069476D01*
X161548333Y-71259952D01*
X161548333Y-71402809D01*
X161500714Y-71593285D01*
X161453095Y-71688523D01*
X161357857Y-71783761D01*
X161215000Y-71831380D01*
X160976904Y-71831380D01*
X162405476Y-70831380D02*
X162215000Y-70831380D01*
X162119761Y-70879000D01*
X162072142Y-70926619D01*
X161976904Y-71069476D01*
X161929285Y-71259952D01*
X161929285Y-71640904D01*
X161976904Y-71736142D01*
X162024523Y-71783761D01*
X162119761Y-71831380D01*
X162310238Y-71831380D01*
X162405476Y-71783761D01*
X162453095Y-71736142D01*
X162500714Y-71640904D01*
X162500714Y-71402809D01*
X162453095Y-71307571D01*
X162405476Y-71259952D01*
X162310238Y-71212333D01*
X162119761Y-71212333D01*
X162024523Y-71259952D01*
X161976904Y-71307571D01*
X161929285Y-71402809D01*
%TO.C,D8*%
X141726904Y-115066380D02*
X141726904Y-114066380D01*
X141965000Y-114066380D01*
X142107857Y-114114000D01*
X142203095Y-114209238D01*
X142250714Y-114304476D01*
X142298333Y-114494952D01*
X142298333Y-114637809D01*
X142250714Y-114828285D01*
X142203095Y-114923523D01*
X142107857Y-115018761D01*
X141965000Y-115066380D01*
X141726904Y-115066380D01*
X142869761Y-114494952D02*
X142774523Y-114447333D01*
X142726904Y-114399714D01*
X142679285Y-114304476D01*
X142679285Y-114256857D01*
X142726904Y-114161619D01*
X142774523Y-114114000D01*
X142869761Y-114066380D01*
X143060238Y-114066380D01*
X143155476Y-114114000D01*
X143203095Y-114161619D01*
X143250714Y-114256857D01*
X143250714Y-114304476D01*
X143203095Y-114399714D01*
X143155476Y-114447333D01*
X143060238Y-114494952D01*
X142869761Y-114494952D01*
X142774523Y-114542571D01*
X142726904Y-114590190D01*
X142679285Y-114685428D01*
X142679285Y-114875904D01*
X142726904Y-114971142D01*
X142774523Y-115018761D01*
X142869761Y-115066380D01*
X143060238Y-115066380D01*
X143155476Y-115018761D01*
X143203095Y-114971142D01*
X143250714Y-114875904D01*
X143250714Y-114685428D01*
X143203095Y-114590190D01*
X143155476Y-114542571D01*
X143060238Y-114494952D01*
%TO.C,U4*%
X147627095Y-106166380D02*
X147627095Y-106975904D01*
X147674714Y-107071142D01*
X147722333Y-107118761D01*
X147817571Y-107166380D01*
X148008047Y-107166380D01*
X148103285Y-107118761D01*
X148150904Y-107071142D01*
X148198523Y-106975904D01*
X148198523Y-106166380D01*
X149103285Y-106499714D02*
X149103285Y-107166380D01*
X148865190Y-106118761D02*
X148627095Y-106833047D01*
X149246142Y-106833047D01*
%TO.C,J1*%
X157654666Y-41108380D02*
X157654666Y-41822666D01*
X157607047Y-41965523D01*
X157511809Y-42060761D01*
X157368952Y-42108380D01*
X157273714Y-42108380D01*
X158654666Y-42108380D02*
X158083238Y-42108380D01*
X158368952Y-42108380D02*
X158368952Y-41108380D01*
X158273714Y-41251238D01*
X158178476Y-41346476D01*
X158083238Y-41394095D01*
%TO.C,C15*%
X173093142Y-61571142D02*
X173045523Y-61618761D01*
X172902666Y-61666380D01*
X172807428Y-61666380D01*
X172664571Y-61618761D01*
X172569333Y-61523523D01*
X172521714Y-61428285D01*
X172474095Y-61237809D01*
X172474095Y-61094952D01*
X172521714Y-60904476D01*
X172569333Y-60809238D01*
X172664571Y-60714000D01*
X172807428Y-60666380D01*
X172902666Y-60666380D01*
X173045523Y-60714000D01*
X173093142Y-60761619D01*
X174045523Y-61666380D02*
X173474095Y-61666380D01*
X173759809Y-61666380D02*
X173759809Y-60666380D01*
X173664571Y-60809238D01*
X173569333Y-60904476D01*
X173474095Y-60952095D01*
X174950285Y-60666380D02*
X174474095Y-60666380D01*
X174426476Y-61142571D01*
X174474095Y-61094952D01*
X174569333Y-61047333D01*
X174807428Y-61047333D01*
X174902666Y-61094952D01*
X174950285Y-61142571D01*
X174997904Y-61237809D01*
X174997904Y-61475904D01*
X174950285Y-61571142D01*
X174902666Y-61618761D01*
X174807428Y-61666380D01*
X174569333Y-61666380D01*
X174474095Y-61618761D01*
X174426476Y-61571142D01*
%TO.C,U1*%
X167122095Y-93212380D02*
X167122095Y-94021904D01*
X167169714Y-94117142D01*
X167217333Y-94164761D01*
X167312571Y-94212380D01*
X167503047Y-94212380D01*
X167598285Y-94164761D01*
X167645904Y-94117142D01*
X167693523Y-94021904D01*
X167693523Y-93212380D01*
X168693523Y-94212380D02*
X168122095Y-94212380D01*
X168407809Y-94212380D02*
X168407809Y-93212380D01*
X168312571Y-93355238D01*
X168217333Y-93450476D01*
X168122095Y-93498095D01*
%TO.C,U5*%
X175260095Y-56094380D02*
X175260095Y-56903904D01*
X175307714Y-56999142D01*
X175355333Y-57046761D01*
X175450571Y-57094380D01*
X175641047Y-57094380D01*
X175736285Y-57046761D01*
X175783904Y-56999142D01*
X175831523Y-56903904D01*
X175831523Y-56094380D01*
X176783904Y-56094380D02*
X176307714Y-56094380D01*
X176260095Y-56570571D01*
X176307714Y-56522952D01*
X176402952Y-56475333D01*
X176641047Y-56475333D01*
X176736285Y-56522952D01*
X176783904Y-56570571D01*
X176831523Y-56665809D01*
X176831523Y-56903904D01*
X176783904Y-56999142D01*
X176736285Y-57046761D01*
X176641047Y-57094380D01*
X176402952Y-57094380D01*
X176307714Y-57046761D01*
X176260095Y-56999142D01*
%TO.C,D4*%
X161313904Y-55062380D02*
X161313904Y-54062380D01*
X161552000Y-54062380D01*
X161694857Y-54110000D01*
X161790095Y-54205238D01*
X161837714Y-54300476D01*
X161885333Y-54490952D01*
X161885333Y-54633809D01*
X161837714Y-54824285D01*
X161790095Y-54919523D01*
X161694857Y-55014761D01*
X161552000Y-55062380D01*
X161313904Y-55062380D01*
X162742476Y-54395714D02*
X162742476Y-55062380D01*
X162504380Y-54014761D02*
X162266285Y-54729047D01*
X162885333Y-54729047D01*
%TO.C,D7*%
X141726904Y-111166380D02*
X141726904Y-110166380D01*
X141965000Y-110166380D01*
X142107857Y-110214000D01*
X142203095Y-110309238D01*
X142250714Y-110404476D01*
X142298333Y-110594952D01*
X142298333Y-110737809D01*
X142250714Y-110928285D01*
X142203095Y-111023523D01*
X142107857Y-111118761D01*
X141965000Y-111166380D01*
X141726904Y-111166380D01*
X142631666Y-110166380D02*
X143298333Y-110166380D01*
X142869761Y-111166380D01*
%TO.C,U2*%
X147828095Y-66508380D02*
X147828095Y-67317904D01*
X147875714Y-67413142D01*
X147923333Y-67460761D01*
X148018571Y-67508380D01*
X148209047Y-67508380D01*
X148304285Y-67460761D01*
X148351904Y-67413142D01*
X148399523Y-67317904D01*
X148399523Y-66508380D01*
X148828095Y-66603619D02*
X148875714Y-66556000D01*
X148970952Y-66508380D01*
X149209047Y-66508380D01*
X149304285Y-66556000D01*
X149351904Y-66603619D01*
X149399523Y-66698857D01*
X149399523Y-66794095D01*
X149351904Y-66936952D01*
X148780476Y-67508380D01*
X149399523Y-67508380D01*
%TO.C,TP5*%
X145550095Y-61936380D02*
X146121523Y-61936380D01*
X145835809Y-62936380D02*
X145835809Y-61936380D01*
X146454857Y-62936380D02*
X146454857Y-61936380D01*
X146835809Y-61936380D01*
X146931047Y-61984000D01*
X146978666Y-62031619D01*
X147026285Y-62126857D01*
X147026285Y-62269714D01*
X146978666Y-62364952D01*
X146931047Y-62412571D01*
X146835809Y-62460190D01*
X146454857Y-62460190D01*
X147931047Y-61936380D02*
X147454857Y-61936380D01*
X147407238Y-62412571D01*
X147454857Y-62364952D01*
X147550095Y-62317333D01*
X147788190Y-62317333D01*
X147883428Y-62364952D01*
X147931047Y-62412571D01*
X147978666Y-62507809D01*
X147978666Y-62745904D01*
X147931047Y-62841142D01*
X147883428Y-62888761D01*
X147788190Y-62936380D01*
X147550095Y-62936380D01*
X147454857Y-62888761D01*
X147407238Y-62841142D01*
%TO.C,C16*%
X172585142Y-75033142D02*
X172537523Y-75080761D01*
X172394666Y-75128380D01*
X172299428Y-75128380D01*
X172156571Y-75080761D01*
X172061333Y-74985523D01*
X172013714Y-74890285D01*
X171966095Y-74699809D01*
X171966095Y-74556952D01*
X172013714Y-74366476D01*
X172061333Y-74271238D01*
X172156571Y-74176000D01*
X172299428Y-74128380D01*
X172394666Y-74128380D01*
X172537523Y-74176000D01*
X172585142Y-74223619D01*
X173537523Y-75128380D02*
X172966095Y-75128380D01*
X173251809Y-75128380D02*
X173251809Y-74128380D01*
X173156571Y-74271238D01*
X173061333Y-74366476D01*
X172966095Y-74414095D01*
X174394666Y-74128380D02*
X174204190Y-74128380D01*
X174108952Y-74176000D01*
X174061333Y-74223619D01*
X173966095Y-74366476D01*
X173918476Y-74556952D01*
X173918476Y-74937904D01*
X173966095Y-75033142D01*
X174013714Y-75080761D01*
X174108952Y-75128380D01*
X174299428Y-75128380D01*
X174394666Y-75080761D01*
X174442285Y-75033142D01*
X174489904Y-74937904D01*
X174489904Y-74699809D01*
X174442285Y-74604571D01*
X174394666Y-74556952D01*
X174299428Y-74509333D01*
X174108952Y-74509333D01*
X174013714Y-74556952D01*
X173966095Y-74604571D01*
X173918476Y-74699809D01*
%TO.C,CN7*%
X181397523Y-43547142D02*
X181349904Y-43594761D01*
X181207047Y-43642380D01*
X181111809Y-43642380D01*
X180968952Y-43594761D01*
X180873714Y-43499523D01*
X180826095Y-43404285D01*
X180778476Y-43213809D01*
X180778476Y-43070952D01*
X180826095Y-42880476D01*
X180873714Y-42785238D01*
X180968952Y-42690000D01*
X181111809Y-42642380D01*
X181207047Y-42642380D01*
X181349904Y-42690000D01*
X181397523Y-42737619D01*
X181826095Y-43642380D02*
X181826095Y-42642380D01*
X182397523Y-43642380D01*
X182397523Y-42642380D01*
X182778476Y-42642380D02*
X183445142Y-42642380D01*
X183016571Y-43642380D01*
%TO.C,CN8*%
X140819142Y-55300476D02*
X140866761Y-55348095D01*
X140914380Y-55490952D01*
X140914380Y-55586190D01*
X140866761Y-55729047D01*
X140771523Y-55824285D01*
X140676285Y-55871904D01*
X140485809Y-55919523D01*
X140342952Y-55919523D01*
X140152476Y-55871904D01*
X140057238Y-55824285D01*
X139962000Y-55729047D01*
X139914380Y-55586190D01*
X139914380Y-55490952D01*
X139962000Y-55348095D01*
X140009619Y-55300476D01*
X140914380Y-54871904D02*
X139914380Y-54871904D01*
X140914380Y-54300476D01*
X139914380Y-54300476D01*
X140342952Y-53681428D02*
X140295333Y-53776666D01*
X140247714Y-53824285D01*
X140152476Y-53871904D01*
X140104857Y-53871904D01*
X140009619Y-53824285D01*
X139962000Y-53776666D01*
X139914380Y-53681428D01*
X139914380Y-53490952D01*
X139962000Y-53395714D01*
X140009619Y-53348095D01*
X140104857Y-53300476D01*
X140152476Y-53300476D01*
X140247714Y-53348095D01*
X140295333Y-53395714D01*
X140342952Y-53490952D01*
X140342952Y-53681428D01*
X140390571Y-53776666D01*
X140438190Y-53824285D01*
X140533428Y-53871904D01*
X140723904Y-53871904D01*
X140819142Y-53824285D01*
X140866761Y-53776666D01*
X140914380Y-53681428D01*
X140914380Y-53490952D01*
X140866761Y-53395714D01*
X140819142Y-53348095D01*
X140723904Y-53300476D01*
X140533428Y-53300476D01*
X140438190Y-53348095D01*
X140390571Y-53395714D01*
X140342952Y-53490952D01*
%TO.C,CN9*%
X135712523Y-76000142D02*
X135664904Y-76047761D01*
X135522047Y-76095380D01*
X135426809Y-76095380D01*
X135283952Y-76047761D01*
X135188714Y-75952523D01*
X135141095Y-75857285D01*
X135093476Y-75666809D01*
X135093476Y-75523952D01*
X135141095Y-75333476D01*
X135188714Y-75238238D01*
X135283952Y-75143000D01*
X135426809Y-75095380D01*
X135522047Y-75095380D01*
X135664904Y-75143000D01*
X135712523Y-75190619D01*
X136141095Y-76095380D02*
X136141095Y-75095380D01*
X136712523Y-76095380D01*
X136712523Y-75095380D01*
X137236333Y-76095380D02*
X137426809Y-76095380D01*
X137522047Y-76047761D01*
X137569666Y-76000142D01*
X137664904Y-75857285D01*
X137712523Y-75666809D01*
X137712523Y-75285857D01*
X137664904Y-75190619D01*
X137617285Y-75143000D01*
X137522047Y-75095380D01*
X137331571Y-75095380D01*
X137236333Y-75143000D01*
X137188714Y-75190619D01*
X137141095Y-75285857D01*
X137141095Y-75523952D01*
X137188714Y-75619190D01*
X137236333Y-75666809D01*
X137331571Y-75714428D01*
X137522047Y-75714428D01*
X137617285Y-75666809D01*
X137664904Y-75619190D01*
X137712523Y-75523952D01*
%TO.C,J6*%
X142160666Y-41871380D02*
X142160666Y-42585666D01*
X142113047Y-42728523D01*
X142017809Y-42823761D01*
X141874952Y-42871380D01*
X141779714Y-42871380D01*
X143065428Y-41871380D02*
X142874952Y-41871380D01*
X142779714Y-41919000D01*
X142732095Y-41966619D01*
X142636857Y-42109476D01*
X142589238Y-42299952D01*
X142589238Y-42680904D01*
X142636857Y-42776142D01*
X142684476Y-42823761D01*
X142779714Y-42871380D01*
X142970190Y-42871380D01*
X143065428Y-42823761D01*
X143113047Y-42776142D01*
X143160666Y-42680904D01*
X143160666Y-42442809D01*
X143113047Y-42347571D01*
X143065428Y-42299952D01*
X142970190Y-42252333D01*
X142779714Y-42252333D01*
X142684476Y-42299952D01*
X142636857Y-42347571D01*
X142589238Y-42442809D01*
%TO.C,CN10*%
X180406333Y-116684142D02*
X180358714Y-116731761D01*
X180215857Y-116779380D01*
X180120619Y-116779380D01*
X179977761Y-116731761D01*
X179882523Y-116636523D01*
X179834904Y-116541285D01*
X179787285Y-116350809D01*
X179787285Y-116207952D01*
X179834904Y-116017476D01*
X179882523Y-115922238D01*
X179977761Y-115827000D01*
X180120619Y-115779380D01*
X180215857Y-115779380D01*
X180358714Y-115827000D01*
X180406333Y-115874619D01*
X180834904Y-116779380D02*
X180834904Y-115779380D01*
X181406333Y-116779380D01*
X181406333Y-115779380D01*
X182406333Y-116779380D02*
X181834904Y-116779380D01*
X182120619Y-116779380D02*
X182120619Y-115779380D01*
X182025380Y-115922238D01*
X181930142Y-116017476D01*
X181834904Y-116065095D01*
X183025380Y-115779380D02*
X183120619Y-115779380D01*
X183215857Y-115827000D01*
X183263476Y-115874619D01*
X183311095Y-115969857D01*
X183358714Y-116160333D01*
X183358714Y-116398428D01*
X183311095Y-116588904D01*
X183263476Y-116684142D01*
X183215857Y-116731761D01*
X183120619Y-116779380D01*
X183025380Y-116779380D01*
X182930142Y-116731761D01*
X182882523Y-116684142D01*
X182834904Y-116588904D01*
X182787285Y-116398428D01*
X182787285Y-116160333D01*
X182834904Y-115969857D01*
X182882523Y-115874619D01*
X182930142Y-115827000D01*
X183025380Y-115779380D01*
D12*
%TO.C,C13*%
X165076000Y-66031000D02*
X163869000Y-66031000D01*
X167859000Y-66671000D02*
X167156000Y-66671000D01*
X165076000Y-66551000D02*
X164252000Y-66551000D01*
X165076000Y-65390000D02*
X163615000Y-65390000D01*
X168672000Y-65110000D02*
X167156000Y-65110000D01*
X168291000Y-66151000D02*
X167156000Y-66151000D01*
X165076000Y-66311000D02*
X164051000Y-66311000D01*
X167616000Y-66871000D02*
X167156000Y-66871000D01*
X168238000Y-66231000D02*
X167156000Y-66231000D01*
X168211000Y-66271000D02*
X167156000Y-66271000D01*
X168685000Y-64990000D02*
X167156000Y-64990000D01*
X168681000Y-65030000D02*
X167156000Y-65030000D01*
X165076000Y-65230000D02*
X163580000Y-65230000D01*
X168445000Y-65871000D02*
X167156000Y-65871000D01*
X165076000Y-66671000D02*
X164373000Y-66671000D01*
X165076000Y-66471000D02*
X164179000Y-66471000D01*
X165076000Y-66831000D02*
X164562000Y-66831000D01*
X167367000Y-67031000D02*
X167156000Y-67031000D01*
X168498000Y-65751000D02*
X167156000Y-65751000D01*
X168384000Y-65991000D02*
X167156000Y-65991000D01*
X168406000Y-65951000D02*
X167156000Y-65951000D01*
X168677000Y-65070000D02*
X167156000Y-65070000D01*
X168696000Y-64790000D02*
X163536000Y-64790000D01*
X167591000Y-61945225D02*
X167591000Y-62445225D01*
X165076000Y-65831000D02*
X163768000Y-65831000D01*
X165076000Y-65471000D02*
X163636000Y-65471000D01*
X168659000Y-65190000D02*
X167156000Y-65190000D01*
X165076000Y-65911000D02*
X163806000Y-65911000D01*
X165076000Y-66431000D02*
X164145000Y-66431000D01*
X165076000Y-65711000D02*
X163718000Y-65711000D01*
X166921000Y-67231000D02*
X165311000Y-67231000D01*
X165076000Y-66231000D02*
X163994000Y-66231000D01*
X165076000Y-65430000D02*
X163625000Y-65430000D01*
X165076000Y-65751000D02*
X163734000Y-65751000D01*
X167769000Y-66751000D02*
X167156000Y-66751000D01*
X165076000Y-65110000D02*
X163560000Y-65110000D01*
X168689000Y-64950000D02*
X163543000Y-64950000D01*
X168694000Y-64870000D02*
X163538000Y-64870000D01*
X168181000Y-66311000D02*
X167156000Y-66311000D01*
X168695000Y-64830000D02*
X163537000Y-64830000D01*
X168627000Y-65350000D02*
X167156000Y-65350000D01*
X165076000Y-66951000D02*
X164733000Y-66951000D01*
X165076000Y-66071000D02*
X163892000Y-66071000D01*
X168584000Y-65511000D02*
X167156000Y-65511000D01*
X165076000Y-65511000D02*
X163648000Y-65511000D01*
X165076000Y-65871000D02*
X163787000Y-65871000D01*
X165076000Y-65190000D02*
X163573000Y-65190000D01*
X165076000Y-65310000D02*
X163596000Y-65310000D01*
X165076000Y-64990000D02*
X163547000Y-64990000D01*
X165076000Y-65951000D02*
X163826000Y-65951000D01*
X165076000Y-65270000D02*
X163588000Y-65270000D01*
X168636000Y-65310000D02*
X167156000Y-65310000D01*
X165076000Y-65350000D02*
X163605000Y-65350000D01*
X165076000Y-65030000D02*
X163551000Y-65030000D01*
X168571000Y-65551000D02*
X167156000Y-65551000D01*
X165076000Y-66631000D02*
X164331000Y-66631000D01*
X168340000Y-66071000D02*
X167156000Y-66071000D01*
X168316000Y-66111000D02*
X167156000Y-66111000D01*
X167721000Y-66791000D02*
X167156000Y-66791000D01*
X167127000Y-67151000D02*
X165105000Y-67151000D01*
X165076000Y-66991000D02*
X164797000Y-66991000D01*
X168481000Y-65791000D02*
X167156000Y-65791000D01*
X166400000Y-67351000D02*
X165832000Y-67351000D01*
X165076000Y-65991000D02*
X163848000Y-65991000D01*
X165076000Y-65791000D02*
X163751000Y-65791000D01*
X168265000Y-66191000D02*
X167156000Y-66191000D01*
X168558000Y-65591000D02*
X167156000Y-65591000D01*
X165076000Y-66191000D02*
X163967000Y-66191000D01*
X168607000Y-65430000D02*
X167156000Y-65430000D01*
X167214000Y-67111000D02*
X165018000Y-67111000D01*
X168514000Y-65711000D02*
X167156000Y-65711000D01*
X167942000Y-66591000D02*
X167156000Y-66591000D01*
X167435000Y-66991000D02*
X167156000Y-66991000D01*
X165076000Y-65070000D02*
X163555000Y-65070000D01*
X165076000Y-65591000D02*
X163674000Y-65591000D01*
X168087000Y-66431000D02*
X167156000Y-66431000D01*
X168464000Y-65831000D02*
X167156000Y-65831000D01*
X165076000Y-65671000D02*
X163702000Y-65671000D01*
X168363000Y-66031000D02*
X167156000Y-66031000D01*
X168666000Y-65150000D02*
X167156000Y-65150000D01*
X167559000Y-66911000D02*
X167156000Y-66911000D01*
X168017000Y-66511000D02*
X167156000Y-66511000D01*
X165076000Y-67031000D02*
X164865000Y-67031000D01*
X167815000Y-66711000D02*
X167156000Y-66711000D01*
X165076000Y-66271000D02*
X164021000Y-66271000D01*
X168644000Y-65270000D02*
X167156000Y-65270000D01*
X166793000Y-67271000D02*
X165439000Y-67271000D01*
X168151000Y-66351000D02*
X167156000Y-66351000D01*
X168696000Y-64750000D02*
X163536000Y-64750000D01*
X167499000Y-66951000D02*
X167156000Y-66951000D01*
X167980000Y-66551000D02*
X167156000Y-66551000D01*
X168596000Y-65471000D02*
X167156000Y-65471000D01*
X165076000Y-65551000D02*
X163661000Y-65551000D01*
X165076000Y-65150000D02*
X163566000Y-65150000D01*
X167901000Y-66631000D02*
X167156000Y-66631000D01*
X167031000Y-67191000D02*
X165201000Y-67191000D01*
X165076000Y-66511000D02*
X164215000Y-66511000D01*
X165076000Y-66871000D02*
X164616000Y-66871000D01*
X165076000Y-66791000D02*
X164511000Y-66791000D01*
X168120000Y-66391000D02*
X167156000Y-66391000D01*
X166634000Y-67311000D02*
X165598000Y-67311000D01*
X167294000Y-67071000D02*
X164938000Y-67071000D01*
X165076000Y-66111000D02*
X163916000Y-66111000D01*
X165076000Y-66711000D02*
X164417000Y-66711000D01*
X168530000Y-65671000D02*
X167156000Y-65671000D01*
X168053000Y-66471000D02*
X167156000Y-66471000D01*
X168544000Y-65631000D02*
X167156000Y-65631000D01*
X165076000Y-66751000D02*
X164463000Y-66751000D01*
X167841000Y-62195225D02*
X167341000Y-62195225D01*
X165076000Y-66391000D02*
X164112000Y-66391000D01*
X165076000Y-66591000D02*
X164290000Y-66591000D01*
X168426000Y-65911000D02*
X167156000Y-65911000D01*
X165076000Y-66151000D02*
X163941000Y-66151000D01*
X165076000Y-66351000D02*
X164081000Y-66351000D01*
X168652000Y-65230000D02*
X167156000Y-65230000D01*
X168692000Y-64910000D02*
X163540000Y-64910000D01*
X167670000Y-66831000D02*
X167156000Y-66831000D01*
X168617000Y-65390000D02*
X167156000Y-65390000D01*
X165076000Y-65631000D02*
X163688000Y-65631000D01*
X165076000Y-66911000D02*
X164673000Y-66911000D01*
X168736000Y-64750000D02*
G75*
G03*
X168736000Y-64750000I-2620000J0D01*
G01*
%TO.C,J5*%
X175631000Y-47249000D02*
X175631000Y-44649000D01*
X178291000Y-47249000D02*
X178291000Y-44649000D01*
X178291000Y-47249000D02*
X175631000Y-47249000D01*
X178291000Y-48519000D02*
X178291000Y-49849000D01*
X178291000Y-44649000D02*
X175631000Y-44649000D01*
X178291000Y-49849000D02*
X176961000Y-49849000D01*
%TO.C,U3*%
X170534000Y-96704000D02*
X165234000Y-96704000D01*
X170534000Y-106984000D02*
X170534000Y-96704000D01*
X168884000Y-106984000D02*
X170534000Y-106984000D01*
X165234000Y-96704000D02*
X165234000Y-106984000D01*
X165234000Y-106984000D02*
X166884000Y-106984000D01*
X168884000Y-106984000D02*
G75*
G03*
X166884000Y-106984000I-1000000J0D01*
G01*
%TO.C,U6*%
X167314000Y-68891500D02*
X167314000Y-70401500D01*
X171015000Y-68891500D02*
X171015000Y-70401500D01*
X164044000Y-73532500D02*
X174284000Y-73532500D01*
X174284000Y-68891500D02*
X174284000Y-73532500D01*
X164044000Y-70401500D02*
X174284000Y-70401500D01*
X164044000Y-68891500D02*
X164044000Y-73532500D01*
X164044000Y-68891500D02*
X174284000Y-68891500D01*
%TO.C,J4*%
X165370000Y-43633000D02*
X170300000Y-43633000D01*
X165145000Y-46283000D02*
X162545000Y-46283000D01*
X165145000Y-43608000D02*
X165145000Y-46268000D01*
X165145000Y-43608000D02*
X162545000Y-43608000D01*
X170300000Y-43628000D02*
X170300000Y-44958000D01*
X162545000Y-43608000D02*
X162545000Y-46268000D01*
X168970000Y-43628000D02*
X170300000Y-43628000D01*
%TO.C,TP3*%
X160712000Y-64516000D02*
G75*
G03*
X160712000Y-64516000I-1200000J0D01*
G01*
%TO.C,C14*%
X168353000Y-78702888D02*
X166902000Y-78702888D01*
X168441000Y-78102888D02*
X163283000Y-78102888D01*
X164822000Y-80023888D02*
X164209000Y-80023888D01*
X164822000Y-80183888D02*
X164419000Y-80183888D01*
X167957000Y-79543888D02*
X166902000Y-79543888D01*
X164822000Y-78662888D02*
X163361000Y-78662888D01*
X164822000Y-78582888D02*
X163342000Y-78582888D01*
X168304000Y-78863888D02*
X166902000Y-78863888D01*
X164822000Y-79983888D02*
X164163000Y-79983888D01*
X164822000Y-78462888D02*
X163319000Y-78462888D01*
X164822000Y-78903888D02*
X163434000Y-78903888D01*
X168440000Y-78142888D02*
X163284000Y-78142888D01*
X166960000Y-80383888D02*
X164764000Y-80383888D01*
X164822000Y-80223888D02*
X164479000Y-80223888D01*
X167927000Y-79583888D02*
X166902000Y-79583888D01*
X164822000Y-78743888D02*
X163382000Y-78743888D01*
X168390000Y-78542888D02*
X166902000Y-78542888D01*
X164822000Y-78943888D02*
X163448000Y-78943888D01*
X167833000Y-79703888D02*
X166902000Y-79703888D01*
X164822000Y-79543888D02*
X163767000Y-79543888D01*
X164822000Y-79263888D02*
X163594000Y-79263888D01*
X167799000Y-79743888D02*
X166902000Y-79743888D01*
X167515000Y-80023888D02*
X166902000Y-80023888D01*
X164822000Y-79623888D02*
X163827000Y-79623888D01*
X168405000Y-78462888D02*
X166902000Y-78462888D01*
X164822000Y-79783888D02*
X163961000Y-79783888D01*
X168062000Y-79383888D02*
X166902000Y-79383888D01*
X167561000Y-79983888D02*
X166902000Y-79983888D01*
X166539000Y-80543888D02*
X165185000Y-80543888D01*
X164822000Y-78823888D02*
X163407000Y-78823888D01*
X166380000Y-80583888D02*
X165344000Y-80583888D01*
X167688000Y-79863888D02*
X166902000Y-79863888D01*
X167726000Y-79823888D02*
X166902000Y-79823888D01*
X168423000Y-78342888D02*
X166902000Y-78342888D01*
X164822000Y-79903888D02*
X164077000Y-79903888D01*
X168442000Y-78062888D02*
X163282000Y-78062888D01*
X164822000Y-78422888D02*
X163312000Y-78422888D01*
X164822000Y-80263888D02*
X164543000Y-80263888D01*
X168330000Y-78783888D02*
X166902000Y-78783888D01*
X164822000Y-78783888D02*
X163394000Y-78783888D01*
X167587000Y-75468113D02*
X167087000Y-75468113D01*
X168373000Y-78622888D02*
X166902000Y-78622888D01*
X168244000Y-79023888D02*
X166902000Y-79023888D01*
X168210000Y-79103888D02*
X166902000Y-79103888D01*
X164822000Y-79423888D02*
X163687000Y-79423888D01*
X168037000Y-79423888D02*
X166902000Y-79423888D01*
X167467000Y-80063888D02*
X166902000Y-80063888D01*
X164822000Y-79063888D02*
X163497000Y-79063888D01*
X164822000Y-80303888D02*
X164611000Y-80303888D01*
X164822000Y-79863888D02*
X164036000Y-79863888D01*
X168172000Y-79183888D02*
X166902000Y-79183888D01*
X166667000Y-80503888D02*
X165057000Y-80503888D01*
X168152000Y-79223888D02*
X166902000Y-79223888D01*
X166777000Y-80463888D02*
X164947000Y-80463888D01*
X168260000Y-78983888D02*
X166902000Y-78983888D01*
X168109000Y-79303888D02*
X166902000Y-79303888D01*
X168317000Y-78823888D02*
X166902000Y-78823888D01*
X164822000Y-79583888D02*
X163797000Y-79583888D01*
X164822000Y-79943888D02*
X164119000Y-79943888D01*
X167416000Y-80103888D02*
X166902000Y-80103888D01*
X168276000Y-78943888D02*
X166902000Y-78943888D01*
X167763000Y-79783888D02*
X166902000Y-79783888D01*
X168342000Y-78743888D02*
X166902000Y-78743888D01*
X164822000Y-80143888D02*
X164362000Y-80143888D01*
X168011000Y-79463888D02*
X166902000Y-79463888D01*
X168438000Y-78182888D02*
X163286000Y-78182888D01*
X168086000Y-79343888D02*
X166902000Y-79343888D01*
X164822000Y-78262888D02*
X163293000Y-78262888D01*
X168398000Y-78502888D02*
X166902000Y-78502888D01*
X167362000Y-80143888D02*
X166902000Y-80143888D01*
X168382000Y-78582888D02*
X166902000Y-78582888D01*
X167647000Y-79903888D02*
X166902000Y-79903888D01*
X167866000Y-79663888D02*
X166902000Y-79663888D01*
X164822000Y-79503888D02*
X163740000Y-79503888D01*
X164822000Y-80063888D02*
X164257000Y-80063888D01*
X168418000Y-78382888D02*
X166902000Y-78382888D01*
X164822000Y-79143888D02*
X163533000Y-79143888D01*
X164822000Y-78382888D02*
X163306000Y-78382888D01*
X167337000Y-75218113D02*
X167337000Y-75718113D01*
X167605000Y-79943888D02*
X166902000Y-79943888D01*
X167984000Y-79503888D02*
X166902000Y-79503888D01*
X164822000Y-79823888D02*
X163998000Y-79823888D01*
X164822000Y-78983888D02*
X163464000Y-78983888D01*
X164822000Y-79103888D02*
X163514000Y-79103888D01*
X164822000Y-78622888D02*
X163351000Y-78622888D01*
X164822000Y-79383888D02*
X163662000Y-79383888D01*
X166146000Y-80623888D02*
X165578000Y-80623888D01*
X168130000Y-79263888D02*
X166902000Y-79263888D01*
X164822000Y-79703888D02*
X163891000Y-79703888D01*
X164822000Y-79023888D02*
X163480000Y-79023888D01*
X167245000Y-80223888D02*
X166902000Y-80223888D01*
X164822000Y-79183888D02*
X163552000Y-79183888D01*
X166873000Y-80423888D02*
X164851000Y-80423888D01*
X164822000Y-78342888D02*
X163301000Y-78342888D01*
X168412000Y-78422888D02*
X166902000Y-78422888D01*
X164822000Y-79663888D02*
X163858000Y-79663888D01*
X168363000Y-78662888D02*
X166902000Y-78662888D01*
X167897000Y-79623888D02*
X166902000Y-79623888D01*
X164822000Y-78502888D02*
X163326000Y-78502888D01*
X167305000Y-80183888D02*
X166902000Y-80183888D01*
X164822000Y-80103888D02*
X164308000Y-80103888D01*
X164822000Y-78863888D02*
X163420000Y-78863888D01*
X167113000Y-80303888D02*
X166902000Y-80303888D01*
X168435000Y-78222888D02*
X163289000Y-78222888D01*
X164822000Y-79303888D02*
X163615000Y-79303888D01*
X164822000Y-79743888D02*
X163925000Y-79743888D01*
X164822000Y-78542888D02*
X163334000Y-78542888D01*
X168442000Y-78022888D02*
X163282000Y-78022888D01*
X164822000Y-78302888D02*
X163297000Y-78302888D01*
X168290000Y-78903888D02*
X166902000Y-78903888D01*
X164822000Y-79343888D02*
X163638000Y-79343888D01*
X168431000Y-78262888D02*
X166902000Y-78262888D01*
X168227000Y-79063888D02*
X166902000Y-79063888D01*
X168427000Y-78302888D02*
X166902000Y-78302888D01*
X164822000Y-78702888D02*
X163371000Y-78702888D01*
X164822000Y-79223888D02*
X163572000Y-79223888D01*
X164822000Y-79463888D02*
X163713000Y-79463888D01*
X168191000Y-79143888D02*
X166902000Y-79143888D01*
X167040000Y-80343888D02*
X164684000Y-80343888D01*
X167181000Y-80263888D02*
X166902000Y-80263888D01*
X168482000Y-78022888D02*
G75*
G03*
X168482000Y-78022888I-2620000J0D01*
G01*
%TO.C,J2*%
X170175000Y-112368000D02*
X170175000Y-115028000D01*
X172775000Y-112368000D02*
X172775000Y-113698000D01*
X171445000Y-112368000D02*
X172775000Y-112368000D01*
X170175000Y-115028000D02*
X152335000Y-115028000D01*
X152335000Y-112368000D02*
X152335000Y-115028000D01*
X170175000Y-112368000D02*
X152335000Y-112368000D01*
%TO.C,TP2*%
X177476000Y-112522000D02*
G75*
G03*
X177476000Y-112522000I-1200000J0D01*
G01*
%TO.C,D6*%
X159975000Y-70390000D02*
X157690000Y-70390000D01*
X157690000Y-71860000D02*
X159975000Y-71860000D01*
X157690000Y-70390000D02*
X157690000Y-71860000D01*
%TO.C,D8*%
X144459000Y-115349000D02*
X146744000Y-115349000D01*
X146744000Y-113879000D02*
X144459000Y-113879000D01*
X146744000Y-115349000D02*
X146744000Y-113879000D01*
%TO.C,U4*%
X151039000Y-95434000D02*
X145739000Y-95434000D01*
X149389000Y-105714000D02*
X151039000Y-105714000D01*
X151039000Y-105714000D02*
X151039000Y-95434000D01*
X145739000Y-105714000D02*
X147389000Y-105714000D01*
X145739000Y-95434000D02*
X145739000Y-105714000D01*
X149389000Y-105714000D02*
G75*
G03*
X147389000Y-105714000I-1000000J0D01*
G01*
%TO.C,J1*%
X152813000Y-46308000D02*
X155413000Y-46308000D01*
X147658000Y-46288000D02*
X147658000Y-44958000D01*
X152813000Y-43633000D02*
X155413000Y-43633000D01*
X152813000Y-46308000D02*
X152813000Y-43648000D01*
X155413000Y-46308000D02*
X155413000Y-43648000D01*
X152588000Y-46288000D02*
X147658000Y-46288000D01*
%TO.C,C15*%
X175341000Y-66791000D02*
X174776000Y-66791000D01*
X176315000Y-64830000D02*
X171157000Y-64830000D01*
X175461000Y-62195225D02*
X174961000Y-62195225D01*
X175801000Y-66311000D02*
X174776000Y-66311000D01*
X176046000Y-65911000D02*
X174776000Y-65911000D01*
X175211000Y-61945225D02*
X175211000Y-62445225D01*
X172696000Y-66431000D02*
X171765000Y-66431000D01*
X176084000Y-65831000D02*
X174776000Y-65831000D01*
X172696000Y-65310000D02*
X171216000Y-65310000D01*
X172696000Y-65591000D02*
X171294000Y-65591000D01*
X172696000Y-66311000D02*
X171671000Y-66311000D01*
X175119000Y-66951000D02*
X174776000Y-66951000D01*
X174020000Y-67351000D02*
X173452000Y-67351000D01*
X176065000Y-65871000D02*
X174776000Y-65871000D01*
X176150000Y-65671000D02*
X174776000Y-65671000D01*
X175740000Y-66391000D02*
X174776000Y-66391000D01*
X172696000Y-64990000D02*
X171167000Y-64990000D01*
X172696000Y-66071000D02*
X171512000Y-66071000D01*
X175562000Y-66591000D02*
X174776000Y-66591000D01*
X174413000Y-67271000D02*
X173059000Y-67271000D01*
X175179000Y-66911000D02*
X174776000Y-66911000D01*
X172696000Y-65030000D02*
X171171000Y-65030000D01*
X172696000Y-66831000D02*
X172182000Y-66831000D01*
X172696000Y-66671000D02*
X171993000Y-66671000D01*
X174987000Y-67031000D02*
X174776000Y-67031000D01*
X175831000Y-66271000D02*
X174776000Y-66271000D01*
X175911000Y-66151000D02*
X174776000Y-66151000D01*
X172696000Y-65270000D02*
X171208000Y-65270000D01*
X174254000Y-67311000D02*
X173218000Y-67311000D01*
X172696000Y-66791000D02*
X172131000Y-66791000D01*
X176272000Y-65230000D02*
X174776000Y-65230000D01*
X172696000Y-65791000D02*
X171371000Y-65791000D01*
X176297000Y-65070000D02*
X174776000Y-65070000D01*
X176227000Y-65430000D02*
X174776000Y-65430000D01*
X172696000Y-66631000D02*
X171951000Y-66631000D01*
X172696000Y-65471000D02*
X171256000Y-65471000D01*
X176314000Y-64870000D02*
X171158000Y-64870000D01*
X172696000Y-66271000D02*
X171641000Y-66271000D01*
X176004000Y-65991000D02*
X174776000Y-65991000D01*
X176279000Y-65190000D02*
X174776000Y-65190000D01*
X172696000Y-66391000D02*
X171732000Y-66391000D01*
X172696000Y-66911000D02*
X172293000Y-66911000D01*
X176264000Y-65270000D02*
X174776000Y-65270000D01*
X175055000Y-66991000D02*
X174776000Y-66991000D01*
X172696000Y-65070000D02*
X171175000Y-65070000D01*
X174747000Y-67151000D02*
X172725000Y-67151000D01*
X172696000Y-65511000D02*
X171268000Y-65511000D01*
X176316000Y-64750000D02*
X171156000Y-64750000D01*
X172696000Y-65110000D02*
X171180000Y-65110000D01*
X172696000Y-66151000D02*
X171561000Y-66151000D01*
X175637000Y-66511000D02*
X174776000Y-66511000D01*
X172696000Y-66231000D02*
X171614000Y-66231000D01*
X176204000Y-65511000D02*
X174776000Y-65511000D01*
X176312000Y-64910000D02*
X171160000Y-64910000D01*
X172696000Y-67031000D02*
X172485000Y-67031000D01*
X175600000Y-66551000D02*
X174776000Y-66551000D01*
X172696000Y-66751000D02*
X172083000Y-66751000D01*
X172696000Y-65751000D02*
X171354000Y-65751000D01*
X175435000Y-66711000D02*
X174776000Y-66711000D01*
X176292000Y-65110000D02*
X174776000Y-65110000D01*
X172696000Y-66871000D02*
X172236000Y-66871000D01*
X172696000Y-65150000D02*
X171186000Y-65150000D01*
X172696000Y-65951000D02*
X171446000Y-65951000D01*
X176134000Y-65711000D02*
X174776000Y-65711000D01*
X174541000Y-67231000D02*
X172931000Y-67231000D01*
X174651000Y-67191000D02*
X172821000Y-67191000D01*
X176301000Y-65030000D02*
X174776000Y-65030000D01*
X175290000Y-66831000D02*
X174776000Y-66831000D01*
X176316000Y-64790000D02*
X171156000Y-64790000D01*
X176305000Y-64990000D02*
X174776000Y-64990000D01*
X174834000Y-67111000D02*
X172638000Y-67111000D01*
X172696000Y-65871000D02*
X171407000Y-65871000D01*
X174914000Y-67071000D02*
X172558000Y-67071000D01*
X176309000Y-64950000D02*
X171163000Y-64950000D01*
X176247000Y-65350000D02*
X174776000Y-65350000D01*
X172696000Y-66351000D02*
X171701000Y-66351000D01*
X172696000Y-66031000D02*
X171489000Y-66031000D01*
X172696000Y-65551000D02*
X171281000Y-65551000D01*
X175885000Y-66191000D02*
X174776000Y-66191000D01*
X172696000Y-65230000D02*
X171200000Y-65230000D01*
X172696000Y-66511000D02*
X171835000Y-66511000D01*
X172696000Y-66951000D02*
X172353000Y-66951000D01*
X172696000Y-66191000D02*
X171587000Y-66191000D01*
X176164000Y-65631000D02*
X174776000Y-65631000D01*
X176118000Y-65751000D02*
X174776000Y-65751000D01*
X172696000Y-66591000D02*
X171910000Y-66591000D01*
X176237000Y-65390000D02*
X174776000Y-65390000D01*
X172696000Y-65991000D02*
X171468000Y-65991000D01*
X176216000Y-65471000D02*
X174776000Y-65471000D01*
X176026000Y-65951000D02*
X174776000Y-65951000D01*
X172696000Y-65350000D02*
X171225000Y-65350000D01*
X175983000Y-66031000D02*
X174776000Y-66031000D01*
X172696000Y-66111000D02*
X171536000Y-66111000D01*
X172696000Y-66711000D02*
X172037000Y-66711000D01*
X175236000Y-66871000D02*
X174776000Y-66871000D01*
X176178000Y-65591000D02*
X174776000Y-65591000D01*
X176256000Y-65310000D02*
X174776000Y-65310000D01*
X172696000Y-65390000D02*
X171235000Y-65390000D01*
X175960000Y-66071000D02*
X174776000Y-66071000D01*
X175936000Y-66111000D02*
X174776000Y-66111000D01*
X172696000Y-65190000D02*
X171193000Y-65190000D01*
X176286000Y-65150000D02*
X174776000Y-65150000D01*
X172696000Y-65631000D02*
X171308000Y-65631000D01*
X172696000Y-65711000D02*
X171338000Y-65711000D01*
X175521000Y-66631000D02*
X174776000Y-66631000D01*
X176191000Y-65551000D02*
X174776000Y-65551000D01*
X172696000Y-65831000D02*
X171388000Y-65831000D01*
X172696000Y-65430000D02*
X171245000Y-65430000D01*
X175389000Y-66751000D02*
X174776000Y-66751000D01*
X175673000Y-66471000D02*
X174776000Y-66471000D01*
X172696000Y-65671000D02*
X171322000Y-65671000D01*
X175479000Y-66671000D02*
X174776000Y-66671000D01*
X176101000Y-65791000D02*
X174776000Y-65791000D01*
X175771000Y-66351000D02*
X174776000Y-66351000D01*
X175707000Y-66431000D02*
X174776000Y-66431000D01*
X172696000Y-65911000D02*
X171426000Y-65911000D01*
X172696000Y-66551000D02*
X171872000Y-66551000D01*
X172696000Y-66471000D02*
X171799000Y-66471000D01*
X175858000Y-66231000D02*
X174776000Y-66231000D01*
X172696000Y-66991000D02*
X172417000Y-66991000D01*
X176356000Y-64750000D02*
G75*
G03*
X176356000Y-64750000I-2620000J0D01*
G01*
%TO.C,U1*%
X170534000Y-92252000D02*
X170534000Y-81972000D01*
X165234000Y-81972000D02*
X165234000Y-92252000D01*
X170534000Y-81972000D02*
X165234000Y-81972000D01*
X165234000Y-92252000D02*
X166884000Y-92252000D01*
X168884000Y-92252000D02*
X170534000Y-92252000D01*
X168884000Y-92252000D02*
G75*
G03*
X166884000Y-92252000I-1000000J0D01*
G01*
%TO.C,U5*%
X164298000Y-57168000D02*
X174538000Y-57168000D01*
X171269000Y-55658000D02*
X171269000Y-57168000D01*
X164298000Y-55658000D02*
X174538000Y-55658000D01*
X167568000Y-55658000D02*
X167568000Y-57168000D01*
X164298000Y-60299000D02*
X174538000Y-60299000D01*
X174538000Y-55658000D02*
X174538000Y-60299000D01*
X164298000Y-55658000D02*
X164298000Y-60299000D01*
%TO.C,D4*%
X158027000Y-53875000D02*
X158027000Y-55345000D01*
X158027000Y-55345000D02*
X160312000Y-55345000D01*
X160312000Y-53875000D02*
X158027000Y-53875000D01*
%TO.C,D7*%
X144459000Y-111449000D02*
X146744000Y-111449000D01*
X146744000Y-111449000D02*
X146744000Y-109979000D01*
X146744000Y-109979000D02*
X144459000Y-109979000D01*
%TO.C,U2*%
X154990000Y-69616000D02*
X154990000Y-90616000D01*
X142290000Y-77216000D02*
X142290000Y-90616000D01*
X142290000Y-77216000D02*
X142290000Y-69616000D01*
X154990000Y-69616000D02*
X151190000Y-69616000D01*
X151190000Y-69616000D02*
X142290000Y-69616000D01*
X154990000Y-77216000D02*
X154990000Y-69616000D01*
X154990000Y-90616000D02*
X142290000Y-90616000D01*
%TO.C,TP5*%
X151314000Y-62484000D02*
G75*
G03*
X151314000Y-62484000I-1200000J0D01*
G01*
%TO.C,C16*%
X172188000Y-78302888D02*
X170663000Y-78302888D01*
X172188000Y-80023888D02*
X171575000Y-80023888D01*
X175696000Y-78783888D02*
X174268000Y-78783888D01*
X174881000Y-80023888D02*
X174268000Y-80023888D01*
X175518000Y-79223888D02*
X174268000Y-79223888D01*
X172188000Y-78863888D02*
X170786000Y-78863888D01*
X172188000Y-78582888D02*
X170708000Y-78582888D01*
X175739000Y-78622888D02*
X174268000Y-78622888D01*
X172188000Y-78342888D02*
X170667000Y-78342888D01*
X172188000Y-79663888D02*
X171224000Y-79663888D01*
X172188000Y-79023888D02*
X170846000Y-79023888D01*
X172188000Y-79743888D02*
X171291000Y-79743888D01*
X175748000Y-78582888D02*
X174268000Y-78582888D01*
X175808000Y-78022888D02*
X170648000Y-78022888D01*
X175642000Y-78943888D02*
X174268000Y-78943888D01*
X175626000Y-78983888D02*
X174268000Y-78983888D01*
X175129000Y-79783888D02*
X174268000Y-79783888D01*
X172188000Y-78502888D02*
X170692000Y-78502888D01*
X175656000Y-78903888D02*
X174268000Y-78903888D01*
X172188000Y-79143888D02*
X170899000Y-79143888D01*
X172188000Y-79263888D02*
X170960000Y-79263888D01*
X172188000Y-79423888D02*
X171053000Y-79423888D01*
X174479000Y-80303888D02*
X174268000Y-80303888D01*
X175323000Y-79543888D02*
X174268000Y-79543888D01*
X172188000Y-78382888D02*
X170672000Y-78382888D01*
X172188000Y-78262888D02*
X170659000Y-78262888D01*
X174782000Y-80103888D02*
X174268000Y-80103888D01*
X172188000Y-79583888D02*
X171163000Y-79583888D01*
X172188000Y-78542888D02*
X170700000Y-78542888D01*
X172188000Y-79103888D02*
X170880000Y-79103888D01*
X172188000Y-79463888D02*
X171079000Y-79463888D01*
X175764000Y-78502888D02*
X174268000Y-78502888D01*
X175165000Y-79743888D02*
X174268000Y-79743888D01*
X175377000Y-79463888D02*
X174268000Y-79463888D01*
X172188000Y-79903888D02*
X171443000Y-79903888D01*
X175808000Y-78062888D02*
X170648000Y-78062888D01*
X172188000Y-78743888D02*
X170748000Y-78743888D01*
X174971000Y-79943888D02*
X174268000Y-79943888D01*
X175475000Y-79303888D02*
X174268000Y-79303888D01*
X172188000Y-80063888D02*
X171623000Y-80063888D01*
X172188000Y-80303888D02*
X171977000Y-80303888D01*
X173746000Y-80583888D02*
X172710000Y-80583888D01*
X175576000Y-79103888D02*
X174268000Y-79103888D01*
X172188000Y-78903888D02*
X170800000Y-78903888D01*
X172188000Y-79783888D02*
X171327000Y-79783888D01*
X174547000Y-80263888D02*
X174268000Y-80263888D01*
X172188000Y-79543888D02*
X171133000Y-79543888D01*
X172188000Y-79623888D02*
X171193000Y-79623888D01*
X175683000Y-78823888D02*
X174268000Y-78823888D01*
X175719000Y-78702888D02*
X174268000Y-78702888D01*
X175771000Y-78462888D02*
X174268000Y-78462888D01*
X172188000Y-79183888D02*
X170918000Y-79183888D01*
X175538000Y-79183888D02*
X174268000Y-79183888D01*
X172188000Y-79063888D02*
X170863000Y-79063888D01*
X175610000Y-79023888D02*
X174268000Y-79023888D01*
X172188000Y-78422888D02*
X170678000Y-78422888D01*
X172188000Y-78783888D02*
X170760000Y-78783888D01*
X175403000Y-79423888D02*
X174268000Y-79423888D01*
X173512000Y-80623888D02*
X172944000Y-80623888D01*
X172188000Y-79223888D02*
X170938000Y-79223888D01*
X175804000Y-78182888D02*
X170652000Y-78182888D01*
X174143000Y-80463888D02*
X172313000Y-80463888D01*
X174833000Y-80063888D02*
X174268000Y-80063888D01*
X174728000Y-80143888D02*
X174268000Y-80143888D01*
X175708000Y-78743888D02*
X174268000Y-78743888D01*
X175784000Y-78382888D02*
X174268000Y-78382888D01*
X175013000Y-79903888D02*
X174268000Y-79903888D01*
X174927000Y-79983888D02*
X174268000Y-79983888D01*
X172188000Y-79703888D02*
X171257000Y-79703888D01*
X172188000Y-79863888D02*
X171402000Y-79863888D01*
X172188000Y-79303888D02*
X170981000Y-79303888D01*
X174033000Y-80503888D02*
X172423000Y-80503888D01*
X175428000Y-79383888D02*
X174268000Y-79383888D01*
X172188000Y-79823888D02*
X171364000Y-79823888D01*
X175232000Y-79663888D02*
X174268000Y-79663888D01*
X174953000Y-75468113D02*
X174453000Y-75468113D01*
X174239000Y-80423888D02*
X172217000Y-80423888D01*
X172188000Y-78702888D02*
X170737000Y-78702888D01*
X172188000Y-78622888D02*
X170717000Y-78622888D01*
X175729000Y-78662888D02*
X174268000Y-78662888D01*
X175496000Y-79263888D02*
X174268000Y-79263888D01*
X175092000Y-79823888D02*
X174268000Y-79823888D01*
X172188000Y-78943888D02*
X170814000Y-78943888D01*
X172188000Y-80263888D02*
X171909000Y-80263888D01*
X175793000Y-78302888D02*
X174268000Y-78302888D01*
X172188000Y-80103888D02*
X171674000Y-80103888D01*
X175593000Y-79063888D02*
X174268000Y-79063888D01*
X174406000Y-80343888D02*
X172050000Y-80343888D01*
X175054000Y-79863888D02*
X174268000Y-79863888D01*
X172188000Y-78662888D02*
X170727000Y-78662888D01*
X173905000Y-80543888D02*
X172551000Y-80543888D01*
X172188000Y-78823888D02*
X170773000Y-78823888D01*
X172188000Y-80183888D02*
X171785000Y-80183888D01*
X175670000Y-78863888D02*
X174268000Y-78863888D01*
X174326000Y-80383888D02*
X172130000Y-80383888D01*
X172188000Y-78983888D02*
X170830000Y-78983888D01*
X172188000Y-79943888D02*
X171485000Y-79943888D01*
X175293000Y-79583888D02*
X174268000Y-79583888D01*
X175801000Y-78222888D02*
X170655000Y-78222888D01*
X175806000Y-78142888D02*
X170650000Y-78142888D01*
X174671000Y-80183888D02*
X174268000Y-80183888D01*
X172188000Y-80223888D02*
X171845000Y-80223888D01*
X172188000Y-79343888D02*
X171004000Y-79343888D01*
X175263000Y-79623888D02*
X174268000Y-79623888D01*
X172188000Y-79503888D02*
X171106000Y-79503888D01*
X172188000Y-79983888D02*
X171529000Y-79983888D01*
X172188000Y-78462888D02*
X170685000Y-78462888D01*
X175557000Y-79143888D02*
X174268000Y-79143888D01*
X175350000Y-79503888D02*
X174268000Y-79503888D01*
X172188000Y-79383888D02*
X171028000Y-79383888D01*
X175199000Y-79703888D02*
X174268000Y-79703888D01*
X175452000Y-79343888D02*
X174268000Y-79343888D01*
X175797000Y-78262888D02*
X174268000Y-78262888D01*
X175807000Y-78102888D02*
X170649000Y-78102888D01*
X175756000Y-78542888D02*
X174268000Y-78542888D01*
X172188000Y-80143888D02*
X171728000Y-80143888D01*
X174703000Y-75218113D02*
X174703000Y-75718113D01*
X175778000Y-78422888D02*
X174268000Y-78422888D01*
X175789000Y-78342888D02*
X174268000Y-78342888D01*
X174611000Y-80223888D02*
X174268000Y-80223888D01*
X175848000Y-78022888D02*
G75*
G03*
X175848000Y-78022888I-2620000J0D01*
G01*
%TO.C,CN7*%
X179488000Y-46990000D02*
X179488000Y-69910000D01*
X179488000Y-44390000D02*
X180818000Y-44390000D01*
X179488000Y-46990000D02*
X182088000Y-46990000D01*
X182088000Y-46990000D02*
X182088000Y-44390000D01*
X179488000Y-69910000D02*
X184688000Y-69910000D01*
X179488000Y-45720000D02*
X179488000Y-44390000D01*
X182088000Y-44390000D02*
X184688000Y-44390000D01*
X184688000Y-44390000D02*
X184688000Y-69910000D01*
%TO.C,CN8*%
X133798000Y-55113000D02*
X133798000Y-53783000D01*
X133798000Y-53783000D02*
X135128000Y-53783000D01*
X138998000Y-53783000D02*
X138998000Y-74223000D01*
X136398000Y-53783000D02*
X138998000Y-53783000D01*
X133798000Y-56383000D02*
X136398000Y-56383000D01*
X133798000Y-74223000D02*
X138998000Y-74223000D01*
X133798000Y-56383000D02*
X133798000Y-74223000D01*
X136398000Y-56383000D02*
X136398000Y-53783000D01*
%TO.C,CN9*%
X136403000Y-76643000D02*
X139003000Y-76643000D01*
X139003000Y-76643000D02*
X139003000Y-114863000D01*
X133803000Y-114863000D02*
X139003000Y-114863000D01*
X133803000Y-77973000D02*
X133803000Y-76643000D01*
X133803000Y-79243000D02*
X133803000Y-114863000D01*
X133803000Y-76643000D02*
X135133000Y-76643000D01*
X136403000Y-79243000D02*
X136403000Y-76643000D01*
X133803000Y-79243000D02*
X136403000Y-79243000D01*
%TO.C,CN10*%
X182081000Y-71563000D02*
X184681000Y-71563000D01*
X179481000Y-72893000D02*
X179481000Y-71563000D01*
X184681000Y-71563000D02*
X184681000Y-114863000D01*
X179481000Y-71563000D02*
X180811000Y-71563000D01*
X182081000Y-74163000D02*
X182081000Y-71563000D01*
X179481000Y-74163000D02*
X179481000Y-114863000D01*
X179481000Y-114863000D02*
X184681000Y-114863000D01*
X179481000Y-74163000D02*
X182081000Y-74163000D01*
%TD*%
M02*
