%TF.GenerationSoftware,KiCad,Pcbnew,(6.0.2-0)*%
%TF.CreationDate,2022-07-26T16:16:35+02:00*%
%TF.ProjectId,stepper_testbench,73746570-7065-4725-9f74-65737462656e,rev?*%
%TF.SameCoordinates,Original*%
%TF.FileFunction,Legend,Top*%
%TF.FilePolarity,Positive*%
%FSLAX46Y46*%
G04 Gerber Fmt 4.6, Leading zero omitted, Abs format (unit mm)*
G04 Created by KiCad (PCBNEW (6.0.2-0)) date 2022-07-26 16:16:35*
%MOMM*%
%LPD*%
G01*
G04 APERTURE LIST*
%ADD10C,0.150000*%
%ADD11C,0.250000*%
%ADD12C,0.120000*%
G04 APERTURE END LIST*
D10*
X134010476Y-135898000D02*
X133934285Y-135850380D01*
X133820000Y-135850380D01*
X133705714Y-135898000D01*
X133629523Y-135993238D01*
X133591428Y-136088476D01*
X133553333Y-136278952D01*
X133553333Y-136421809D01*
X133591428Y-136612285D01*
X133629523Y-136707523D01*
X133705714Y-136802761D01*
X133820000Y-136850380D01*
X133896190Y-136850380D01*
X134010476Y-136802761D01*
X134048571Y-136755142D01*
X134048571Y-136421809D01*
X133896190Y-136421809D01*
X134391428Y-136850380D02*
X134391428Y-135850380D01*
X134848571Y-136850380D01*
X134848571Y-135850380D01*
X135229523Y-136850380D02*
X135229523Y-135850380D01*
X135420000Y-135850380D01*
X135534285Y-135898000D01*
X135610476Y-135993238D01*
X135648571Y-136088476D01*
X135686666Y-136278952D01*
X135686666Y-136421809D01*
X135648571Y-136612285D01*
X135610476Y-136707523D01*
X135534285Y-136802761D01*
X135420000Y-136850380D01*
X135229523Y-136850380D01*
X127508095Y-67318000D02*
X127412857Y-67270380D01*
X127270000Y-67270380D01*
X127127142Y-67318000D01*
X127031904Y-67413238D01*
X126984285Y-67508476D01*
X126936666Y-67698952D01*
X126936666Y-67841809D01*
X126984285Y-68032285D01*
X127031904Y-68127523D01*
X127127142Y-68222761D01*
X127270000Y-68270380D01*
X127365238Y-68270380D01*
X127508095Y-68222761D01*
X127555714Y-68175142D01*
X127555714Y-67841809D01*
X127365238Y-67841809D01*
X127984285Y-68270380D02*
X127984285Y-67270380D01*
X128555714Y-68270380D01*
X128555714Y-67270380D01*
X129031904Y-68270380D02*
X129031904Y-67270380D01*
X129270000Y-67270380D01*
X129412857Y-67318000D01*
X129508095Y-67413238D01*
X129555714Y-67508476D01*
X129603333Y-67698952D01*
X129603333Y-67841809D01*
X129555714Y-68032285D01*
X129508095Y-68127523D01*
X129412857Y-68222761D01*
X129270000Y-68270380D01*
X129031904Y-68270380D01*
X122190095Y-69159428D02*
X122952000Y-69159428D01*
X122571047Y-69540380D02*
X122571047Y-68778476D01*
X123380571Y-68635619D02*
X123428190Y-68588000D01*
X123523428Y-68540380D01*
X123761523Y-68540380D01*
X123856761Y-68588000D01*
X123904380Y-68635619D01*
X123952000Y-68730857D01*
X123952000Y-68826095D01*
X123904380Y-68968952D01*
X123332952Y-69540380D01*
X123952000Y-69540380D01*
X124809142Y-68873714D02*
X124809142Y-69540380D01*
X124571047Y-68492761D02*
X124332952Y-69207047D01*
X124952000Y-69207047D01*
X125190095Y-68540380D02*
X125523428Y-69540380D01*
X125856761Y-68540380D01*
X144764285Y-86939428D02*
X145526190Y-86939428D01*
X145145238Y-87320380D02*
X145145238Y-86558476D01*
X146478571Y-86320380D02*
X146002380Y-86320380D01*
X145954761Y-86796571D01*
X146002380Y-86748952D01*
X146097619Y-86701333D01*
X146335714Y-86701333D01*
X146430952Y-86748952D01*
X146478571Y-86796571D01*
X146526190Y-86891809D01*
X146526190Y-87129904D01*
X146478571Y-87225142D01*
X146430952Y-87272761D01*
X146335714Y-87320380D01*
X146097619Y-87320380D01*
X146002380Y-87272761D01*
X145954761Y-87225142D01*
X146811904Y-86320380D02*
X147145238Y-87320380D01*
X147478571Y-86320380D01*
X144796095Y-82621428D02*
X145558000Y-82621428D01*
X145177047Y-83002380D02*
X145177047Y-82240476D01*
X146558000Y-83002380D02*
X145986571Y-83002380D01*
X146272285Y-83002380D02*
X146272285Y-82002380D01*
X146177047Y-82145238D01*
X146081809Y-82240476D01*
X145986571Y-82288095D01*
X146938952Y-82097619D02*
X146986571Y-82050000D01*
X147081809Y-82002380D01*
X147319904Y-82002380D01*
X147415142Y-82050000D01*
X147462761Y-82097619D01*
X147510380Y-82192857D01*
X147510380Y-82288095D01*
X147462761Y-82430952D01*
X146891333Y-83002380D01*
X147510380Y-83002380D01*
X147796095Y-82002380D02*
X148129428Y-83002380D01*
X148462761Y-82002380D01*
X159988476Y-84510571D02*
X160131333Y-84558190D01*
X160178952Y-84605809D01*
X160226571Y-84701047D01*
X160226571Y-84843904D01*
X160178952Y-84939142D01*
X160131333Y-84986761D01*
X160036095Y-85034380D01*
X159655142Y-85034380D01*
X159655142Y-84034380D01*
X159988476Y-84034380D01*
X160083714Y-84082000D01*
X160131333Y-84129619D01*
X160178952Y-84224857D01*
X160178952Y-84320095D01*
X160131333Y-84415333D01*
X160083714Y-84462952D01*
X159988476Y-84510571D01*
X159655142Y-84510571D01*
X161226571Y-85034380D02*
X160893238Y-84558190D01*
X160655142Y-85034380D02*
X160655142Y-84034380D01*
X161036095Y-84034380D01*
X161131333Y-84082000D01*
X161178952Y-84129619D01*
X161226571Y-84224857D01*
X161226571Y-84367714D01*
X161178952Y-84462952D01*
X161131333Y-84510571D01*
X161036095Y-84558190D01*
X160655142Y-84558190D01*
X161607523Y-84748666D02*
X162083714Y-84748666D01*
X161512285Y-85034380D02*
X161845619Y-84034380D01*
X162178952Y-85034380D01*
X162512285Y-85034380D02*
X162512285Y-84034380D01*
X163083714Y-85034380D02*
X162655142Y-84462952D01*
X163083714Y-84034380D02*
X162512285Y-84605809D01*
X163512285Y-84510571D02*
X163845619Y-84510571D01*
X163988476Y-85034380D02*
X163512285Y-85034380D01*
X163512285Y-84034380D01*
X163988476Y-84034380D01*
X134604476Y-130262380D02*
X135175904Y-130262380D01*
X134890190Y-131262380D02*
X134890190Y-130262380D01*
X135699714Y-130262380D02*
X135890190Y-130262380D01*
X135985428Y-130310000D01*
X136080666Y-130405238D01*
X136128285Y-130595714D01*
X136128285Y-130929047D01*
X136080666Y-131119523D01*
X135985428Y-131214761D01*
X135890190Y-131262380D01*
X135699714Y-131262380D01*
X135604476Y-131214761D01*
X135509238Y-131119523D01*
X135461619Y-130929047D01*
X135461619Y-130595714D01*
X135509238Y-130405238D01*
X135604476Y-130310000D01*
X135699714Y-130262380D01*
X137128285Y-131262380D02*
X136794952Y-130786190D01*
X136556857Y-131262380D02*
X136556857Y-130262380D01*
X136937809Y-130262380D01*
X137033047Y-130310000D01*
X137080666Y-130357619D01*
X137128285Y-130452857D01*
X137128285Y-130595714D01*
X137080666Y-130690952D01*
X137033047Y-130738571D01*
X136937809Y-130786190D01*
X136556857Y-130786190D01*
X138223523Y-131357619D02*
X138128285Y-131310000D01*
X138033047Y-131214761D01*
X137890190Y-131071904D01*
X137794952Y-131024285D01*
X137699714Y-131024285D01*
X137747333Y-131262380D02*
X137652095Y-131214761D01*
X137556857Y-131119523D01*
X137509238Y-130929047D01*
X137509238Y-130595714D01*
X137556857Y-130405238D01*
X137652095Y-130310000D01*
X137747333Y-130262380D01*
X137937809Y-130262380D01*
X138033047Y-130310000D01*
X138128285Y-130405238D01*
X138175904Y-130595714D01*
X138175904Y-130929047D01*
X138128285Y-131119523D01*
X138033047Y-131214761D01*
X137937809Y-131262380D01*
X137747333Y-131262380D01*
X138604476Y-130262380D02*
X138604476Y-131071904D01*
X138652095Y-131167142D01*
X138699714Y-131214761D01*
X138794952Y-131262380D01*
X138985428Y-131262380D01*
X139080666Y-131214761D01*
X139128285Y-131167142D01*
X139175904Y-131071904D01*
X139175904Y-130262380D01*
X139652095Y-130738571D02*
X139985428Y-130738571D01*
X140128285Y-131262380D02*
X139652095Y-131262380D01*
X139652095Y-130262380D01*
X140128285Y-130262380D01*
D11*
X118462976Y-65131761D02*
X118605833Y-65179380D01*
X118843928Y-65179380D01*
X118939166Y-65131761D01*
X118986785Y-65084142D01*
X119034404Y-64988904D01*
X119034404Y-64893666D01*
X118986785Y-64798428D01*
X118939166Y-64750809D01*
X118843928Y-64703190D01*
X118653452Y-64655571D01*
X118558214Y-64607952D01*
X118510595Y-64560333D01*
X118462976Y-64465095D01*
X118462976Y-64369857D01*
X118510595Y-64274619D01*
X118558214Y-64227000D01*
X118653452Y-64179380D01*
X118891547Y-64179380D01*
X119034404Y-64227000D01*
X119320119Y-64179380D02*
X119891547Y-64179380D01*
X119605833Y-65179380D02*
X119605833Y-64179380D01*
X120224880Y-64655571D02*
X120558214Y-64655571D01*
X120701071Y-65179380D02*
X120224880Y-65179380D01*
X120224880Y-64179380D01*
X120701071Y-64179380D01*
X121129642Y-65179380D02*
X121129642Y-64179380D01*
X121510595Y-64179380D01*
X121605833Y-64227000D01*
X121653452Y-64274619D01*
X121701071Y-64369857D01*
X121701071Y-64512714D01*
X121653452Y-64607952D01*
X121605833Y-64655571D01*
X121510595Y-64703190D01*
X121129642Y-64703190D01*
X122129642Y-65179380D02*
X122129642Y-64179380D01*
X122510595Y-64179380D01*
X122605833Y-64227000D01*
X122653452Y-64274619D01*
X122701071Y-64369857D01*
X122701071Y-64512714D01*
X122653452Y-64607952D01*
X122605833Y-64655571D01*
X122510595Y-64703190D01*
X122129642Y-64703190D01*
X123129642Y-64655571D02*
X123462976Y-64655571D01*
X123605833Y-65179380D02*
X123129642Y-65179380D01*
X123129642Y-64179380D01*
X123605833Y-64179380D01*
X124605833Y-65179380D02*
X124272500Y-64703190D01*
X124034404Y-65179380D02*
X124034404Y-64179380D01*
X124415357Y-64179380D01*
X124510595Y-64227000D01*
X124558214Y-64274619D01*
X124605833Y-64369857D01*
X124605833Y-64512714D01*
X124558214Y-64607952D01*
X124510595Y-64655571D01*
X124415357Y-64703190D01*
X124034404Y-64703190D01*
X118462976Y-66741761D02*
X118605833Y-66789380D01*
X118843928Y-66789380D01*
X118939166Y-66741761D01*
X118986785Y-66694142D01*
X119034404Y-66598904D01*
X119034404Y-66503666D01*
X118986785Y-66408428D01*
X118939166Y-66360809D01*
X118843928Y-66313190D01*
X118653452Y-66265571D01*
X118558214Y-66217952D01*
X118510595Y-66170333D01*
X118462976Y-66075095D01*
X118462976Y-65979857D01*
X118510595Y-65884619D01*
X118558214Y-65837000D01*
X118653452Y-65789380D01*
X118891547Y-65789380D01*
X119034404Y-65837000D01*
X119462976Y-65789380D02*
X119462976Y-66598904D01*
X119510595Y-66694142D01*
X119558214Y-66741761D01*
X119653452Y-66789380D01*
X119843928Y-66789380D01*
X119939166Y-66741761D01*
X119986785Y-66694142D01*
X120034404Y-66598904D01*
X120034404Y-65789380D01*
X120510595Y-66789380D02*
X120510595Y-65789380D01*
X120891547Y-65789380D01*
X120986785Y-65837000D01*
X121034404Y-65884619D01*
X121082023Y-65979857D01*
X121082023Y-66122714D01*
X121034404Y-66217952D01*
X120986785Y-66265571D01*
X120891547Y-66313190D01*
X120510595Y-66313190D01*
X121510595Y-66789380D02*
X121510595Y-65789380D01*
X121891547Y-65789380D01*
X121986785Y-65837000D01*
X122034404Y-65884619D01*
X122082023Y-65979857D01*
X122082023Y-66122714D01*
X122034404Y-66217952D01*
X121986785Y-66265571D01*
X121891547Y-66313190D01*
X121510595Y-66313190D01*
X122986785Y-66789380D02*
X122510595Y-66789380D01*
X122510595Y-65789380D01*
X123510595Y-66313190D02*
X123510595Y-66789380D01*
X123177261Y-65789380D02*
X123510595Y-66313190D01*
X123843928Y-65789380D01*
D10*
X144375000Y-133559523D02*
X144327380Y-133635714D01*
X144327380Y-133750000D01*
X144375000Y-133864285D01*
X144470238Y-133940476D01*
X144565476Y-133978571D01*
X144755952Y-134016666D01*
X144898809Y-134016666D01*
X145089285Y-133978571D01*
X145184523Y-133940476D01*
X145279761Y-133864285D01*
X145327380Y-133750000D01*
X145327380Y-133673809D01*
X145279761Y-133559523D01*
X145232142Y-133521428D01*
X144898809Y-133521428D01*
X144898809Y-133673809D01*
X145327380Y-133178571D02*
X144327380Y-133178571D01*
X145327380Y-132721428D01*
X144327380Y-132721428D01*
X145327380Y-132340476D02*
X144327380Y-132340476D01*
X144327380Y-132150000D01*
X144375000Y-132035714D01*
X144470238Y-131959523D01*
X144565476Y-131921428D01*
X144755952Y-131883333D01*
X144898809Y-131883333D01*
X145089285Y-131921428D01*
X145184523Y-131959523D01*
X145279761Y-132035714D01*
X145327380Y-132150000D01*
X145327380Y-132340476D01*
D11*
X153892476Y-64698571D02*
X154035333Y-64746190D01*
X154082952Y-64793809D01*
X154130571Y-64889047D01*
X154130571Y-65031904D01*
X154082952Y-65127142D01*
X154035333Y-65174761D01*
X153940095Y-65222380D01*
X153559142Y-65222380D01*
X153559142Y-64222380D01*
X153892476Y-64222380D01*
X153987714Y-64270000D01*
X154035333Y-64317619D01*
X154082952Y-64412857D01*
X154082952Y-64508095D01*
X154035333Y-64603333D01*
X153987714Y-64650952D01*
X153892476Y-64698571D01*
X153559142Y-64698571D01*
X155130571Y-65222380D02*
X154797238Y-64746190D01*
X154559142Y-65222380D02*
X154559142Y-64222380D01*
X154940095Y-64222380D01*
X155035333Y-64270000D01*
X155082952Y-64317619D01*
X155130571Y-64412857D01*
X155130571Y-64555714D01*
X155082952Y-64650952D01*
X155035333Y-64698571D01*
X154940095Y-64746190D01*
X154559142Y-64746190D01*
X155511523Y-64936666D02*
X155987714Y-64936666D01*
X155416285Y-65222380D02*
X155749619Y-64222380D01*
X156082952Y-65222380D01*
X156416285Y-65222380D02*
X156416285Y-64222380D01*
X156987714Y-65222380D02*
X156559142Y-64650952D01*
X156987714Y-64222380D02*
X156416285Y-64793809D01*
X157416285Y-64698571D02*
X157749619Y-64698571D01*
X157892476Y-65222380D02*
X157416285Y-65222380D01*
X157416285Y-64222380D01*
X157892476Y-64222380D01*
D10*
X149327380Y-133972619D02*
X149327380Y-133515476D01*
X150327380Y-133744047D02*
X149327380Y-133744047D01*
X150327380Y-132791666D02*
X149851190Y-133058333D01*
X150327380Y-133248809D02*
X149327380Y-133248809D01*
X149327380Y-132944047D01*
X149375000Y-132867857D01*
X149422619Y-132829761D01*
X149517857Y-132791666D01*
X149660714Y-132791666D01*
X149755952Y-132829761D01*
X149803571Y-132867857D01*
X149851190Y-132944047D01*
X149851190Y-133248809D01*
X150422619Y-131915476D02*
X150375000Y-131991666D01*
X150279761Y-132067857D01*
X150136904Y-132182142D01*
X150089285Y-132258333D01*
X150089285Y-132334523D01*
X150327380Y-132296428D02*
X150279761Y-132372619D01*
X150184523Y-132448809D01*
X149994047Y-132486904D01*
X149660714Y-132486904D01*
X149470238Y-132448809D01*
X149375000Y-132372619D01*
X149327380Y-132296428D01*
X149327380Y-132144047D01*
X149375000Y-132067857D01*
X149470238Y-131991666D01*
X149660714Y-131953571D01*
X149994047Y-131953571D01*
X150184523Y-131991666D01*
X150279761Y-132067857D01*
X150327380Y-132144047D01*
X150327380Y-132296428D01*
X156663095Y-65875000D02*
X156567857Y-65827380D01*
X156425000Y-65827380D01*
X156282142Y-65875000D01*
X156186904Y-65970238D01*
X156139285Y-66065476D01*
X156091666Y-66255952D01*
X156091666Y-66398809D01*
X156139285Y-66589285D01*
X156186904Y-66684523D01*
X156282142Y-66779761D01*
X156425000Y-66827380D01*
X156520238Y-66827380D01*
X156663095Y-66779761D01*
X156710714Y-66732142D01*
X156710714Y-66398809D01*
X156520238Y-66398809D01*
X157139285Y-66827380D02*
X157139285Y-65827380D01*
X157710714Y-66827380D01*
X157710714Y-65827380D01*
X158186904Y-66827380D02*
X158186904Y-65827380D01*
X158425000Y-65827380D01*
X158567857Y-65875000D01*
X158663095Y-65970238D01*
X158710714Y-66065476D01*
X158758333Y-66255952D01*
X158758333Y-66398809D01*
X158710714Y-66589285D01*
X158663095Y-66684523D01*
X158567857Y-66779761D01*
X158425000Y-66827380D01*
X158186904Y-66827380D01*
X149113095Y-65925000D02*
X149017857Y-65877380D01*
X148875000Y-65877380D01*
X148732142Y-65925000D01*
X148636904Y-66020238D01*
X148589285Y-66115476D01*
X148541666Y-66305952D01*
X148541666Y-66448809D01*
X148589285Y-66639285D01*
X148636904Y-66734523D01*
X148732142Y-66829761D01*
X148875000Y-66877380D01*
X148970238Y-66877380D01*
X149113095Y-66829761D01*
X149160714Y-66782142D01*
X149160714Y-66448809D01*
X148970238Y-66448809D01*
X149589285Y-66877380D02*
X149589285Y-65877380D01*
X150160714Y-66877380D01*
X150160714Y-65877380D01*
X150636904Y-66877380D02*
X150636904Y-65877380D01*
X150875000Y-65877380D01*
X151017857Y-65925000D01*
X151113095Y-66020238D01*
X151160714Y-66115476D01*
X151208333Y-66305952D01*
X151208333Y-66448809D01*
X151160714Y-66639285D01*
X151113095Y-66734523D01*
X151017857Y-66829761D01*
X150875000Y-66877380D01*
X150636904Y-66877380D01*
X145095238Y-66827380D02*
X145095238Y-65827380D01*
X145476190Y-65827380D01*
X145571428Y-65875000D01*
X145619047Y-65922619D01*
X145666666Y-66017857D01*
X145666666Y-66160714D01*
X145619047Y-66255952D01*
X145571428Y-66303571D01*
X145476190Y-66351190D01*
X145095238Y-66351190D01*
X146000000Y-65827380D02*
X146238095Y-66827380D01*
X146428571Y-66113095D01*
X146619047Y-66827380D01*
X146857142Y-65827380D01*
X147238095Y-66827380D02*
X147238095Y-65827380D01*
X147571428Y-66541666D01*
X147904761Y-65827380D01*
X147904761Y-66827380D01*
X142652380Y-133985714D02*
X141652380Y-133985714D01*
X142652380Y-133414285D01*
X141652380Y-133414285D01*
X142557142Y-132366666D02*
X142604761Y-132414285D01*
X142652380Y-132557142D01*
X142652380Y-132652380D01*
X142604761Y-132795238D01*
X142509523Y-132890476D01*
X142414285Y-132938095D01*
X142223809Y-132985714D01*
X142080952Y-132985714D01*
X141890476Y-132938095D01*
X141795238Y-132890476D01*
X141700000Y-132795238D01*
X141652380Y-132652380D01*
X141652380Y-132557142D01*
X141700000Y-132414285D01*
X141747619Y-132366666D01*
D11*
X140717857Y-138252380D02*
X141289285Y-138252380D01*
X141003571Y-139252380D02*
X141003571Y-138252380D01*
X141813095Y-138252380D02*
X142003571Y-138252380D01*
X142098809Y-138300000D01*
X142194047Y-138395238D01*
X142241666Y-138585714D01*
X142241666Y-138919047D01*
X142194047Y-139109523D01*
X142098809Y-139204761D01*
X142003571Y-139252380D01*
X141813095Y-139252380D01*
X141717857Y-139204761D01*
X141622619Y-139109523D01*
X141575000Y-138919047D01*
X141575000Y-138585714D01*
X141622619Y-138395238D01*
X141717857Y-138300000D01*
X141813095Y-138252380D01*
X143241666Y-139252380D02*
X142908333Y-138776190D01*
X142670238Y-139252380D02*
X142670238Y-138252380D01*
X143051190Y-138252380D01*
X143146428Y-138300000D01*
X143194047Y-138347619D01*
X143241666Y-138442857D01*
X143241666Y-138585714D01*
X143194047Y-138680952D01*
X143146428Y-138728571D01*
X143051190Y-138776190D01*
X142670238Y-138776190D01*
X144336904Y-139347619D02*
X144241666Y-139300000D01*
X144146428Y-139204761D01*
X144003571Y-139061904D01*
X143908333Y-139014285D01*
X143813095Y-139014285D01*
X143860714Y-139252380D02*
X143765476Y-139204761D01*
X143670238Y-139109523D01*
X143622619Y-138919047D01*
X143622619Y-138585714D01*
X143670238Y-138395238D01*
X143765476Y-138300000D01*
X143860714Y-138252380D01*
X144051190Y-138252380D01*
X144146428Y-138300000D01*
X144241666Y-138395238D01*
X144289285Y-138585714D01*
X144289285Y-138919047D01*
X144241666Y-139109523D01*
X144146428Y-139204761D01*
X144051190Y-139252380D01*
X143860714Y-139252380D01*
X144717857Y-138252380D02*
X144717857Y-139061904D01*
X144765476Y-139157142D01*
X144813095Y-139204761D01*
X144908333Y-139252380D01*
X145098809Y-139252380D01*
X145194047Y-139204761D01*
X145241666Y-139157142D01*
X145289285Y-139061904D01*
X145289285Y-138252380D01*
X145765476Y-138728571D02*
X146098809Y-138728571D01*
X146241666Y-139252380D02*
X145765476Y-139252380D01*
X145765476Y-138252380D01*
X146241666Y-138252380D01*
X147289285Y-138252380D02*
X147860714Y-138252380D01*
X147575000Y-139252380D02*
X147575000Y-138252380D01*
X148765476Y-139252380D02*
X148432142Y-138776190D01*
X148194047Y-139252380D02*
X148194047Y-138252380D01*
X148575000Y-138252380D01*
X148670238Y-138300000D01*
X148717857Y-138347619D01*
X148765476Y-138442857D01*
X148765476Y-138585714D01*
X148717857Y-138680952D01*
X148670238Y-138728571D01*
X148575000Y-138776190D01*
X148194047Y-138776190D01*
X149146428Y-138966666D02*
X149622619Y-138966666D01*
X149051190Y-139252380D02*
X149384523Y-138252380D01*
X149717857Y-139252380D01*
X150051190Y-139252380D02*
X150051190Y-138252380D01*
X150622619Y-139252380D01*
X150622619Y-138252380D01*
X151051190Y-139204761D02*
X151194047Y-139252380D01*
X151432142Y-139252380D01*
X151527380Y-139204761D01*
X151575000Y-139157142D01*
X151622619Y-139061904D01*
X151622619Y-138966666D01*
X151575000Y-138871428D01*
X151527380Y-138823809D01*
X151432142Y-138776190D01*
X151241666Y-138728571D01*
X151146428Y-138680952D01*
X151098809Y-138633333D01*
X151051190Y-138538095D01*
X151051190Y-138442857D01*
X151098809Y-138347619D01*
X151146428Y-138300000D01*
X151241666Y-138252380D01*
X151479761Y-138252380D01*
X151622619Y-138300000D01*
X152051190Y-139252380D02*
X152051190Y-138252380D01*
X152289285Y-138252380D01*
X152432142Y-138300000D01*
X152527380Y-138395238D01*
X152575000Y-138490476D01*
X152622619Y-138680952D01*
X152622619Y-138823809D01*
X152575000Y-139014285D01*
X152527380Y-139109523D01*
X152432142Y-139204761D01*
X152289285Y-139252380D01*
X152051190Y-139252380D01*
X153051190Y-138252380D02*
X153051190Y-139061904D01*
X153098809Y-139157142D01*
X153146428Y-139204761D01*
X153241666Y-139252380D01*
X153432142Y-139252380D01*
X153527380Y-139204761D01*
X153575000Y-139157142D01*
X153622619Y-139061904D01*
X153622619Y-138252380D01*
X154670238Y-139157142D02*
X154622619Y-139204761D01*
X154479761Y-139252380D01*
X154384523Y-139252380D01*
X154241666Y-139204761D01*
X154146428Y-139109523D01*
X154098809Y-139014285D01*
X154051190Y-138823809D01*
X154051190Y-138680952D01*
X154098809Y-138490476D01*
X154146428Y-138395238D01*
X154241666Y-138300000D01*
X154384523Y-138252380D01*
X154479761Y-138252380D01*
X154622619Y-138300000D01*
X154670238Y-138347619D01*
X155098809Y-138728571D02*
X155432142Y-138728571D01*
X155575000Y-139252380D02*
X155098809Y-139252380D01*
X155098809Y-138252380D01*
X155575000Y-138252380D01*
X156575000Y-139252380D02*
X156241666Y-138776190D01*
X156003571Y-139252380D02*
X156003571Y-138252380D01*
X156384523Y-138252380D01*
X156479761Y-138300000D01*
X156527380Y-138347619D01*
X156575000Y-138442857D01*
X156575000Y-138585714D01*
X156527380Y-138680952D01*
X156479761Y-138728571D01*
X156384523Y-138776190D01*
X156003571Y-138776190D01*
D10*
X140227380Y-133960714D02*
X139227380Y-133960714D01*
X140227380Y-133389285D01*
X139227380Y-133389285D01*
X140132142Y-132341666D02*
X140179761Y-132389285D01*
X140227380Y-132532142D01*
X140227380Y-132627380D01*
X140179761Y-132770238D01*
X140084523Y-132865476D01*
X139989285Y-132913095D01*
X139798809Y-132960714D01*
X139655952Y-132960714D01*
X139465476Y-132913095D01*
X139370238Y-132865476D01*
X139275000Y-132770238D01*
X139227380Y-132627380D01*
X139227380Y-132532142D01*
X139275000Y-132389285D01*
X139322619Y-132341666D01*
X152038095Y-66371428D02*
X152800000Y-66371428D01*
X152419047Y-66752380D02*
X152419047Y-65990476D01*
X153228571Y-65847619D02*
X153276190Y-65800000D01*
X153371428Y-65752380D01*
X153609523Y-65752380D01*
X153704761Y-65800000D01*
X153752380Y-65847619D01*
X153800000Y-65942857D01*
X153800000Y-66038095D01*
X153752380Y-66180952D01*
X153180952Y-66752380D01*
X153800000Y-66752380D01*
X154657142Y-66085714D02*
X154657142Y-66752380D01*
X154419047Y-65704761D02*
X154180952Y-66419047D01*
X154800000Y-66419047D01*
X155038095Y-65752380D02*
X155371428Y-66752380D01*
X155704761Y-65752380D01*
X158877380Y-72161904D02*
X158877380Y-71590476D01*
X159877380Y-71876190D02*
X158877380Y-71876190D01*
X158877380Y-71352380D02*
X159877380Y-70685714D01*
X158877380Y-70685714D02*
X159877380Y-71352380D01*
X146925000Y-133559523D02*
X146877380Y-133635714D01*
X146877380Y-133750000D01*
X146925000Y-133864285D01*
X147020238Y-133940476D01*
X147115476Y-133978571D01*
X147305952Y-134016666D01*
X147448809Y-134016666D01*
X147639285Y-133978571D01*
X147734523Y-133940476D01*
X147829761Y-133864285D01*
X147877380Y-133750000D01*
X147877380Y-133673809D01*
X147829761Y-133559523D01*
X147782142Y-133521428D01*
X147448809Y-133521428D01*
X147448809Y-133673809D01*
X147877380Y-133178571D02*
X146877380Y-133178571D01*
X147877380Y-132721428D01*
X146877380Y-132721428D01*
X147877380Y-132340476D02*
X146877380Y-132340476D01*
X146877380Y-132150000D01*
X146925000Y-132035714D01*
X147020238Y-131959523D01*
X147115476Y-131921428D01*
X147305952Y-131883333D01*
X147448809Y-131883333D01*
X147639285Y-131921428D01*
X147734523Y-131959523D01*
X147829761Y-132035714D01*
X147877380Y-132150000D01*
X147877380Y-132340476D01*
X157977380Y-133520238D02*
X157977380Y-133977380D01*
X157977380Y-133748809D02*
X156977380Y-133748809D01*
X157120238Y-133825000D01*
X157215476Y-133901190D01*
X157263095Y-133977380D01*
X157072619Y-133215476D02*
X157025000Y-133177380D01*
X156977380Y-133101190D01*
X156977380Y-132910714D01*
X157025000Y-132834523D01*
X157072619Y-132796428D01*
X157167857Y-132758333D01*
X157263095Y-132758333D01*
X157405952Y-132796428D01*
X157977380Y-133253571D01*
X157977380Y-132758333D01*
X156977380Y-132529761D02*
X157977380Y-132263095D01*
X156977380Y-131996428D01*
D11*
X160202761Y-65677380D02*
X160202761Y-66486904D01*
X160250380Y-66582142D01*
X160298000Y-66629761D01*
X160393238Y-66677380D01*
X160583714Y-66677380D01*
X160678952Y-66629761D01*
X160726571Y-66582142D01*
X160774190Y-66486904D01*
X160774190Y-65677380D01*
X161202761Y-66391666D02*
X161678952Y-66391666D01*
X161107523Y-66677380D02*
X161440857Y-65677380D01*
X161774190Y-66677380D01*
X162678952Y-66677380D02*
X162345619Y-66201190D01*
X162107523Y-66677380D02*
X162107523Y-65677380D01*
X162488476Y-65677380D01*
X162583714Y-65725000D01*
X162631333Y-65772619D01*
X162678952Y-65867857D01*
X162678952Y-66010714D01*
X162631333Y-66105952D01*
X162583714Y-66153571D01*
X162488476Y-66201190D01*
X162107523Y-66201190D01*
X162964666Y-65677380D02*
X163536095Y-65677380D01*
X163250380Y-66677380D02*
X163250380Y-65677380D01*
X132517047Y-65352380D02*
X132517047Y-64352380D01*
X132898000Y-64352380D01*
X132993238Y-64400000D01*
X133040857Y-64447619D01*
X133088476Y-64542857D01*
X133088476Y-64685714D01*
X133040857Y-64780952D01*
X132993238Y-64828571D01*
X132898000Y-64876190D01*
X132517047Y-64876190D01*
X133421809Y-64352380D02*
X133659904Y-65352380D01*
X133850380Y-64638095D01*
X134040857Y-65352380D01*
X134278952Y-64352380D01*
X135231333Y-65352380D02*
X134898000Y-64876190D01*
X134659904Y-65352380D02*
X134659904Y-64352380D01*
X135040857Y-64352380D01*
X135136095Y-64400000D01*
X135183714Y-64447619D01*
X135231333Y-64542857D01*
X135231333Y-64685714D01*
X135183714Y-64780952D01*
X135136095Y-64828571D01*
X135040857Y-64876190D01*
X134659904Y-64876190D01*
X136421809Y-65352380D02*
X136421809Y-64352380D01*
X136898000Y-65352380D02*
X136898000Y-64352380D01*
X137469428Y-65352380D01*
X137469428Y-64352380D01*
X137945619Y-65352380D02*
X137945619Y-64352380D01*
X138326571Y-64352380D01*
X138421809Y-64400000D01*
X138469428Y-64447619D01*
X138517047Y-64542857D01*
X138517047Y-64685714D01*
X138469428Y-64780952D01*
X138421809Y-64828571D01*
X138326571Y-64876190D01*
X137945619Y-64876190D01*
X138945619Y-64352380D02*
X138945619Y-65161904D01*
X138993238Y-65257142D01*
X139040857Y-65304761D01*
X139136095Y-65352380D01*
X139326571Y-65352380D01*
X139421809Y-65304761D01*
X139469428Y-65257142D01*
X139517047Y-65161904D01*
X139517047Y-64352380D01*
X139850380Y-64352380D02*
X140421809Y-64352380D01*
X140136095Y-65352380D02*
X140136095Y-64352380D01*
D10*
X155402380Y-133495238D02*
X155402380Y-133952380D01*
X155402380Y-133723809D02*
X154402380Y-133723809D01*
X154545238Y-133800000D01*
X154640476Y-133876190D01*
X154688095Y-133952380D01*
X154497619Y-133190476D02*
X154450000Y-133152380D01*
X154402380Y-133076190D01*
X154402380Y-132885714D01*
X154450000Y-132809523D01*
X154497619Y-132771428D01*
X154592857Y-132733333D01*
X154688095Y-132733333D01*
X154830952Y-132771428D01*
X155402380Y-133228571D01*
X155402380Y-132733333D01*
X154402380Y-132504761D02*
X155402380Y-132238095D01*
X154402380Y-131971428D01*
X137413095Y-65850000D02*
X137317857Y-65802380D01*
X137175000Y-65802380D01*
X137032142Y-65850000D01*
X136936904Y-65945238D01*
X136889285Y-66040476D01*
X136841666Y-66230952D01*
X136841666Y-66373809D01*
X136889285Y-66564285D01*
X136936904Y-66659523D01*
X137032142Y-66754761D01*
X137175000Y-66802380D01*
X137270238Y-66802380D01*
X137413095Y-66754761D01*
X137460714Y-66707142D01*
X137460714Y-66373809D01*
X137270238Y-66373809D01*
X137889285Y-66802380D02*
X137889285Y-65802380D01*
X138460714Y-66802380D01*
X138460714Y-65802380D01*
X138936904Y-66802380D02*
X138936904Y-65802380D01*
X139175000Y-65802380D01*
X139317857Y-65850000D01*
X139413095Y-65945238D01*
X139460714Y-66040476D01*
X139508333Y-66230952D01*
X139508333Y-66373809D01*
X139460714Y-66564285D01*
X139413095Y-66659523D01*
X139317857Y-66754761D01*
X139175000Y-66802380D01*
X138936904Y-66802380D01*
D11*
X143208761Y-64778571D02*
X143542095Y-64778571D01*
X143684952Y-65302380D02*
X143208761Y-65302380D01*
X143208761Y-64302380D01*
X143684952Y-64302380D01*
X144018285Y-64302380D02*
X144684952Y-65302380D01*
X144684952Y-64302380D02*
X144018285Y-65302380D01*
X144923047Y-64302380D02*
X145494476Y-64302380D01*
X145208761Y-65302380D02*
X145208761Y-64302380D01*
X146589714Y-65302380D02*
X146589714Y-64302380D01*
X146970666Y-64302380D01*
X147065904Y-64350000D01*
X147113523Y-64397619D01*
X147161142Y-64492857D01*
X147161142Y-64635714D01*
X147113523Y-64730952D01*
X147065904Y-64778571D01*
X146970666Y-64826190D01*
X146589714Y-64826190D01*
X147494476Y-64302380D02*
X147732571Y-65302380D01*
X147923047Y-64588095D01*
X148113523Y-65302380D01*
X148351619Y-64302380D01*
X148732571Y-65302380D02*
X148732571Y-64302380D01*
X149065904Y-65016666D01*
X149399238Y-64302380D01*
X149399238Y-65302380D01*
D10*
X122936095Y-71636000D02*
X122840857Y-71588380D01*
X122698000Y-71588380D01*
X122555142Y-71636000D01*
X122459904Y-71731238D01*
X122412285Y-71826476D01*
X122364666Y-72016952D01*
X122364666Y-72159809D01*
X122412285Y-72350285D01*
X122459904Y-72445523D01*
X122555142Y-72540761D01*
X122698000Y-72588380D01*
X122793238Y-72588380D01*
X122936095Y-72540761D01*
X122983714Y-72493142D01*
X122983714Y-72159809D01*
X122793238Y-72159809D01*
X123412285Y-72588380D02*
X123412285Y-71588380D01*
X123983714Y-72588380D01*
X123983714Y-71588380D01*
X124459904Y-72588380D02*
X124459904Y-71588380D01*
X124698000Y-71588380D01*
X124840857Y-71636000D01*
X124936095Y-71731238D01*
X124983714Y-71826476D01*
X125031333Y-72016952D01*
X125031333Y-72159809D01*
X124983714Y-72350285D01*
X124936095Y-72445523D01*
X124840857Y-72540761D01*
X124698000Y-72588380D01*
X124459904Y-72588380D01*
X159927380Y-68991666D02*
X159451190Y-69325000D01*
X159927380Y-69563095D02*
X158927380Y-69563095D01*
X158927380Y-69182142D01*
X158975000Y-69086904D01*
X159022619Y-69039285D01*
X159117857Y-68991666D01*
X159260714Y-68991666D01*
X159355952Y-69039285D01*
X159403571Y-69086904D01*
X159451190Y-69182142D01*
X159451190Y-69563095D01*
X158927380Y-68658333D02*
X159927380Y-67991666D01*
X158927380Y-67991666D02*
X159927380Y-68658333D01*
X132213095Y-66371428D02*
X132975000Y-66371428D01*
X132594047Y-66752380D02*
X132594047Y-65990476D01*
X133403571Y-65847619D02*
X133451190Y-65800000D01*
X133546428Y-65752380D01*
X133784523Y-65752380D01*
X133879761Y-65800000D01*
X133927380Y-65847619D01*
X133975000Y-65942857D01*
X133975000Y-66038095D01*
X133927380Y-66180952D01*
X133355952Y-66752380D01*
X133975000Y-66752380D01*
X134832142Y-66085714D02*
X134832142Y-66752380D01*
X134594047Y-65704761D02*
X134355952Y-66419047D01*
X134975000Y-66419047D01*
X135213095Y-65752380D02*
X135546428Y-66752380D01*
X135879761Y-65752380D01*
X140738095Y-66396428D02*
X141500000Y-66396428D01*
X141119047Y-66777380D02*
X141119047Y-66015476D01*
X141928571Y-65872619D02*
X141976190Y-65825000D01*
X142071428Y-65777380D01*
X142309523Y-65777380D01*
X142404761Y-65825000D01*
X142452380Y-65872619D01*
X142500000Y-65967857D01*
X142500000Y-66063095D01*
X142452380Y-66205952D01*
X141880952Y-66777380D01*
X142500000Y-66777380D01*
X143357142Y-66110714D02*
X143357142Y-66777380D01*
X143119047Y-65729761D02*
X142880952Y-66444047D01*
X143500000Y-66444047D01*
X143738095Y-65777380D02*
X144071428Y-66777380D01*
X144404761Y-65777380D01*
X151877380Y-133997619D02*
X151877380Y-133540476D01*
X152877380Y-133769047D02*
X151877380Y-133769047D01*
X152877380Y-132816666D02*
X152401190Y-133083333D01*
X152877380Y-133273809D02*
X151877380Y-133273809D01*
X151877380Y-132969047D01*
X151925000Y-132892857D01*
X151972619Y-132854761D01*
X152067857Y-132816666D01*
X152210714Y-132816666D01*
X152305952Y-132854761D01*
X152353571Y-132892857D01*
X152401190Y-132969047D01*
X152401190Y-133273809D01*
X152972619Y-131940476D02*
X152925000Y-132016666D01*
X152829761Y-132092857D01*
X152686904Y-132207142D01*
X152639285Y-132283333D01*
X152639285Y-132359523D01*
X152877380Y-132321428D02*
X152829761Y-132397619D01*
X152734523Y-132473809D01*
X152544047Y-132511904D01*
X152210714Y-132511904D01*
X152020238Y-132473809D01*
X151925000Y-132397619D01*
X151877380Y-132321428D01*
X151877380Y-132169047D01*
X151925000Y-132092857D01*
X152020238Y-132016666D01*
X152210714Y-131978571D01*
X152544047Y-131978571D01*
X152734523Y-132016666D01*
X152829761Y-132092857D01*
X152877380Y-132169047D01*
X152877380Y-132321428D01*
%TO.C,C7*%
X161045142Y-90590666D02*
X161092761Y-90638285D01*
X161140380Y-90781142D01*
X161140380Y-90876380D01*
X161092761Y-91019238D01*
X160997523Y-91114476D01*
X160902285Y-91162095D01*
X160711809Y-91209714D01*
X160568952Y-91209714D01*
X160378476Y-91162095D01*
X160283238Y-91114476D01*
X160188000Y-91019238D01*
X160140380Y-90876380D01*
X160140380Y-90781142D01*
X160188000Y-90638285D01*
X160235619Y-90590666D01*
X160140380Y-90257333D02*
X160140380Y-89590666D01*
X161140380Y-90019238D01*
%TO.C,R26*%
X163012380Y-96908857D02*
X162536190Y-97242190D01*
X163012380Y-97480285D02*
X162012380Y-97480285D01*
X162012380Y-97099333D01*
X162060000Y-97004095D01*
X162107619Y-96956476D01*
X162202857Y-96908857D01*
X162345714Y-96908857D01*
X162440952Y-96956476D01*
X162488571Y-97004095D01*
X162536190Y-97099333D01*
X162536190Y-97480285D01*
X162107619Y-96527904D02*
X162060000Y-96480285D01*
X162012380Y-96385047D01*
X162012380Y-96146952D01*
X162060000Y-96051714D01*
X162107619Y-96004095D01*
X162202857Y-95956476D01*
X162298095Y-95956476D01*
X162440952Y-96004095D01*
X163012380Y-96575523D01*
X163012380Y-95956476D01*
X162012380Y-95099333D02*
X162012380Y-95289809D01*
X162060000Y-95385047D01*
X162107619Y-95432666D01*
X162250476Y-95527904D01*
X162440952Y-95575523D01*
X162821904Y-95575523D01*
X162917142Y-95527904D01*
X162964761Y-95480285D01*
X163012380Y-95385047D01*
X163012380Y-95194571D01*
X162964761Y-95099333D01*
X162917142Y-95051714D01*
X162821904Y-95004095D01*
X162583809Y-95004095D01*
X162488571Y-95051714D01*
X162440952Y-95099333D01*
X162393333Y-95194571D01*
X162393333Y-95385047D01*
X162440952Y-95480285D01*
X162488571Y-95527904D01*
X162583809Y-95575523D01*
%TO.C,FB1*%
X132516571Y-69921333D02*
X132516571Y-70254666D01*
X133040380Y-70254666D02*
X132040380Y-70254666D01*
X132040380Y-69778476D01*
X132516571Y-69064190D02*
X132564190Y-68921333D01*
X132611809Y-68873714D01*
X132707047Y-68826095D01*
X132849904Y-68826095D01*
X132945142Y-68873714D01*
X132992761Y-68921333D01*
X133040380Y-69016571D01*
X133040380Y-69397523D01*
X132040380Y-69397523D01*
X132040380Y-69064190D01*
X132088000Y-68968952D01*
X132135619Y-68921333D01*
X132230857Y-68873714D01*
X132326095Y-68873714D01*
X132421333Y-68921333D01*
X132468952Y-68968952D01*
X132516571Y-69064190D01*
X132516571Y-69397523D01*
X133040380Y-67873714D02*
X133040380Y-68445142D01*
X133040380Y-68159428D02*
X132040380Y-68159428D01*
X132183238Y-68254666D01*
X132278476Y-68349904D01*
X132326095Y-68445142D01*
%TO.C,TP2*%
X137676095Y-128992380D02*
X138247523Y-128992380D01*
X137961809Y-129992380D02*
X137961809Y-128992380D01*
X138580857Y-129992380D02*
X138580857Y-128992380D01*
X138961809Y-128992380D01*
X139057047Y-129040000D01*
X139104666Y-129087619D01*
X139152285Y-129182857D01*
X139152285Y-129325714D01*
X139104666Y-129420952D01*
X139057047Y-129468571D01*
X138961809Y-129516190D01*
X138580857Y-129516190D01*
X139533238Y-129087619D02*
X139580857Y-129040000D01*
X139676095Y-128992380D01*
X139914190Y-128992380D01*
X140009428Y-129040000D01*
X140057047Y-129087619D01*
X140104666Y-129182857D01*
X140104666Y-129278095D01*
X140057047Y-129420952D01*
X139485619Y-129992380D01*
X140104666Y-129992380D01*
%TO.C,R1*%
X151582380Y-82462666D02*
X151106190Y-82796000D01*
X151582380Y-83034095D02*
X150582380Y-83034095D01*
X150582380Y-82653142D01*
X150630000Y-82557904D01*
X150677619Y-82510285D01*
X150772857Y-82462666D01*
X150915714Y-82462666D01*
X151010952Y-82510285D01*
X151058571Y-82557904D01*
X151106190Y-82653142D01*
X151106190Y-83034095D01*
X151582380Y-81510285D02*
X151582380Y-82081714D01*
X151582380Y-81796000D02*
X150582380Y-81796000D01*
X150725238Y-81891238D01*
X150820476Y-81986476D01*
X150868095Y-82081714D01*
%TO.C,R12*%
X145724142Y-89446380D02*
X145390809Y-88970190D01*
X145152714Y-89446380D02*
X145152714Y-88446380D01*
X145533666Y-88446380D01*
X145628904Y-88494000D01*
X145676523Y-88541619D01*
X145724142Y-88636857D01*
X145724142Y-88779714D01*
X145676523Y-88874952D01*
X145628904Y-88922571D01*
X145533666Y-88970190D01*
X145152714Y-88970190D01*
X146676523Y-89446380D02*
X146105095Y-89446380D01*
X146390809Y-89446380D02*
X146390809Y-88446380D01*
X146295571Y-88589238D01*
X146200333Y-88684476D01*
X146105095Y-88732095D01*
X147057476Y-88541619D02*
X147105095Y-88494000D01*
X147200333Y-88446380D01*
X147438428Y-88446380D01*
X147533666Y-88494000D01*
X147581285Y-88541619D01*
X147628904Y-88636857D01*
X147628904Y-88732095D01*
X147581285Y-88874952D01*
X147009857Y-89446380D01*
X147628904Y-89446380D01*
%TO.C,TP3*%
X144788095Y-80732380D02*
X145359523Y-80732380D01*
X145073809Y-81732380D02*
X145073809Y-80732380D01*
X145692857Y-81732380D02*
X145692857Y-80732380D01*
X146073809Y-80732380D01*
X146169047Y-80780000D01*
X146216666Y-80827619D01*
X146264285Y-80922857D01*
X146264285Y-81065714D01*
X146216666Y-81160952D01*
X146169047Y-81208571D01*
X146073809Y-81256190D01*
X145692857Y-81256190D01*
X146597619Y-80732380D02*
X147216666Y-80732380D01*
X146883333Y-81113333D01*
X147026190Y-81113333D01*
X147121428Y-81160952D01*
X147169047Y-81208571D01*
X147216666Y-81303809D01*
X147216666Y-81541904D01*
X147169047Y-81637142D01*
X147121428Y-81684761D01*
X147026190Y-81732380D01*
X146740476Y-81732380D01*
X146645238Y-81684761D01*
X146597619Y-81637142D01*
%TO.C,C15*%
X140251142Y-86474857D02*
X140298761Y-86522476D01*
X140346380Y-86665333D01*
X140346380Y-86760571D01*
X140298761Y-86903428D01*
X140203523Y-86998666D01*
X140108285Y-87046285D01*
X139917809Y-87093904D01*
X139774952Y-87093904D01*
X139584476Y-87046285D01*
X139489238Y-86998666D01*
X139394000Y-86903428D01*
X139346380Y-86760571D01*
X139346380Y-86665333D01*
X139394000Y-86522476D01*
X139441619Y-86474857D01*
X140346380Y-85522476D02*
X140346380Y-86093904D01*
X140346380Y-85808190D02*
X139346380Y-85808190D01*
X139489238Y-85903428D01*
X139584476Y-85998666D01*
X139632095Y-86093904D01*
X139346380Y-84617714D02*
X139346380Y-85093904D01*
X139822571Y-85141523D01*
X139774952Y-85093904D01*
X139727333Y-84998666D01*
X139727333Y-84760571D01*
X139774952Y-84665333D01*
X139822571Y-84617714D01*
X139917809Y-84570095D01*
X140155904Y-84570095D01*
X140251142Y-84617714D01*
X140298761Y-84665333D01*
X140346380Y-84760571D01*
X140346380Y-84998666D01*
X140298761Y-85093904D01*
X140251142Y-85141523D01*
%TO.C,D7*%
X129992380Y-131040095D02*
X128992380Y-131040095D01*
X128992380Y-130802000D01*
X129040000Y-130659142D01*
X129135238Y-130563904D01*
X129230476Y-130516285D01*
X129420952Y-130468666D01*
X129563809Y-130468666D01*
X129754285Y-130516285D01*
X129849523Y-130563904D01*
X129944761Y-130659142D01*
X129992380Y-130802000D01*
X129992380Y-131040095D01*
X128992380Y-130135333D02*
X128992380Y-129468666D01*
X129992380Y-129897238D01*
%TO.C,R23*%
X127800380Y-118752857D02*
X127324190Y-119086190D01*
X127800380Y-119324285D02*
X126800380Y-119324285D01*
X126800380Y-118943333D01*
X126848000Y-118848095D01*
X126895619Y-118800476D01*
X126990857Y-118752857D01*
X127133714Y-118752857D01*
X127228952Y-118800476D01*
X127276571Y-118848095D01*
X127324190Y-118943333D01*
X127324190Y-119324285D01*
X126895619Y-118371904D02*
X126848000Y-118324285D01*
X126800380Y-118229047D01*
X126800380Y-117990952D01*
X126848000Y-117895714D01*
X126895619Y-117848095D01*
X126990857Y-117800476D01*
X127086095Y-117800476D01*
X127228952Y-117848095D01*
X127800380Y-118419523D01*
X127800380Y-117800476D01*
X126800380Y-117467142D02*
X126800380Y-116848095D01*
X127181333Y-117181428D01*
X127181333Y-117038571D01*
X127228952Y-116943333D01*
X127276571Y-116895714D01*
X127371809Y-116848095D01*
X127609904Y-116848095D01*
X127705142Y-116895714D01*
X127752761Y-116943333D01*
X127800380Y-117038571D01*
X127800380Y-117324285D01*
X127752761Y-117419523D01*
X127705142Y-117467142D01*
%TO.C,R25*%
X147010380Y-98241857D02*
X146534190Y-98575190D01*
X147010380Y-98813285D02*
X146010380Y-98813285D01*
X146010380Y-98432333D01*
X146058000Y-98337095D01*
X146105619Y-98289476D01*
X146200857Y-98241857D01*
X146343714Y-98241857D01*
X146438952Y-98289476D01*
X146486571Y-98337095D01*
X146534190Y-98432333D01*
X146534190Y-98813285D01*
X146105619Y-97860904D02*
X146058000Y-97813285D01*
X146010380Y-97718047D01*
X146010380Y-97479952D01*
X146058000Y-97384714D01*
X146105619Y-97337095D01*
X146200857Y-97289476D01*
X146296095Y-97289476D01*
X146438952Y-97337095D01*
X147010380Y-97908523D01*
X147010380Y-97289476D01*
X146010380Y-96384714D02*
X146010380Y-96860904D01*
X146486571Y-96908523D01*
X146438952Y-96860904D01*
X146391333Y-96765666D01*
X146391333Y-96527571D01*
X146438952Y-96432333D01*
X146486571Y-96384714D01*
X146581809Y-96337095D01*
X146819904Y-96337095D01*
X146915142Y-96384714D01*
X146962761Y-96432333D01*
X147010380Y-96527571D01*
X147010380Y-96765666D01*
X146962761Y-96860904D01*
X146915142Y-96908523D01*
%TO.C,U2*%
X146184380Y-123237904D02*
X146993904Y-123237904D01*
X147089142Y-123190285D01*
X147136761Y-123142666D01*
X147184380Y-123047428D01*
X147184380Y-122856952D01*
X147136761Y-122761714D01*
X147089142Y-122714095D01*
X146993904Y-122666476D01*
X146184380Y-122666476D01*
X146279619Y-122237904D02*
X146232000Y-122190285D01*
X146184380Y-122095047D01*
X146184380Y-121856952D01*
X146232000Y-121761714D01*
X146279619Y-121714095D01*
X146374857Y-121666476D01*
X146470095Y-121666476D01*
X146612952Y-121714095D01*
X147184380Y-122285523D01*
X147184380Y-121666476D01*
%TO.C,R7*%
X144073333Y-108506380D02*
X143740000Y-108030190D01*
X143501904Y-108506380D02*
X143501904Y-107506380D01*
X143882857Y-107506380D01*
X143978095Y-107554000D01*
X144025714Y-107601619D01*
X144073333Y-107696857D01*
X144073333Y-107839714D01*
X144025714Y-107934952D01*
X143978095Y-107982571D01*
X143882857Y-108030190D01*
X143501904Y-108030190D01*
X144406666Y-107506380D02*
X145073333Y-107506380D01*
X144644761Y-108506380D01*
%TO.C,R19*%
X129151142Y-136207880D02*
X128817809Y-135731690D01*
X128579714Y-136207880D02*
X128579714Y-135207880D01*
X128960666Y-135207880D01*
X129055904Y-135255500D01*
X129103523Y-135303119D01*
X129151142Y-135398357D01*
X129151142Y-135541214D01*
X129103523Y-135636452D01*
X129055904Y-135684071D01*
X128960666Y-135731690D01*
X128579714Y-135731690D01*
X130103523Y-136207880D02*
X129532095Y-136207880D01*
X129817809Y-136207880D02*
X129817809Y-135207880D01*
X129722571Y-135350738D01*
X129627333Y-135445976D01*
X129532095Y-135493595D01*
X130579714Y-136207880D02*
X130770190Y-136207880D01*
X130865428Y-136160261D01*
X130913047Y-136112642D01*
X131008285Y-135969785D01*
X131055904Y-135779309D01*
X131055904Y-135398357D01*
X131008285Y-135303119D01*
X130960666Y-135255500D01*
X130865428Y-135207880D01*
X130674952Y-135207880D01*
X130579714Y-135255500D01*
X130532095Y-135303119D01*
X130484476Y-135398357D01*
X130484476Y-135636452D01*
X130532095Y-135731690D01*
X130579714Y-135779309D01*
X130674952Y-135826928D01*
X130865428Y-135826928D01*
X130960666Y-135779309D01*
X131008285Y-135731690D01*
X131055904Y-135636452D01*
%TO.C,R2*%
X158233333Y-127227380D02*
X157900000Y-126751190D01*
X157661904Y-127227380D02*
X157661904Y-126227380D01*
X158042857Y-126227380D01*
X158138095Y-126275000D01*
X158185714Y-126322619D01*
X158233333Y-126417857D01*
X158233333Y-126560714D01*
X158185714Y-126655952D01*
X158138095Y-126703571D01*
X158042857Y-126751190D01*
X157661904Y-126751190D01*
X158614285Y-126322619D02*
X158661904Y-126275000D01*
X158757142Y-126227380D01*
X158995238Y-126227380D01*
X159090476Y-126275000D01*
X159138095Y-126322619D01*
X159185714Y-126417857D01*
X159185714Y-126513095D01*
X159138095Y-126655952D01*
X158566666Y-127227380D01*
X159185714Y-127227380D01*
%TO.C,R8*%
X144073333Y-106777380D02*
X143740000Y-106301190D01*
X143501904Y-106777380D02*
X143501904Y-105777380D01*
X143882857Y-105777380D01*
X143978095Y-105825000D01*
X144025714Y-105872619D01*
X144073333Y-105967857D01*
X144073333Y-106110714D01*
X144025714Y-106205952D01*
X143978095Y-106253571D01*
X143882857Y-106301190D01*
X143501904Y-106301190D01*
X144644761Y-106205952D02*
X144549523Y-106158333D01*
X144501904Y-106110714D01*
X144454285Y-106015476D01*
X144454285Y-105967857D01*
X144501904Y-105872619D01*
X144549523Y-105825000D01*
X144644761Y-105777380D01*
X144835238Y-105777380D01*
X144930476Y-105825000D01*
X144978095Y-105872619D01*
X145025714Y-105967857D01*
X145025714Y-106015476D01*
X144978095Y-106110714D01*
X144930476Y-106158333D01*
X144835238Y-106205952D01*
X144644761Y-106205952D01*
X144549523Y-106253571D01*
X144501904Y-106301190D01*
X144454285Y-106396428D01*
X144454285Y-106586904D01*
X144501904Y-106682142D01*
X144549523Y-106729761D01*
X144644761Y-106777380D01*
X144835238Y-106777380D01*
X144930476Y-106729761D01*
X144978095Y-106682142D01*
X145025714Y-106586904D01*
X145025714Y-106396428D01*
X144978095Y-106301190D01*
X144930476Y-106253571D01*
X144835238Y-106205952D01*
%TO.C,C9*%
X158683333Y-128907142D02*
X158635714Y-128954761D01*
X158492857Y-129002380D01*
X158397619Y-129002380D01*
X158254761Y-128954761D01*
X158159523Y-128859523D01*
X158111904Y-128764285D01*
X158064285Y-128573809D01*
X158064285Y-128430952D01*
X158111904Y-128240476D01*
X158159523Y-128145238D01*
X158254761Y-128050000D01*
X158397619Y-128002380D01*
X158492857Y-128002380D01*
X158635714Y-128050000D01*
X158683333Y-128097619D01*
X159159523Y-129002380D02*
X159350000Y-129002380D01*
X159445238Y-128954761D01*
X159492857Y-128907142D01*
X159588095Y-128764285D01*
X159635714Y-128573809D01*
X159635714Y-128192857D01*
X159588095Y-128097619D01*
X159540476Y-128050000D01*
X159445238Y-128002380D01*
X159254761Y-128002380D01*
X159159523Y-128050000D01*
X159111904Y-128097619D01*
X159064285Y-128192857D01*
X159064285Y-128430952D01*
X159111904Y-128526190D01*
X159159523Y-128573809D01*
X159254761Y-128621428D01*
X159445238Y-128621428D01*
X159540476Y-128573809D01*
X159588095Y-128526190D01*
X159635714Y-128430952D01*
%TO.C,R10*%
X143454380Y-119006857D02*
X142978190Y-119340190D01*
X143454380Y-119578285D02*
X142454380Y-119578285D01*
X142454380Y-119197333D01*
X142502000Y-119102095D01*
X142549619Y-119054476D01*
X142644857Y-119006857D01*
X142787714Y-119006857D01*
X142882952Y-119054476D01*
X142930571Y-119102095D01*
X142978190Y-119197333D01*
X142978190Y-119578285D01*
X143454380Y-118054476D02*
X143454380Y-118625904D01*
X143454380Y-118340190D02*
X142454380Y-118340190D01*
X142597238Y-118435428D01*
X142692476Y-118530666D01*
X142740095Y-118625904D01*
X142454380Y-117435428D02*
X142454380Y-117340190D01*
X142502000Y-117244952D01*
X142549619Y-117197333D01*
X142644857Y-117149714D01*
X142835333Y-117102095D01*
X143073428Y-117102095D01*
X143263904Y-117149714D01*
X143359142Y-117197333D01*
X143406761Y-117244952D01*
X143454380Y-117340190D01*
X143454380Y-117435428D01*
X143406761Y-117530666D01*
X143359142Y-117578285D01*
X143263904Y-117625904D01*
X143073428Y-117673523D01*
X142835333Y-117673523D01*
X142644857Y-117625904D01*
X142549619Y-117578285D01*
X142502000Y-117530666D01*
X142454380Y-117435428D01*
%TO.C,C19*%
X161647142Y-94622857D02*
X161694761Y-94670476D01*
X161742380Y-94813333D01*
X161742380Y-94908571D01*
X161694761Y-95051428D01*
X161599523Y-95146666D01*
X161504285Y-95194285D01*
X161313809Y-95241904D01*
X161170952Y-95241904D01*
X160980476Y-95194285D01*
X160885238Y-95146666D01*
X160790000Y-95051428D01*
X160742380Y-94908571D01*
X160742380Y-94813333D01*
X160790000Y-94670476D01*
X160837619Y-94622857D01*
X161742380Y-93670476D02*
X161742380Y-94241904D01*
X161742380Y-93956190D02*
X160742380Y-93956190D01*
X160885238Y-94051428D01*
X160980476Y-94146666D01*
X161028095Y-94241904D01*
X161742380Y-93194285D02*
X161742380Y-93003809D01*
X161694761Y-92908571D01*
X161647142Y-92860952D01*
X161504285Y-92765714D01*
X161313809Y-92718095D01*
X160932857Y-92718095D01*
X160837619Y-92765714D01*
X160790000Y-92813333D01*
X160742380Y-92908571D01*
X160742380Y-93099047D01*
X160790000Y-93194285D01*
X160837619Y-93241904D01*
X160932857Y-93289523D01*
X161170952Y-93289523D01*
X161266190Y-93241904D01*
X161313809Y-93194285D01*
X161361428Y-93099047D01*
X161361428Y-92908571D01*
X161313809Y-92813333D01*
X161266190Y-92765714D01*
X161170952Y-92718095D01*
%TO.C,U5*%
X131572095Y-82050380D02*
X131572095Y-82859904D01*
X131619714Y-82955142D01*
X131667333Y-83002761D01*
X131762571Y-83050380D01*
X131953047Y-83050380D01*
X132048285Y-83002761D01*
X132095904Y-82955142D01*
X132143523Y-82859904D01*
X132143523Y-82050380D01*
X133095904Y-82050380D02*
X132619714Y-82050380D01*
X132572095Y-82526571D01*
X132619714Y-82478952D01*
X132714952Y-82431333D01*
X132953047Y-82431333D01*
X133048285Y-82478952D01*
X133095904Y-82526571D01*
X133143523Y-82621809D01*
X133143523Y-82859904D01*
X133095904Y-82955142D01*
X133048285Y-83002761D01*
X132953047Y-83050380D01*
X132714952Y-83050380D01*
X132619714Y-83002761D01*
X132572095Y-82955142D01*
%TO.C,C11*%
X138041142Y-96115142D02*
X137993523Y-96162761D01*
X137850666Y-96210380D01*
X137755428Y-96210380D01*
X137612571Y-96162761D01*
X137517333Y-96067523D01*
X137469714Y-95972285D01*
X137422095Y-95781809D01*
X137422095Y-95638952D01*
X137469714Y-95448476D01*
X137517333Y-95353238D01*
X137612571Y-95258000D01*
X137755428Y-95210380D01*
X137850666Y-95210380D01*
X137993523Y-95258000D01*
X138041142Y-95305619D01*
X138993523Y-96210380D02*
X138422095Y-96210380D01*
X138707809Y-96210380D02*
X138707809Y-95210380D01*
X138612571Y-95353238D01*
X138517333Y-95448476D01*
X138422095Y-95496095D01*
X139945904Y-96210380D02*
X139374476Y-96210380D01*
X139660190Y-96210380D02*
X139660190Y-95210380D01*
X139564952Y-95353238D01*
X139469714Y-95448476D01*
X139374476Y-95496095D01*
%TO.C,TP4*%
X144788095Y-85050380D02*
X145359523Y-85050380D01*
X145073809Y-86050380D02*
X145073809Y-85050380D01*
X145692857Y-86050380D02*
X145692857Y-85050380D01*
X146073809Y-85050380D01*
X146169047Y-85098000D01*
X146216666Y-85145619D01*
X146264285Y-85240857D01*
X146264285Y-85383714D01*
X146216666Y-85478952D01*
X146169047Y-85526571D01*
X146073809Y-85574190D01*
X145692857Y-85574190D01*
X147121428Y-85383714D02*
X147121428Y-86050380D01*
X146883333Y-85002761D02*
X146645238Y-85717047D01*
X147264285Y-85717047D01*
%TO.C,U6*%
X131318095Y-95537880D02*
X131318095Y-96347404D01*
X131365714Y-96442642D01*
X131413333Y-96490261D01*
X131508571Y-96537880D01*
X131699047Y-96537880D01*
X131794285Y-96490261D01*
X131841904Y-96442642D01*
X131889523Y-96347404D01*
X131889523Y-95537880D01*
X132794285Y-95537880D02*
X132603809Y-95537880D01*
X132508571Y-95585500D01*
X132460952Y-95633119D01*
X132365714Y-95775976D01*
X132318095Y-95966452D01*
X132318095Y-96347404D01*
X132365714Y-96442642D01*
X132413333Y-96490261D01*
X132508571Y-96537880D01*
X132699047Y-96537880D01*
X132794285Y-96490261D01*
X132841904Y-96442642D01*
X132889523Y-96347404D01*
X132889523Y-96109309D01*
X132841904Y-96014071D01*
X132794285Y-95966452D01*
X132699047Y-95918833D01*
X132508571Y-95918833D01*
X132413333Y-95966452D01*
X132365714Y-96014071D01*
X132318095Y-96109309D01*
%TO.C,R11*%
X133723142Y-116022380D02*
X133389809Y-115546190D01*
X133151714Y-116022380D02*
X133151714Y-115022380D01*
X133532666Y-115022380D01*
X133627904Y-115070000D01*
X133675523Y-115117619D01*
X133723142Y-115212857D01*
X133723142Y-115355714D01*
X133675523Y-115450952D01*
X133627904Y-115498571D01*
X133532666Y-115546190D01*
X133151714Y-115546190D01*
X134675523Y-116022380D02*
X134104095Y-116022380D01*
X134389809Y-116022380D02*
X134389809Y-115022380D01*
X134294571Y-115165238D01*
X134199333Y-115260476D01*
X134104095Y-115308095D01*
X135627904Y-116022380D02*
X135056476Y-116022380D01*
X135342190Y-116022380D02*
X135342190Y-115022380D01*
X135246952Y-115165238D01*
X135151714Y-115260476D01*
X135056476Y-115308095D01*
%TO.C,D4*%
X131341904Y-75382380D02*
X131341904Y-74382380D01*
X131580000Y-74382380D01*
X131722857Y-74430000D01*
X131818095Y-74525238D01*
X131865714Y-74620476D01*
X131913333Y-74810952D01*
X131913333Y-74953809D01*
X131865714Y-75144285D01*
X131818095Y-75239523D01*
X131722857Y-75334761D01*
X131580000Y-75382380D01*
X131341904Y-75382380D01*
X132770476Y-74715714D02*
X132770476Y-75382380D01*
X132532380Y-74334761D02*
X132294285Y-75049047D01*
X132913333Y-75049047D01*
%TO.C,R9*%
X144724380Y-124626666D02*
X144248190Y-124960000D01*
X144724380Y-125198095D02*
X143724380Y-125198095D01*
X143724380Y-124817142D01*
X143772000Y-124721904D01*
X143819619Y-124674285D01*
X143914857Y-124626666D01*
X144057714Y-124626666D01*
X144152952Y-124674285D01*
X144200571Y-124721904D01*
X144248190Y-124817142D01*
X144248190Y-125198095D01*
X144724380Y-124150476D02*
X144724380Y-123960000D01*
X144676761Y-123864761D01*
X144629142Y-123817142D01*
X144486285Y-123721904D01*
X144295809Y-123674285D01*
X143914857Y-123674285D01*
X143819619Y-123721904D01*
X143772000Y-123769523D01*
X143724380Y-123864761D01*
X143724380Y-124055238D01*
X143772000Y-124150476D01*
X143819619Y-124198095D01*
X143914857Y-124245714D01*
X144152952Y-124245714D01*
X144248190Y-124198095D01*
X144295809Y-124150476D01*
X144343428Y-124055238D01*
X144343428Y-123864761D01*
X144295809Y-123769523D01*
X144248190Y-123721904D01*
X144152952Y-123674285D01*
%TO.C,U4*%
X152664095Y-87556380D02*
X152664095Y-88365904D01*
X152711714Y-88461142D01*
X152759333Y-88508761D01*
X152854571Y-88556380D01*
X153045047Y-88556380D01*
X153140285Y-88508761D01*
X153187904Y-88461142D01*
X153235523Y-88365904D01*
X153235523Y-87556380D01*
X154140285Y-87889714D02*
X154140285Y-88556380D01*
X153902190Y-87508761D02*
X153664095Y-88223047D01*
X154283142Y-88223047D01*
%TO.C,J2*%
X159332380Y-136208333D02*
X160046666Y-136208333D01*
X160189523Y-136255952D01*
X160284761Y-136351190D01*
X160332380Y-136494047D01*
X160332380Y-136589285D01*
X159427619Y-135779761D02*
X159380000Y-135732142D01*
X159332380Y-135636904D01*
X159332380Y-135398809D01*
X159380000Y-135303571D01*
X159427619Y-135255952D01*
X159522857Y-135208333D01*
X159618095Y-135208333D01*
X159760952Y-135255952D01*
X160332380Y-135827380D01*
X160332380Y-135208333D01*
%TO.C,J4*%
X139914380Y-69167333D02*
X140628666Y-69167333D01*
X140771523Y-69214952D01*
X140866761Y-69310190D01*
X140914380Y-69453047D01*
X140914380Y-69548285D01*
X140247714Y-68262571D02*
X140914380Y-68262571D01*
X139866761Y-68500666D02*
X140581047Y-68738761D01*
X140581047Y-68119714D01*
%TO.C,C17*%
X126693142Y-108084857D02*
X126740761Y-108132476D01*
X126788380Y-108275333D01*
X126788380Y-108370571D01*
X126740761Y-108513428D01*
X126645523Y-108608666D01*
X126550285Y-108656285D01*
X126359809Y-108703904D01*
X126216952Y-108703904D01*
X126026476Y-108656285D01*
X125931238Y-108608666D01*
X125836000Y-108513428D01*
X125788380Y-108370571D01*
X125788380Y-108275333D01*
X125836000Y-108132476D01*
X125883619Y-108084857D01*
X126788380Y-107132476D02*
X126788380Y-107703904D01*
X126788380Y-107418190D02*
X125788380Y-107418190D01*
X125931238Y-107513428D01*
X126026476Y-107608666D01*
X126074095Y-107703904D01*
X125788380Y-106799142D02*
X125788380Y-106132476D01*
X126788380Y-106561047D01*
%TO.C,D8*%
X126022380Y-137161595D02*
X125022380Y-137161595D01*
X125022380Y-136923500D01*
X125070000Y-136780642D01*
X125165238Y-136685404D01*
X125260476Y-136637785D01*
X125450952Y-136590166D01*
X125593809Y-136590166D01*
X125784285Y-136637785D01*
X125879523Y-136685404D01*
X125974761Y-136780642D01*
X126022380Y-136923500D01*
X126022380Y-137161595D01*
X125450952Y-136018738D02*
X125403333Y-136113976D01*
X125355714Y-136161595D01*
X125260476Y-136209214D01*
X125212857Y-136209214D01*
X125117619Y-136161595D01*
X125070000Y-136113976D01*
X125022380Y-136018738D01*
X125022380Y-135828261D01*
X125070000Y-135733023D01*
X125117619Y-135685404D01*
X125212857Y-135637785D01*
X125260476Y-135637785D01*
X125355714Y-135685404D01*
X125403333Y-135733023D01*
X125450952Y-135828261D01*
X125450952Y-136018738D01*
X125498571Y-136113976D01*
X125546190Y-136161595D01*
X125641428Y-136209214D01*
X125831904Y-136209214D01*
X125927142Y-136161595D01*
X125974761Y-136113976D01*
X126022380Y-136018738D01*
X126022380Y-135828261D01*
X125974761Y-135733023D01*
X125927142Y-135685404D01*
X125831904Y-135637785D01*
X125641428Y-135637785D01*
X125546190Y-135685404D01*
X125498571Y-135733023D01*
X125450952Y-135828261D01*
%TO.C,R5*%
X149042380Y-72556666D02*
X148566190Y-72890000D01*
X149042380Y-73128095D02*
X148042380Y-73128095D01*
X148042380Y-72747142D01*
X148090000Y-72651904D01*
X148137619Y-72604285D01*
X148232857Y-72556666D01*
X148375714Y-72556666D01*
X148470952Y-72604285D01*
X148518571Y-72651904D01*
X148566190Y-72747142D01*
X148566190Y-73128095D01*
X148042380Y-71651904D02*
X148042380Y-72128095D01*
X148518571Y-72175714D01*
X148470952Y-72128095D01*
X148423333Y-72032857D01*
X148423333Y-71794761D01*
X148470952Y-71699523D01*
X148518571Y-71651904D01*
X148613809Y-71604285D01*
X148851904Y-71604285D01*
X148947142Y-71651904D01*
X148994761Y-71699523D01*
X149042380Y-71794761D01*
X149042380Y-72032857D01*
X148994761Y-72128095D01*
X148947142Y-72175714D01*
%TO.C,R21*%
X140406380Y-90647357D02*
X139930190Y-90980690D01*
X140406380Y-91218785D02*
X139406380Y-91218785D01*
X139406380Y-90837833D01*
X139454000Y-90742595D01*
X139501619Y-90694976D01*
X139596857Y-90647357D01*
X139739714Y-90647357D01*
X139834952Y-90694976D01*
X139882571Y-90742595D01*
X139930190Y-90837833D01*
X139930190Y-91218785D01*
X139501619Y-90266404D02*
X139454000Y-90218785D01*
X139406380Y-90123547D01*
X139406380Y-89885452D01*
X139454000Y-89790214D01*
X139501619Y-89742595D01*
X139596857Y-89694976D01*
X139692095Y-89694976D01*
X139834952Y-89742595D01*
X140406380Y-90314023D01*
X140406380Y-89694976D01*
X140406380Y-88742595D02*
X140406380Y-89314023D01*
X140406380Y-89028309D02*
X139406380Y-89028309D01*
X139549238Y-89123547D01*
X139644476Y-89218785D01*
X139692095Y-89314023D01*
%TO.C,R20*%
X140581142Y-75382380D02*
X140247809Y-74906190D01*
X140009714Y-75382380D02*
X140009714Y-74382380D01*
X140390666Y-74382380D01*
X140485904Y-74430000D01*
X140533523Y-74477619D01*
X140581142Y-74572857D01*
X140581142Y-74715714D01*
X140533523Y-74810952D01*
X140485904Y-74858571D01*
X140390666Y-74906190D01*
X140009714Y-74906190D01*
X140962095Y-74477619D02*
X141009714Y-74430000D01*
X141104952Y-74382380D01*
X141343047Y-74382380D01*
X141438285Y-74430000D01*
X141485904Y-74477619D01*
X141533523Y-74572857D01*
X141533523Y-74668095D01*
X141485904Y-74810952D01*
X140914476Y-75382380D01*
X141533523Y-75382380D01*
X142152571Y-74382380D02*
X142247809Y-74382380D01*
X142343047Y-74430000D01*
X142390666Y-74477619D01*
X142438285Y-74572857D01*
X142485904Y-74763333D01*
X142485904Y-75001428D01*
X142438285Y-75191904D01*
X142390666Y-75287142D01*
X142343047Y-75334761D01*
X142247809Y-75382380D01*
X142152571Y-75382380D01*
X142057333Y-75334761D01*
X142009714Y-75287142D01*
X141962095Y-75191904D01*
X141914476Y-75001428D01*
X141914476Y-74763333D01*
X141962095Y-74572857D01*
X142009714Y-74477619D01*
X142057333Y-74430000D01*
X142152571Y-74382380D01*
%TO.C,D1*%
X153439904Y-74946380D02*
X153439904Y-73946380D01*
X153678000Y-73946380D01*
X153820857Y-73994000D01*
X153916095Y-74089238D01*
X153963714Y-74184476D01*
X154011333Y-74374952D01*
X154011333Y-74517809D01*
X153963714Y-74708285D01*
X153916095Y-74803523D01*
X153820857Y-74898761D01*
X153678000Y-74946380D01*
X153439904Y-74946380D01*
X154963714Y-74946380D02*
X154392285Y-74946380D01*
X154678000Y-74946380D02*
X154678000Y-73946380D01*
X154582761Y-74089238D01*
X154487523Y-74184476D01*
X154392285Y-74232095D01*
%TO.C,R16*%
X127292380Y-104782857D02*
X126816190Y-105116190D01*
X127292380Y-105354285D02*
X126292380Y-105354285D01*
X126292380Y-104973333D01*
X126340000Y-104878095D01*
X126387619Y-104830476D01*
X126482857Y-104782857D01*
X126625714Y-104782857D01*
X126720952Y-104830476D01*
X126768571Y-104878095D01*
X126816190Y-104973333D01*
X126816190Y-105354285D01*
X127292380Y-103830476D02*
X127292380Y-104401904D01*
X127292380Y-104116190D02*
X126292380Y-104116190D01*
X126435238Y-104211428D01*
X126530476Y-104306666D01*
X126578095Y-104401904D01*
X126292380Y-102973333D02*
X126292380Y-103163809D01*
X126340000Y-103259047D01*
X126387619Y-103306666D01*
X126530476Y-103401904D01*
X126720952Y-103449523D01*
X127101904Y-103449523D01*
X127197142Y-103401904D01*
X127244761Y-103354285D01*
X127292380Y-103259047D01*
X127292380Y-103068571D01*
X127244761Y-102973333D01*
X127197142Y-102925714D01*
X127101904Y-102878095D01*
X126863809Y-102878095D01*
X126768571Y-102925714D01*
X126720952Y-102973333D01*
X126673333Y-103068571D01*
X126673333Y-103259047D01*
X126720952Y-103354285D01*
X126768571Y-103401904D01*
X126863809Y-103449523D01*
%TO.C,C16*%
X139743142Y-99747745D02*
X139790761Y-99795364D01*
X139838380Y-99938221D01*
X139838380Y-100033459D01*
X139790761Y-100176316D01*
X139695523Y-100271554D01*
X139600285Y-100319173D01*
X139409809Y-100366792D01*
X139266952Y-100366792D01*
X139076476Y-100319173D01*
X138981238Y-100271554D01*
X138886000Y-100176316D01*
X138838380Y-100033459D01*
X138838380Y-99938221D01*
X138886000Y-99795364D01*
X138933619Y-99747745D01*
X139838380Y-98795364D02*
X139838380Y-99366792D01*
X139838380Y-99081078D02*
X138838380Y-99081078D01*
X138981238Y-99176316D01*
X139076476Y-99271554D01*
X139124095Y-99366792D01*
X138838380Y-97938221D02*
X138838380Y-98128697D01*
X138886000Y-98223935D01*
X138933619Y-98271554D01*
X139076476Y-98366792D01*
X139266952Y-98414411D01*
X139647904Y-98414411D01*
X139743142Y-98366792D01*
X139790761Y-98319173D01*
X139838380Y-98223935D01*
X139838380Y-98033459D01*
X139790761Y-97938221D01*
X139743142Y-97890602D01*
X139647904Y-97842983D01*
X139409809Y-97842983D01*
X139314571Y-97890602D01*
X139266952Y-97938221D01*
X139219333Y-98033459D01*
X139219333Y-98223935D01*
X139266952Y-98319173D01*
X139314571Y-98366792D01*
X139409809Y-98414411D01*
%TO.C,TP1*%
X125738095Y-72604380D02*
X126309523Y-72604380D01*
X126023809Y-73604380D02*
X126023809Y-72604380D01*
X126642857Y-73604380D02*
X126642857Y-72604380D01*
X127023809Y-72604380D01*
X127119047Y-72652000D01*
X127166666Y-72699619D01*
X127214285Y-72794857D01*
X127214285Y-72937714D01*
X127166666Y-73032952D01*
X127119047Y-73080571D01*
X127023809Y-73128190D01*
X126642857Y-73128190D01*
X128166666Y-73604380D02*
X127595238Y-73604380D01*
X127880952Y-73604380D02*
X127880952Y-72604380D01*
X127785714Y-72747238D01*
X127690476Y-72842476D01*
X127595238Y-72890095D01*
%TO.C,C14*%
X132377142Y-99747745D02*
X132424761Y-99795364D01*
X132472380Y-99938221D01*
X132472380Y-100033459D01*
X132424761Y-100176316D01*
X132329523Y-100271554D01*
X132234285Y-100319173D01*
X132043809Y-100366792D01*
X131900952Y-100366792D01*
X131710476Y-100319173D01*
X131615238Y-100271554D01*
X131520000Y-100176316D01*
X131472380Y-100033459D01*
X131472380Y-99938221D01*
X131520000Y-99795364D01*
X131567619Y-99747745D01*
X132472380Y-98795364D02*
X132472380Y-99366792D01*
X132472380Y-99081078D02*
X131472380Y-99081078D01*
X131615238Y-99176316D01*
X131710476Y-99271554D01*
X131758095Y-99366792D01*
X131805714Y-97938221D02*
X132472380Y-97938221D01*
X131424761Y-98176316D02*
X132139047Y-98414411D01*
X132139047Y-97795364D01*
%TO.C,D2*%
X133627904Y-73096380D02*
X133627904Y-72096380D01*
X133866000Y-72096380D01*
X134008857Y-72144000D01*
X134104095Y-72239238D01*
X134151714Y-72334476D01*
X134199333Y-72524952D01*
X134199333Y-72667809D01*
X134151714Y-72858285D01*
X134104095Y-72953523D01*
X134008857Y-73048761D01*
X133866000Y-73096380D01*
X133627904Y-73096380D01*
X134580285Y-72191619D02*
X134627904Y-72144000D01*
X134723142Y-72096380D01*
X134961238Y-72096380D01*
X135056476Y-72144000D01*
X135104095Y-72191619D01*
X135151714Y-72286857D01*
X135151714Y-72382095D01*
X135104095Y-72524952D01*
X134532666Y-73096380D01*
X135151714Y-73096380D01*
%TO.C,Q1*%
X151423619Y-76803238D02*
X151376000Y-76898476D01*
X151280761Y-76993714D01*
X151137904Y-77136571D01*
X151090285Y-77231809D01*
X151090285Y-77327047D01*
X151328380Y-77279428D02*
X151280761Y-77374666D01*
X151185523Y-77469904D01*
X150995047Y-77517523D01*
X150661714Y-77517523D01*
X150471238Y-77469904D01*
X150376000Y-77374666D01*
X150328380Y-77279428D01*
X150328380Y-77088952D01*
X150376000Y-76993714D01*
X150471238Y-76898476D01*
X150661714Y-76850857D01*
X150995047Y-76850857D01*
X151185523Y-76898476D01*
X151280761Y-76993714D01*
X151328380Y-77088952D01*
X151328380Y-77279428D01*
X151328380Y-75898476D02*
X151328380Y-76469904D01*
X151328380Y-76184190D02*
X150328380Y-76184190D01*
X150471238Y-76279428D01*
X150566476Y-76374666D01*
X150614095Y-76469904D01*
%TO.C,R15*%
X144067142Y-105052380D02*
X143733809Y-104576190D01*
X143495714Y-105052380D02*
X143495714Y-104052380D01*
X143876666Y-104052380D01*
X143971904Y-104100000D01*
X144019523Y-104147619D01*
X144067142Y-104242857D01*
X144067142Y-104385714D01*
X144019523Y-104480952D01*
X143971904Y-104528571D01*
X143876666Y-104576190D01*
X143495714Y-104576190D01*
X145019523Y-105052380D02*
X144448095Y-105052380D01*
X144733809Y-105052380D02*
X144733809Y-104052380D01*
X144638571Y-104195238D01*
X144543333Y-104290476D01*
X144448095Y-104338095D01*
X145924285Y-104052380D02*
X145448095Y-104052380D01*
X145400476Y-104528571D01*
X145448095Y-104480952D01*
X145543333Y-104433333D01*
X145781428Y-104433333D01*
X145876666Y-104480952D01*
X145924285Y-104528571D01*
X145971904Y-104623809D01*
X145971904Y-104861904D01*
X145924285Y-104957142D01*
X145876666Y-105004761D01*
X145781428Y-105052380D01*
X145543333Y-105052380D01*
X145448095Y-105004761D01*
X145400476Y-104957142D01*
%TO.C,R22*%
X143454380Y-122562857D02*
X142978190Y-122896190D01*
X143454380Y-123134285D02*
X142454380Y-123134285D01*
X142454380Y-122753333D01*
X142502000Y-122658095D01*
X142549619Y-122610476D01*
X142644857Y-122562857D01*
X142787714Y-122562857D01*
X142882952Y-122610476D01*
X142930571Y-122658095D01*
X142978190Y-122753333D01*
X142978190Y-123134285D01*
X142549619Y-122181904D02*
X142502000Y-122134285D01*
X142454380Y-122039047D01*
X142454380Y-121800952D01*
X142502000Y-121705714D01*
X142549619Y-121658095D01*
X142644857Y-121610476D01*
X142740095Y-121610476D01*
X142882952Y-121658095D01*
X143454380Y-122229523D01*
X143454380Y-121610476D01*
X142549619Y-121229523D02*
X142502000Y-121181904D01*
X142454380Y-121086666D01*
X142454380Y-120848571D01*
X142502000Y-120753333D01*
X142549619Y-120705714D01*
X142644857Y-120658095D01*
X142740095Y-120658095D01*
X142882952Y-120705714D01*
X143454380Y-121277142D01*
X143454380Y-120658095D01*
%TO.C,R14*%
X143352380Y-94982857D02*
X142876190Y-95316190D01*
X143352380Y-95554285D02*
X142352380Y-95554285D01*
X142352380Y-95173333D01*
X142400000Y-95078095D01*
X142447619Y-95030476D01*
X142542857Y-94982857D01*
X142685714Y-94982857D01*
X142780952Y-95030476D01*
X142828571Y-95078095D01*
X142876190Y-95173333D01*
X142876190Y-95554285D01*
X143352380Y-94030476D02*
X143352380Y-94601904D01*
X143352380Y-94316190D02*
X142352380Y-94316190D01*
X142495238Y-94411428D01*
X142590476Y-94506666D01*
X142638095Y-94601904D01*
X142685714Y-93173333D02*
X143352380Y-93173333D01*
X142304761Y-93411428D02*
X143019047Y-93649523D01*
X143019047Y-93030476D01*
%TO.C,C5*%
X128357333Y-114149142D02*
X128309714Y-114196761D01*
X128166857Y-114244380D01*
X128071619Y-114244380D01*
X127928761Y-114196761D01*
X127833523Y-114101523D01*
X127785904Y-114006285D01*
X127738285Y-113815809D01*
X127738285Y-113672952D01*
X127785904Y-113482476D01*
X127833523Y-113387238D01*
X127928761Y-113292000D01*
X128071619Y-113244380D01*
X128166857Y-113244380D01*
X128309714Y-113292000D01*
X128357333Y-113339619D01*
X129262095Y-113244380D02*
X128785904Y-113244380D01*
X128738285Y-113720571D01*
X128785904Y-113672952D01*
X128881142Y-113625333D01*
X129119238Y-113625333D01*
X129214476Y-113672952D01*
X129262095Y-113720571D01*
X129309714Y-113815809D01*
X129309714Y-114053904D01*
X129262095Y-114149142D01*
X129214476Y-114196761D01*
X129119238Y-114244380D01*
X128881142Y-114244380D01*
X128785904Y-114196761D01*
X128738285Y-114149142D01*
%TO.C,R13*%
X145077380Y-94919857D02*
X144601190Y-95253190D01*
X145077380Y-95491285D02*
X144077380Y-95491285D01*
X144077380Y-95110333D01*
X144125000Y-95015095D01*
X144172619Y-94967476D01*
X144267857Y-94919857D01*
X144410714Y-94919857D01*
X144505952Y-94967476D01*
X144553571Y-95015095D01*
X144601190Y-95110333D01*
X144601190Y-95491285D01*
X145077380Y-93967476D02*
X145077380Y-94538904D01*
X145077380Y-94253190D02*
X144077380Y-94253190D01*
X144220238Y-94348428D01*
X144315476Y-94443666D01*
X144363095Y-94538904D01*
X144077380Y-93634142D02*
X144077380Y-93015095D01*
X144458333Y-93348428D01*
X144458333Y-93205571D01*
X144505952Y-93110333D01*
X144553571Y-93062714D01*
X144648809Y-93015095D01*
X144886904Y-93015095D01*
X144982142Y-93062714D01*
X145029761Y-93110333D01*
X145077380Y-93205571D01*
X145077380Y-93491285D01*
X145029761Y-93586523D01*
X144982142Y-93634142D01*
%TO.C,R24*%
X127800380Y-125801857D02*
X127324190Y-126135190D01*
X127800380Y-126373285D02*
X126800380Y-126373285D01*
X126800380Y-125992333D01*
X126848000Y-125897095D01*
X126895619Y-125849476D01*
X126990857Y-125801857D01*
X127133714Y-125801857D01*
X127228952Y-125849476D01*
X127276571Y-125897095D01*
X127324190Y-125992333D01*
X127324190Y-126373285D01*
X126895619Y-125420904D02*
X126848000Y-125373285D01*
X126800380Y-125278047D01*
X126800380Y-125039952D01*
X126848000Y-124944714D01*
X126895619Y-124897095D01*
X126990857Y-124849476D01*
X127086095Y-124849476D01*
X127228952Y-124897095D01*
X127800380Y-125468523D01*
X127800380Y-124849476D01*
X127133714Y-123992333D02*
X127800380Y-123992333D01*
X126752761Y-124230428D02*
X127467047Y-124468523D01*
X127467047Y-123849476D01*
%TO.C,C8*%
X125817333Y-82653142D02*
X125769714Y-82700761D01*
X125626857Y-82748380D01*
X125531619Y-82748380D01*
X125388761Y-82700761D01*
X125293523Y-82605523D01*
X125245904Y-82510285D01*
X125198285Y-82319809D01*
X125198285Y-82176952D01*
X125245904Y-81986476D01*
X125293523Y-81891238D01*
X125388761Y-81796000D01*
X125531619Y-81748380D01*
X125626857Y-81748380D01*
X125769714Y-81796000D01*
X125817333Y-81843619D01*
X126388761Y-82176952D02*
X126293523Y-82129333D01*
X126245904Y-82081714D01*
X126198285Y-81986476D01*
X126198285Y-81938857D01*
X126245904Y-81843619D01*
X126293523Y-81796000D01*
X126388761Y-81748380D01*
X126579238Y-81748380D01*
X126674476Y-81796000D01*
X126722095Y-81843619D01*
X126769714Y-81938857D01*
X126769714Y-81986476D01*
X126722095Y-82081714D01*
X126674476Y-82129333D01*
X126579238Y-82176952D01*
X126388761Y-82176952D01*
X126293523Y-82224571D01*
X126245904Y-82272190D01*
X126198285Y-82367428D01*
X126198285Y-82557904D01*
X126245904Y-82653142D01*
X126293523Y-82700761D01*
X126388761Y-82748380D01*
X126579238Y-82748380D01*
X126674476Y-82700761D01*
X126722095Y-82653142D01*
X126769714Y-82557904D01*
X126769714Y-82367428D01*
X126722095Y-82272190D01*
X126674476Y-82224571D01*
X126579238Y-82176952D01*
%TO.C,J6*%
X118538666Y-73874380D02*
X118538666Y-74588666D01*
X118491047Y-74731523D01*
X118395809Y-74826761D01*
X118252952Y-74874380D01*
X118157714Y-74874380D01*
X119443428Y-73874380D02*
X119252952Y-73874380D01*
X119157714Y-73922000D01*
X119110095Y-73969619D01*
X119014857Y-74112476D01*
X118967238Y-74302952D01*
X118967238Y-74683904D01*
X119014857Y-74779142D01*
X119062476Y-74826761D01*
X119157714Y-74874380D01*
X119348190Y-74874380D01*
X119443428Y-74826761D01*
X119491047Y-74779142D01*
X119538666Y-74683904D01*
X119538666Y-74445809D01*
X119491047Y-74350571D01*
X119443428Y-74302952D01*
X119348190Y-74255333D01*
X119157714Y-74255333D01*
X119062476Y-74302952D01*
X119014857Y-74350571D01*
X118967238Y-74445809D01*
%TO.C,C13*%
X132631142Y-86474857D02*
X132678761Y-86522476D01*
X132726380Y-86665333D01*
X132726380Y-86760571D01*
X132678761Y-86903428D01*
X132583523Y-86998666D01*
X132488285Y-87046285D01*
X132297809Y-87093904D01*
X132154952Y-87093904D01*
X131964476Y-87046285D01*
X131869238Y-86998666D01*
X131774000Y-86903428D01*
X131726380Y-86760571D01*
X131726380Y-86665333D01*
X131774000Y-86522476D01*
X131821619Y-86474857D01*
X132726380Y-85522476D02*
X132726380Y-86093904D01*
X132726380Y-85808190D02*
X131726380Y-85808190D01*
X131869238Y-85903428D01*
X131964476Y-85998666D01*
X132012095Y-86093904D01*
X131726380Y-85189142D02*
X131726380Y-84570095D01*
X132107333Y-84903428D01*
X132107333Y-84760571D01*
X132154952Y-84665333D01*
X132202571Y-84617714D01*
X132297809Y-84570095D01*
X132535904Y-84570095D01*
X132631142Y-84617714D01*
X132678761Y-84665333D01*
X132726380Y-84760571D01*
X132726380Y-85046285D01*
X132678761Y-85141523D01*
X132631142Y-85189142D01*
%TO.C,U3*%
X133858095Y-127468380D02*
X133858095Y-128277904D01*
X133905714Y-128373142D01*
X133953333Y-128420761D01*
X134048571Y-128468380D01*
X134239047Y-128468380D01*
X134334285Y-128420761D01*
X134381904Y-128373142D01*
X134429523Y-128277904D01*
X134429523Y-127468380D01*
X134810476Y-127468380D02*
X135429523Y-127468380D01*
X135096190Y-127849333D01*
X135239047Y-127849333D01*
X135334285Y-127896952D01*
X135381904Y-127944571D01*
X135429523Y-128039809D01*
X135429523Y-128277904D01*
X135381904Y-128373142D01*
X135334285Y-128420761D01*
X135239047Y-128468380D01*
X134953333Y-128468380D01*
X134858095Y-128420761D01*
X134810476Y-128373142D01*
%TO.C,D3*%
X139723904Y-73096380D02*
X139723904Y-72096380D01*
X139962000Y-72096380D01*
X140104857Y-72144000D01*
X140200095Y-72239238D01*
X140247714Y-72334476D01*
X140295333Y-72524952D01*
X140295333Y-72667809D01*
X140247714Y-72858285D01*
X140200095Y-72953523D01*
X140104857Y-73048761D01*
X139962000Y-73096380D01*
X139723904Y-73096380D01*
X140628666Y-72096380D02*
X141247714Y-72096380D01*
X140914380Y-72477333D01*
X141057238Y-72477333D01*
X141152476Y-72524952D01*
X141200095Y-72572571D01*
X141247714Y-72667809D01*
X141247714Y-72905904D01*
X141200095Y-73001142D01*
X141152476Y-73048761D01*
X141057238Y-73096380D01*
X140771523Y-73096380D01*
X140676285Y-73048761D01*
X140628666Y-73001142D01*
%TO.C,R4*%
X150152380Y-79922666D02*
X149676190Y-80256000D01*
X150152380Y-80494095D02*
X149152380Y-80494095D01*
X149152380Y-80113142D01*
X149200000Y-80017904D01*
X149247619Y-79970285D01*
X149342857Y-79922666D01*
X149485714Y-79922666D01*
X149580952Y-79970285D01*
X149628571Y-80017904D01*
X149676190Y-80113142D01*
X149676190Y-80494095D01*
X149485714Y-79065523D02*
X150152380Y-79065523D01*
X149104761Y-79303619D02*
X149819047Y-79541714D01*
X149819047Y-78922666D01*
%TO.C,R6*%
X144133333Y-110402380D02*
X143800000Y-109926190D01*
X143561904Y-110402380D02*
X143561904Y-109402380D01*
X143942857Y-109402380D01*
X144038095Y-109450000D01*
X144085714Y-109497619D01*
X144133333Y-109592857D01*
X144133333Y-109735714D01*
X144085714Y-109830952D01*
X144038095Y-109878571D01*
X143942857Y-109926190D01*
X143561904Y-109926190D01*
X144990476Y-109402380D02*
X144800000Y-109402380D01*
X144704761Y-109450000D01*
X144657142Y-109497619D01*
X144561904Y-109640476D01*
X144514285Y-109830952D01*
X144514285Y-110211904D01*
X144561904Y-110307142D01*
X144609523Y-110354761D01*
X144704761Y-110402380D01*
X144895238Y-110402380D01*
X144990476Y-110354761D01*
X145038095Y-110307142D01*
X145085714Y-110211904D01*
X145085714Y-109973809D01*
X145038095Y-109878571D01*
X144990476Y-109830952D01*
X144895238Y-109783333D01*
X144704761Y-109783333D01*
X144609523Y-109830952D01*
X144561904Y-109878571D01*
X144514285Y-109973809D01*
%TO.C,C12*%
X138619142Y-82653142D02*
X138571523Y-82700761D01*
X138428666Y-82748380D01*
X138333428Y-82748380D01*
X138190571Y-82700761D01*
X138095333Y-82605523D01*
X138047714Y-82510285D01*
X138000095Y-82319809D01*
X138000095Y-82176952D01*
X138047714Y-81986476D01*
X138095333Y-81891238D01*
X138190571Y-81796000D01*
X138333428Y-81748380D01*
X138428666Y-81748380D01*
X138571523Y-81796000D01*
X138619142Y-81843619D01*
X139571523Y-82748380D02*
X139000095Y-82748380D01*
X139285809Y-82748380D02*
X139285809Y-81748380D01*
X139190571Y-81891238D01*
X139095333Y-81986476D01*
X139000095Y-82034095D01*
X139952476Y-81843619D02*
X140000095Y-81796000D01*
X140095333Y-81748380D01*
X140333428Y-81748380D01*
X140428666Y-81796000D01*
X140476285Y-81843619D01*
X140523904Y-81938857D01*
X140523904Y-82034095D01*
X140476285Y-82176952D01*
X139904857Y-82748380D01*
X140523904Y-82748380D01*
%TO.C,C3*%
X128627142Y-128182666D02*
X128674761Y-128230285D01*
X128722380Y-128373142D01*
X128722380Y-128468380D01*
X128674761Y-128611238D01*
X128579523Y-128706476D01*
X128484285Y-128754095D01*
X128293809Y-128801714D01*
X128150952Y-128801714D01*
X127960476Y-128754095D01*
X127865238Y-128706476D01*
X127770000Y-128611238D01*
X127722380Y-128468380D01*
X127722380Y-128373142D01*
X127770000Y-128230285D01*
X127817619Y-128182666D01*
X127722380Y-127849333D02*
X127722380Y-127230285D01*
X128103333Y-127563619D01*
X128103333Y-127420761D01*
X128150952Y-127325523D01*
X128198571Y-127277904D01*
X128293809Y-127230285D01*
X128531904Y-127230285D01*
X128627142Y-127277904D01*
X128674761Y-127325523D01*
X128722380Y-127420761D01*
X128722380Y-127706476D01*
X128674761Y-127801714D01*
X128627142Y-127849333D01*
%TO.C,C1*%
X144108333Y-111982142D02*
X144060714Y-112029761D01*
X143917857Y-112077380D01*
X143822619Y-112077380D01*
X143679761Y-112029761D01*
X143584523Y-111934523D01*
X143536904Y-111839285D01*
X143489285Y-111648809D01*
X143489285Y-111505952D01*
X143536904Y-111315476D01*
X143584523Y-111220238D01*
X143679761Y-111125000D01*
X143822619Y-111077380D01*
X143917857Y-111077380D01*
X144060714Y-111125000D01*
X144108333Y-111172619D01*
X145060714Y-112077380D02*
X144489285Y-112077380D01*
X144775000Y-112077380D02*
X144775000Y-111077380D01*
X144679761Y-111220238D01*
X144584523Y-111315476D01*
X144489285Y-111363095D01*
%TO.C,U1*%
X133848095Y-113532380D02*
X133848095Y-114341904D01*
X133895714Y-114437142D01*
X133943333Y-114484761D01*
X134038571Y-114532380D01*
X134229047Y-114532380D01*
X134324285Y-114484761D01*
X134371904Y-114437142D01*
X134419523Y-114341904D01*
X134419523Y-113532380D01*
X135419523Y-114532380D02*
X134848095Y-114532380D01*
X135133809Y-114532380D02*
X135133809Y-113532380D01*
X135038571Y-113675238D01*
X134943333Y-113770476D01*
X134848095Y-113818095D01*
%TO.C,R27*%
X159440142Y-101036380D02*
X159106809Y-100560190D01*
X158868714Y-101036380D02*
X158868714Y-100036380D01*
X159249666Y-100036380D01*
X159344904Y-100084000D01*
X159392523Y-100131619D01*
X159440142Y-100226857D01*
X159440142Y-100369714D01*
X159392523Y-100464952D01*
X159344904Y-100512571D01*
X159249666Y-100560190D01*
X158868714Y-100560190D01*
X159821095Y-100131619D02*
X159868714Y-100084000D01*
X159963952Y-100036380D01*
X160202047Y-100036380D01*
X160297285Y-100084000D01*
X160344904Y-100131619D01*
X160392523Y-100226857D01*
X160392523Y-100322095D01*
X160344904Y-100464952D01*
X159773476Y-101036380D01*
X160392523Y-101036380D01*
X160725857Y-100036380D02*
X161392523Y-100036380D01*
X160963952Y-101036380D01*
%TO.C,C10*%
X126087142Y-95892857D02*
X126134761Y-95940476D01*
X126182380Y-96083333D01*
X126182380Y-96178571D01*
X126134761Y-96321428D01*
X126039523Y-96416666D01*
X125944285Y-96464285D01*
X125753809Y-96511904D01*
X125610952Y-96511904D01*
X125420476Y-96464285D01*
X125325238Y-96416666D01*
X125230000Y-96321428D01*
X125182380Y-96178571D01*
X125182380Y-96083333D01*
X125230000Y-95940476D01*
X125277619Y-95892857D01*
X126182380Y-94940476D02*
X126182380Y-95511904D01*
X126182380Y-95226190D02*
X125182380Y-95226190D01*
X125325238Y-95321428D01*
X125420476Y-95416666D01*
X125468095Y-95511904D01*
X125182380Y-94321428D02*
X125182380Y-94226190D01*
X125230000Y-94130952D01*
X125277619Y-94083333D01*
X125372857Y-94035714D01*
X125563333Y-93988095D01*
X125801428Y-93988095D01*
X125991904Y-94035714D01*
X126087142Y-94083333D01*
X126134761Y-94130952D01*
X126182380Y-94226190D01*
X126182380Y-94321428D01*
X126134761Y-94416666D01*
X126087142Y-94464285D01*
X125991904Y-94511904D01*
X125801428Y-94559523D01*
X125563333Y-94559523D01*
X125372857Y-94511904D01*
X125277619Y-94464285D01*
X125230000Y-94416666D01*
X125182380Y-94321428D01*
%TO.C,J5*%
X161387666Y-73366380D02*
X161387666Y-74080666D01*
X161340047Y-74223523D01*
X161244809Y-74318761D01*
X161101952Y-74366380D01*
X161006714Y-74366380D01*
X162340047Y-73366380D02*
X161863857Y-73366380D01*
X161816238Y-73842571D01*
X161863857Y-73794952D01*
X161959095Y-73747333D01*
X162197190Y-73747333D01*
X162292428Y-73794952D01*
X162340047Y-73842571D01*
X162387666Y-73937809D01*
X162387666Y-74175904D01*
X162340047Y-74271142D01*
X162292428Y-74318761D01*
X162197190Y-74366380D01*
X161959095Y-74366380D01*
X161863857Y-74318761D01*
X161816238Y-74271142D01*
%TO.C,C4*%
X141565333Y-128373142D02*
X141517714Y-128420761D01*
X141374857Y-128468380D01*
X141279619Y-128468380D01*
X141136761Y-128420761D01*
X141041523Y-128325523D01*
X140993904Y-128230285D01*
X140946285Y-128039809D01*
X140946285Y-127896952D01*
X140993904Y-127706476D01*
X141041523Y-127611238D01*
X141136761Y-127516000D01*
X141279619Y-127468380D01*
X141374857Y-127468380D01*
X141517714Y-127516000D01*
X141565333Y-127563619D01*
X142422476Y-127801714D02*
X142422476Y-128468380D01*
X142184380Y-127420761D02*
X141946285Y-128135047D01*
X142565333Y-128135047D01*
%TO.C,C2*%
X149185333Y-128627142D02*
X149137714Y-128674761D01*
X148994857Y-128722380D01*
X148899619Y-128722380D01*
X148756761Y-128674761D01*
X148661523Y-128579523D01*
X148613904Y-128484285D01*
X148566285Y-128293809D01*
X148566285Y-128150952D01*
X148613904Y-127960476D01*
X148661523Y-127865238D01*
X148756761Y-127770000D01*
X148899619Y-127722380D01*
X148994857Y-127722380D01*
X149137714Y-127770000D01*
X149185333Y-127817619D01*
X149566285Y-127817619D02*
X149613904Y-127770000D01*
X149709142Y-127722380D01*
X149947238Y-127722380D01*
X150042476Y-127770000D01*
X150090095Y-127817619D01*
X150137714Y-127912857D01*
X150137714Y-128008095D01*
X150090095Y-128150952D01*
X149518666Y-128722380D01*
X150137714Y-128722380D01*
%TO.C,D5*%
X146066380Y-73890095D02*
X145066380Y-73890095D01*
X145066380Y-73652000D01*
X145114000Y-73509142D01*
X145209238Y-73413904D01*
X145304476Y-73366285D01*
X145494952Y-73318666D01*
X145637809Y-73318666D01*
X145828285Y-73366285D01*
X145923523Y-73413904D01*
X146018761Y-73509142D01*
X146066380Y-73652000D01*
X146066380Y-73890095D01*
X145066380Y-72413904D02*
X145066380Y-72890095D01*
X145542571Y-72937714D01*
X145494952Y-72890095D01*
X145447333Y-72794857D01*
X145447333Y-72556761D01*
X145494952Y-72461523D01*
X145542571Y-72413904D01*
X145637809Y-72366285D01*
X145875904Y-72366285D01*
X145971142Y-72413904D01*
X146018761Y-72461523D01*
X146066380Y-72556761D01*
X146066380Y-72794857D01*
X146018761Y-72890095D01*
X145971142Y-72937714D01*
%TO.C,C18*%
X127455142Y-122308857D02*
X127502761Y-122356476D01*
X127550380Y-122499333D01*
X127550380Y-122594571D01*
X127502761Y-122737428D01*
X127407523Y-122832666D01*
X127312285Y-122880285D01*
X127121809Y-122927904D01*
X126978952Y-122927904D01*
X126788476Y-122880285D01*
X126693238Y-122832666D01*
X126598000Y-122737428D01*
X126550380Y-122594571D01*
X126550380Y-122499333D01*
X126598000Y-122356476D01*
X126645619Y-122308857D01*
X127550380Y-121356476D02*
X127550380Y-121927904D01*
X127550380Y-121642190D02*
X126550380Y-121642190D01*
X126693238Y-121737428D01*
X126788476Y-121832666D01*
X126836095Y-121927904D01*
X126978952Y-120785047D02*
X126931333Y-120880285D01*
X126883714Y-120927904D01*
X126788476Y-120975523D01*
X126740857Y-120975523D01*
X126645619Y-120927904D01*
X126598000Y-120880285D01*
X126550380Y-120785047D01*
X126550380Y-120594571D01*
X126598000Y-120499333D01*
X126645619Y-120451714D01*
X126740857Y-120404095D01*
X126788476Y-120404095D01*
X126883714Y-120451714D01*
X126931333Y-120499333D01*
X126978952Y-120594571D01*
X126978952Y-120785047D01*
X127026571Y-120880285D01*
X127074190Y-120927904D01*
X127169428Y-120975523D01*
X127359904Y-120975523D01*
X127455142Y-120927904D01*
X127502761Y-120880285D01*
X127550380Y-120785047D01*
X127550380Y-120594571D01*
X127502761Y-120499333D01*
X127455142Y-120451714D01*
X127359904Y-120404095D01*
X127169428Y-120404095D01*
X127074190Y-120451714D01*
X127026571Y-120499333D01*
X126978952Y-120594571D01*
%TO.C,D6*%
X140406380Y-93956095D02*
X139406380Y-93956095D01*
X139406380Y-93718000D01*
X139454000Y-93575142D01*
X139549238Y-93479904D01*
X139644476Y-93432285D01*
X139834952Y-93384666D01*
X139977809Y-93384666D01*
X140168285Y-93432285D01*
X140263523Y-93479904D01*
X140358761Y-93575142D01*
X140406380Y-93718000D01*
X140406380Y-93956095D01*
X139406380Y-92527523D02*
X139406380Y-92718000D01*
X139454000Y-92813238D01*
X139501619Y-92860857D01*
X139644476Y-92956095D01*
X139834952Y-93003714D01*
X140215904Y-93003714D01*
X140311142Y-92956095D01*
X140358761Y-92908476D01*
X140406380Y-92813238D01*
X140406380Y-92622761D01*
X140358761Y-92527523D01*
X140311142Y-92479904D01*
X140215904Y-92432285D01*
X139977809Y-92432285D01*
X139882571Y-92479904D01*
X139834952Y-92527523D01*
X139787333Y-92622761D01*
X139787333Y-92813238D01*
X139834952Y-92908476D01*
X139882571Y-92956095D01*
X139977809Y-93003714D01*
%TO.C,J1*%
X157146666Y-70826380D02*
X157146666Y-71540666D01*
X157099047Y-71683523D01*
X157003809Y-71778761D01*
X156860952Y-71826380D01*
X156765714Y-71826380D01*
X158146666Y-71826380D02*
X157575238Y-71826380D01*
X157860952Y-71826380D02*
X157860952Y-70826380D01*
X157765714Y-70969238D01*
X157670476Y-71064476D01*
X157575238Y-71112095D01*
%TO.C,J3*%
X145462666Y-70826380D02*
X145462666Y-71540666D01*
X145415047Y-71683523D01*
X145319809Y-71778761D01*
X145176952Y-71826380D01*
X145081714Y-71826380D01*
X145843619Y-70826380D02*
X146462666Y-70826380D01*
X146129333Y-71207333D01*
X146272190Y-71207333D01*
X146367428Y-71254952D01*
X146415047Y-71302571D01*
X146462666Y-71397809D01*
X146462666Y-71635904D01*
X146415047Y-71731142D01*
X146367428Y-71778761D01*
X146272190Y-71826380D01*
X145986476Y-71826380D01*
X145891238Y-71778761D01*
X145843619Y-71731142D01*
%TO.C,C6*%
X142694753Y-89257142D02*
X142647134Y-89304761D01*
X142504277Y-89352380D01*
X142409039Y-89352380D01*
X142266181Y-89304761D01*
X142170943Y-89209523D01*
X142123324Y-89114285D01*
X142075705Y-88923809D01*
X142075705Y-88780952D01*
X142123324Y-88590476D01*
X142170943Y-88495238D01*
X142266181Y-88400000D01*
X142409039Y-88352380D01*
X142504277Y-88352380D01*
X142647134Y-88400000D01*
X142694753Y-88447619D01*
X143551896Y-88352380D02*
X143361420Y-88352380D01*
X143266181Y-88400000D01*
X143218562Y-88447619D01*
X143123324Y-88590476D01*
X143075705Y-88780952D01*
X143075705Y-89161904D01*
X143123324Y-89257142D01*
X143170943Y-89304761D01*
X143266181Y-89352380D01*
X143456658Y-89352380D01*
X143551896Y-89304761D01*
X143599515Y-89257142D01*
X143647134Y-89161904D01*
X143647134Y-88923809D01*
X143599515Y-88828571D01*
X143551896Y-88780952D01*
X143456658Y-88733333D01*
X143266181Y-88733333D01*
X143170943Y-88780952D01*
X143123324Y-88828571D01*
X143075705Y-88923809D01*
%TO.C,R18*%
X129151142Y-133827880D02*
X128817809Y-133351690D01*
X128579714Y-133827880D02*
X128579714Y-132827880D01*
X128960666Y-132827880D01*
X129055904Y-132875500D01*
X129103523Y-132923119D01*
X129151142Y-133018357D01*
X129151142Y-133161214D01*
X129103523Y-133256452D01*
X129055904Y-133304071D01*
X128960666Y-133351690D01*
X128579714Y-133351690D01*
X130103523Y-133827880D02*
X129532095Y-133827880D01*
X129817809Y-133827880D02*
X129817809Y-132827880D01*
X129722571Y-132970738D01*
X129627333Y-133065976D01*
X129532095Y-133113595D01*
X130674952Y-133256452D02*
X130579714Y-133208833D01*
X130532095Y-133161214D01*
X130484476Y-133065976D01*
X130484476Y-133018357D01*
X130532095Y-132923119D01*
X130579714Y-132875500D01*
X130674952Y-132827880D01*
X130865428Y-132827880D01*
X130960666Y-132875500D01*
X131008285Y-132923119D01*
X131055904Y-133018357D01*
X131055904Y-133065976D01*
X131008285Y-133161214D01*
X130960666Y-133208833D01*
X130865428Y-133256452D01*
X130674952Y-133256452D01*
X130579714Y-133304071D01*
X130532095Y-133351690D01*
X130484476Y-133446928D01*
X130484476Y-133637404D01*
X130532095Y-133732642D01*
X130579714Y-133780261D01*
X130674952Y-133827880D01*
X130865428Y-133827880D01*
X130960666Y-133780261D01*
X131008285Y-133732642D01*
X131055904Y-133637404D01*
X131055904Y-133446928D01*
X131008285Y-133351690D01*
X130960666Y-133304071D01*
X130865428Y-133256452D01*
%TO.C,TP5*%
X160282095Y-82764380D02*
X160853523Y-82764380D01*
X160567809Y-83764380D02*
X160567809Y-82764380D01*
X161186857Y-83764380D02*
X161186857Y-82764380D01*
X161567809Y-82764380D01*
X161663047Y-82812000D01*
X161710666Y-82859619D01*
X161758285Y-82954857D01*
X161758285Y-83097714D01*
X161710666Y-83192952D01*
X161663047Y-83240571D01*
X161567809Y-83288190D01*
X161186857Y-83288190D01*
X162663047Y-82764380D02*
X162186857Y-82764380D01*
X162139238Y-83240571D01*
X162186857Y-83192952D01*
X162282095Y-83145333D01*
X162520190Y-83145333D01*
X162615428Y-83192952D01*
X162663047Y-83240571D01*
X162710666Y-83335809D01*
X162710666Y-83573904D01*
X162663047Y-83669142D01*
X162615428Y-83716761D01*
X162520190Y-83764380D01*
X162282095Y-83764380D01*
X162186857Y-83716761D01*
X162139238Y-83669142D01*
%TO.C,R3*%
X151471333Y-87574380D02*
X151138000Y-87098190D01*
X150899904Y-87574380D02*
X150899904Y-86574380D01*
X151280857Y-86574380D01*
X151376095Y-86622000D01*
X151423714Y-86669619D01*
X151471333Y-86764857D01*
X151471333Y-86907714D01*
X151423714Y-87002952D01*
X151376095Y-87050571D01*
X151280857Y-87098190D01*
X150899904Y-87098190D01*
X151804666Y-86574380D02*
X152423714Y-86574380D01*
X152090380Y-86955333D01*
X152233238Y-86955333D01*
X152328476Y-87002952D01*
X152376095Y-87050571D01*
X152423714Y-87145809D01*
X152423714Y-87383904D01*
X152376095Y-87479142D01*
X152328476Y-87526761D01*
X152233238Y-87574380D01*
X151947523Y-87574380D01*
X151852285Y-87526761D01*
X151804666Y-87479142D01*
%TO.C,R17*%
X127292380Y-111640857D02*
X126816190Y-111974190D01*
X127292380Y-112212285D02*
X126292380Y-112212285D01*
X126292380Y-111831333D01*
X126340000Y-111736095D01*
X126387619Y-111688476D01*
X126482857Y-111640857D01*
X126625714Y-111640857D01*
X126720952Y-111688476D01*
X126768571Y-111736095D01*
X126816190Y-111831333D01*
X126816190Y-112212285D01*
X127292380Y-110688476D02*
X127292380Y-111259904D01*
X127292380Y-110974190D02*
X126292380Y-110974190D01*
X126435238Y-111069428D01*
X126530476Y-111164666D01*
X126578095Y-111259904D01*
X126292380Y-110355142D02*
X126292380Y-109688476D01*
X127292380Y-110117047D01*
%TO.C,CN10*%
X165420333Y-139544142D02*
X165372714Y-139591761D01*
X165229857Y-139639380D01*
X165134619Y-139639380D01*
X164991761Y-139591761D01*
X164896523Y-139496523D01*
X164848904Y-139401285D01*
X164801285Y-139210809D01*
X164801285Y-139067952D01*
X164848904Y-138877476D01*
X164896523Y-138782238D01*
X164991761Y-138687000D01*
X165134619Y-138639380D01*
X165229857Y-138639380D01*
X165372714Y-138687000D01*
X165420333Y-138734619D01*
X165848904Y-139639380D02*
X165848904Y-138639380D01*
X166420333Y-139639380D01*
X166420333Y-138639380D01*
X167420333Y-139639380D02*
X166848904Y-139639380D01*
X167134619Y-139639380D02*
X167134619Y-138639380D01*
X167039380Y-138782238D01*
X166944142Y-138877476D01*
X166848904Y-138925095D01*
X168039380Y-138639380D02*
X168134619Y-138639380D01*
X168229857Y-138687000D01*
X168277476Y-138734619D01*
X168325095Y-138829857D01*
X168372714Y-139020333D01*
X168372714Y-139258428D01*
X168325095Y-139448904D01*
X168277476Y-139544142D01*
X168229857Y-139591761D01*
X168134619Y-139639380D01*
X168039380Y-139639380D01*
X167944142Y-139591761D01*
X167896523Y-139544142D01*
X167848904Y-139448904D01*
X167801285Y-139258428D01*
X167801285Y-139020333D01*
X167848904Y-138829857D01*
X167896523Y-138734619D01*
X167944142Y-138687000D01*
X168039380Y-138639380D01*
%TO.C,CN9*%
X120726523Y-98860142D02*
X120678904Y-98907761D01*
X120536047Y-98955380D01*
X120440809Y-98955380D01*
X120297952Y-98907761D01*
X120202714Y-98812523D01*
X120155095Y-98717285D01*
X120107476Y-98526809D01*
X120107476Y-98383952D01*
X120155095Y-98193476D01*
X120202714Y-98098238D01*
X120297952Y-98003000D01*
X120440809Y-97955380D01*
X120536047Y-97955380D01*
X120678904Y-98003000D01*
X120726523Y-98050619D01*
X121155095Y-98955380D02*
X121155095Y-97955380D01*
X121726523Y-98955380D01*
X121726523Y-97955380D01*
X122250333Y-98955380D02*
X122440809Y-98955380D01*
X122536047Y-98907761D01*
X122583666Y-98860142D01*
X122678904Y-98717285D01*
X122726523Y-98526809D01*
X122726523Y-98145857D01*
X122678904Y-98050619D01*
X122631285Y-98003000D01*
X122536047Y-97955380D01*
X122345571Y-97955380D01*
X122250333Y-98003000D01*
X122202714Y-98050619D01*
X122155095Y-98145857D01*
X122155095Y-98383952D01*
X122202714Y-98479190D01*
X122250333Y-98526809D01*
X122345571Y-98574428D01*
X122536047Y-98574428D01*
X122631285Y-98526809D01*
X122678904Y-98479190D01*
X122726523Y-98383952D01*
%TO.C,CN8*%
X120975523Y-75795142D02*
X120927904Y-75842761D01*
X120785047Y-75890380D01*
X120689809Y-75890380D01*
X120546952Y-75842761D01*
X120451714Y-75747523D01*
X120404095Y-75652285D01*
X120356476Y-75461809D01*
X120356476Y-75318952D01*
X120404095Y-75128476D01*
X120451714Y-75033238D01*
X120546952Y-74938000D01*
X120689809Y-74890380D01*
X120785047Y-74890380D01*
X120927904Y-74938000D01*
X120975523Y-74985619D01*
X121404095Y-75890380D02*
X121404095Y-74890380D01*
X121975523Y-75890380D01*
X121975523Y-74890380D01*
X122594571Y-75318952D02*
X122499333Y-75271333D01*
X122451714Y-75223714D01*
X122404095Y-75128476D01*
X122404095Y-75080857D01*
X122451714Y-74985619D01*
X122499333Y-74938000D01*
X122594571Y-74890380D01*
X122785047Y-74890380D01*
X122880285Y-74938000D01*
X122927904Y-74985619D01*
X122975523Y-75080857D01*
X122975523Y-75128476D01*
X122927904Y-75223714D01*
X122880285Y-75271333D01*
X122785047Y-75318952D01*
X122594571Y-75318952D01*
X122499333Y-75366571D01*
X122451714Y-75414190D01*
X122404095Y-75509428D01*
X122404095Y-75699904D01*
X122451714Y-75795142D01*
X122499333Y-75842761D01*
X122594571Y-75890380D01*
X122785047Y-75890380D01*
X122880285Y-75842761D01*
X122927904Y-75795142D01*
X122975523Y-75699904D01*
X122975523Y-75509428D01*
X122927904Y-75414190D01*
X122880285Y-75366571D01*
X122785047Y-75318952D01*
%TO.C,CN7*%
X166411523Y-66407142D02*
X166363904Y-66454761D01*
X166221047Y-66502380D01*
X166125809Y-66502380D01*
X165982952Y-66454761D01*
X165887714Y-66359523D01*
X165840095Y-66264285D01*
X165792476Y-66073809D01*
X165792476Y-65930952D01*
X165840095Y-65740476D01*
X165887714Y-65645238D01*
X165982952Y-65550000D01*
X166125809Y-65502380D01*
X166221047Y-65502380D01*
X166363904Y-65550000D01*
X166411523Y-65597619D01*
X166840095Y-66502380D02*
X166840095Y-65502380D01*
X167411523Y-66502380D01*
X167411523Y-65502380D01*
X167792476Y-65502380D02*
X168459142Y-65502380D01*
X168030571Y-66502380D01*
D12*
%TO.C,C7*%
X158748000Y-90283420D02*
X158748000Y-90564580D01*
X159768000Y-90283420D02*
X159768000Y-90564580D01*
%TO.C,R26*%
X159845742Y-97296500D02*
X160320258Y-97296500D01*
X159845742Y-96251500D02*
X160320258Y-96251500D01*
%TO.C,FB1*%
X131545000Y-68860936D02*
X131545000Y-69315064D01*
X130075000Y-68860936D02*
X130075000Y-69315064D01*
%TO.C,TP2*%
X143440000Y-130302000D02*
G75*
G03*
X143440000Y-130302000I-1200000J0D01*
G01*
%TO.C,R1*%
X151652500Y-84598742D02*
X151652500Y-85073258D01*
X150607500Y-84598742D02*
X150607500Y-85073258D01*
%TO.C,R12*%
X146129742Y-90946500D02*
X146604258Y-90946500D01*
X146129742Y-89901500D02*
X146604258Y-89901500D01*
%TO.C,TP3*%
X144202000Y-81788000D02*
G75*
G03*
X144202000Y-81788000I-1200000J0D01*
G01*
%TO.C,C15*%
X137749000Y-87873000D02*
X137184000Y-87873000D01*
X138723000Y-85912000D02*
X133565000Y-85912000D01*
X137869000Y-83277225D02*
X137369000Y-83277225D01*
X138209000Y-87393000D02*
X137184000Y-87393000D01*
X138454000Y-86993000D02*
X137184000Y-86993000D01*
X137619000Y-83027225D02*
X137619000Y-83527225D01*
X135104000Y-87513000D02*
X134173000Y-87513000D01*
X138492000Y-86913000D02*
X137184000Y-86913000D01*
X135104000Y-86392000D02*
X133624000Y-86392000D01*
X135104000Y-86673000D02*
X133702000Y-86673000D01*
X135104000Y-87393000D02*
X134079000Y-87393000D01*
X137527000Y-88033000D02*
X137184000Y-88033000D01*
X136428000Y-88433000D02*
X135860000Y-88433000D01*
X138473000Y-86953000D02*
X137184000Y-86953000D01*
X138558000Y-86753000D02*
X137184000Y-86753000D01*
X138148000Y-87473000D02*
X137184000Y-87473000D01*
X135104000Y-86072000D02*
X133575000Y-86072000D01*
X135104000Y-87153000D02*
X133920000Y-87153000D01*
X137970000Y-87673000D02*
X137184000Y-87673000D01*
X136821000Y-88353000D02*
X135467000Y-88353000D01*
X137587000Y-87993000D02*
X137184000Y-87993000D01*
X135104000Y-86112000D02*
X133579000Y-86112000D01*
X135104000Y-87913000D02*
X134590000Y-87913000D01*
X135104000Y-87753000D02*
X134401000Y-87753000D01*
X137395000Y-88113000D02*
X137184000Y-88113000D01*
X138239000Y-87353000D02*
X137184000Y-87353000D01*
X138319000Y-87233000D02*
X137184000Y-87233000D01*
X135104000Y-86352000D02*
X133616000Y-86352000D01*
X136662000Y-88393000D02*
X135626000Y-88393000D01*
X135104000Y-87873000D02*
X134539000Y-87873000D01*
X138680000Y-86312000D02*
X137184000Y-86312000D01*
X135104000Y-86873000D02*
X133779000Y-86873000D01*
X138705000Y-86152000D02*
X137184000Y-86152000D01*
X138635000Y-86512000D02*
X137184000Y-86512000D01*
X135104000Y-87713000D02*
X134359000Y-87713000D01*
X135104000Y-86553000D02*
X133664000Y-86553000D01*
X138722000Y-85952000D02*
X133566000Y-85952000D01*
X135104000Y-87353000D02*
X134049000Y-87353000D01*
X138412000Y-87073000D02*
X137184000Y-87073000D01*
X138687000Y-86272000D02*
X137184000Y-86272000D01*
X135104000Y-87473000D02*
X134140000Y-87473000D01*
X135104000Y-87993000D02*
X134701000Y-87993000D01*
X138672000Y-86352000D02*
X137184000Y-86352000D01*
X137463000Y-88073000D02*
X137184000Y-88073000D01*
X135104000Y-86152000D02*
X133583000Y-86152000D01*
X137155000Y-88233000D02*
X135133000Y-88233000D01*
X135104000Y-86593000D02*
X133676000Y-86593000D01*
X138724000Y-85832000D02*
X133564000Y-85832000D01*
X135104000Y-86192000D02*
X133588000Y-86192000D01*
X135104000Y-87233000D02*
X133969000Y-87233000D01*
X138045000Y-87593000D02*
X137184000Y-87593000D01*
X135104000Y-87313000D02*
X134022000Y-87313000D01*
X138612000Y-86593000D02*
X137184000Y-86593000D01*
X138720000Y-85992000D02*
X133568000Y-85992000D01*
X135104000Y-88113000D02*
X134893000Y-88113000D01*
X138008000Y-87633000D02*
X137184000Y-87633000D01*
X135104000Y-87833000D02*
X134491000Y-87833000D01*
X135104000Y-86833000D02*
X133762000Y-86833000D01*
X137843000Y-87793000D02*
X137184000Y-87793000D01*
X138700000Y-86192000D02*
X137184000Y-86192000D01*
X135104000Y-87953000D02*
X134644000Y-87953000D01*
X135104000Y-86232000D02*
X133594000Y-86232000D01*
X135104000Y-87033000D02*
X133854000Y-87033000D01*
X138542000Y-86793000D02*
X137184000Y-86793000D01*
X136949000Y-88313000D02*
X135339000Y-88313000D01*
X137059000Y-88273000D02*
X135229000Y-88273000D01*
X138709000Y-86112000D02*
X137184000Y-86112000D01*
X137698000Y-87913000D02*
X137184000Y-87913000D01*
X138724000Y-85872000D02*
X133564000Y-85872000D01*
X138713000Y-86072000D02*
X137184000Y-86072000D01*
X137242000Y-88193000D02*
X135046000Y-88193000D01*
X135104000Y-86953000D02*
X133815000Y-86953000D01*
X137322000Y-88153000D02*
X134966000Y-88153000D01*
X138717000Y-86032000D02*
X133571000Y-86032000D01*
X138655000Y-86432000D02*
X137184000Y-86432000D01*
X135104000Y-87433000D02*
X134109000Y-87433000D01*
X135104000Y-87113000D02*
X133897000Y-87113000D01*
X135104000Y-86633000D02*
X133689000Y-86633000D01*
X138293000Y-87273000D02*
X137184000Y-87273000D01*
X135104000Y-86312000D02*
X133608000Y-86312000D01*
X135104000Y-87593000D02*
X134243000Y-87593000D01*
X135104000Y-88033000D02*
X134761000Y-88033000D01*
X135104000Y-87273000D02*
X133995000Y-87273000D01*
X138572000Y-86713000D02*
X137184000Y-86713000D01*
X138526000Y-86833000D02*
X137184000Y-86833000D01*
X135104000Y-87673000D02*
X134318000Y-87673000D01*
X138645000Y-86472000D02*
X137184000Y-86472000D01*
X135104000Y-87073000D02*
X133876000Y-87073000D01*
X138624000Y-86553000D02*
X137184000Y-86553000D01*
X138434000Y-87033000D02*
X137184000Y-87033000D01*
X135104000Y-86432000D02*
X133633000Y-86432000D01*
X138391000Y-87113000D02*
X137184000Y-87113000D01*
X135104000Y-87193000D02*
X133944000Y-87193000D01*
X135104000Y-87793000D02*
X134445000Y-87793000D01*
X137644000Y-87953000D02*
X137184000Y-87953000D01*
X138586000Y-86673000D02*
X137184000Y-86673000D01*
X138664000Y-86392000D02*
X137184000Y-86392000D01*
X135104000Y-86472000D02*
X133643000Y-86472000D01*
X138368000Y-87153000D02*
X137184000Y-87153000D01*
X138344000Y-87193000D02*
X137184000Y-87193000D01*
X135104000Y-86272000D02*
X133601000Y-86272000D01*
X138694000Y-86232000D02*
X137184000Y-86232000D01*
X135104000Y-86713000D02*
X133716000Y-86713000D01*
X135104000Y-86793000D02*
X133746000Y-86793000D01*
X137929000Y-87713000D02*
X137184000Y-87713000D01*
X138599000Y-86633000D02*
X137184000Y-86633000D01*
X135104000Y-86913000D02*
X133796000Y-86913000D01*
X135104000Y-86512000D02*
X133653000Y-86512000D01*
X137797000Y-87833000D02*
X137184000Y-87833000D01*
X138081000Y-87553000D02*
X137184000Y-87553000D01*
X135104000Y-86753000D02*
X133730000Y-86753000D01*
X137887000Y-87753000D02*
X137184000Y-87753000D01*
X138509000Y-86873000D02*
X137184000Y-86873000D01*
X138179000Y-87433000D02*
X137184000Y-87433000D01*
X138115000Y-87513000D02*
X137184000Y-87513000D01*
X135104000Y-86993000D02*
X133834000Y-86993000D01*
X135104000Y-87633000D02*
X134280000Y-87633000D01*
X135104000Y-87553000D02*
X134207000Y-87553000D01*
X138266000Y-87313000D02*
X137184000Y-87313000D01*
X135104000Y-88073000D02*
X134825000Y-88073000D01*
X138764000Y-85832000D02*
G75*
G03*
X138764000Y-85832000I-2620000J0D01*
G01*
%TO.C,D7*%
X127735000Y-133388000D02*
X127735000Y-131103000D01*
X127735000Y-131103000D02*
X126265000Y-131103000D01*
X126265000Y-131103000D02*
X126265000Y-133388000D01*
%TO.C,R23*%
X128255500Y-118347258D02*
X128255500Y-117872742D01*
X129300500Y-118347258D02*
X129300500Y-117872742D01*
%TO.C,R25*%
X147080500Y-94250742D02*
X147080500Y-94725258D01*
X146035500Y-94250742D02*
X146035500Y-94725258D01*
%TO.C,U2*%
X148032000Y-123876000D02*
X148032000Y-102876000D01*
X160732000Y-116276000D02*
X160732000Y-102876000D01*
X160732000Y-116276000D02*
X160732000Y-123876000D01*
X148032000Y-123876000D02*
X151832000Y-123876000D01*
X151832000Y-123876000D02*
X160732000Y-123876000D01*
X148032000Y-116276000D02*
X148032000Y-123876000D01*
X148032000Y-102876000D02*
X160732000Y-102876000D01*
%TO.C,R7*%
X141937258Y-108576500D02*
X141462742Y-108576500D01*
X141937258Y-107531500D02*
X141462742Y-107531500D01*
%TO.C,R19*%
X129556742Y-136663000D02*
X130031258Y-136663000D01*
X129556742Y-137708000D02*
X130031258Y-137708000D01*
%TO.C,R2*%
X156087258Y-126177500D02*
X155612742Y-126177500D01*
X156087258Y-127222500D02*
X155612742Y-127222500D01*
%TO.C,R8*%
X141462742Y-106847500D02*
X141937258Y-106847500D01*
X141462742Y-105802500D02*
X141937258Y-105802500D01*
%TO.C,C9*%
X155838748Y-127890000D02*
X156361252Y-127890000D01*
X155838748Y-129360000D02*
X156361252Y-129360000D01*
%TO.C,R10*%
X140701500Y-118601258D02*
X140701500Y-118126742D01*
X141746500Y-118601258D02*
X141746500Y-118126742D01*
%TO.C,C19*%
X158777000Y-93718748D02*
X158777000Y-94241252D01*
X160247000Y-93718748D02*
X160247000Y-94241252D01*
%TO.C,U5*%
X127214000Y-78250000D02*
X137454000Y-78250000D01*
X134185000Y-76740000D02*
X134185000Y-78250000D01*
X127214000Y-76740000D02*
X137454000Y-76740000D01*
X130484000Y-76740000D02*
X130484000Y-78250000D01*
X127214000Y-81381000D02*
X137454000Y-81381000D01*
X137454000Y-76740000D02*
X137454000Y-81381000D01*
X127214000Y-76740000D02*
X127214000Y-81381000D01*
%TO.C,C11*%
X135495420Y-95273500D02*
X135776580Y-95273500D01*
X135495420Y-96293500D02*
X135776580Y-96293500D01*
%TO.C,TP4*%
X144202000Y-86360000D02*
G75*
G03*
X144202000Y-86360000I-1200000J0D01*
G01*
%TO.C,U6*%
X130230000Y-89973500D02*
X130230000Y-91483500D01*
X133931000Y-89973500D02*
X133931000Y-91483500D01*
X126960000Y-94614500D02*
X137200000Y-94614500D01*
X137200000Y-89973500D02*
X137200000Y-94614500D01*
X126960000Y-91483500D02*
X137200000Y-91483500D01*
X126960000Y-89973500D02*
X126960000Y-94614500D01*
X126960000Y-89973500D02*
X137200000Y-89973500D01*
%TO.C,R11*%
X131080742Y-115047500D02*
X131555258Y-115047500D01*
X131080742Y-116092500D02*
X131555258Y-116092500D01*
%TO.C,D4*%
X136359000Y-75665000D02*
X136359000Y-74195000D01*
X136359000Y-74195000D02*
X134074000Y-74195000D01*
X134074000Y-75665000D02*
X136359000Y-75665000D01*
%TO.C,R9*%
X142223258Y-124982500D02*
X141748742Y-124982500D01*
X142223258Y-123937500D02*
X141748742Y-123937500D01*
%TO.C,U4*%
X150776000Y-99384000D02*
X156076000Y-99384000D01*
X152426000Y-89104000D02*
X150776000Y-89104000D01*
X150776000Y-89104000D02*
X150776000Y-99384000D01*
X156076000Y-89104000D02*
X154426000Y-89104000D01*
X156076000Y-99384000D02*
X156076000Y-89104000D01*
X152426000Y-89104000D02*
G75*
G03*
X154426000Y-89104000I1000000J0D01*
G01*
%TO.C,J2*%
X156280000Y-134545000D02*
X156280000Y-137205000D01*
X158880000Y-134545000D02*
X158880000Y-135875000D01*
X157550000Y-134545000D02*
X158880000Y-134545000D01*
X156280000Y-137205000D02*
X138440000Y-137205000D01*
X138440000Y-134545000D02*
X138440000Y-137205000D01*
X156280000Y-134545000D02*
X138440000Y-134545000D01*
%TO.C,J4*%
X136403000Y-70164000D02*
X133803000Y-70164000D01*
X137673000Y-67504000D02*
X139003000Y-67504000D01*
X136403000Y-67504000D02*
X133803000Y-67504000D01*
X139003000Y-67504000D02*
X139003000Y-68834000D01*
X133803000Y-67504000D02*
X133803000Y-70164000D01*
X136403000Y-67504000D02*
X136403000Y-70164000D01*
%TO.C,C17*%
X128751000Y-107703252D02*
X128751000Y-107180748D01*
X127281000Y-107703252D02*
X127281000Y-107180748D01*
%TO.C,D8*%
X126265000Y-135623500D02*
X126265000Y-137908500D01*
X127735000Y-137908500D02*
X127735000Y-135623500D01*
X126265000Y-137908500D02*
X127735000Y-137908500D01*
%TO.C,R5*%
X150636500Y-72881258D02*
X150636500Y-72406742D01*
X149591500Y-72881258D02*
X149591500Y-72406742D01*
%TO.C,R21*%
X138952500Y-90241758D02*
X138952500Y-89767242D01*
X137907500Y-90241758D02*
X137907500Y-89767242D01*
%TO.C,R20*%
X137938742Y-75452500D02*
X138413258Y-75452500D01*
X137938742Y-74407500D02*
X138413258Y-74407500D01*
%TO.C,D1*%
X155678000Y-73494000D02*
X155678000Y-71794000D01*
X155678000Y-71794000D02*
X153128000Y-71794000D01*
X155678000Y-73494000D02*
X153128000Y-73494000D01*
%TO.C,R16*%
X127747500Y-104377258D02*
X127747500Y-103902742D01*
X128792500Y-104377258D02*
X128792500Y-103902742D01*
%TO.C,C16*%
X134596000Y-99384888D02*
X133071000Y-99384888D01*
X134596000Y-101105888D02*
X133983000Y-101105888D01*
X138104000Y-99865888D02*
X136676000Y-99865888D01*
X137289000Y-101105888D02*
X136676000Y-101105888D01*
X137926000Y-100305888D02*
X136676000Y-100305888D01*
X134596000Y-99945888D02*
X133194000Y-99945888D01*
X134596000Y-99664888D02*
X133116000Y-99664888D01*
X138147000Y-99704888D02*
X136676000Y-99704888D01*
X134596000Y-99424888D02*
X133075000Y-99424888D01*
X134596000Y-100745888D02*
X133632000Y-100745888D01*
X134596000Y-100105888D02*
X133254000Y-100105888D01*
X134596000Y-100825888D02*
X133699000Y-100825888D01*
X138156000Y-99664888D02*
X136676000Y-99664888D01*
X138216000Y-99104888D02*
X133056000Y-99104888D01*
X138050000Y-100025888D02*
X136676000Y-100025888D01*
X138034000Y-100065888D02*
X136676000Y-100065888D01*
X137537000Y-100865888D02*
X136676000Y-100865888D01*
X134596000Y-99584888D02*
X133100000Y-99584888D01*
X138064000Y-99985888D02*
X136676000Y-99985888D01*
X134596000Y-100225888D02*
X133307000Y-100225888D01*
X134596000Y-100345888D02*
X133368000Y-100345888D01*
X134596000Y-100505888D02*
X133461000Y-100505888D01*
X136887000Y-101385888D02*
X136676000Y-101385888D01*
X137731000Y-100625888D02*
X136676000Y-100625888D01*
X134596000Y-99464888D02*
X133080000Y-99464888D01*
X134596000Y-99344888D02*
X133067000Y-99344888D01*
X137190000Y-101185888D02*
X136676000Y-101185888D01*
X134596000Y-100665888D02*
X133571000Y-100665888D01*
X134596000Y-99624888D02*
X133108000Y-99624888D01*
X134596000Y-100185888D02*
X133288000Y-100185888D01*
X134596000Y-100545888D02*
X133487000Y-100545888D01*
X138172000Y-99584888D02*
X136676000Y-99584888D01*
X137573000Y-100825888D02*
X136676000Y-100825888D01*
X137785000Y-100545888D02*
X136676000Y-100545888D01*
X134596000Y-100985888D02*
X133851000Y-100985888D01*
X138216000Y-99144888D02*
X133056000Y-99144888D01*
X134596000Y-99825888D02*
X133156000Y-99825888D01*
X137379000Y-101025888D02*
X136676000Y-101025888D01*
X137883000Y-100385888D02*
X136676000Y-100385888D01*
X134596000Y-101145888D02*
X134031000Y-101145888D01*
X134596000Y-101385888D02*
X134385000Y-101385888D01*
X136154000Y-101665888D02*
X135118000Y-101665888D01*
X137984000Y-100185888D02*
X136676000Y-100185888D01*
X134596000Y-99985888D02*
X133208000Y-99985888D01*
X134596000Y-100865888D02*
X133735000Y-100865888D01*
X136955000Y-101345888D02*
X136676000Y-101345888D01*
X134596000Y-100625888D02*
X133541000Y-100625888D01*
X134596000Y-100705888D02*
X133601000Y-100705888D01*
X138091000Y-99905888D02*
X136676000Y-99905888D01*
X138127000Y-99784888D02*
X136676000Y-99784888D01*
X138179000Y-99544888D02*
X136676000Y-99544888D01*
X134596000Y-100265888D02*
X133326000Y-100265888D01*
X137946000Y-100265888D02*
X136676000Y-100265888D01*
X134596000Y-100145888D02*
X133271000Y-100145888D01*
X138018000Y-100105888D02*
X136676000Y-100105888D01*
X134596000Y-99504888D02*
X133086000Y-99504888D01*
X134596000Y-99865888D02*
X133168000Y-99865888D01*
X137811000Y-100505888D02*
X136676000Y-100505888D01*
X135920000Y-101705888D02*
X135352000Y-101705888D01*
X134596000Y-100305888D02*
X133346000Y-100305888D01*
X138212000Y-99264888D02*
X133060000Y-99264888D01*
X136551000Y-101545888D02*
X134721000Y-101545888D01*
X137241000Y-101145888D02*
X136676000Y-101145888D01*
X137136000Y-101225888D02*
X136676000Y-101225888D01*
X138116000Y-99825888D02*
X136676000Y-99825888D01*
X138192000Y-99464888D02*
X136676000Y-99464888D01*
X137421000Y-100985888D02*
X136676000Y-100985888D01*
X137335000Y-101065888D02*
X136676000Y-101065888D01*
X134596000Y-100785888D02*
X133665000Y-100785888D01*
X134596000Y-100945888D02*
X133810000Y-100945888D01*
X134596000Y-100385888D02*
X133389000Y-100385888D01*
X136441000Y-101585888D02*
X134831000Y-101585888D01*
X137836000Y-100465888D02*
X136676000Y-100465888D01*
X134596000Y-100905888D02*
X133772000Y-100905888D01*
X137640000Y-100745888D02*
X136676000Y-100745888D01*
X137361000Y-96550113D02*
X136861000Y-96550113D01*
X136647000Y-101505888D02*
X134625000Y-101505888D01*
X134596000Y-99784888D02*
X133145000Y-99784888D01*
X134596000Y-99704888D02*
X133125000Y-99704888D01*
X138137000Y-99744888D02*
X136676000Y-99744888D01*
X137904000Y-100345888D02*
X136676000Y-100345888D01*
X137500000Y-100905888D02*
X136676000Y-100905888D01*
X134596000Y-100025888D02*
X133222000Y-100025888D01*
X134596000Y-101345888D02*
X134317000Y-101345888D01*
X138201000Y-99384888D02*
X136676000Y-99384888D01*
X134596000Y-101185888D02*
X134082000Y-101185888D01*
X138001000Y-100145888D02*
X136676000Y-100145888D01*
X136814000Y-101425888D02*
X134458000Y-101425888D01*
X137462000Y-100945888D02*
X136676000Y-100945888D01*
X134596000Y-99744888D02*
X133135000Y-99744888D01*
X136313000Y-101625888D02*
X134959000Y-101625888D01*
X134596000Y-99905888D02*
X133181000Y-99905888D01*
X134596000Y-101265888D02*
X134193000Y-101265888D01*
X138078000Y-99945888D02*
X136676000Y-99945888D01*
X136734000Y-101465888D02*
X134538000Y-101465888D01*
X134596000Y-100065888D02*
X133238000Y-100065888D01*
X134596000Y-101025888D02*
X133893000Y-101025888D01*
X137701000Y-100665888D02*
X136676000Y-100665888D01*
X138209000Y-99304888D02*
X133063000Y-99304888D01*
X138214000Y-99224888D02*
X133058000Y-99224888D01*
X137079000Y-101265888D02*
X136676000Y-101265888D01*
X134596000Y-101305888D02*
X134253000Y-101305888D01*
X134596000Y-100425888D02*
X133412000Y-100425888D01*
X137671000Y-100705888D02*
X136676000Y-100705888D01*
X134596000Y-100585888D02*
X133514000Y-100585888D01*
X134596000Y-101065888D02*
X133937000Y-101065888D01*
X134596000Y-99544888D02*
X133093000Y-99544888D01*
X137965000Y-100225888D02*
X136676000Y-100225888D01*
X137758000Y-100585888D02*
X136676000Y-100585888D01*
X134596000Y-100465888D02*
X133436000Y-100465888D01*
X137607000Y-100785888D02*
X136676000Y-100785888D01*
X137860000Y-100425888D02*
X136676000Y-100425888D01*
X138205000Y-99344888D02*
X136676000Y-99344888D01*
X138215000Y-99184888D02*
X133057000Y-99184888D01*
X138164000Y-99624888D02*
X136676000Y-99624888D01*
X134596000Y-101225888D02*
X134136000Y-101225888D01*
X137111000Y-96300113D02*
X137111000Y-96800113D01*
X138186000Y-99504888D02*
X136676000Y-99504888D01*
X138197000Y-99424888D02*
X136676000Y-99424888D01*
X137019000Y-101305888D02*
X136676000Y-101305888D01*
X138256000Y-99104888D02*
G75*
G03*
X138256000Y-99104888I-2620000J0D01*
G01*
%TO.C,TP1*%
X128200000Y-71120000D02*
G75*
G03*
X128200000Y-71120000I-1200000J0D01*
G01*
%TO.C,C14*%
X130761000Y-99784888D02*
X129310000Y-99784888D01*
X130849000Y-99184888D02*
X125691000Y-99184888D01*
X127230000Y-101105888D02*
X126617000Y-101105888D01*
X127230000Y-101265888D02*
X126827000Y-101265888D01*
X130365000Y-100625888D02*
X129310000Y-100625888D01*
X127230000Y-99744888D02*
X125769000Y-99744888D01*
X127230000Y-99664888D02*
X125750000Y-99664888D01*
X130712000Y-99945888D02*
X129310000Y-99945888D01*
X127230000Y-101065888D02*
X126571000Y-101065888D01*
X127230000Y-99544888D02*
X125727000Y-99544888D01*
X127230000Y-99985888D02*
X125842000Y-99985888D01*
X130848000Y-99224888D02*
X125692000Y-99224888D01*
X129368000Y-101465888D02*
X127172000Y-101465888D01*
X127230000Y-101305888D02*
X126887000Y-101305888D01*
X130335000Y-100665888D02*
X129310000Y-100665888D01*
X127230000Y-99825888D02*
X125790000Y-99825888D01*
X130798000Y-99624888D02*
X129310000Y-99624888D01*
X127230000Y-100025888D02*
X125856000Y-100025888D01*
X130241000Y-100785888D02*
X129310000Y-100785888D01*
X127230000Y-100625888D02*
X126175000Y-100625888D01*
X127230000Y-100345888D02*
X126002000Y-100345888D01*
X130207000Y-100825888D02*
X129310000Y-100825888D01*
X129923000Y-101105888D02*
X129310000Y-101105888D01*
X127230000Y-100705888D02*
X126235000Y-100705888D01*
X130813000Y-99544888D02*
X129310000Y-99544888D01*
X127230000Y-100865888D02*
X126369000Y-100865888D01*
X130470000Y-100465888D02*
X129310000Y-100465888D01*
X129969000Y-101065888D02*
X129310000Y-101065888D01*
X128947000Y-101625888D02*
X127593000Y-101625888D01*
X127230000Y-99905888D02*
X125815000Y-99905888D01*
X128788000Y-101665888D02*
X127752000Y-101665888D01*
X130096000Y-100945888D02*
X129310000Y-100945888D01*
X130134000Y-100905888D02*
X129310000Y-100905888D01*
X130831000Y-99424888D02*
X129310000Y-99424888D01*
X127230000Y-100985888D02*
X126485000Y-100985888D01*
X130850000Y-99144888D02*
X125690000Y-99144888D01*
X127230000Y-99504888D02*
X125720000Y-99504888D01*
X127230000Y-101345888D02*
X126951000Y-101345888D01*
X130738000Y-99865888D02*
X129310000Y-99865888D01*
X127230000Y-99865888D02*
X125802000Y-99865888D01*
X129995000Y-96550113D02*
X129495000Y-96550113D01*
X130781000Y-99704888D02*
X129310000Y-99704888D01*
X130652000Y-100105888D02*
X129310000Y-100105888D01*
X130618000Y-100185888D02*
X129310000Y-100185888D01*
X127230000Y-100505888D02*
X126095000Y-100505888D01*
X130445000Y-100505888D02*
X129310000Y-100505888D01*
X129875000Y-101145888D02*
X129310000Y-101145888D01*
X127230000Y-100145888D02*
X125905000Y-100145888D01*
X127230000Y-101385888D02*
X127019000Y-101385888D01*
X127230000Y-100945888D02*
X126444000Y-100945888D01*
X130580000Y-100265888D02*
X129310000Y-100265888D01*
X129075000Y-101585888D02*
X127465000Y-101585888D01*
X130560000Y-100305888D02*
X129310000Y-100305888D01*
X129185000Y-101545888D02*
X127355000Y-101545888D01*
X130668000Y-100065888D02*
X129310000Y-100065888D01*
X130517000Y-100385888D02*
X129310000Y-100385888D01*
X130725000Y-99905888D02*
X129310000Y-99905888D01*
X127230000Y-100665888D02*
X126205000Y-100665888D01*
X127230000Y-101025888D02*
X126527000Y-101025888D01*
X129824000Y-101185888D02*
X129310000Y-101185888D01*
X130684000Y-100025888D02*
X129310000Y-100025888D01*
X130171000Y-100865888D02*
X129310000Y-100865888D01*
X130750000Y-99825888D02*
X129310000Y-99825888D01*
X127230000Y-101225888D02*
X126770000Y-101225888D01*
X130419000Y-100545888D02*
X129310000Y-100545888D01*
X130846000Y-99264888D02*
X125694000Y-99264888D01*
X130494000Y-100425888D02*
X129310000Y-100425888D01*
X127230000Y-99344888D02*
X125701000Y-99344888D01*
X130806000Y-99584888D02*
X129310000Y-99584888D01*
X129770000Y-101225888D02*
X129310000Y-101225888D01*
X130790000Y-99664888D02*
X129310000Y-99664888D01*
X130055000Y-100985888D02*
X129310000Y-100985888D01*
X130274000Y-100745888D02*
X129310000Y-100745888D01*
X127230000Y-100585888D02*
X126148000Y-100585888D01*
X127230000Y-101145888D02*
X126665000Y-101145888D01*
X130826000Y-99464888D02*
X129310000Y-99464888D01*
X127230000Y-100225888D02*
X125941000Y-100225888D01*
X127230000Y-99464888D02*
X125714000Y-99464888D01*
X129745000Y-96300113D02*
X129745000Y-96800113D01*
X130013000Y-101025888D02*
X129310000Y-101025888D01*
X130392000Y-100585888D02*
X129310000Y-100585888D01*
X127230000Y-100905888D02*
X126406000Y-100905888D01*
X127230000Y-100065888D02*
X125872000Y-100065888D01*
X127230000Y-100185888D02*
X125922000Y-100185888D01*
X127230000Y-99704888D02*
X125759000Y-99704888D01*
X127230000Y-100465888D02*
X126070000Y-100465888D01*
X128554000Y-101705888D02*
X127986000Y-101705888D01*
X130538000Y-100345888D02*
X129310000Y-100345888D01*
X127230000Y-100785888D02*
X126299000Y-100785888D01*
X127230000Y-100105888D02*
X125888000Y-100105888D01*
X129653000Y-101305888D02*
X129310000Y-101305888D01*
X127230000Y-100265888D02*
X125960000Y-100265888D01*
X129281000Y-101505888D02*
X127259000Y-101505888D01*
X127230000Y-99424888D02*
X125709000Y-99424888D01*
X130820000Y-99504888D02*
X129310000Y-99504888D01*
X127230000Y-100745888D02*
X126266000Y-100745888D01*
X130771000Y-99744888D02*
X129310000Y-99744888D01*
X130305000Y-100705888D02*
X129310000Y-100705888D01*
X127230000Y-99584888D02*
X125734000Y-99584888D01*
X129713000Y-101265888D02*
X129310000Y-101265888D01*
X127230000Y-101185888D02*
X126716000Y-101185888D01*
X127230000Y-99945888D02*
X125828000Y-99945888D01*
X129521000Y-101385888D02*
X129310000Y-101385888D01*
X130843000Y-99304888D02*
X125697000Y-99304888D01*
X127230000Y-100385888D02*
X126023000Y-100385888D01*
X127230000Y-100825888D02*
X126333000Y-100825888D01*
X127230000Y-99624888D02*
X125742000Y-99624888D01*
X130850000Y-99104888D02*
X125690000Y-99104888D01*
X127230000Y-99384888D02*
X125705000Y-99384888D01*
X130698000Y-99985888D02*
X129310000Y-99985888D01*
X127230000Y-100425888D02*
X126046000Y-100425888D01*
X130839000Y-99344888D02*
X129310000Y-99344888D01*
X130635000Y-100145888D02*
X129310000Y-100145888D01*
X130835000Y-99384888D02*
X129310000Y-99384888D01*
X127230000Y-99784888D02*
X125779000Y-99784888D01*
X127230000Y-100305888D02*
X125980000Y-100305888D01*
X127230000Y-100545888D02*
X126121000Y-100545888D01*
X130599000Y-100225888D02*
X129310000Y-100225888D01*
X129448000Y-101425888D02*
X127092000Y-101425888D01*
X129589000Y-101345888D02*
X129310000Y-101345888D01*
X130890000Y-99104888D02*
G75*
G03*
X130890000Y-99104888I-2620000J0D01*
G01*
%TO.C,D2*%
X130072000Y-73494000D02*
X132622000Y-73494000D01*
X130072000Y-71794000D02*
X130072000Y-73494000D01*
X130072000Y-71794000D02*
X132622000Y-71794000D01*
%TO.C,Q1*%
X151998000Y-81742000D02*
X151998000Y-83242000D01*
X158898000Y-83242000D02*
X158628000Y-83242000D01*
X152268000Y-83242000D02*
X152268000Y-86072000D01*
X158898000Y-81742000D02*
X158898000Y-83242000D01*
X151998000Y-83242000D02*
X152268000Y-83242000D01*
X158628000Y-83242000D02*
X158628000Y-84342000D01*
%TO.C,R15*%
X141487742Y-105122500D02*
X141962258Y-105122500D01*
X141487742Y-104077500D02*
X141962258Y-104077500D01*
%TO.C,R22*%
X140701500Y-122157258D02*
X140701500Y-121682742D01*
X141746500Y-122157258D02*
X141746500Y-121682742D01*
%TO.C,R14*%
X142377500Y-97562258D02*
X142377500Y-97087742D01*
X143422500Y-97562258D02*
X143422500Y-97087742D01*
%TO.C,C5*%
X131177420Y-113282000D02*
X131458580Y-113282000D01*
X131177420Y-114302000D02*
X131458580Y-114302000D01*
%TO.C,R13*%
X145147500Y-97087742D02*
X145147500Y-97562258D01*
X144102500Y-97087742D02*
X144102500Y-97562258D01*
%TO.C,R24*%
X128255500Y-125396258D02*
X128255500Y-124921742D01*
X129300500Y-125396258D02*
X129300500Y-124921742D01*
%TO.C,C8*%
X128383420Y-81857000D02*
X128664580Y-81857000D01*
X128383420Y-82877000D02*
X128664580Y-82877000D01*
%TO.C,J6*%
X118812000Y-73207000D02*
X121472000Y-73207000D01*
X118812000Y-70607000D02*
X118812000Y-73207000D01*
X121472000Y-70607000D02*
X121472000Y-73207000D01*
X118812000Y-69337000D02*
X118812000Y-68007000D01*
X118812000Y-68007000D02*
X120142000Y-68007000D01*
X118812000Y-70607000D02*
X121472000Y-70607000D01*
%TO.C,C13*%
X127484000Y-87113000D02*
X126277000Y-87113000D01*
X130267000Y-87753000D02*
X129564000Y-87753000D01*
X127484000Y-87633000D02*
X126660000Y-87633000D01*
X127484000Y-86472000D02*
X126023000Y-86472000D01*
X131080000Y-86192000D02*
X129564000Y-86192000D01*
X130699000Y-87233000D02*
X129564000Y-87233000D01*
X127484000Y-87393000D02*
X126459000Y-87393000D01*
X130024000Y-87953000D02*
X129564000Y-87953000D01*
X130646000Y-87313000D02*
X129564000Y-87313000D01*
X130619000Y-87353000D02*
X129564000Y-87353000D01*
X131093000Y-86072000D02*
X129564000Y-86072000D01*
X131089000Y-86112000D02*
X129564000Y-86112000D01*
X127484000Y-86312000D02*
X125988000Y-86312000D01*
X130853000Y-86953000D02*
X129564000Y-86953000D01*
X127484000Y-87753000D02*
X126781000Y-87753000D01*
X127484000Y-87553000D02*
X126587000Y-87553000D01*
X127484000Y-87913000D02*
X126970000Y-87913000D01*
X129775000Y-88113000D02*
X129564000Y-88113000D01*
X130906000Y-86833000D02*
X129564000Y-86833000D01*
X130792000Y-87073000D02*
X129564000Y-87073000D01*
X130814000Y-87033000D02*
X129564000Y-87033000D01*
X131085000Y-86152000D02*
X129564000Y-86152000D01*
X131104000Y-85872000D02*
X125944000Y-85872000D01*
X129999000Y-83027225D02*
X129999000Y-83527225D01*
X127484000Y-86913000D02*
X126176000Y-86913000D01*
X127484000Y-86553000D02*
X126044000Y-86553000D01*
X131067000Y-86272000D02*
X129564000Y-86272000D01*
X127484000Y-86993000D02*
X126214000Y-86993000D01*
X127484000Y-87513000D02*
X126553000Y-87513000D01*
X127484000Y-86793000D02*
X126126000Y-86793000D01*
X129329000Y-88313000D02*
X127719000Y-88313000D01*
X127484000Y-87313000D02*
X126402000Y-87313000D01*
X127484000Y-86512000D02*
X126033000Y-86512000D01*
X127484000Y-86833000D02*
X126142000Y-86833000D01*
X130177000Y-87833000D02*
X129564000Y-87833000D01*
X127484000Y-86192000D02*
X125968000Y-86192000D01*
X131097000Y-86032000D02*
X125951000Y-86032000D01*
X131102000Y-85952000D02*
X125946000Y-85952000D01*
X130589000Y-87393000D02*
X129564000Y-87393000D01*
X131103000Y-85912000D02*
X125945000Y-85912000D01*
X131035000Y-86432000D02*
X129564000Y-86432000D01*
X127484000Y-88033000D02*
X127141000Y-88033000D01*
X127484000Y-87153000D02*
X126300000Y-87153000D01*
X130992000Y-86593000D02*
X129564000Y-86593000D01*
X127484000Y-86593000D02*
X126056000Y-86593000D01*
X127484000Y-86953000D02*
X126195000Y-86953000D01*
X127484000Y-86272000D02*
X125981000Y-86272000D01*
X127484000Y-86392000D02*
X126004000Y-86392000D01*
X127484000Y-86072000D02*
X125955000Y-86072000D01*
X127484000Y-87033000D02*
X126234000Y-87033000D01*
X127484000Y-86352000D02*
X125996000Y-86352000D01*
X131044000Y-86392000D02*
X129564000Y-86392000D01*
X127484000Y-86432000D02*
X126013000Y-86432000D01*
X127484000Y-86112000D02*
X125959000Y-86112000D01*
X130979000Y-86633000D02*
X129564000Y-86633000D01*
X127484000Y-87713000D02*
X126739000Y-87713000D01*
X130748000Y-87153000D02*
X129564000Y-87153000D01*
X130724000Y-87193000D02*
X129564000Y-87193000D01*
X130129000Y-87873000D02*
X129564000Y-87873000D01*
X129535000Y-88233000D02*
X127513000Y-88233000D01*
X127484000Y-88073000D02*
X127205000Y-88073000D01*
X130889000Y-86873000D02*
X129564000Y-86873000D01*
X128808000Y-88433000D02*
X128240000Y-88433000D01*
X127484000Y-87073000D02*
X126256000Y-87073000D01*
X127484000Y-86873000D02*
X126159000Y-86873000D01*
X130673000Y-87273000D02*
X129564000Y-87273000D01*
X130966000Y-86673000D02*
X129564000Y-86673000D01*
X127484000Y-87273000D02*
X126375000Y-87273000D01*
X131015000Y-86512000D02*
X129564000Y-86512000D01*
X129622000Y-88193000D02*
X127426000Y-88193000D01*
X130922000Y-86793000D02*
X129564000Y-86793000D01*
X130350000Y-87673000D02*
X129564000Y-87673000D01*
X129843000Y-88073000D02*
X129564000Y-88073000D01*
X127484000Y-86152000D02*
X125963000Y-86152000D01*
X127484000Y-86673000D02*
X126082000Y-86673000D01*
X130495000Y-87513000D02*
X129564000Y-87513000D01*
X130872000Y-86913000D02*
X129564000Y-86913000D01*
X127484000Y-86753000D02*
X126110000Y-86753000D01*
X130771000Y-87113000D02*
X129564000Y-87113000D01*
X131074000Y-86232000D02*
X129564000Y-86232000D01*
X129967000Y-87993000D02*
X129564000Y-87993000D01*
X130425000Y-87593000D02*
X129564000Y-87593000D01*
X127484000Y-88113000D02*
X127273000Y-88113000D01*
X130223000Y-87793000D02*
X129564000Y-87793000D01*
X127484000Y-87353000D02*
X126429000Y-87353000D01*
X131052000Y-86352000D02*
X129564000Y-86352000D01*
X129201000Y-88353000D02*
X127847000Y-88353000D01*
X130559000Y-87433000D02*
X129564000Y-87433000D01*
X131104000Y-85832000D02*
X125944000Y-85832000D01*
X129907000Y-88033000D02*
X129564000Y-88033000D01*
X130388000Y-87633000D02*
X129564000Y-87633000D01*
X131004000Y-86553000D02*
X129564000Y-86553000D01*
X127484000Y-86633000D02*
X126069000Y-86633000D01*
X127484000Y-86232000D02*
X125974000Y-86232000D01*
X130309000Y-87713000D02*
X129564000Y-87713000D01*
X129439000Y-88273000D02*
X127609000Y-88273000D01*
X127484000Y-87593000D02*
X126623000Y-87593000D01*
X127484000Y-87953000D02*
X127024000Y-87953000D01*
X127484000Y-87873000D02*
X126919000Y-87873000D01*
X130528000Y-87473000D02*
X129564000Y-87473000D01*
X129042000Y-88393000D02*
X128006000Y-88393000D01*
X129702000Y-88153000D02*
X127346000Y-88153000D01*
X127484000Y-87193000D02*
X126324000Y-87193000D01*
X127484000Y-87793000D02*
X126825000Y-87793000D01*
X130938000Y-86753000D02*
X129564000Y-86753000D01*
X130461000Y-87553000D02*
X129564000Y-87553000D01*
X130952000Y-86713000D02*
X129564000Y-86713000D01*
X127484000Y-87833000D02*
X126871000Y-87833000D01*
X130249000Y-83277225D02*
X129749000Y-83277225D01*
X127484000Y-87473000D02*
X126520000Y-87473000D01*
X127484000Y-87673000D02*
X126698000Y-87673000D01*
X130834000Y-86993000D02*
X129564000Y-86993000D01*
X127484000Y-87233000D02*
X126349000Y-87233000D01*
X127484000Y-87433000D02*
X126489000Y-87433000D01*
X131060000Y-86312000D02*
X129564000Y-86312000D01*
X131100000Y-85992000D02*
X125948000Y-85992000D01*
X130078000Y-87913000D02*
X129564000Y-87913000D01*
X131025000Y-86472000D02*
X129564000Y-86472000D01*
X127484000Y-86713000D02*
X126096000Y-86713000D01*
X127484000Y-87993000D02*
X127081000Y-87993000D01*
X131144000Y-85832000D02*
G75*
G03*
X131144000Y-85832000I-2620000J0D01*
G01*
%TO.C,U3*%
X137514000Y-116516000D02*
X132214000Y-116516000D01*
X137514000Y-126796000D02*
X137514000Y-116516000D01*
X135864000Y-126796000D02*
X137514000Y-126796000D01*
X132214000Y-116516000D02*
X132214000Y-126796000D01*
X132214000Y-126796000D02*
X133864000Y-126796000D01*
X135864000Y-126796000D02*
G75*
G03*
X133864000Y-126796000I-1000000J0D01*
G01*
%TO.C,D3*%
X136168000Y-73494000D02*
X138718000Y-73494000D01*
X136168000Y-71794000D02*
X138718000Y-71794000D01*
X136168000Y-71794000D02*
X136168000Y-73494000D01*
%TO.C,R4*%
X151652500Y-79993258D02*
X151652500Y-79518742D01*
X150607500Y-79993258D02*
X150607500Y-79518742D01*
%TO.C,R6*%
X141437742Y-109277500D02*
X141912258Y-109277500D01*
X141437742Y-110322500D02*
X141912258Y-110322500D01*
%TO.C,C12*%
X136003420Y-81857000D02*
X136284580Y-81857000D01*
X136003420Y-82877000D02*
X136284580Y-82877000D01*
%TO.C,C3*%
X130696580Y-128526000D02*
X130415420Y-128526000D01*
X130696580Y-127506000D02*
X130415420Y-127506000D01*
%TO.C,C1*%
X141534420Y-112160000D02*
X141815580Y-112160000D01*
X141534420Y-111140000D02*
X141815580Y-111140000D01*
%TO.C,U1*%
X137260000Y-112572000D02*
X137260000Y-102292000D01*
X131960000Y-102292000D02*
X131960000Y-112572000D01*
X137260000Y-102292000D02*
X131960000Y-102292000D01*
X131960000Y-112572000D02*
X133610000Y-112572000D01*
X135610000Y-112572000D02*
X137260000Y-112572000D01*
X135610000Y-112572000D02*
G75*
G03*
X133610000Y-112572000I-1000000J0D01*
G01*
%TO.C,R27*%
X159845742Y-98283500D02*
X160320258Y-98283500D01*
X159845742Y-99328500D02*
X160320258Y-99328500D01*
%TO.C,C10*%
X128142420Y-95273500D02*
X128423580Y-95273500D01*
X128142420Y-96293500D02*
X128423580Y-96293500D01*
%TO.C,J5*%
X160645000Y-70109000D02*
X160645000Y-67509000D01*
X163305000Y-70109000D02*
X163305000Y-67509000D01*
X163305000Y-70109000D02*
X160645000Y-70109000D01*
X163305000Y-71379000D02*
X163305000Y-72709000D01*
X163305000Y-67509000D02*
X160645000Y-67509000D01*
X163305000Y-72709000D02*
X161975000Y-72709000D01*
%TO.C,C4*%
X142126580Y-125728000D02*
X141845420Y-125728000D01*
X142126580Y-126748000D02*
X141845420Y-126748000D01*
%TO.C,C2*%
X149746580Y-125982000D02*
X149465420Y-125982000D01*
X149746580Y-127002000D02*
X149465420Y-127002000D01*
%TO.C,D5*%
X142914000Y-71652000D02*
X142914000Y-74202000D01*
X144614000Y-71652000D02*
X144614000Y-74202000D01*
X144614000Y-71652000D02*
X142914000Y-71652000D01*
%TO.C,C18*%
X129513000Y-121927252D02*
X129513000Y-121404748D01*
X128043000Y-121927252D02*
X128043000Y-121404748D01*
%TO.C,D6*%
X139165000Y-94018000D02*
X139165000Y-91733000D01*
X137695000Y-91733000D02*
X137695000Y-94018000D01*
X139165000Y-91733000D02*
X137695000Y-91733000D01*
%TO.C,J1*%
X155448000Y-70164000D02*
X158048000Y-70164000D01*
X158048000Y-70164000D02*
X158048000Y-67504000D01*
X155448000Y-70164000D02*
X155448000Y-67504000D01*
X152848000Y-70164000D02*
X152848000Y-68834000D01*
X155448000Y-67504000D02*
X158048000Y-67504000D01*
X154178000Y-70164000D02*
X152848000Y-70164000D01*
%TO.C,J3*%
X145049000Y-70164000D02*
X150189000Y-70164000D01*
X143779000Y-70164000D02*
X142449000Y-70164000D01*
X142449000Y-70164000D02*
X142449000Y-68834000D01*
X150189000Y-70164000D02*
X150189000Y-67504000D01*
X145049000Y-70164000D02*
X145049000Y-67504000D01*
X145049000Y-67504000D02*
X150189000Y-67504000D01*
%TO.C,C6*%
X143142580Y-89914000D02*
X142861420Y-89914000D01*
X143142580Y-90934000D02*
X142861420Y-90934000D01*
%TO.C,R18*%
X129556742Y-132374000D02*
X130031258Y-132374000D01*
X129556742Y-131329000D02*
X130031258Y-131329000D01*
%TO.C,TP5*%
X162744000Y-86868000D02*
G75*
G03*
X162744000Y-86868000I-1200000J0D01*
G01*
%TO.C,R3*%
X154352258Y-87644500D02*
X153877742Y-87644500D01*
X154352258Y-86599500D02*
X153877742Y-86599500D01*
%TO.C,R17*%
X127747500Y-111235258D02*
X127747500Y-110760742D01*
X128792500Y-111235258D02*
X128792500Y-110760742D01*
%TO.C,CN10*%
X167095000Y-94423000D02*
X169695000Y-94423000D01*
X164495000Y-95753000D02*
X164495000Y-94423000D01*
X169695000Y-94423000D02*
X169695000Y-137723000D01*
X164495000Y-94423000D02*
X165825000Y-94423000D01*
X167095000Y-97023000D02*
X167095000Y-94423000D01*
X164495000Y-97023000D02*
X164495000Y-137723000D01*
X164495000Y-137723000D02*
X169695000Y-137723000D01*
X164495000Y-97023000D02*
X167095000Y-97023000D01*
%TO.C,CN9*%
X121417000Y-99503000D02*
X124017000Y-99503000D01*
X124017000Y-99503000D02*
X124017000Y-137723000D01*
X118817000Y-137723000D02*
X124017000Y-137723000D01*
X118817000Y-100833000D02*
X118817000Y-99503000D01*
X118817000Y-102103000D02*
X118817000Y-137723000D01*
X118817000Y-99503000D02*
X120147000Y-99503000D01*
X121417000Y-102103000D02*
X121417000Y-99503000D01*
X118817000Y-102103000D02*
X121417000Y-102103000D01*
%TO.C,CN8*%
X118812000Y-77973000D02*
X118812000Y-76643000D01*
X118812000Y-76643000D02*
X120142000Y-76643000D01*
X124012000Y-76643000D02*
X124012000Y-97083000D01*
X121412000Y-76643000D02*
X124012000Y-76643000D01*
X118812000Y-79243000D02*
X121412000Y-79243000D01*
X118812000Y-97083000D02*
X124012000Y-97083000D01*
X118812000Y-79243000D02*
X118812000Y-97083000D01*
X121412000Y-79243000D02*
X121412000Y-76643000D01*
%TO.C,CN7*%
X164502000Y-69850000D02*
X164502000Y-92770000D01*
X164502000Y-67250000D02*
X165832000Y-67250000D01*
X164502000Y-69850000D02*
X167102000Y-69850000D01*
X167102000Y-69850000D02*
X167102000Y-67250000D01*
X164502000Y-92770000D02*
X169702000Y-92770000D01*
X164502000Y-68580000D02*
X164502000Y-67250000D01*
X167102000Y-67250000D02*
X169702000Y-67250000D01*
X169702000Y-67250000D02*
X169702000Y-92770000D01*
%TD*%
M02*
