%TF.GenerationSoftware,KiCad,Pcbnew,(6.0.2-0)*%
%TF.CreationDate,2022-07-26T16:16:35+02:00*%
%TF.ProjectId,stepper_testbench,73746570-7065-4725-9f74-65737462656e,rev?*%
%TF.SameCoordinates,Original*%
%TF.FileFunction,Soldermask,Top*%
%TF.FilePolarity,Negative*%
%FSLAX46Y46*%
G04 Gerber Fmt 4.6, Leading zero omitted, Abs format (unit mm)*
G04 Created by KiCad (PCBNEW (6.0.2-0)) date 2022-07-26 16:16:35*
%MOMM*%
%LPD*%
G01*
G04 APERTURE LIST*
G04 Aperture macros list*
%AMRoundRect*
0 Rectangle with rounded corners*
0 $1 Rounding radius*
0 $2 $3 $4 $5 $6 $7 $8 $9 X,Y pos of 4 corners*
0 Add a 4 corners polygon primitive as box body*
4,1,4,$2,$3,$4,$5,$6,$7,$8,$9,$2,$3,0*
0 Add four circle primitives for the rounded corners*
1,1,$1+$1,$2,$3*
1,1,$1+$1,$4,$5*
1,1,$1+$1,$6,$7*
1,1,$1+$1,$8,$9*
0 Add four rect primitives between the rounded corners*
20,1,$1+$1,$2,$3,$4,$5,0*
20,1,$1+$1,$4,$5,$6,$7,0*
20,1,$1+$1,$6,$7,$8,$9,0*
20,1,$1+$1,$8,$9,$2,$3,0*%
G04 Aperture macros list end*
%ADD10C,0.150000*%
%ADD11RoundRect,0.225000X-0.250000X0.225000X-0.250000X-0.225000X0.250000X-0.225000X0.250000X0.225000X0*%
%ADD12RoundRect,0.200000X-0.200000X-0.275000X0.200000X-0.275000X0.200000X0.275000X-0.200000X0.275000X0*%
%ADD13RoundRect,0.250000X-0.450000X0.262500X-0.450000X-0.262500X0.450000X-0.262500X0.450000X0.262500X0*%
%ADD14C,2.000000*%
%ADD15RoundRect,0.200000X-0.275000X0.200000X-0.275000X-0.200000X0.275000X-0.200000X0.275000X0.200000X0*%
%ADD16R,1.600000X1.600000*%
%ADD17C,1.600000*%
%ADD18RoundRect,0.218750X-0.256250X0.218750X-0.256250X-0.218750X0.256250X-0.218750X0.256250X0.218750X0*%
%ADD19RoundRect,0.200000X0.275000X-0.200000X0.275000X0.200000X-0.275000X0.200000X-0.275000X-0.200000X0*%
%ADD20O,1.300000X2.300000*%
%ADD21O,2.540000X1.900000*%
%ADD22RoundRect,0.200000X0.200000X0.275000X-0.200000X0.275000X-0.200000X-0.275000X0.200000X-0.275000X0*%
%ADD23RoundRect,0.250000X-0.250000X-0.475000X0.250000X-0.475000X0.250000X0.475000X-0.250000X0.475000X0*%
%ADD24RoundRect,0.250000X-0.475000X0.250000X-0.475000X-0.250000X0.475000X-0.250000X0.475000X0.250000X0*%
%ADD25R,1.905000X2.000000*%
%ADD26O,1.905000X2.000000*%
%ADD27RoundRect,0.225000X-0.225000X-0.250000X0.225000X-0.250000X0.225000X0.250000X-0.225000X0.250000X0*%
%ADD28RoundRect,0.218750X0.218750X0.256250X-0.218750X0.256250X-0.218750X-0.256250X0.218750X-0.256250X0*%
%ADD29O,1.600000X1.600000*%
%ADD30R,1.700000X1.700000*%
%ADD31O,1.700000X1.700000*%
%ADD32RoundRect,0.250000X0.475000X-0.250000X0.475000X0.250000X-0.475000X0.250000X-0.475000X-0.250000X0*%
%ADD33RoundRect,0.218750X0.256250X-0.218750X0.256250X0.218750X-0.256250X0.218750X-0.256250X-0.218750X0*%
%ADD34R,0.600000X0.450000*%
%ADD35R,1.200000X2.200000*%
%ADD36R,5.800000X6.400000*%
%ADD37RoundRect,0.225000X0.225000X0.250000X-0.225000X0.250000X-0.225000X-0.250000X0.225000X-0.250000X0*%
%ADD38R,0.450000X0.600000*%
G04 APERTURE END LIST*
D10*
X131826000Y-137160000D02*
X137414000Y-137160000D01*
X137414000Y-137160000D02*
X137414000Y-140208000D01*
X137414000Y-140208000D02*
X131826000Y-140208000D01*
X131826000Y-140208000D02*
X131826000Y-137160000D01*
G36*
X131826000Y-137160000D02*
G01*
X137414000Y-137160000D01*
X137414000Y-140208000D01*
X131826000Y-140208000D01*
X131826000Y-137160000D01*
G37*
X125730000Y-63754000D02*
X131318000Y-63754000D01*
X131318000Y-63754000D02*
X131318000Y-66802000D01*
X131318000Y-66802000D02*
X125730000Y-66802000D01*
X125730000Y-66802000D02*
X125730000Y-63754000D01*
G36*
X125730000Y-63754000D02*
G01*
X131318000Y-63754000D01*
X131318000Y-66802000D01*
X125730000Y-66802000D01*
X125730000Y-63754000D01*
G37*
D11*
%TO.C,C7*%
X159258000Y-89649000D03*
X159258000Y-91199000D03*
%TD*%
D12*
%TO.C,R26*%
X159258000Y-96774000D03*
X160908000Y-96774000D03*
%TD*%
D13*
%TO.C,FB1*%
X130810000Y-68175500D03*
X130810000Y-70000500D03*
%TD*%
D14*
%TO.C,TP2*%
X142240000Y-130302000D03*
%TD*%
D15*
%TO.C,R1*%
X151130000Y-84011000D03*
X151130000Y-85661000D03*
%TD*%
D12*
%TO.C,R12*%
X145542000Y-90424000D03*
X147192000Y-90424000D03*
%TD*%
D14*
%TO.C,TP3*%
X143002000Y-81788000D03*
%TD*%
D16*
%TO.C,C15*%
X136144000Y-84582000D03*
D17*
X136144000Y-87082000D03*
%TD*%
D18*
%TO.C,D7*%
X127000000Y-131800500D03*
X127000000Y-133375500D03*
%TD*%
D19*
%TO.C,R23*%
X128778000Y-118935000D03*
X128778000Y-117285000D03*
%TD*%
D15*
%TO.C,R25*%
X146558000Y-93663000D03*
X146558000Y-95313000D03*
%TD*%
D20*
%TO.C,U2*%
X151892000Y-123926000D03*
X154432000Y-123926000D03*
X156972000Y-123926000D03*
D21*
X148082000Y-116276000D03*
X148082000Y-113736000D03*
X148082000Y-111196000D03*
X160782000Y-116276000D03*
X160782000Y-113736000D03*
X160782000Y-111196000D03*
%TD*%
D22*
%TO.C,R7*%
X142525000Y-108054000D03*
X140875000Y-108054000D03*
%TD*%
D12*
%TO.C,R19*%
X128969000Y-137185500D03*
X130619000Y-137185500D03*
%TD*%
D22*
%TO.C,R2*%
X156675000Y-126700000D03*
X155025000Y-126700000D03*
%TD*%
D12*
%TO.C,R8*%
X140875000Y-106325000D03*
X142525000Y-106325000D03*
%TD*%
D23*
%TO.C,C9*%
X155150000Y-128625000D03*
X157050000Y-128625000D03*
%TD*%
D19*
%TO.C,R10*%
X141224000Y-119189000D03*
X141224000Y-117539000D03*
%TD*%
D24*
%TO.C,C19*%
X159512000Y-93030000D03*
X159512000Y-94930000D03*
%TD*%
D25*
%TO.C,U5*%
X129794000Y-80010000D03*
D26*
X132334000Y-80010000D03*
X134874000Y-80010000D03*
%TD*%
D27*
%TO.C,C11*%
X134861000Y-95783500D03*
X136411000Y-95783500D03*
%TD*%
D14*
%TO.C,TP4*%
X143002000Y-86360000D03*
%TD*%
D25*
%TO.C,U6*%
X129540000Y-93243500D03*
D26*
X132080000Y-93243500D03*
X134620000Y-93243500D03*
%TD*%
D12*
%TO.C,R11*%
X130493000Y-115570000D03*
X132143000Y-115570000D03*
%TD*%
D28*
%TO.C,D4*%
X135661500Y-74930000D03*
X134086500Y-74930000D03*
%TD*%
D22*
%TO.C,R9*%
X142811000Y-124460000D03*
X141161000Y-124460000D03*
%TD*%
D16*
%TO.C,U4*%
X149616000Y-90434000D03*
D29*
X149616000Y-92974000D03*
X149616000Y-95514000D03*
X149616000Y-98054000D03*
X157236000Y-98054000D03*
X157236000Y-95514000D03*
X157236000Y-92974000D03*
X157236000Y-90434000D03*
%TD*%
D30*
%TO.C,J2*%
X157550000Y-135875000D03*
D31*
X155010000Y-135875000D03*
X152470000Y-135875000D03*
X149930000Y-135875000D03*
X147390000Y-135875000D03*
X144850000Y-135875000D03*
X142310000Y-135875000D03*
X139770000Y-135875000D03*
%TD*%
D30*
%TO.C,J4*%
X137673000Y-68834000D03*
D31*
X135133000Y-68834000D03*
%TD*%
D32*
%TO.C,C17*%
X128016000Y-108392000D03*
X128016000Y-106492000D03*
%TD*%
D33*
%TO.C,D8*%
X127000000Y-137211000D03*
X127000000Y-135636000D03*
%TD*%
D19*
%TO.C,R5*%
X150114000Y-73469000D03*
X150114000Y-71819000D03*
%TD*%
%TO.C,R21*%
X138430000Y-90829500D03*
X138430000Y-89179500D03*
%TD*%
D12*
%TO.C,R20*%
X137351000Y-74930000D03*
X139001000Y-74930000D03*
%TD*%
D34*
%TO.C,D1*%
X155228000Y-72644000D03*
X153128000Y-72644000D03*
%TD*%
D19*
%TO.C,R16*%
X128270000Y-104965000D03*
X128270000Y-103315000D03*
%TD*%
D16*
%TO.C,C16*%
X135636000Y-97854888D03*
D17*
X135636000Y-100354888D03*
%TD*%
D14*
%TO.C,TP1*%
X127000000Y-71120000D03*
%TD*%
D16*
%TO.C,C14*%
X128270000Y-97854888D03*
D17*
X128270000Y-100354888D03*
%TD*%
D34*
%TO.C,D2*%
X130522000Y-72644000D03*
X132622000Y-72644000D03*
%TD*%
D35*
%TO.C,Q1*%
X153168000Y-84972000D03*
D36*
X155448000Y-78672000D03*
D35*
X157728000Y-84972000D03*
%TD*%
D12*
%TO.C,R15*%
X140900000Y-104600000D03*
X142550000Y-104600000D03*
%TD*%
D19*
%TO.C,R22*%
X141224000Y-122745000D03*
X141224000Y-121095000D03*
%TD*%
%TO.C,R14*%
X142900000Y-98150000D03*
X142900000Y-96500000D03*
%TD*%
D27*
%TO.C,C5*%
X130543000Y-113792000D03*
X132093000Y-113792000D03*
%TD*%
D15*
%TO.C,R13*%
X144625000Y-96500000D03*
X144625000Y-98150000D03*
%TD*%
D19*
%TO.C,R24*%
X128778000Y-125984000D03*
X128778000Y-124334000D03*
%TD*%
D27*
%TO.C,C8*%
X127749000Y-82367000D03*
X129299000Y-82367000D03*
%TD*%
D30*
%TO.C,J6*%
X120142000Y-69337000D03*
D31*
X120142000Y-71877000D03*
%TD*%
D16*
%TO.C,C13*%
X128524000Y-84582000D03*
D17*
X128524000Y-87082000D03*
%TD*%
D16*
%TO.C,U3*%
X138674000Y-125466000D03*
D29*
X138674000Y-122926000D03*
X138674000Y-120386000D03*
X138674000Y-117846000D03*
X131054000Y-117846000D03*
X131054000Y-120386000D03*
X131054000Y-122926000D03*
X131054000Y-125466000D03*
%TD*%
D34*
%TO.C,D3*%
X136618000Y-72644000D03*
X138718000Y-72644000D03*
%TD*%
D19*
%TO.C,R4*%
X151130000Y-80581000D03*
X151130000Y-78931000D03*
%TD*%
D12*
%TO.C,R6*%
X140850000Y-109800000D03*
X142500000Y-109800000D03*
%TD*%
D27*
%TO.C,C12*%
X135369000Y-82367000D03*
X136919000Y-82367000D03*
%TD*%
D37*
%TO.C,C3*%
X131331000Y-128016000D03*
X129781000Y-128016000D03*
%TD*%
D27*
%TO.C,C1*%
X140900000Y-111650000D03*
X142450000Y-111650000D03*
%TD*%
D16*
%TO.C,U1*%
X138420000Y-111242000D03*
D29*
X138420000Y-108702000D03*
X138420000Y-106162000D03*
X138420000Y-103622000D03*
X130800000Y-103622000D03*
X130800000Y-106162000D03*
X130800000Y-108702000D03*
X130800000Y-111242000D03*
%TD*%
D12*
%TO.C,R27*%
X159258000Y-98806000D03*
X160908000Y-98806000D03*
%TD*%
D27*
%TO.C,C10*%
X127508000Y-95783500D03*
X129058000Y-95783500D03*
%TD*%
D30*
%TO.C,J5*%
X161975000Y-71379000D03*
D31*
X161975000Y-68839000D03*
%TD*%
D37*
%TO.C,C4*%
X142761000Y-126238000D03*
X141211000Y-126238000D03*
%TD*%
%TO.C,C2*%
X150381000Y-126492000D03*
X148831000Y-126492000D03*
%TD*%
D38*
%TO.C,D5*%
X143764000Y-72102000D03*
X143764000Y-74202000D03*
%TD*%
D32*
%TO.C,C18*%
X128778000Y-122616000D03*
X128778000Y-120716000D03*
%TD*%
D18*
%TO.C,D6*%
X138430000Y-92430500D03*
X138430000Y-94005500D03*
%TD*%
D30*
%TO.C,J1*%
X154178000Y-68834000D03*
D31*
X156718000Y-68834000D03*
%TD*%
D30*
%TO.C,J3*%
X143779000Y-68834000D03*
D31*
X146319000Y-68834000D03*
X148859000Y-68834000D03*
%TD*%
D37*
%TO.C,C6*%
X143777000Y-90424000D03*
X142227000Y-90424000D03*
%TD*%
D12*
%TO.C,R18*%
X128969000Y-131851500D03*
X130619000Y-131851500D03*
%TD*%
D14*
%TO.C,TP5*%
X161544000Y-86868000D03*
%TD*%
D22*
%TO.C,R3*%
X154940000Y-87122000D03*
X153290000Y-87122000D03*
%TD*%
D19*
%TO.C,R17*%
X128270000Y-111823000D03*
X128270000Y-110173000D03*
%TD*%
D30*
%TO.C,CN10*%
X165825000Y-95753000D03*
D31*
X168365000Y-95753000D03*
X165825000Y-98293000D03*
X168365000Y-98293000D03*
X165825000Y-100833000D03*
X168365000Y-100833000D03*
X165825000Y-103373000D03*
X168365000Y-103373000D03*
X165825000Y-105913000D03*
X168365000Y-105913000D03*
X165825000Y-108453000D03*
X168365000Y-108453000D03*
X165825000Y-110993000D03*
X168365000Y-110993000D03*
X165825000Y-113533000D03*
X168365000Y-113533000D03*
X165825000Y-116073000D03*
X168365000Y-116073000D03*
X165825000Y-118613000D03*
X168365000Y-118613000D03*
X165825000Y-121153000D03*
X168365000Y-121153000D03*
X165825000Y-123693000D03*
X168365000Y-123693000D03*
X165825000Y-126233000D03*
X168365000Y-126233000D03*
X165825000Y-128773000D03*
X168365000Y-128773000D03*
X165825000Y-131313000D03*
X168365000Y-131313000D03*
X165825000Y-133853000D03*
X168365000Y-133853000D03*
X165825000Y-136393000D03*
X168365000Y-136393000D03*
%TD*%
D30*
%TO.C,CN9*%
X120147000Y-100833000D03*
D31*
X122687000Y-100833000D03*
X120147000Y-103373000D03*
X122687000Y-103373000D03*
X120147000Y-105913000D03*
X122687000Y-105913000D03*
X120147000Y-108453000D03*
X122687000Y-108453000D03*
X120147000Y-110993000D03*
X122687000Y-110993000D03*
X120147000Y-113533000D03*
X122687000Y-113533000D03*
X120147000Y-116073000D03*
X122687000Y-116073000D03*
X120147000Y-118613000D03*
X122687000Y-118613000D03*
X120147000Y-121153000D03*
X122687000Y-121153000D03*
X120147000Y-123693000D03*
X122687000Y-123693000D03*
X120147000Y-126233000D03*
X122687000Y-126233000D03*
X120147000Y-128773000D03*
X122687000Y-128773000D03*
X120147000Y-131313000D03*
X122687000Y-131313000D03*
X120147000Y-133853000D03*
X122687000Y-133853000D03*
X120147000Y-136393000D03*
X122687000Y-136393000D03*
%TD*%
D30*
%TO.C,CN8*%
X120142000Y-77973000D03*
D31*
X122682000Y-77973000D03*
X120142000Y-80513000D03*
X122682000Y-80513000D03*
X120142000Y-83053000D03*
X122682000Y-83053000D03*
X120142000Y-85593000D03*
X122682000Y-85593000D03*
X120142000Y-88133000D03*
X122682000Y-88133000D03*
X120142000Y-90673000D03*
X122682000Y-90673000D03*
X120142000Y-93213000D03*
X122682000Y-93213000D03*
X120142000Y-95753000D03*
X122682000Y-95753000D03*
%TD*%
D30*
%TO.C,CN7*%
X165832000Y-68580000D03*
D31*
X168372000Y-68580000D03*
X165832000Y-71120000D03*
X168372000Y-71120000D03*
X165832000Y-73660000D03*
X168372000Y-73660000D03*
X165832000Y-76200000D03*
X168372000Y-76200000D03*
X165832000Y-78740000D03*
X168372000Y-78740000D03*
X165832000Y-81280000D03*
X168372000Y-81280000D03*
X165832000Y-83820000D03*
X168372000Y-83820000D03*
X165832000Y-86360000D03*
X168372000Y-86360000D03*
X165832000Y-88900000D03*
X168372000Y-88900000D03*
X165832000Y-91440000D03*
X168372000Y-91440000D03*
%TD*%
M02*
