%FSLAX45Y45*%
G04 Gerber Fmt 4.5, Leading zero omitted, Abs format (unit mm)*
G04 Created by KiCad (PCBNEW (6.0.2-0)) date 2022-07-28 16:30:47*
%MOMM*%
%LPD*%
G01*
G04 APERTURE LIST*
%TA.AperFunction,Profile*%
%ADD10C,0.100000*%
%TD*%
%ADD11C,0.200000*%
%ADD12C,0.025000*%
%ADD13C,0.040000*%
%ADD14C,0.080000*%
%ADD15C,0.100000*%
%ADD16C,0.110000*%
%ADD17C,0.130000*%
G04 APERTURE END LIST*
D10*
X19114000Y-11749803D02*
G75*
G03*
X19315200Y-11551400I1200J200003D01*
G01*
X19315200Y-4109994D02*
G75*
G03*
X19115200Y-3909994I-200000J0D01*
G01*
X12546000Y-11549800D02*
G75*
G03*
X12744600Y-11748400I198600J0D01*
G01*
X19115200Y-3909994D02*
X12744587Y-3911600D01*
X19315200Y-11551400D02*
X19315200Y-4109994D01*
X12744587Y-3911600D02*
G75*
G03*
X12544600Y-4109994I-1587J-198394D01*
G01*
X12544600Y-4109994D02*
X12546000Y-11549800D01*
X12744600Y-11748400D02*
X19114000Y-11749803D01*
D11*
D12*
X12691100Y-4791500D02*
X12716100Y-4816500D01*
X12716100Y-4791500D02*
X12691100Y-4816500D01*
X12696100Y-9344000D02*
X12721100Y-9369000D01*
X12721100Y-9344000D02*
X12696100Y-9369000D01*
X12743600Y-9956500D02*
X12768600Y-9981500D01*
X12768600Y-9956500D02*
X12743600Y-9981500D01*
X12781100Y-10279000D02*
X12806100Y-10304000D01*
X12806100Y-10279000D02*
X12781100Y-10304000D01*
X12788600Y-4306500D02*
X12813600Y-4331500D01*
X12813600Y-4306500D02*
X12788600Y-4331500D01*
X12814500Y-5905700D02*
X12839500Y-5930700D01*
X12839500Y-5905700D02*
X12814500Y-5930700D01*
X12828600Y-10951500D02*
X12853600Y-10976500D01*
X12853600Y-10951500D02*
X12828600Y-10976500D01*
X12843600Y-7314000D02*
X12868600Y-7339000D01*
X12868600Y-7314000D02*
X12843600Y-7339000D01*
X12851100Y-11311500D02*
X12876100Y-11336500D01*
X12876100Y-11311500D02*
X12851100Y-11336500D01*
X12856100Y-5429000D02*
X12881100Y-5454000D01*
X12881100Y-5429000D02*
X12856100Y-5454000D01*
X12871100Y-6704000D02*
X12896100Y-6729000D01*
X12896100Y-6704000D02*
X12871100Y-6729000D01*
X12876100Y-9044000D02*
X12901100Y-9069000D01*
X12901100Y-9044000D02*
X12876100Y-9069000D01*
X12876100Y-9606500D02*
X12901100Y-9631500D01*
X12901100Y-9606500D02*
X12876100Y-9631500D01*
X12888600Y-8659000D02*
X12913600Y-8684000D01*
X12913600Y-8659000D02*
X12888600Y-8684000D01*
X12941100Y-6371500D02*
X12966100Y-6396500D01*
X12966100Y-6371500D02*
X12941100Y-6396500D01*
X12961100Y-10579000D02*
X12986100Y-10604000D01*
X12986100Y-10579000D02*
X12961100Y-10604000D01*
X12966900Y-7937700D02*
X12991900Y-7962700D01*
X12991900Y-7937700D02*
X12966900Y-7962700D01*
X12971100Y-11131500D02*
X12996100Y-11156500D01*
X12996100Y-11131500D02*
X12971100Y-11156500D01*
X13036100Y-7216500D02*
X13061100Y-7241500D01*
X13061100Y-7216500D02*
X13036100Y-7241500D01*
X13043600Y-9944000D02*
X13068600Y-9969000D01*
X13068600Y-9944000D02*
X13043600Y-9969000D01*
X13068600Y-9319000D02*
X13093600Y-9344000D01*
X13093600Y-9319000D02*
X13068600Y-9344000D01*
X13121100Y-4376500D02*
X13146100Y-4401500D01*
X13146100Y-4376500D02*
X13121100Y-4401500D01*
X13148600Y-4764000D02*
X13173600Y-4789000D01*
X13173600Y-4764000D02*
X13148600Y-4789000D01*
X13188600Y-6274000D02*
X13213600Y-6299000D01*
X13213600Y-6274000D02*
X13188600Y-6299000D01*
X14052200Y-9932800D02*
X14077200Y-9957800D01*
X14077200Y-9932800D02*
X14052200Y-9957800D01*
X14086500Y-4882500D02*
X14111500Y-4907500D01*
X14111500Y-4882500D02*
X14086500Y-4907500D01*
X14225000Y-6462500D02*
X14250000Y-6487500D01*
X14250000Y-6462500D02*
X14225000Y-6487500D01*
X14247500Y-6746500D02*
X14272500Y-6771500D01*
X14272500Y-6746500D02*
X14247500Y-6771500D01*
X14287700Y-5423100D02*
X14312700Y-5448100D01*
X14312700Y-5423100D02*
X14287700Y-5448100D01*
X14287700Y-5651700D02*
X14312700Y-5676700D01*
X14312700Y-5651700D02*
X14287700Y-5676700D01*
X14287700Y-5854900D02*
X14312700Y-5879900D01*
X14312700Y-5854900D02*
X14287700Y-5879900D01*
X14301500Y-7127500D02*
X14326500Y-7152500D01*
X14326500Y-7127500D02*
X14301500Y-7152500D01*
X14361500Y-9270500D02*
X14386500Y-9295500D01*
X14386500Y-9270500D02*
X14361500Y-9295500D01*
X14407500Y-8921500D02*
X14432500Y-8946500D01*
X14432500Y-8921500D02*
X14407500Y-8946500D01*
X14490900Y-5423100D02*
X14515900Y-5448100D01*
X14515900Y-5423100D02*
X14490900Y-5448100D01*
X14491000Y-5641400D02*
X14516000Y-5666400D01*
X14516000Y-5641400D02*
X14491000Y-5666400D01*
X14491000Y-5851400D02*
X14516000Y-5876400D01*
X14516000Y-5851400D02*
X14491000Y-5876400D01*
X14523500Y-4391500D02*
X14548500Y-4416500D01*
X14548500Y-4391500D02*
X14523500Y-4416500D01*
X14609500Y-7922500D02*
X14634500Y-7947500D01*
X14634500Y-7922500D02*
X14609500Y-7947500D01*
X14694100Y-5423100D02*
X14719100Y-5448100D01*
X14719100Y-5423100D02*
X14694100Y-5448100D01*
X14694100Y-5626300D02*
X14719100Y-5651300D01*
X14719100Y-5626300D02*
X14694100Y-5651300D01*
X14694100Y-5849500D02*
X14719100Y-5874500D01*
X14719100Y-5849500D02*
X14694100Y-5874500D01*
X14716500Y-8485500D02*
X14741500Y-8510500D01*
X14741500Y-8485500D02*
X14716500Y-8510500D01*
X14730500Y-9918500D02*
X14755500Y-9943500D01*
X14755500Y-9918500D02*
X14730500Y-9943500D01*
X14742500Y-7541500D02*
X14767500Y-7566500D01*
X14767500Y-7541500D02*
X14742500Y-7566500D01*
X14755000Y-11097500D02*
X14780000Y-11122500D01*
X14780000Y-11097500D02*
X14755000Y-11122500D01*
X14765725Y-11491100D02*
X14790725Y-11516100D01*
X14790725Y-11491100D02*
X14765725Y-11516100D01*
X14846500Y-8826700D02*
X14871500Y-8851700D01*
X14871500Y-8826700D02*
X14846500Y-8851700D01*
X14897300Y-9614100D02*
X14922300Y-9639100D01*
X14922300Y-9614100D02*
X14897300Y-9639100D01*
X14922700Y-10350700D02*
X14947700Y-10375700D01*
X14947700Y-10350700D02*
X14922700Y-10375700D01*
X14992500Y-6470000D02*
X15017500Y-6495000D01*
X15017500Y-6470000D02*
X14992500Y-6495000D01*
X14996500Y-11420500D02*
X15021500Y-11445500D01*
X15021500Y-11420500D02*
X14996500Y-11445500D01*
X15063500Y-5436500D02*
X15088500Y-5461500D01*
X15088500Y-5436500D02*
X15063500Y-5461500D01*
X15066500Y-5652500D02*
X15091500Y-5677500D01*
X15091500Y-5652500D02*
X15066500Y-5677500D01*
X15078500Y-5837500D02*
X15103500Y-5862500D01*
X15103500Y-5837500D02*
X15078500Y-5862500D01*
X15089500Y-4213500D02*
X15114500Y-4238500D01*
X15114500Y-4213500D02*
X15089500Y-4238500D01*
X15090500Y-11029500D02*
X15115500Y-11054500D01*
X15115500Y-11029500D02*
X15090500Y-11054500D01*
X15167500Y-7693500D02*
X15192500Y-7718500D01*
X15192500Y-7693500D02*
X15167500Y-7718500D01*
X15198500Y-8666500D02*
X15223500Y-8691500D01*
X15223500Y-8666500D02*
X15198500Y-8691500D01*
X15267500Y-5828500D02*
X15292500Y-5853500D01*
X15292500Y-5828500D02*
X15267500Y-5853500D01*
X15278400Y-5440600D02*
X15303400Y-5465600D01*
X15303400Y-5440600D02*
X15278400Y-5465600D01*
X15278400Y-5641400D02*
X15303400Y-5666400D01*
X15303400Y-5641400D02*
X15278400Y-5666400D01*
X15287500Y-6800500D02*
X15312500Y-6825500D01*
X15312500Y-6800500D02*
X15287500Y-6825500D01*
X15329100Y-10782500D02*
X15354100Y-10807500D01*
X15354100Y-10782500D02*
X15329100Y-10807500D01*
X15379900Y-10325300D02*
X15404900Y-10350300D01*
X15404900Y-10325300D02*
X15379900Y-10350300D01*
X15405300Y-10071300D02*
X15430300Y-10096300D01*
X15430300Y-10071300D02*
X15405300Y-10096300D01*
X15481500Y-5651700D02*
X15506500Y-5676700D01*
X15506500Y-5651700D02*
X15481500Y-5676700D01*
X15482500Y-5439500D02*
X15507500Y-5464500D01*
X15507500Y-5439500D02*
X15482500Y-5464500D01*
X15482500Y-5837500D02*
X15507500Y-5862500D01*
X15507500Y-5837500D02*
X15482500Y-5862500D01*
X15538500Y-10831500D02*
X15563500Y-10856500D01*
X15563500Y-10831500D02*
X15538500Y-10856500D01*
X15630500Y-7405500D02*
X15655500Y-7430500D01*
X15655500Y-7405500D02*
X15630500Y-7430500D01*
X15677500Y-7222500D02*
X15702500Y-7247500D01*
X15702500Y-7222500D02*
X15677500Y-7247500D01*
X15712500Y-5500000D02*
X15737500Y-5525000D01*
X15737500Y-5500000D02*
X15712500Y-5525000D01*
X15721500Y-11087500D02*
X15746500Y-11112500D01*
X15746500Y-11087500D02*
X15721500Y-11112500D01*
X15725500Y-4391500D02*
X15750500Y-4416500D01*
X15750500Y-4391500D02*
X15725500Y-4416500D01*
X15747500Y-6015500D02*
X15772500Y-6040500D01*
X15772500Y-6015500D02*
X15747500Y-6040500D01*
X15782500Y-8841500D02*
X15807500Y-8866500D01*
X15807500Y-8841500D02*
X15782500Y-8866500D01*
X15860000Y-8460000D02*
X15885000Y-8485000D01*
X15885000Y-8460000D02*
X15860000Y-8485000D01*
X15882500Y-8030500D02*
X15907500Y-8055500D01*
X15907500Y-8030500D02*
X15882500Y-8055500D01*
X15898500Y-6775500D02*
X15923500Y-6800500D01*
X15923500Y-6775500D02*
X15898500Y-6800500D01*
X16015000Y-10067500D02*
X16040000Y-10092500D01*
X16040000Y-10067500D02*
X16015000Y-10092500D01*
X16017581Y-8618919D02*
X16042581Y-8643919D01*
X16042581Y-8618919D02*
X16017581Y-8643919D01*
X16100500Y-7202500D02*
X16125500Y-7227500D01*
X16125500Y-7202500D02*
X16100500Y-7227500D01*
X16157500Y-5815500D02*
X16182500Y-5840500D01*
X16182500Y-5815500D02*
X16157500Y-5840500D01*
X16162500Y-6268500D02*
X16187500Y-6293500D01*
X16187500Y-6268500D02*
X16162500Y-6293500D01*
X16162500Y-7102500D02*
X16187500Y-7127500D01*
X16187500Y-7102500D02*
X16162500Y-7127500D01*
X16325500Y-8063500D02*
X16350500Y-8088500D01*
X16350500Y-8063500D02*
X16325500Y-8088500D01*
X16405500Y-5443500D02*
X16430500Y-5468500D01*
X16430500Y-5443500D02*
X16405500Y-5468500D01*
X16594500Y-4968500D02*
X16619500Y-4993500D01*
X16619500Y-4968500D02*
X16594500Y-4993500D01*
X16605500Y-4656500D02*
X16630500Y-4681500D01*
X16630500Y-4656500D02*
X16605500Y-4681500D01*
X16672500Y-8547500D02*
X16697500Y-8572500D01*
X16697500Y-8547500D02*
X16672500Y-8572500D01*
X17017500Y-6340000D02*
X17042500Y-6365000D01*
X17042500Y-6340000D02*
X17017500Y-6365000D01*
X17031500Y-5686500D02*
X17056500Y-5711500D01*
X17056500Y-5686500D02*
X17031500Y-5711500D01*
X17138500Y-6786500D02*
X17163500Y-6811500D01*
X17163500Y-6786500D02*
X17138500Y-6811500D01*
X17209500Y-4273500D02*
X17234500Y-4298500D01*
X17234500Y-4273500D02*
X17209500Y-4298500D01*
X17284900Y-4965900D02*
X17309900Y-4990900D01*
X17309900Y-4965900D02*
X17284900Y-4990900D01*
X17330000Y-10582500D02*
X17355000Y-10607500D01*
X17355000Y-10582500D02*
X17330000Y-10607500D01*
X17332500Y-9057500D02*
X17357500Y-9082500D01*
X17357500Y-9057500D02*
X17332500Y-9082500D01*
X17332500Y-10207500D02*
X17357500Y-10232500D01*
X17357500Y-10207500D02*
X17332500Y-10232500D01*
X17335700Y-9512500D02*
X17360700Y-9537500D01*
X17360700Y-9512500D02*
X17335700Y-9537500D01*
X17342500Y-8812500D02*
X17367500Y-8837500D01*
X17367500Y-8812500D02*
X17342500Y-8837500D01*
X17342500Y-10400000D02*
X17367500Y-10425000D01*
X17367500Y-10400000D02*
X17342500Y-10425000D01*
X17419500Y-5448500D02*
X17444500Y-5473500D01*
X17444500Y-5448500D02*
X17419500Y-5473500D01*
X17497500Y-11360000D02*
X17522500Y-11385000D01*
X17522500Y-11360000D02*
X17497500Y-11385000D01*
X17667500Y-7207500D02*
X17692500Y-7232500D01*
X17692500Y-7207500D02*
X17667500Y-7232500D01*
X17726500Y-6721500D02*
X17751500Y-6746500D01*
X17751500Y-6721500D02*
X17726500Y-6746500D01*
X17732500Y-6031500D02*
X17757500Y-6056500D01*
X17757500Y-6031500D02*
X17732500Y-6056500D01*
X17782500Y-10075000D02*
X17807500Y-10100000D01*
X17807500Y-10075000D02*
X17782500Y-10100000D01*
X17800000Y-8610000D02*
X17825000Y-8635000D01*
X17825000Y-8610000D02*
X17800000Y-8635000D01*
X17818300Y-4280100D02*
X17843300Y-4305100D01*
X17843300Y-4280100D02*
X17818300Y-4305100D01*
X17834500Y-5432500D02*
X17859500Y-5457500D01*
X17859500Y-5432500D02*
X17834500Y-5457500D01*
X18716100Y-6594000D02*
X18741100Y-6619000D01*
X18741100Y-6594000D02*
X18716100Y-6619000D01*
X18731100Y-7161500D02*
X18756100Y-7186500D01*
X18756100Y-7161500D02*
X18731100Y-7186500D01*
X18743600Y-4571500D02*
X18768600Y-4596500D01*
X18768600Y-4571500D02*
X18743600Y-4596500D01*
X18758600Y-9884000D02*
X18783600Y-9909000D01*
X18783600Y-9884000D02*
X18758600Y-9909000D01*
X18783600Y-10699000D02*
X18808600Y-10724000D01*
X18808600Y-10699000D02*
X18783600Y-10724000D01*
X18806100Y-11204000D02*
X18831100Y-11229000D01*
X18831100Y-11204000D02*
X18806100Y-11229000D01*
X18818600Y-7721500D02*
X18843600Y-7746500D01*
X18843600Y-7721500D02*
X18818600Y-7746500D01*
X18843600Y-8299000D02*
X18868600Y-8324000D01*
X18868600Y-8299000D02*
X18843600Y-8324000D01*
X18885100Y-5499300D02*
X18910100Y-5524300D01*
X18910100Y-5499300D02*
X18885100Y-5524300D01*
X18903600Y-8971500D02*
X18928600Y-8996500D01*
X18928600Y-8971500D02*
X18903600Y-8996500D01*
X18926100Y-10506500D02*
X18951100Y-10531500D01*
X18951100Y-10506500D02*
X18926100Y-10531500D01*
X18938600Y-4639000D02*
X18963600Y-4664000D01*
X18963600Y-4639000D02*
X18938600Y-4664000D01*
X19011100Y-10064000D02*
X19036100Y-10089000D01*
X19036100Y-10064000D02*
X19011100Y-10089000D01*
X19021100Y-5984000D02*
X19046100Y-6009000D01*
X19046100Y-5984000D02*
X19021100Y-6009000D01*
X19033600Y-7361500D02*
X19058600Y-7386500D01*
X19058600Y-7361500D02*
X19033600Y-7386500D01*
X19048500Y-10259500D02*
X19073500Y-10284500D01*
X19073500Y-10259500D02*
X19048500Y-10284500D01*
X19131100Y-9186500D02*
X19156100Y-9211500D01*
X19156100Y-9186500D02*
X19131100Y-9211500D01*
X19143600Y-8166500D02*
X19168600Y-8191500D01*
X19168600Y-8166500D02*
X19143600Y-8191500D01*
X19164500Y-11544500D02*
X19189500Y-11569500D01*
X19189500Y-11544500D02*
X19164500Y-11569500D01*
D13*
X15158400Y-5130800D02*
G75*
G03*
X15158400Y-5130800I-20000J0D01*
G01*
X15747500Y-9820000D02*
G75*
G03*
X15747500Y-9820000I-20000J0D01*
G01*
X16682400Y-6934200D02*
G75*
G03*
X16682400Y-6934200I-20000J0D01*
G01*
X17012500Y-8380000D02*
G75*
G03*
X17012500Y-8380000I-20000J0D01*
G01*
D14*
X14457900Y-9636400D02*
X14457900Y-9716400D01*
X14417900Y-9676400D02*
X14497900Y-9676400D01*
X14457900Y-9890400D02*
X14457900Y-9970400D01*
X14417900Y-9930400D02*
X14497900Y-9930400D01*
X14457900Y-10144400D02*
X14457900Y-10224400D01*
X14417900Y-10184400D02*
X14497900Y-10184400D01*
X14457900Y-10398400D02*
X14457900Y-10478400D01*
X14417900Y-10438400D02*
X14497900Y-10438400D01*
X14605000Y-6916600D02*
X14605000Y-6996600D01*
X14565000Y-6956600D02*
X14645000Y-6956600D01*
D11*
X14605000Y-6926600D02*
X14605000Y-6926600D01*
X14605000Y-6986600D02*
X14605000Y-6986600D01*
X14605000Y-6926600D02*
G75*
G03*
X14605000Y-6986600I0J-30000D01*
G01*
X14605000Y-6986600D02*
G75*
G03*
X14605000Y-6926600I0J30000D01*
G01*
D14*
X14859000Y-6916600D02*
X14859000Y-6996600D01*
X14819000Y-6956600D02*
X14899000Y-6956600D01*
D11*
X14859000Y-6926600D02*
X14859000Y-6926600D01*
X14859000Y-6986600D02*
X14859000Y-6986600D01*
X14859000Y-6926600D02*
G75*
G03*
X14859000Y-6986600I0J-30000D01*
G01*
X14859000Y-6986600D02*
G75*
G03*
X14859000Y-6926600I0J30000D01*
G01*
D14*
X15113000Y-6916600D02*
X15113000Y-6996600D01*
X15073000Y-6956600D02*
X15153000Y-6956600D01*
D11*
X15113000Y-6926600D02*
X15113000Y-6926600D01*
X15113000Y-6986600D02*
X15113000Y-6986600D01*
X15113000Y-6926600D02*
G75*
G03*
X15113000Y-6986600I0J-30000D01*
G01*
X15113000Y-6986600D02*
G75*
G03*
X15113000Y-6926600I0J30000D01*
G01*
D14*
X15219900Y-9636400D02*
X15219900Y-9716400D01*
X15179900Y-9676400D02*
X15259900Y-9676400D01*
X15219900Y-9890400D02*
X15219900Y-9970400D01*
X15179900Y-9930400D02*
X15259900Y-9930400D01*
X15219900Y-10144400D02*
X15219900Y-10224400D01*
X15179900Y-10184400D02*
X15259900Y-10184400D01*
X15219900Y-10398400D02*
X15219900Y-10478400D01*
X15179900Y-10438400D02*
X15259900Y-10438400D01*
X16407400Y-8290200D02*
X16407400Y-8370200D01*
X16367400Y-8330200D02*
X16447400Y-8330200D01*
X16407400Y-8544200D02*
X16407400Y-8624200D01*
X16367400Y-8584200D02*
X16447400Y-8584200D01*
X16407400Y-8798200D02*
X16407400Y-8878200D01*
X16367400Y-8838200D02*
X16447400Y-8838200D01*
X16407400Y-9052200D02*
X16407400Y-9132200D01*
X16367400Y-9092200D02*
X16447400Y-9092200D01*
X16407400Y-9763400D02*
X16407400Y-9843400D01*
X16367400Y-9803400D02*
X16447400Y-9803400D01*
X16407400Y-10017400D02*
X16407400Y-10097400D01*
X16367400Y-10057400D02*
X16447400Y-10057400D01*
X16407400Y-10271400D02*
X16407400Y-10351400D01*
X16367400Y-10311400D02*
X16447400Y-10311400D01*
X16407400Y-10525400D02*
X16407400Y-10605400D01*
X16367400Y-10565400D02*
X16447400Y-10565400D01*
X16586200Y-7637289D02*
X16586200Y-7717289D01*
X16546200Y-7677289D02*
X16626200Y-7677289D01*
X16586200Y-7887289D02*
X16586200Y-7967289D01*
X16546200Y-7927289D02*
X16626200Y-7927289D01*
X16611600Y-6310000D02*
X16611600Y-6390000D01*
X16571600Y-6350000D02*
X16651600Y-6350000D01*
X16611600Y-6560000D02*
X16611600Y-6640000D01*
X16571600Y-6600000D02*
X16651600Y-6600000D01*
X17169400Y-8290200D02*
X17169400Y-8370200D01*
X17129400Y-8330200D02*
X17209400Y-8330200D01*
X17169400Y-8544200D02*
X17169400Y-8624200D01*
X17129400Y-8584200D02*
X17209400Y-8584200D01*
X17169400Y-8798200D02*
X17169400Y-8878200D01*
X17129400Y-8838200D02*
X17209400Y-8838200D01*
X17169400Y-9052200D02*
X17169400Y-9132200D01*
X17129400Y-9092200D02*
X17209400Y-9092200D01*
X17169400Y-9763400D02*
X17169400Y-9843400D01*
X17129400Y-9803400D02*
X17209400Y-9803400D01*
X17169400Y-10017400D02*
X17169400Y-10097400D01*
X17129400Y-10057400D02*
X17209400Y-10057400D01*
X17169400Y-10271400D02*
X17169400Y-10351400D01*
X17129400Y-10311400D02*
X17209400Y-10311400D01*
X17169400Y-10525400D02*
X17169400Y-10605400D01*
X17129400Y-10565400D02*
X17209400Y-10565400D01*
X17322800Y-7637289D02*
X17322800Y-7717289D01*
X17282800Y-7677289D02*
X17362800Y-7677289D01*
X17322800Y-7887289D02*
X17322800Y-7967289D01*
X17282800Y-7927289D02*
X17362800Y-7927289D01*
X17373600Y-6310000D02*
X17373600Y-6390000D01*
X17333600Y-6350000D02*
X17413600Y-6350000D01*
X17373600Y-6560000D02*
X17373600Y-6640000D01*
X17333600Y-6600000D02*
X17413600Y-6600000D01*
D15*
X13548156Y-5546656D02*
X13548156Y-5475944D01*
X13477444Y-5475944D01*
X13477444Y-5546656D01*
X13548156Y-5546656D01*
X13548156Y-5800656D02*
X13548156Y-5729944D01*
X13477444Y-5729944D01*
X13477444Y-5800656D01*
X13548156Y-5800656D01*
X13548156Y-6054656D02*
X13548156Y-5983944D01*
X13477444Y-5983944D01*
X13477444Y-6054656D01*
X13548156Y-6054656D01*
X13548156Y-6308656D02*
X13548156Y-6237944D01*
X13477444Y-6237944D01*
X13477444Y-6308656D01*
X13548156Y-6308656D01*
X13548156Y-6562656D02*
X13548156Y-6491944D01*
X13477444Y-6491944D01*
X13477444Y-6562656D01*
X13548156Y-6562656D01*
X13548156Y-6816656D02*
X13548156Y-6745944D01*
X13477444Y-6745944D01*
X13477444Y-6816656D01*
X13548156Y-6816656D01*
X13548156Y-7070656D02*
X13548156Y-6999944D01*
X13477444Y-6999944D01*
X13477444Y-7070656D01*
X13548156Y-7070656D01*
X13548156Y-7324656D02*
X13548156Y-7253944D01*
X13477444Y-7253944D01*
X13477444Y-7324656D01*
X13548156Y-7324656D01*
X13548656Y-7832656D02*
X13548656Y-7761944D01*
X13477944Y-7761944D01*
X13477944Y-7832656D01*
X13548656Y-7832656D01*
X13548656Y-8086656D02*
X13548656Y-8015944D01*
X13477944Y-8015944D01*
X13477944Y-8086656D01*
X13548656Y-8086656D01*
X13548656Y-8340656D02*
X13548656Y-8269944D01*
X13477944Y-8269944D01*
X13477944Y-8340656D01*
X13548656Y-8340656D01*
X13548656Y-8594656D02*
X13548656Y-8523944D01*
X13477944Y-8523944D01*
X13477944Y-8594656D01*
X13548656Y-8594656D01*
X13548656Y-8848656D02*
X13548656Y-8777944D01*
X13477944Y-8777944D01*
X13477944Y-8848656D01*
X13548656Y-8848656D01*
X13548656Y-9102656D02*
X13548656Y-9031944D01*
X13477944Y-9031944D01*
X13477944Y-9102656D01*
X13548656Y-9102656D01*
X13548656Y-9356656D02*
X13548656Y-9285944D01*
X13477944Y-9285944D01*
X13477944Y-9356656D01*
X13548656Y-9356656D01*
X13548656Y-9610656D02*
X13548656Y-9539944D01*
X13477944Y-9539944D01*
X13477944Y-9610656D01*
X13548656Y-9610656D01*
X13548656Y-9864656D02*
X13548656Y-9793944D01*
X13477944Y-9793944D01*
X13477944Y-9864656D01*
X13548656Y-9864656D01*
X13548656Y-10118656D02*
X13548656Y-10047944D01*
X13477944Y-10047944D01*
X13477944Y-10118656D01*
X13548656Y-10118656D01*
X13548656Y-10372656D02*
X13548656Y-10301944D01*
X13477944Y-10301944D01*
X13477944Y-10372656D01*
X13548656Y-10372656D01*
X13548656Y-10626656D02*
X13548656Y-10555944D01*
X13477944Y-10555944D01*
X13477944Y-10626656D01*
X13548656Y-10626656D01*
X13548656Y-10880656D02*
X13548656Y-10809944D01*
X13477944Y-10809944D01*
X13477944Y-10880656D01*
X13548656Y-10880656D01*
X13548656Y-11134656D02*
X13548656Y-11063944D01*
X13477944Y-11063944D01*
X13477944Y-11134656D01*
X13548656Y-11134656D01*
X13548656Y-11388656D02*
X13548656Y-11317944D01*
X13477944Y-11317944D01*
X13477944Y-11388656D01*
X13548656Y-11388656D01*
X13776756Y-4531256D02*
X13776756Y-4460544D01*
X13706044Y-4460544D01*
X13706044Y-4531256D01*
X13776756Y-4531256D01*
X13776756Y-5039256D02*
X13776756Y-4968544D01*
X13706044Y-4968544D01*
X13706044Y-5039256D01*
X13776756Y-5039256D01*
X13802156Y-5546656D02*
X13802156Y-5475944D01*
X13731444Y-5475944D01*
X13731444Y-5546656D01*
X13802156Y-5546656D01*
X13802156Y-5800656D02*
X13802156Y-5729944D01*
X13731444Y-5729944D01*
X13731444Y-5800656D01*
X13802156Y-5800656D01*
X13802156Y-6054656D02*
X13802156Y-5983944D01*
X13731444Y-5983944D01*
X13731444Y-6054656D01*
X13802156Y-6054656D01*
X13802156Y-6308656D02*
X13802156Y-6237944D01*
X13731444Y-6237944D01*
X13731444Y-6308656D01*
X13802156Y-6308656D01*
X13802156Y-6562656D02*
X13802156Y-6491944D01*
X13731444Y-6491944D01*
X13731444Y-6562656D01*
X13802156Y-6562656D01*
X13802156Y-6816656D02*
X13802156Y-6745944D01*
X13731444Y-6745944D01*
X13731444Y-6816656D01*
X13802156Y-6816656D01*
X13802156Y-7070656D02*
X13802156Y-6999944D01*
X13731444Y-6999944D01*
X13731444Y-7070656D01*
X13802156Y-7070656D01*
X13802156Y-7324656D02*
X13802156Y-7253944D01*
X13731444Y-7253944D01*
X13731444Y-7324656D01*
X13802156Y-7324656D01*
X13802656Y-7832656D02*
X13802656Y-7761944D01*
X13731944Y-7761944D01*
X13731944Y-7832656D01*
X13802656Y-7832656D01*
X13802656Y-8086656D02*
X13802656Y-8015944D01*
X13731944Y-8015944D01*
X13731944Y-8086656D01*
X13802656Y-8086656D01*
X13802656Y-8340656D02*
X13802656Y-8269944D01*
X13731944Y-8269944D01*
X13731944Y-8340656D01*
X13802656Y-8340656D01*
X13802656Y-8594656D02*
X13802656Y-8523944D01*
X13731944Y-8523944D01*
X13731944Y-8594656D01*
X13802656Y-8594656D01*
X13802656Y-8848656D02*
X13802656Y-8777944D01*
X13731944Y-8777944D01*
X13731944Y-8848656D01*
X13802656Y-8848656D01*
X13802656Y-9102656D02*
X13802656Y-9031944D01*
X13731944Y-9031944D01*
X13731944Y-9102656D01*
X13802656Y-9102656D01*
X13802656Y-9356656D02*
X13802656Y-9285944D01*
X13731944Y-9285944D01*
X13731944Y-9356656D01*
X13802656Y-9356656D01*
X13802656Y-9610656D02*
X13802656Y-9539944D01*
X13731944Y-9539944D01*
X13731944Y-9610656D01*
X13802656Y-9610656D01*
X13802656Y-9864656D02*
X13802656Y-9793944D01*
X13731944Y-9793944D01*
X13731944Y-9864656D01*
X13802656Y-9864656D01*
X13802656Y-10118656D02*
X13802656Y-10047944D01*
X13731944Y-10047944D01*
X13731944Y-10118656D01*
X13802656Y-10118656D01*
X13802656Y-10372656D02*
X13802656Y-10301944D01*
X13731944Y-10301944D01*
X13731944Y-10372656D01*
X13802656Y-10372656D01*
X13802656Y-10626656D02*
X13802656Y-10555944D01*
X13731944Y-10555944D01*
X13731944Y-10626656D01*
X13802656Y-10626656D01*
X13802656Y-10880656D02*
X13802656Y-10809944D01*
X13731944Y-10809944D01*
X13731944Y-10880656D01*
X13802656Y-10880656D01*
X13802656Y-11134656D02*
X13802656Y-11063944D01*
X13731944Y-11063944D01*
X13731944Y-11134656D01*
X13802656Y-11134656D01*
X13802656Y-11388656D02*
X13802656Y-11317944D01*
X13731944Y-11317944D01*
X13731944Y-11388656D01*
X13802656Y-11388656D01*
X14934156Y-4531156D02*
X14934156Y-4460444D01*
X14863444Y-4460444D01*
X14863444Y-4531156D01*
X14934156Y-4531156D01*
X15401856Y-11405156D02*
X15401856Y-11334444D01*
X15331144Y-11334444D01*
X15331144Y-11405156D01*
X15401856Y-11405156D01*
X15442156Y-4531156D02*
X15442156Y-4460444D01*
X15371444Y-4460444D01*
X15371444Y-4531156D01*
X15442156Y-4531156D01*
X15655856Y-11405156D02*
X15655856Y-11334444D01*
X15585144Y-11334444D01*
X15585144Y-11405156D01*
X15655856Y-11405156D01*
X15909856Y-11405156D02*
X15909856Y-11334444D01*
X15839144Y-11334444D01*
X15839144Y-11405156D01*
X15909856Y-11405156D01*
X16163856Y-11405156D02*
X16163856Y-11334444D01*
X16093144Y-11334444D01*
X16093144Y-11405156D01*
X16163856Y-11405156D01*
X16417856Y-11405156D02*
X16417856Y-11334444D01*
X16347144Y-11334444D01*
X16347144Y-11405156D01*
X16417856Y-11405156D01*
X16424356Y-4531156D02*
X16424356Y-4460444D01*
X16353644Y-4460444D01*
X16353644Y-4531156D01*
X16424356Y-4531156D01*
X16671856Y-11405156D02*
X16671856Y-11334444D01*
X16601144Y-11334444D01*
X16601144Y-11405156D01*
X16671856Y-11405156D01*
X16925856Y-11405156D02*
X16925856Y-11334444D01*
X16855144Y-11334444D01*
X16855144Y-11405156D01*
X16925856Y-11405156D01*
X16932356Y-4531156D02*
X16932356Y-4460444D01*
X16861644Y-4460444D01*
X16861644Y-4531156D01*
X16932356Y-4531156D01*
X17179856Y-11405156D02*
X17179856Y-11334444D01*
X17109144Y-11334444D01*
X17109144Y-11405156D01*
X17179856Y-11405156D01*
X17731456Y-4633256D02*
X17731456Y-4562544D01*
X17660744Y-4562544D01*
X17660744Y-4633256D01*
X17731456Y-4633256D01*
X17731456Y-4887256D02*
X17731456Y-4816544D01*
X17660744Y-4816544D01*
X17660744Y-4887256D01*
X17731456Y-4887256D01*
X18116456Y-7324656D02*
X18116456Y-7253944D01*
X18045744Y-7253944D01*
X18045744Y-7324656D01*
X18116456Y-7324656D01*
X18116456Y-7578656D02*
X18116456Y-7507944D01*
X18045744Y-7507944D01*
X18045744Y-7578656D01*
X18116456Y-7578656D01*
X18116456Y-7832656D02*
X18116456Y-7761944D01*
X18045744Y-7761944D01*
X18045744Y-7832656D01*
X18116456Y-7832656D01*
X18116456Y-8086656D02*
X18116456Y-8015944D01*
X18045744Y-8015944D01*
X18045744Y-8086656D01*
X18116456Y-8086656D01*
X18116456Y-8340656D02*
X18116456Y-8269944D01*
X18045744Y-8269944D01*
X18045744Y-8340656D01*
X18116456Y-8340656D01*
X18116456Y-8594656D02*
X18116456Y-8523944D01*
X18045744Y-8523944D01*
X18045744Y-8594656D01*
X18116456Y-8594656D01*
X18116456Y-8848656D02*
X18116456Y-8777944D01*
X18045744Y-8777944D01*
X18045744Y-8848656D01*
X18116456Y-8848656D01*
X18116456Y-9102656D02*
X18116456Y-9031944D01*
X18045744Y-9031944D01*
X18045744Y-9102656D01*
X18116456Y-9102656D01*
X18116456Y-9356656D02*
X18116456Y-9285944D01*
X18045744Y-9285944D01*
X18045744Y-9356656D01*
X18116456Y-9356656D01*
X18116456Y-9610656D02*
X18116456Y-9539944D01*
X18045744Y-9539944D01*
X18045744Y-9610656D01*
X18116456Y-9610656D01*
X18116456Y-9864656D02*
X18116456Y-9793944D01*
X18045744Y-9793944D01*
X18045744Y-9864656D01*
X18116456Y-9864656D01*
X18116456Y-10118656D02*
X18116456Y-10047944D01*
X18045744Y-10047944D01*
X18045744Y-10118656D01*
X18116456Y-10118656D01*
X18116456Y-10372656D02*
X18116456Y-10301944D01*
X18045744Y-10301944D01*
X18045744Y-10372656D01*
X18116456Y-10372656D01*
X18116456Y-10626656D02*
X18116456Y-10555944D01*
X18045744Y-10555944D01*
X18045744Y-10626656D01*
X18116456Y-10626656D01*
X18116456Y-10880656D02*
X18116456Y-10809944D01*
X18045744Y-10809944D01*
X18045744Y-10880656D01*
X18116456Y-10880656D01*
X18116456Y-11134656D02*
X18116456Y-11063944D01*
X18045744Y-11063944D01*
X18045744Y-11134656D01*
X18116456Y-11134656D01*
X18116456Y-11388656D02*
X18116456Y-11317944D01*
X18045744Y-11317944D01*
X18045744Y-11388656D01*
X18116456Y-11388656D01*
X18117156Y-4607356D02*
X18117156Y-4536644D01*
X18046444Y-4536644D01*
X18046444Y-4607356D01*
X18117156Y-4607356D01*
X18117156Y-4861356D02*
X18117156Y-4790644D01*
X18046444Y-4790644D01*
X18046444Y-4861356D01*
X18117156Y-4861356D01*
X18117156Y-5115356D02*
X18117156Y-5044644D01*
X18046444Y-5044644D01*
X18046444Y-5115356D01*
X18117156Y-5115356D01*
X18117156Y-5369356D02*
X18117156Y-5298644D01*
X18046444Y-5298644D01*
X18046444Y-5369356D01*
X18117156Y-5369356D01*
X18117156Y-5623356D02*
X18117156Y-5552644D01*
X18046444Y-5552644D01*
X18046444Y-5623356D01*
X18117156Y-5623356D01*
X18117156Y-5877356D02*
X18117156Y-5806644D01*
X18046444Y-5806644D01*
X18046444Y-5877356D01*
X18117156Y-5877356D01*
X18117156Y-6131356D02*
X18117156Y-6060644D01*
X18046444Y-6060644D01*
X18046444Y-6131356D01*
X18117156Y-6131356D01*
X18117156Y-6385356D02*
X18117156Y-6314644D01*
X18046444Y-6314644D01*
X18046444Y-6385356D01*
X18117156Y-6385356D01*
X18117156Y-6639356D02*
X18117156Y-6568644D01*
X18046444Y-6568644D01*
X18046444Y-6639356D01*
X18117156Y-6639356D01*
X18117156Y-6893356D02*
X18117156Y-6822644D01*
X18046444Y-6822644D01*
X18046444Y-6893356D01*
X18117156Y-6893356D01*
X18370456Y-7324656D02*
X18370456Y-7253944D01*
X18299744Y-7253944D01*
X18299744Y-7324656D01*
X18370456Y-7324656D01*
X18370456Y-7578656D02*
X18370456Y-7507944D01*
X18299744Y-7507944D01*
X18299744Y-7578656D01*
X18370456Y-7578656D01*
X18370456Y-7832656D02*
X18370456Y-7761944D01*
X18299744Y-7761944D01*
X18299744Y-7832656D01*
X18370456Y-7832656D01*
X18370456Y-8086656D02*
X18370456Y-8015944D01*
X18299744Y-8015944D01*
X18299744Y-8086656D01*
X18370456Y-8086656D01*
X18370456Y-8340656D02*
X18370456Y-8269944D01*
X18299744Y-8269944D01*
X18299744Y-8340656D01*
X18370456Y-8340656D01*
X18370456Y-8594656D02*
X18370456Y-8523944D01*
X18299744Y-8523944D01*
X18299744Y-8594656D01*
X18370456Y-8594656D01*
X18370456Y-8848656D02*
X18370456Y-8777944D01*
X18299744Y-8777944D01*
X18299744Y-8848656D01*
X18370456Y-8848656D01*
X18370456Y-9102656D02*
X18370456Y-9031944D01*
X18299744Y-9031944D01*
X18299744Y-9102656D01*
X18370456Y-9102656D01*
X18370456Y-9356656D02*
X18370456Y-9285944D01*
X18299744Y-9285944D01*
X18299744Y-9356656D01*
X18370456Y-9356656D01*
X18370456Y-9610656D02*
X18370456Y-9539944D01*
X18299744Y-9539944D01*
X18299744Y-9610656D01*
X18370456Y-9610656D01*
X18370456Y-9864656D02*
X18370456Y-9793944D01*
X18299744Y-9793944D01*
X18299744Y-9864656D01*
X18370456Y-9864656D01*
X18370456Y-10118656D02*
X18370456Y-10047944D01*
X18299744Y-10047944D01*
X18299744Y-10118656D01*
X18370456Y-10118656D01*
X18370456Y-10372656D02*
X18370456Y-10301944D01*
X18299744Y-10301944D01*
X18299744Y-10372656D01*
X18370456Y-10372656D01*
X18370456Y-10626656D02*
X18370456Y-10555944D01*
X18299744Y-10555944D01*
X18299744Y-10626656D01*
X18370456Y-10626656D01*
X18370456Y-10880656D02*
X18370456Y-10809944D01*
X18299744Y-10809944D01*
X18299744Y-10880656D01*
X18370456Y-10880656D01*
X18370456Y-11134656D02*
X18370456Y-11063944D01*
X18299744Y-11063944D01*
X18299744Y-11134656D01*
X18370456Y-11134656D01*
X18370456Y-11388656D02*
X18370456Y-11317944D01*
X18299744Y-11317944D01*
X18299744Y-11388656D01*
X18370456Y-11388656D01*
X18371156Y-4607356D02*
X18371156Y-4536644D01*
X18300444Y-4536644D01*
X18300444Y-4607356D01*
X18371156Y-4607356D01*
X18371156Y-4861356D02*
X18371156Y-4790644D01*
X18300444Y-4790644D01*
X18300444Y-4861356D01*
X18371156Y-4861356D01*
X18371156Y-5115356D02*
X18371156Y-5044644D01*
X18300444Y-5044644D01*
X18300444Y-5115356D01*
X18371156Y-5115356D01*
X18371156Y-5369356D02*
X18371156Y-5298644D01*
X18300444Y-5298644D01*
X18300444Y-5369356D01*
X18371156Y-5369356D01*
X18371156Y-5623356D02*
X18371156Y-5552644D01*
X18300444Y-5552644D01*
X18300444Y-5623356D01*
X18371156Y-5623356D01*
X18371156Y-5877356D02*
X18371156Y-5806644D01*
X18300444Y-5806644D01*
X18300444Y-5877356D01*
X18371156Y-5877356D01*
X18371156Y-6131356D02*
X18371156Y-6060644D01*
X18300444Y-6060644D01*
X18300444Y-6131356D01*
X18371156Y-6131356D01*
X18371156Y-6385356D02*
X18371156Y-6314644D01*
X18300444Y-6314644D01*
X18300444Y-6385356D01*
X18371156Y-6385356D01*
X18371156Y-6639356D02*
X18371156Y-6568644D01*
X18300444Y-6568644D01*
X18300444Y-6639356D01*
X18371156Y-6639356D01*
X18371156Y-6893356D02*
X18371156Y-6822644D01*
X18300444Y-6822644D01*
X18300444Y-6893356D01*
X18371156Y-6893356D01*
D16*
X16662400Y-7271150D02*
X16717400Y-7216150D01*
X16662400Y-7161150D01*
X16607400Y-7216150D01*
X16662400Y-7271150D01*
X16687800Y-5947800D02*
X16742800Y-5892800D01*
X16687800Y-5837800D01*
X16632800Y-5892800D01*
X16687800Y-5947800D01*
X16916400Y-7271150D02*
X16971400Y-7216150D01*
X16916400Y-7161150D01*
X16861400Y-7216150D01*
X16916400Y-7271150D01*
X16941800Y-5947800D02*
X16996800Y-5892800D01*
X16941800Y-5837800D01*
X16886800Y-5892800D01*
X16941800Y-5947800D01*
X17170400Y-7271150D02*
X17225400Y-7216150D01*
X17170400Y-7161150D01*
X17115400Y-7216150D01*
X17170400Y-7271150D01*
X17195800Y-5947800D02*
X17250800Y-5892800D01*
X17195800Y-5837800D01*
X17140800Y-5892800D01*
X17195800Y-5947800D01*
D17*
X14159000Y-7656600D02*
X14289000Y-7786600D01*
X14289000Y-7656600D02*
X14159000Y-7786600D01*
X14289000Y-7721600D02*
G75*
G03*
X14289000Y-7721600I-65000J0D01*
G01*
X14159000Y-7910600D02*
X14289000Y-8040600D01*
X14289000Y-7910600D02*
X14159000Y-8040600D01*
X14289000Y-7975600D02*
G75*
G03*
X14289000Y-7975600I-65000J0D01*
G01*
X14159000Y-8164600D02*
X14289000Y-8294600D01*
X14289000Y-8164600D02*
X14159000Y-8294600D01*
X14289000Y-8229600D02*
G75*
G03*
X14289000Y-8229600I-65000J0D01*
G01*
X15429000Y-7656600D02*
X15559000Y-7786600D01*
X15559000Y-7656600D02*
X15429000Y-7786600D01*
X15559000Y-7721600D02*
G75*
G03*
X15559000Y-7721600I-65000J0D01*
G01*
X15429000Y-7910600D02*
X15559000Y-8040600D01*
X15559000Y-7910600D02*
X15429000Y-8040600D01*
X15559000Y-7975600D02*
G75*
G03*
X15559000Y-7975600I-65000J0D01*
G01*
X15429000Y-8164600D02*
X15559000Y-8294600D01*
X15559000Y-8164600D02*
X15429000Y-8294600D01*
X15559000Y-8229600D02*
G75*
G03*
X15559000Y-8229600I-65000J0D01*
G01*
D11*
X12797219Y-12065282D02*
X12797219Y-11865282D01*
X12844838Y-11865282D01*
X12873409Y-11874806D01*
X12892457Y-11893854D01*
X12901981Y-11912901D01*
X12911505Y-11950997D01*
X12911505Y-11979568D01*
X12901981Y-12017663D01*
X12892457Y-12036711D01*
X12873409Y-12055759D01*
X12844838Y-12065282D01*
X12797219Y-12065282D01*
X12997219Y-12065282D02*
X12997219Y-11931949D01*
X12997219Y-11970044D02*
X13006743Y-11950997D01*
X13016267Y-11941473D01*
X13035314Y-11931949D01*
X13054362Y-11931949D01*
X13121028Y-12065282D02*
X13121028Y-11931949D01*
X13121028Y-11865282D02*
X13111505Y-11874806D01*
X13121028Y-11884330D01*
X13130552Y-11874806D01*
X13121028Y-11865282D01*
X13121028Y-11884330D01*
X13244838Y-12065282D02*
X13225790Y-12055759D01*
X13216267Y-12036711D01*
X13216267Y-11865282D01*
X13349600Y-12065282D02*
X13330552Y-12055759D01*
X13321028Y-12036711D01*
X13321028Y-11865282D01*
X13578171Y-12065282D02*
X13578171Y-11865282D01*
X13644838Y-12008140D01*
X13711505Y-11865282D01*
X13711505Y-12065282D01*
X13892457Y-12065282D02*
X13892457Y-11960520D01*
X13882933Y-11941473D01*
X13863886Y-11931949D01*
X13825790Y-11931949D01*
X13806743Y-11941473D01*
X13892457Y-12055759D02*
X13873409Y-12065282D01*
X13825790Y-12065282D01*
X13806743Y-12055759D01*
X13797219Y-12036711D01*
X13797219Y-12017663D01*
X13806743Y-11998616D01*
X13825790Y-11989092D01*
X13873409Y-11989092D01*
X13892457Y-11979568D01*
X13987695Y-11931949D02*
X13987695Y-12131949D01*
X13987695Y-11941473D02*
X14006743Y-11931949D01*
X14044838Y-11931949D01*
X14063886Y-11941473D01*
X14073409Y-11950997D01*
X14082933Y-11970044D01*
X14082933Y-12027187D01*
X14073409Y-12046235D01*
X14063886Y-12055759D01*
X14044838Y-12065282D01*
X14006743Y-12065282D01*
X13987695Y-12055759D01*
X14168648Y-12046235D02*
X14178171Y-12055759D01*
X14168648Y-12065282D01*
X14159124Y-12055759D01*
X14168648Y-12046235D01*
X14168648Y-12065282D01*
X14168648Y-11941473D02*
X14178171Y-11950997D01*
X14168648Y-11960520D01*
X14159124Y-11950997D01*
X14168648Y-11941473D01*
X14168648Y-11960520D01*
D12*
X12514600Y-12382306D02*
X12539600Y-12407306D01*
X12539600Y-12382306D02*
X12514600Y-12407306D01*
D11*
X12835314Y-12285282D02*
X12854362Y-12285282D01*
X12873409Y-12294806D01*
X12882933Y-12304330D01*
X12892457Y-12323378D01*
X12901981Y-12361473D01*
X12901981Y-12409092D01*
X12892457Y-12447187D01*
X12882933Y-12466235D01*
X12873409Y-12475759D01*
X12854362Y-12485282D01*
X12835314Y-12485282D01*
X12816267Y-12475759D01*
X12806743Y-12466235D01*
X12797219Y-12447187D01*
X12787695Y-12409092D01*
X12787695Y-12361473D01*
X12797219Y-12323378D01*
X12806743Y-12304330D01*
X12816267Y-12294806D01*
X12835314Y-12285282D01*
X12987695Y-12466235D02*
X12997219Y-12475759D01*
X12987695Y-12485282D01*
X12978171Y-12475759D01*
X12987695Y-12466235D01*
X12987695Y-12485282D01*
X13073409Y-12304330D02*
X13082933Y-12294806D01*
X13101981Y-12285282D01*
X13149600Y-12285282D01*
X13168648Y-12294806D01*
X13178171Y-12304330D01*
X13187695Y-12323378D01*
X13187695Y-12342425D01*
X13178171Y-12370997D01*
X13063886Y-12485282D01*
X13187695Y-12485282D01*
X13368648Y-12285282D02*
X13273409Y-12285282D01*
X13263886Y-12380520D01*
X13273409Y-12370997D01*
X13292457Y-12361473D01*
X13340076Y-12361473D01*
X13359124Y-12370997D01*
X13368648Y-12380520D01*
X13378171Y-12399568D01*
X13378171Y-12447187D01*
X13368648Y-12466235D01*
X13359124Y-12475759D01*
X13340076Y-12485282D01*
X13292457Y-12485282D01*
X13273409Y-12475759D01*
X13263886Y-12466235D01*
X13501981Y-12285282D02*
X13521028Y-12285282D01*
X13540076Y-12294806D01*
X13549600Y-12304330D01*
X13559124Y-12323378D01*
X13568648Y-12361473D01*
X13568648Y-12409092D01*
X13559124Y-12447187D01*
X13549600Y-12466235D01*
X13540076Y-12475759D01*
X13521028Y-12485282D01*
X13501981Y-12485282D01*
X13482933Y-12475759D01*
X13473409Y-12466235D01*
X13463886Y-12447187D01*
X13454362Y-12409092D01*
X13454362Y-12361473D01*
X13463886Y-12323378D01*
X13473409Y-12304330D01*
X13482933Y-12294806D01*
X13501981Y-12285282D01*
X13654362Y-12485282D02*
X13654362Y-12351949D01*
X13654362Y-12370997D02*
X13663886Y-12361473D01*
X13682933Y-12351949D01*
X13711505Y-12351949D01*
X13730552Y-12361473D01*
X13740076Y-12380520D01*
X13740076Y-12485282D01*
X13740076Y-12380520D02*
X13749600Y-12361473D01*
X13768648Y-12351949D01*
X13797219Y-12351949D01*
X13816267Y-12361473D01*
X13825790Y-12380520D01*
X13825790Y-12485282D01*
X13921028Y-12485282D02*
X13921028Y-12351949D01*
X13921028Y-12370997D02*
X13930552Y-12361473D01*
X13949600Y-12351949D01*
X13978171Y-12351949D01*
X13997219Y-12361473D01*
X14006743Y-12380520D01*
X14006743Y-12485282D01*
X14006743Y-12380520D02*
X14016267Y-12361473D01*
X14035314Y-12351949D01*
X14063886Y-12351949D01*
X14082933Y-12361473D01*
X14092457Y-12380520D01*
X14092457Y-12485282D01*
X14482933Y-12275759D02*
X14311505Y-12532901D01*
X14740076Y-12285282D02*
X14759124Y-12285282D01*
X14778171Y-12294806D01*
X14787695Y-12304330D01*
X14797219Y-12323378D01*
X14806743Y-12361473D01*
X14806743Y-12409092D01*
X14797219Y-12447187D01*
X14787695Y-12466235D01*
X14778171Y-12475759D01*
X14759124Y-12485282D01*
X14740076Y-12485282D01*
X14721028Y-12475759D01*
X14711505Y-12466235D01*
X14701981Y-12447187D01*
X14692457Y-12409092D01*
X14692457Y-12361473D01*
X14701981Y-12323378D01*
X14711505Y-12304330D01*
X14721028Y-12294806D01*
X14740076Y-12285282D01*
X14892457Y-12466235D02*
X14901981Y-12475759D01*
X14892457Y-12485282D01*
X14882933Y-12475759D01*
X14892457Y-12466235D01*
X14892457Y-12485282D01*
X15025790Y-12285282D02*
X15044838Y-12285282D01*
X15063886Y-12294806D01*
X15073409Y-12304330D01*
X15082933Y-12323378D01*
X15092457Y-12361473D01*
X15092457Y-12409092D01*
X15082933Y-12447187D01*
X15073409Y-12466235D01*
X15063886Y-12475759D01*
X15044838Y-12485282D01*
X15025790Y-12485282D01*
X15006743Y-12475759D01*
X14997219Y-12466235D01*
X14987695Y-12447187D01*
X14978171Y-12409092D01*
X14978171Y-12361473D01*
X14987695Y-12323378D01*
X14997219Y-12304330D01*
X15006743Y-12294806D01*
X15025790Y-12285282D01*
X15216267Y-12285282D02*
X15235314Y-12285282D01*
X15254362Y-12294806D01*
X15263886Y-12304330D01*
X15273409Y-12323378D01*
X15282933Y-12361473D01*
X15282933Y-12409092D01*
X15273409Y-12447187D01*
X15263886Y-12466235D01*
X15254362Y-12475759D01*
X15235314Y-12485282D01*
X15216267Y-12485282D01*
X15197219Y-12475759D01*
X15187695Y-12466235D01*
X15178171Y-12447187D01*
X15168648Y-12409092D01*
X15168648Y-12361473D01*
X15178171Y-12323378D01*
X15187695Y-12304330D01*
X15197219Y-12294806D01*
X15216267Y-12285282D01*
X15378171Y-12485282D02*
X15416267Y-12485282D01*
X15435314Y-12475759D01*
X15444838Y-12466235D01*
X15463886Y-12437663D01*
X15473409Y-12399568D01*
X15473409Y-12323378D01*
X15463886Y-12304330D01*
X15454362Y-12294806D01*
X15435314Y-12285282D01*
X15397219Y-12285282D01*
X15378171Y-12294806D01*
X15368648Y-12304330D01*
X15359124Y-12323378D01*
X15359124Y-12370997D01*
X15368648Y-12390044D01*
X15378171Y-12399568D01*
X15397219Y-12409092D01*
X15435314Y-12409092D01*
X15454362Y-12399568D01*
X15463886Y-12390044D01*
X15473409Y-12370997D01*
X15587695Y-12370997D02*
X15568648Y-12361473D01*
X15559124Y-12351949D01*
X15549600Y-12332901D01*
X15549600Y-12323378D01*
X15559124Y-12304330D01*
X15568648Y-12294806D01*
X15587695Y-12285282D01*
X15625790Y-12285282D01*
X15644838Y-12294806D01*
X15654362Y-12304330D01*
X15663886Y-12323378D01*
X15663886Y-12332901D01*
X15654362Y-12351949D01*
X15644838Y-12361473D01*
X15625790Y-12370997D01*
X15587695Y-12370997D01*
X15568648Y-12380520D01*
X15559124Y-12390044D01*
X15549600Y-12409092D01*
X15549600Y-12447187D01*
X15559124Y-12466235D01*
X15568648Y-12475759D01*
X15587695Y-12485282D01*
X15625790Y-12485282D01*
X15644838Y-12475759D01*
X15654362Y-12466235D01*
X15663886Y-12447187D01*
X15663886Y-12409092D01*
X15654362Y-12390044D01*
X15644838Y-12380520D01*
X15625790Y-12370997D01*
X15740076Y-12285282D02*
X15740076Y-12323378D01*
X15816267Y-12285282D02*
X15816267Y-12323378D01*
X16111505Y-12561473D02*
X16101981Y-12551949D01*
X16082933Y-12523378D01*
X16073409Y-12504330D01*
X16063886Y-12475759D01*
X16054362Y-12428140D01*
X16054362Y-12390044D01*
X16063886Y-12342425D01*
X16073409Y-12313854D01*
X16082933Y-12294806D01*
X16101981Y-12266235D01*
X16111505Y-12256711D01*
X16292457Y-12485282D02*
X16178171Y-12485282D01*
X16235314Y-12485282D02*
X16235314Y-12285282D01*
X16216267Y-12313854D01*
X16197219Y-12332901D01*
X16178171Y-12342425D01*
X16359124Y-12285282D02*
X16482933Y-12285282D01*
X16416267Y-12361473D01*
X16444838Y-12361473D01*
X16463886Y-12370997D01*
X16473409Y-12380520D01*
X16482933Y-12399568D01*
X16482933Y-12447187D01*
X16473409Y-12466235D01*
X16463886Y-12475759D01*
X16444838Y-12485282D01*
X16387695Y-12485282D01*
X16368648Y-12475759D01*
X16359124Y-12466235D01*
X16606743Y-12285282D02*
X16625790Y-12285282D01*
X16644838Y-12294806D01*
X16654362Y-12304330D01*
X16663886Y-12323378D01*
X16673409Y-12361473D01*
X16673409Y-12409092D01*
X16663886Y-12447187D01*
X16654362Y-12466235D01*
X16644838Y-12475759D01*
X16625790Y-12485282D01*
X16606743Y-12485282D01*
X16587695Y-12475759D01*
X16578171Y-12466235D01*
X16568648Y-12447187D01*
X16559124Y-12409092D01*
X16559124Y-12361473D01*
X16568648Y-12323378D01*
X16578171Y-12304330D01*
X16587695Y-12294806D01*
X16606743Y-12285282D01*
X16911505Y-12485282D02*
X16911505Y-12285282D01*
X16997219Y-12485282D02*
X16997219Y-12380520D01*
X16987695Y-12361473D01*
X16968648Y-12351949D01*
X16940076Y-12351949D01*
X16921029Y-12361473D01*
X16911505Y-12370997D01*
X17121029Y-12485282D02*
X17101981Y-12475759D01*
X17092457Y-12466235D01*
X17082933Y-12447187D01*
X17082933Y-12390044D01*
X17092457Y-12370997D01*
X17101981Y-12361473D01*
X17121029Y-12351949D01*
X17149600Y-12351949D01*
X17168648Y-12361473D01*
X17178171Y-12370997D01*
X17187695Y-12390044D01*
X17187695Y-12447187D01*
X17178171Y-12466235D01*
X17168648Y-12475759D01*
X17149600Y-12485282D01*
X17121029Y-12485282D01*
X17301981Y-12485282D02*
X17282933Y-12475759D01*
X17273410Y-12456711D01*
X17273410Y-12285282D01*
X17454362Y-12475759D02*
X17435314Y-12485282D01*
X17397219Y-12485282D01*
X17378171Y-12475759D01*
X17368648Y-12456711D01*
X17368648Y-12380520D01*
X17378171Y-12361473D01*
X17397219Y-12351949D01*
X17435314Y-12351949D01*
X17454362Y-12361473D01*
X17463886Y-12380520D01*
X17463886Y-12399568D01*
X17368648Y-12418616D01*
X17540076Y-12475759D02*
X17559124Y-12485282D01*
X17597219Y-12485282D01*
X17616267Y-12475759D01*
X17625790Y-12456711D01*
X17625790Y-12447187D01*
X17616267Y-12428140D01*
X17597219Y-12418616D01*
X17568648Y-12418616D01*
X17549600Y-12409092D01*
X17540076Y-12390044D01*
X17540076Y-12380520D01*
X17549600Y-12361473D01*
X17568648Y-12351949D01*
X17597219Y-12351949D01*
X17616267Y-12361473D01*
X17692457Y-12561473D02*
X17701981Y-12551949D01*
X17721029Y-12523378D01*
X17730552Y-12504330D01*
X17740076Y-12475759D01*
X17749600Y-12428140D01*
X17749600Y-12390044D01*
X17740076Y-12342425D01*
X17730552Y-12313854D01*
X17721029Y-12294806D01*
X17701981Y-12266235D01*
X17692457Y-12256711D01*
D13*
X12539600Y-12658806D02*
G75*
G03*
X12539600Y-12658806I-20000J0D01*
G01*
D11*
X12835314Y-12549282D02*
X12854362Y-12549282D01*
X12873409Y-12558806D01*
X12882933Y-12568330D01*
X12892457Y-12587378D01*
X12901981Y-12625473D01*
X12901981Y-12673092D01*
X12892457Y-12711187D01*
X12882933Y-12730235D01*
X12873409Y-12739759D01*
X12854362Y-12749282D01*
X12835314Y-12749282D01*
X12816267Y-12739759D01*
X12806743Y-12730235D01*
X12797219Y-12711187D01*
X12787695Y-12673092D01*
X12787695Y-12625473D01*
X12797219Y-12587378D01*
X12806743Y-12568330D01*
X12816267Y-12558806D01*
X12835314Y-12549282D01*
X12987695Y-12730235D02*
X12997219Y-12739759D01*
X12987695Y-12749282D01*
X12978171Y-12739759D01*
X12987695Y-12730235D01*
X12987695Y-12749282D01*
X13168648Y-12615949D02*
X13168648Y-12749282D01*
X13121028Y-12539759D02*
X13073409Y-12682616D01*
X13197219Y-12682616D01*
X13311505Y-12549282D02*
X13330552Y-12549282D01*
X13349600Y-12558806D01*
X13359124Y-12568330D01*
X13368648Y-12587378D01*
X13378171Y-12625473D01*
X13378171Y-12673092D01*
X13368648Y-12711187D01*
X13359124Y-12730235D01*
X13349600Y-12739759D01*
X13330552Y-12749282D01*
X13311505Y-12749282D01*
X13292457Y-12739759D01*
X13282933Y-12730235D01*
X13273409Y-12711187D01*
X13263886Y-12673092D01*
X13263886Y-12625473D01*
X13273409Y-12587378D01*
X13282933Y-12568330D01*
X13292457Y-12558806D01*
X13311505Y-12549282D01*
X13501981Y-12549282D02*
X13521028Y-12549282D01*
X13540076Y-12558806D01*
X13549600Y-12568330D01*
X13559124Y-12587378D01*
X13568648Y-12625473D01*
X13568648Y-12673092D01*
X13559124Y-12711187D01*
X13549600Y-12730235D01*
X13540076Y-12739759D01*
X13521028Y-12749282D01*
X13501981Y-12749282D01*
X13482933Y-12739759D01*
X13473409Y-12730235D01*
X13463886Y-12711187D01*
X13454362Y-12673092D01*
X13454362Y-12625473D01*
X13463886Y-12587378D01*
X13473409Y-12568330D01*
X13482933Y-12558806D01*
X13501981Y-12549282D01*
X13654362Y-12749282D02*
X13654362Y-12615949D01*
X13654362Y-12634997D02*
X13663886Y-12625473D01*
X13682933Y-12615949D01*
X13711505Y-12615949D01*
X13730552Y-12625473D01*
X13740076Y-12644520D01*
X13740076Y-12749282D01*
X13740076Y-12644520D02*
X13749600Y-12625473D01*
X13768648Y-12615949D01*
X13797219Y-12615949D01*
X13816267Y-12625473D01*
X13825790Y-12644520D01*
X13825790Y-12749282D01*
X13921028Y-12749282D02*
X13921028Y-12615949D01*
X13921028Y-12634997D02*
X13930552Y-12625473D01*
X13949600Y-12615949D01*
X13978171Y-12615949D01*
X13997219Y-12625473D01*
X14006743Y-12644520D01*
X14006743Y-12749282D01*
X14006743Y-12644520D02*
X14016267Y-12625473D01*
X14035314Y-12615949D01*
X14063886Y-12615949D01*
X14082933Y-12625473D01*
X14092457Y-12644520D01*
X14092457Y-12749282D01*
X14482933Y-12539759D02*
X14311505Y-12796901D01*
X14740076Y-12549282D02*
X14759124Y-12549282D01*
X14778171Y-12558806D01*
X14787695Y-12568330D01*
X14797219Y-12587378D01*
X14806743Y-12625473D01*
X14806743Y-12673092D01*
X14797219Y-12711187D01*
X14787695Y-12730235D01*
X14778171Y-12739759D01*
X14759124Y-12749282D01*
X14740076Y-12749282D01*
X14721028Y-12739759D01*
X14711505Y-12730235D01*
X14701981Y-12711187D01*
X14692457Y-12673092D01*
X14692457Y-12625473D01*
X14701981Y-12587378D01*
X14711505Y-12568330D01*
X14721028Y-12558806D01*
X14740076Y-12549282D01*
X14892457Y-12730235D02*
X14901981Y-12739759D01*
X14892457Y-12749282D01*
X14882933Y-12739759D01*
X14892457Y-12730235D01*
X14892457Y-12749282D01*
X15025790Y-12549282D02*
X15044838Y-12549282D01*
X15063886Y-12558806D01*
X15073409Y-12568330D01*
X15082933Y-12587378D01*
X15092457Y-12625473D01*
X15092457Y-12673092D01*
X15082933Y-12711187D01*
X15073409Y-12730235D01*
X15063886Y-12739759D01*
X15044838Y-12749282D01*
X15025790Y-12749282D01*
X15006743Y-12739759D01*
X14997219Y-12730235D01*
X14987695Y-12711187D01*
X14978171Y-12673092D01*
X14978171Y-12625473D01*
X14987695Y-12587378D01*
X14997219Y-12568330D01*
X15006743Y-12558806D01*
X15025790Y-12549282D01*
X15282933Y-12749282D02*
X15168648Y-12749282D01*
X15225790Y-12749282D02*
X15225790Y-12549282D01*
X15206743Y-12577854D01*
X15187695Y-12596901D01*
X15168648Y-12606425D01*
X15463886Y-12549282D02*
X15368648Y-12549282D01*
X15359124Y-12644520D01*
X15368648Y-12634997D01*
X15387695Y-12625473D01*
X15435314Y-12625473D01*
X15454362Y-12634997D01*
X15463886Y-12644520D01*
X15473409Y-12663568D01*
X15473409Y-12711187D01*
X15463886Y-12730235D01*
X15454362Y-12739759D01*
X15435314Y-12749282D01*
X15387695Y-12749282D01*
X15368648Y-12739759D01*
X15359124Y-12730235D01*
X15540076Y-12549282D02*
X15673409Y-12549282D01*
X15587695Y-12749282D01*
X15740076Y-12549282D02*
X15740076Y-12587378D01*
X15816267Y-12549282D02*
X15816267Y-12587378D01*
X16111505Y-12825473D02*
X16101981Y-12815949D01*
X16082933Y-12787378D01*
X16073409Y-12768330D01*
X16063886Y-12739759D01*
X16054362Y-12692140D01*
X16054362Y-12654044D01*
X16063886Y-12606425D01*
X16073409Y-12577854D01*
X16082933Y-12558806D01*
X16101981Y-12530235D01*
X16111505Y-12520711D01*
X16273409Y-12615949D02*
X16273409Y-12749282D01*
X16225790Y-12539759D02*
X16178171Y-12682616D01*
X16301981Y-12682616D01*
X16530552Y-12749282D02*
X16530552Y-12549282D01*
X16616267Y-12749282D02*
X16616267Y-12644520D01*
X16606743Y-12625473D01*
X16587695Y-12615949D01*
X16559124Y-12615949D01*
X16540076Y-12625473D01*
X16530552Y-12634997D01*
X16740076Y-12749282D02*
X16721028Y-12739759D01*
X16711505Y-12730235D01*
X16701981Y-12711187D01*
X16701981Y-12654044D01*
X16711505Y-12634997D01*
X16721028Y-12625473D01*
X16740076Y-12615949D01*
X16768648Y-12615949D01*
X16787695Y-12625473D01*
X16797219Y-12634997D01*
X16806743Y-12654044D01*
X16806743Y-12711187D01*
X16797219Y-12730235D01*
X16787695Y-12739759D01*
X16768648Y-12749282D01*
X16740076Y-12749282D01*
X16921029Y-12749282D02*
X16901981Y-12739759D01*
X16892457Y-12720711D01*
X16892457Y-12549282D01*
X17073410Y-12739759D02*
X17054362Y-12749282D01*
X17016267Y-12749282D01*
X16997219Y-12739759D01*
X16987695Y-12720711D01*
X16987695Y-12644520D01*
X16997219Y-12625473D01*
X17016267Y-12615949D01*
X17054362Y-12615949D01*
X17073410Y-12625473D01*
X17082933Y-12644520D01*
X17082933Y-12663568D01*
X16987695Y-12682616D01*
X17159124Y-12739759D02*
X17178171Y-12749282D01*
X17216267Y-12749282D01*
X17235314Y-12739759D01*
X17244838Y-12720711D01*
X17244838Y-12711187D01*
X17235314Y-12692140D01*
X17216267Y-12682616D01*
X17187695Y-12682616D01*
X17168648Y-12673092D01*
X17159124Y-12654044D01*
X17159124Y-12644520D01*
X17168648Y-12625473D01*
X17187695Y-12615949D01*
X17216267Y-12615949D01*
X17235314Y-12625473D01*
X17311505Y-12825473D02*
X17321029Y-12815949D01*
X17340076Y-12787378D01*
X17349600Y-12768330D01*
X17359124Y-12739759D01*
X17368648Y-12692140D01*
X17368648Y-12654044D01*
X17359124Y-12606425D01*
X17349600Y-12577854D01*
X17340076Y-12558806D01*
X17321029Y-12530235D01*
X17311505Y-12520711D01*
D14*
X12499600Y-12882806D02*
X12499600Y-12962806D01*
X12459600Y-12922806D02*
X12539600Y-12922806D01*
D11*
X12835314Y-12813282D02*
X12854362Y-12813282D01*
X12873409Y-12822806D01*
X12882933Y-12832330D01*
X12892457Y-12851378D01*
X12901981Y-12889473D01*
X12901981Y-12937092D01*
X12892457Y-12975187D01*
X12882933Y-12994235D01*
X12873409Y-13003759D01*
X12854362Y-13013282D01*
X12835314Y-13013282D01*
X12816267Y-13003759D01*
X12806743Y-12994235D01*
X12797219Y-12975187D01*
X12787695Y-12937092D01*
X12787695Y-12889473D01*
X12797219Y-12851378D01*
X12806743Y-12832330D01*
X12816267Y-12822806D01*
X12835314Y-12813282D01*
X12987695Y-12994235D02*
X12997219Y-13003759D01*
X12987695Y-13013282D01*
X12978171Y-13003759D01*
X12987695Y-12994235D01*
X12987695Y-13013282D01*
X13111505Y-12898997D02*
X13092457Y-12889473D01*
X13082933Y-12879949D01*
X13073409Y-12860901D01*
X13073409Y-12851378D01*
X13082933Y-12832330D01*
X13092457Y-12822806D01*
X13111505Y-12813282D01*
X13149600Y-12813282D01*
X13168648Y-12822806D01*
X13178171Y-12832330D01*
X13187695Y-12851378D01*
X13187695Y-12860901D01*
X13178171Y-12879949D01*
X13168648Y-12889473D01*
X13149600Y-12898997D01*
X13111505Y-12898997D01*
X13092457Y-12908520D01*
X13082933Y-12918044D01*
X13073409Y-12937092D01*
X13073409Y-12975187D01*
X13082933Y-12994235D01*
X13092457Y-13003759D01*
X13111505Y-13013282D01*
X13149600Y-13013282D01*
X13168648Y-13003759D01*
X13178171Y-12994235D01*
X13187695Y-12975187D01*
X13187695Y-12937092D01*
X13178171Y-12918044D01*
X13168648Y-12908520D01*
X13149600Y-12898997D01*
X13311505Y-12813282D02*
X13330552Y-12813282D01*
X13349600Y-12822806D01*
X13359124Y-12832330D01*
X13368648Y-12851378D01*
X13378171Y-12889473D01*
X13378171Y-12937092D01*
X13368648Y-12975187D01*
X13359124Y-12994235D01*
X13349600Y-13003759D01*
X13330552Y-13013282D01*
X13311505Y-13013282D01*
X13292457Y-13003759D01*
X13282933Y-12994235D01*
X13273409Y-12975187D01*
X13263886Y-12937092D01*
X13263886Y-12889473D01*
X13273409Y-12851378D01*
X13282933Y-12832330D01*
X13292457Y-12822806D01*
X13311505Y-12813282D01*
X13501981Y-12813282D02*
X13521028Y-12813282D01*
X13540076Y-12822806D01*
X13549600Y-12832330D01*
X13559124Y-12851378D01*
X13568648Y-12889473D01*
X13568648Y-12937092D01*
X13559124Y-12975187D01*
X13549600Y-12994235D01*
X13540076Y-13003759D01*
X13521028Y-13013282D01*
X13501981Y-13013282D01*
X13482933Y-13003759D01*
X13473409Y-12994235D01*
X13463886Y-12975187D01*
X13454362Y-12937092D01*
X13454362Y-12889473D01*
X13463886Y-12851378D01*
X13473409Y-12832330D01*
X13482933Y-12822806D01*
X13501981Y-12813282D01*
X13654362Y-13013282D02*
X13654362Y-12879949D01*
X13654362Y-12898997D02*
X13663886Y-12889473D01*
X13682933Y-12879949D01*
X13711505Y-12879949D01*
X13730552Y-12889473D01*
X13740076Y-12908520D01*
X13740076Y-13013282D01*
X13740076Y-12908520D02*
X13749600Y-12889473D01*
X13768648Y-12879949D01*
X13797219Y-12879949D01*
X13816267Y-12889473D01*
X13825790Y-12908520D01*
X13825790Y-13013282D01*
X13921028Y-13013282D02*
X13921028Y-12879949D01*
X13921028Y-12898997D02*
X13930552Y-12889473D01*
X13949600Y-12879949D01*
X13978171Y-12879949D01*
X13997219Y-12889473D01*
X14006743Y-12908520D01*
X14006743Y-13013282D01*
X14006743Y-12908520D02*
X14016267Y-12889473D01*
X14035314Y-12879949D01*
X14063886Y-12879949D01*
X14082933Y-12889473D01*
X14092457Y-12908520D01*
X14092457Y-13013282D01*
X14482933Y-12803759D02*
X14311505Y-13060901D01*
X14740076Y-12813282D02*
X14759124Y-12813282D01*
X14778171Y-12822806D01*
X14787695Y-12832330D01*
X14797219Y-12851378D01*
X14806743Y-12889473D01*
X14806743Y-12937092D01*
X14797219Y-12975187D01*
X14787695Y-12994235D01*
X14778171Y-13003759D01*
X14759124Y-13013282D01*
X14740076Y-13013282D01*
X14721028Y-13003759D01*
X14711505Y-12994235D01*
X14701981Y-12975187D01*
X14692457Y-12937092D01*
X14692457Y-12889473D01*
X14701981Y-12851378D01*
X14711505Y-12832330D01*
X14721028Y-12822806D01*
X14740076Y-12813282D01*
X14892457Y-12994235D02*
X14901981Y-13003759D01*
X14892457Y-13013282D01*
X14882933Y-13003759D01*
X14892457Y-12994235D01*
X14892457Y-13013282D01*
X15025790Y-12813282D02*
X15044838Y-12813282D01*
X15063886Y-12822806D01*
X15073409Y-12832330D01*
X15082933Y-12851378D01*
X15092457Y-12889473D01*
X15092457Y-12937092D01*
X15082933Y-12975187D01*
X15073409Y-12994235D01*
X15063886Y-13003759D01*
X15044838Y-13013282D01*
X15025790Y-13013282D01*
X15006743Y-13003759D01*
X14997219Y-12994235D01*
X14987695Y-12975187D01*
X14978171Y-12937092D01*
X14978171Y-12889473D01*
X14987695Y-12851378D01*
X14997219Y-12832330D01*
X15006743Y-12822806D01*
X15025790Y-12813282D01*
X15159124Y-12813282D02*
X15282933Y-12813282D01*
X15216267Y-12889473D01*
X15244838Y-12889473D01*
X15263886Y-12898997D01*
X15273409Y-12908520D01*
X15282933Y-12927568D01*
X15282933Y-12975187D01*
X15273409Y-12994235D01*
X15263886Y-13003759D01*
X15244838Y-13013282D01*
X15187695Y-13013282D01*
X15168648Y-13003759D01*
X15159124Y-12994235D01*
X15473409Y-13013282D02*
X15359124Y-13013282D01*
X15416267Y-13013282D02*
X15416267Y-12813282D01*
X15397219Y-12841854D01*
X15378171Y-12860901D01*
X15359124Y-12870425D01*
X15654362Y-12813282D02*
X15559124Y-12813282D01*
X15549600Y-12908520D01*
X15559124Y-12898997D01*
X15578171Y-12889473D01*
X15625790Y-12889473D01*
X15644838Y-12898997D01*
X15654362Y-12908520D01*
X15663886Y-12927568D01*
X15663886Y-12975187D01*
X15654362Y-12994235D01*
X15644838Y-13003759D01*
X15625790Y-13013282D01*
X15578171Y-13013282D01*
X15559124Y-13003759D01*
X15549600Y-12994235D01*
X15740076Y-12813282D02*
X15740076Y-12851378D01*
X15816267Y-12813282D02*
X15816267Y-12851378D01*
X16111505Y-13089473D02*
X16101981Y-13079949D01*
X16082933Y-13051378D01*
X16073409Y-13032330D01*
X16063886Y-13003759D01*
X16054362Y-12956140D01*
X16054362Y-12918044D01*
X16063886Y-12870425D01*
X16073409Y-12841854D01*
X16082933Y-12822806D01*
X16101981Y-12794235D01*
X16111505Y-12784711D01*
X16168648Y-12813282D02*
X16292457Y-12813282D01*
X16225790Y-12889473D01*
X16254362Y-12889473D01*
X16273409Y-12898997D01*
X16282933Y-12908520D01*
X16292457Y-12927568D01*
X16292457Y-12975187D01*
X16282933Y-12994235D01*
X16273409Y-13003759D01*
X16254362Y-13013282D01*
X16197219Y-13013282D01*
X16178171Y-13003759D01*
X16168648Y-12994235D01*
X16368648Y-12832330D02*
X16378171Y-12822806D01*
X16397219Y-12813282D01*
X16444838Y-12813282D01*
X16463886Y-12822806D01*
X16473409Y-12832330D01*
X16482933Y-12851378D01*
X16482933Y-12870425D01*
X16473409Y-12898997D01*
X16359124Y-13013282D01*
X16482933Y-13013282D01*
X16721028Y-13013282D02*
X16721028Y-12813282D01*
X16806743Y-13013282D02*
X16806743Y-12908520D01*
X16797219Y-12889473D01*
X16778171Y-12879949D01*
X16749600Y-12879949D01*
X16730552Y-12889473D01*
X16721028Y-12898997D01*
X16930552Y-13013282D02*
X16911505Y-13003759D01*
X16901981Y-12994235D01*
X16892457Y-12975187D01*
X16892457Y-12918044D01*
X16901981Y-12898997D01*
X16911505Y-12889473D01*
X16930552Y-12879949D01*
X16959124Y-12879949D01*
X16978171Y-12889473D01*
X16987695Y-12898997D01*
X16997219Y-12918044D01*
X16997219Y-12975187D01*
X16987695Y-12994235D01*
X16978171Y-13003759D01*
X16959124Y-13013282D01*
X16930552Y-13013282D01*
X17111505Y-13013282D02*
X17092457Y-13003759D01*
X17082933Y-12984711D01*
X17082933Y-12813282D01*
X17263886Y-13003759D02*
X17244838Y-13013282D01*
X17206743Y-13013282D01*
X17187695Y-13003759D01*
X17178171Y-12984711D01*
X17178171Y-12908520D01*
X17187695Y-12889473D01*
X17206743Y-12879949D01*
X17244838Y-12879949D01*
X17263886Y-12889473D01*
X17273410Y-12908520D01*
X17273410Y-12927568D01*
X17178171Y-12946616D01*
X17349600Y-13003759D02*
X17368648Y-13013282D01*
X17406743Y-13013282D01*
X17425790Y-13003759D01*
X17435314Y-12984711D01*
X17435314Y-12975187D01*
X17425790Y-12956140D01*
X17406743Y-12946616D01*
X17378171Y-12946616D01*
X17359124Y-12937092D01*
X17349600Y-12918044D01*
X17349600Y-12908520D01*
X17359124Y-12889473D01*
X17378171Y-12879949D01*
X17406743Y-12879949D01*
X17425790Y-12889473D01*
X17673410Y-12937092D02*
X17825790Y-12937092D01*
X17749600Y-13013282D02*
X17749600Y-12860901D01*
X18054362Y-12813282D02*
X18178171Y-12813282D01*
X18111505Y-12889473D01*
X18140076Y-12889473D01*
X18159124Y-12898997D01*
X18168648Y-12908520D01*
X18178171Y-12927568D01*
X18178171Y-12975187D01*
X18168648Y-12994235D01*
X18159124Y-13003759D01*
X18140076Y-13013282D01*
X18082933Y-13013282D01*
X18063886Y-13003759D01*
X18054362Y-12994235D01*
X18406743Y-13003759D02*
X18425790Y-13013282D01*
X18463886Y-13013282D01*
X18482933Y-13003759D01*
X18492457Y-12984711D01*
X18492457Y-12975187D01*
X18482933Y-12956140D01*
X18463886Y-12946616D01*
X18435314Y-12946616D01*
X18416267Y-12937092D01*
X18406743Y-12918044D01*
X18406743Y-12908520D01*
X18416267Y-12889473D01*
X18435314Y-12879949D01*
X18463886Y-12879949D01*
X18482933Y-12889473D01*
X18606743Y-13013282D02*
X18587695Y-13003759D01*
X18578171Y-12984711D01*
X18578171Y-12813282D01*
X18711505Y-13013282D02*
X18692457Y-13003759D01*
X18682933Y-12994235D01*
X18673410Y-12975187D01*
X18673410Y-12918044D01*
X18682933Y-12898997D01*
X18692457Y-12889473D01*
X18711505Y-12879949D01*
X18740076Y-12879949D01*
X18759124Y-12889473D01*
X18768648Y-12898997D01*
X18778171Y-12918044D01*
X18778171Y-12975187D01*
X18768648Y-12994235D01*
X18759124Y-13003759D01*
X18740076Y-13013282D01*
X18711505Y-13013282D01*
X18835314Y-12879949D02*
X18911505Y-12879949D01*
X18863886Y-12813282D02*
X18863886Y-12984711D01*
X18873410Y-13003759D01*
X18892457Y-13013282D01*
X18911505Y-13013282D01*
X18968648Y-13003759D02*
X18987695Y-13013282D01*
X19025790Y-13013282D01*
X19044838Y-13003759D01*
X19054362Y-12984711D01*
X19054362Y-12975187D01*
X19044838Y-12956140D01*
X19025790Y-12946616D01*
X18997219Y-12946616D01*
X18978171Y-12937092D01*
X18968648Y-12918044D01*
X18968648Y-12908520D01*
X18978171Y-12889473D01*
X18997219Y-12879949D01*
X19025790Y-12879949D01*
X19044838Y-12889473D01*
X19121029Y-13089473D02*
X19130552Y-13079949D01*
X19149600Y-13051378D01*
X19159124Y-13032330D01*
X19168648Y-13003759D01*
X19178171Y-12956140D01*
X19178171Y-12918044D01*
X19168648Y-12870425D01*
X19159124Y-12841854D01*
X19149600Y-12822806D01*
X19130552Y-12794235D01*
X19121029Y-12784711D01*
D15*
X12524956Y-13222162D02*
X12524956Y-13151451D01*
X12454244Y-13151451D01*
X12454244Y-13222162D01*
X12524956Y-13222162D01*
D11*
X12901981Y-13277282D02*
X12787695Y-13277282D01*
X12844838Y-13277282D02*
X12844838Y-13077282D01*
X12825790Y-13105854D01*
X12806743Y-13124901D01*
X12787695Y-13134425D01*
X12987695Y-13258235D02*
X12997219Y-13267759D01*
X12987695Y-13277282D01*
X12978171Y-13267759D01*
X12987695Y-13258235D01*
X12987695Y-13277282D01*
X13121028Y-13077282D02*
X13140076Y-13077282D01*
X13159124Y-13086806D01*
X13168648Y-13096330D01*
X13178171Y-13115378D01*
X13187695Y-13153473D01*
X13187695Y-13201092D01*
X13178171Y-13239187D01*
X13168648Y-13258235D01*
X13159124Y-13267759D01*
X13140076Y-13277282D01*
X13121028Y-13277282D01*
X13101981Y-13267759D01*
X13092457Y-13258235D01*
X13082933Y-13239187D01*
X13073409Y-13201092D01*
X13073409Y-13153473D01*
X13082933Y-13115378D01*
X13092457Y-13096330D01*
X13101981Y-13086806D01*
X13121028Y-13077282D01*
X13311505Y-13077282D02*
X13330552Y-13077282D01*
X13349600Y-13086806D01*
X13359124Y-13096330D01*
X13368648Y-13115378D01*
X13378171Y-13153473D01*
X13378171Y-13201092D01*
X13368648Y-13239187D01*
X13359124Y-13258235D01*
X13349600Y-13267759D01*
X13330552Y-13277282D01*
X13311505Y-13277282D01*
X13292457Y-13267759D01*
X13282933Y-13258235D01*
X13273409Y-13239187D01*
X13263886Y-13201092D01*
X13263886Y-13153473D01*
X13273409Y-13115378D01*
X13282933Y-13096330D01*
X13292457Y-13086806D01*
X13311505Y-13077282D01*
X13501981Y-13077282D02*
X13521028Y-13077282D01*
X13540076Y-13086806D01*
X13549600Y-13096330D01*
X13559124Y-13115378D01*
X13568648Y-13153473D01*
X13568648Y-13201092D01*
X13559124Y-13239187D01*
X13549600Y-13258235D01*
X13540076Y-13267759D01*
X13521028Y-13277282D01*
X13501981Y-13277282D01*
X13482933Y-13267759D01*
X13473409Y-13258235D01*
X13463886Y-13239187D01*
X13454362Y-13201092D01*
X13454362Y-13153473D01*
X13463886Y-13115378D01*
X13473409Y-13096330D01*
X13482933Y-13086806D01*
X13501981Y-13077282D01*
X13654362Y-13277282D02*
X13654362Y-13143949D01*
X13654362Y-13162997D02*
X13663886Y-13153473D01*
X13682933Y-13143949D01*
X13711505Y-13143949D01*
X13730552Y-13153473D01*
X13740076Y-13172520D01*
X13740076Y-13277282D01*
X13740076Y-13172520D02*
X13749600Y-13153473D01*
X13768648Y-13143949D01*
X13797219Y-13143949D01*
X13816267Y-13153473D01*
X13825790Y-13172520D01*
X13825790Y-13277282D01*
X13921028Y-13277282D02*
X13921028Y-13143949D01*
X13921028Y-13162997D02*
X13930552Y-13153473D01*
X13949600Y-13143949D01*
X13978171Y-13143949D01*
X13997219Y-13153473D01*
X14006743Y-13172520D01*
X14006743Y-13277282D01*
X14006743Y-13172520D02*
X14016267Y-13153473D01*
X14035314Y-13143949D01*
X14063886Y-13143949D01*
X14082933Y-13153473D01*
X14092457Y-13172520D01*
X14092457Y-13277282D01*
X14482933Y-13067759D02*
X14311505Y-13324901D01*
X14740076Y-13077282D02*
X14759124Y-13077282D01*
X14778171Y-13086806D01*
X14787695Y-13096330D01*
X14797219Y-13115378D01*
X14806743Y-13153473D01*
X14806743Y-13201092D01*
X14797219Y-13239187D01*
X14787695Y-13258235D01*
X14778171Y-13267759D01*
X14759124Y-13277282D01*
X14740076Y-13277282D01*
X14721028Y-13267759D01*
X14711505Y-13258235D01*
X14701981Y-13239187D01*
X14692457Y-13201092D01*
X14692457Y-13153473D01*
X14701981Y-13115378D01*
X14711505Y-13096330D01*
X14721028Y-13086806D01*
X14740076Y-13077282D01*
X14892457Y-13258235D02*
X14901981Y-13267759D01*
X14892457Y-13277282D01*
X14882933Y-13267759D01*
X14892457Y-13258235D01*
X14892457Y-13277282D01*
X15025790Y-13077282D02*
X15044838Y-13077282D01*
X15063886Y-13086806D01*
X15073409Y-13096330D01*
X15082933Y-13115378D01*
X15092457Y-13153473D01*
X15092457Y-13201092D01*
X15082933Y-13239187D01*
X15073409Y-13258235D01*
X15063886Y-13267759D01*
X15044838Y-13277282D01*
X15025790Y-13277282D01*
X15006743Y-13267759D01*
X14997219Y-13258235D01*
X14987695Y-13239187D01*
X14978171Y-13201092D01*
X14978171Y-13153473D01*
X14987695Y-13115378D01*
X14997219Y-13096330D01*
X15006743Y-13086806D01*
X15025790Y-13077282D01*
X15159124Y-13077282D02*
X15282933Y-13077282D01*
X15216267Y-13153473D01*
X15244838Y-13153473D01*
X15263886Y-13162997D01*
X15273409Y-13172520D01*
X15282933Y-13191568D01*
X15282933Y-13239187D01*
X15273409Y-13258235D01*
X15263886Y-13267759D01*
X15244838Y-13277282D01*
X15187695Y-13277282D01*
X15168648Y-13267759D01*
X15159124Y-13258235D01*
X15378171Y-13277282D02*
X15416267Y-13277282D01*
X15435314Y-13267759D01*
X15444838Y-13258235D01*
X15463886Y-13229663D01*
X15473409Y-13191568D01*
X15473409Y-13115378D01*
X15463886Y-13096330D01*
X15454362Y-13086806D01*
X15435314Y-13077282D01*
X15397219Y-13077282D01*
X15378171Y-13086806D01*
X15368648Y-13096330D01*
X15359124Y-13115378D01*
X15359124Y-13162997D01*
X15368648Y-13182044D01*
X15378171Y-13191568D01*
X15397219Y-13201092D01*
X15435314Y-13201092D01*
X15454362Y-13191568D01*
X15463886Y-13182044D01*
X15473409Y-13162997D01*
X15644838Y-13143949D02*
X15644838Y-13277282D01*
X15597219Y-13067759D02*
X15549600Y-13210616D01*
X15673409Y-13210616D01*
X15740076Y-13077282D02*
X15740076Y-13115378D01*
X15816267Y-13077282D02*
X15816267Y-13115378D01*
X16111505Y-13353473D02*
X16101981Y-13343949D01*
X16082933Y-13315378D01*
X16073409Y-13296330D01*
X16063886Y-13267759D01*
X16054362Y-13220140D01*
X16054362Y-13182044D01*
X16063886Y-13134425D01*
X16073409Y-13105854D01*
X16082933Y-13086806D01*
X16101981Y-13058235D01*
X16111505Y-13048711D01*
X16292457Y-13277282D02*
X16178171Y-13277282D01*
X16235314Y-13277282D02*
X16235314Y-13077282D01*
X16216267Y-13105854D01*
X16197219Y-13124901D01*
X16178171Y-13134425D01*
X16482933Y-13277282D02*
X16368648Y-13277282D01*
X16425790Y-13277282D02*
X16425790Y-13077282D01*
X16406743Y-13105854D01*
X16387695Y-13124901D01*
X16368648Y-13134425D01*
X16654362Y-13077282D02*
X16616267Y-13077282D01*
X16597219Y-13086806D01*
X16587695Y-13096330D01*
X16568648Y-13124901D01*
X16559124Y-13162997D01*
X16559124Y-13239187D01*
X16568648Y-13258235D01*
X16578171Y-13267759D01*
X16597219Y-13277282D01*
X16635314Y-13277282D01*
X16654362Y-13267759D01*
X16663886Y-13258235D01*
X16673409Y-13239187D01*
X16673409Y-13191568D01*
X16663886Y-13172520D01*
X16654362Y-13162997D01*
X16635314Y-13153473D01*
X16597219Y-13153473D01*
X16578171Y-13162997D01*
X16568648Y-13172520D01*
X16559124Y-13191568D01*
X16911505Y-13277282D02*
X16911505Y-13077282D01*
X16997219Y-13277282D02*
X16997219Y-13172520D01*
X16987695Y-13153473D01*
X16968648Y-13143949D01*
X16940076Y-13143949D01*
X16921029Y-13153473D01*
X16911505Y-13162997D01*
X17121029Y-13277282D02*
X17101981Y-13267759D01*
X17092457Y-13258235D01*
X17082933Y-13239187D01*
X17082933Y-13182044D01*
X17092457Y-13162997D01*
X17101981Y-13153473D01*
X17121029Y-13143949D01*
X17149600Y-13143949D01*
X17168648Y-13153473D01*
X17178171Y-13162997D01*
X17187695Y-13182044D01*
X17187695Y-13239187D01*
X17178171Y-13258235D01*
X17168648Y-13267759D01*
X17149600Y-13277282D01*
X17121029Y-13277282D01*
X17301981Y-13277282D02*
X17282933Y-13267759D01*
X17273410Y-13248711D01*
X17273410Y-13077282D01*
X17454362Y-13267759D02*
X17435314Y-13277282D01*
X17397219Y-13277282D01*
X17378171Y-13267759D01*
X17368648Y-13248711D01*
X17368648Y-13172520D01*
X17378171Y-13153473D01*
X17397219Y-13143949D01*
X17435314Y-13143949D01*
X17454362Y-13153473D01*
X17463886Y-13172520D01*
X17463886Y-13191568D01*
X17368648Y-13210616D01*
X17540076Y-13267759D02*
X17559124Y-13277282D01*
X17597219Y-13277282D01*
X17616267Y-13267759D01*
X17625790Y-13248711D01*
X17625790Y-13239187D01*
X17616267Y-13220140D01*
X17597219Y-13210616D01*
X17568648Y-13210616D01*
X17549600Y-13201092D01*
X17540076Y-13182044D01*
X17540076Y-13172520D01*
X17549600Y-13153473D01*
X17568648Y-13143949D01*
X17597219Y-13143949D01*
X17616267Y-13153473D01*
X17692457Y-13353473D02*
X17701981Y-13343949D01*
X17721029Y-13315378D01*
X17730552Y-13296330D01*
X17740076Y-13267759D01*
X17749600Y-13220140D01*
X17749600Y-13182044D01*
X17740076Y-13134425D01*
X17730552Y-13105854D01*
X17721029Y-13086806D01*
X17701981Y-13058235D01*
X17692457Y-13048711D01*
D16*
X12484600Y-13505806D02*
X12539600Y-13450806D01*
X12484600Y-13395806D01*
X12429600Y-13450806D01*
X12484600Y-13505806D01*
D11*
X12901981Y-13541282D02*
X12787695Y-13541282D01*
X12844838Y-13541282D02*
X12844838Y-13341282D01*
X12825790Y-13369854D01*
X12806743Y-13388901D01*
X12787695Y-13398425D01*
X12987695Y-13522235D02*
X12997219Y-13531759D01*
X12987695Y-13541282D01*
X12978171Y-13531759D01*
X12987695Y-13522235D01*
X12987695Y-13541282D01*
X13187695Y-13541282D02*
X13073409Y-13541282D01*
X13130552Y-13541282D02*
X13130552Y-13341282D01*
X13111505Y-13369854D01*
X13092457Y-13388901D01*
X13073409Y-13398425D01*
X13311505Y-13341282D02*
X13330552Y-13341282D01*
X13349600Y-13350806D01*
X13359124Y-13360330D01*
X13368648Y-13379378D01*
X13378171Y-13417473D01*
X13378171Y-13465092D01*
X13368648Y-13503187D01*
X13359124Y-13522235D01*
X13349600Y-13531759D01*
X13330552Y-13541282D01*
X13311505Y-13541282D01*
X13292457Y-13531759D01*
X13282933Y-13522235D01*
X13273409Y-13503187D01*
X13263886Y-13465092D01*
X13263886Y-13417473D01*
X13273409Y-13379378D01*
X13282933Y-13360330D01*
X13292457Y-13350806D01*
X13311505Y-13341282D01*
X13501981Y-13341282D02*
X13521028Y-13341282D01*
X13540076Y-13350806D01*
X13549600Y-13360330D01*
X13559124Y-13379378D01*
X13568648Y-13417473D01*
X13568648Y-13465092D01*
X13559124Y-13503187D01*
X13549600Y-13522235D01*
X13540076Y-13531759D01*
X13521028Y-13541282D01*
X13501981Y-13541282D01*
X13482933Y-13531759D01*
X13473409Y-13522235D01*
X13463886Y-13503187D01*
X13454362Y-13465092D01*
X13454362Y-13417473D01*
X13463886Y-13379378D01*
X13473409Y-13360330D01*
X13482933Y-13350806D01*
X13501981Y-13341282D01*
X13654362Y-13541282D02*
X13654362Y-13407949D01*
X13654362Y-13426997D02*
X13663886Y-13417473D01*
X13682933Y-13407949D01*
X13711505Y-13407949D01*
X13730552Y-13417473D01*
X13740076Y-13436520D01*
X13740076Y-13541282D01*
X13740076Y-13436520D02*
X13749600Y-13417473D01*
X13768648Y-13407949D01*
X13797219Y-13407949D01*
X13816267Y-13417473D01*
X13825790Y-13436520D01*
X13825790Y-13541282D01*
X13921028Y-13541282D02*
X13921028Y-13407949D01*
X13921028Y-13426997D02*
X13930552Y-13417473D01*
X13949600Y-13407949D01*
X13978171Y-13407949D01*
X13997219Y-13417473D01*
X14006743Y-13436520D01*
X14006743Y-13541282D01*
X14006743Y-13436520D02*
X14016267Y-13417473D01*
X14035314Y-13407949D01*
X14063886Y-13407949D01*
X14082933Y-13417473D01*
X14092457Y-13436520D01*
X14092457Y-13541282D01*
X14482933Y-13331759D02*
X14311505Y-13588901D01*
X14740076Y-13341282D02*
X14759124Y-13341282D01*
X14778171Y-13350806D01*
X14787695Y-13360330D01*
X14797219Y-13379378D01*
X14806743Y-13417473D01*
X14806743Y-13465092D01*
X14797219Y-13503187D01*
X14787695Y-13522235D01*
X14778171Y-13531759D01*
X14759124Y-13541282D01*
X14740076Y-13541282D01*
X14721028Y-13531759D01*
X14711505Y-13522235D01*
X14701981Y-13503187D01*
X14692457Y-13465092D01*
X14692457Y-13417473D01*
X14701981Y-13379378D01*
X14711505Y-13360330D01*
X14721028Y-13350806D01*
X14740076Y-13341282D01*
X14892457Y-13522235D02*
X14901981Y-13531759D01*
X14892457Y-13541282D01*
X14882933Y-13531759D01*
X14892457Y-13522235D01*
X14892457Y-13541282D01*
X15025790Y-13341282D02*
X15044838Y-13341282D01*
X15063886Y-13350806D01*
X15073409Y-13360330D01*
X15082933Y-13379378D01*
X15092457Y-13417473D01*
X15092457Y-13465092D01*
X15082933Y-13503187D01*
X15073409Y-13522235D01*
X15063886Y-13531759D01*
X15044838Y-13541282D01*
X15025790Y-13541282D01*
X15006743Y-13531759D01*
X14997219Y-13522235D01*
X14987695Y-13503187D01*
X14978171Y-13465092D01*
X14978171Y-13417473D01*
X14987695Y-13379378D01*
X14997219Y-13360330D01*
X15006743Y-13350806D01*
X15025790Y-13341282D01*
X15263886Y-13407949D02*
X15263886Y-13541282D01*
X15216267Y-13331759D02*
X15168648Y-13474616D01*
X15292457Y-13474616D01*
X15349600Y-13341282D02*
X15473409Y-13341282D01*
X15406743Y-13417473D01*
X15435314Y-13417473D01*
X15454362Y-13426997D01*
X15463886Y-13436520D01*
X15473409Y-13455568D01*
X15473409Y-13503187D01*
X15463886Y-13522235D01*
X15454362Y-13531759D01*
X15435314Y-13541282D01*
X15378171Y-13541282D01*
X15359124Y-13531759D01*
X15349600Y-13522235D01*
X15540076Y-13341282D02*
X15663886Y-13341282D01*
X15597219Y-13417473D01*
X15625790Y-13417473D01*
X15644838Y-13426997D01*
X15654362Y-13436520D01*
X15663886Y-13455568D01*
X15663886Y-13503187D01*
X15654362Y-13522235D01*
X15644838Y-13531759D01*
X15625790Y-13541282D01*
X15568648Y-13541282D01*
X15549600Y-13531759D01*
X15540076Y-13522235D01*
X15740076Y-13341282D02*
X15740076Y-13379378D01*
X15816267Y-13341282D02*
X15816267Y-13379378D01*
X16111505Y-13617473D02*
X16101981Y-13607949D01*
X16082933Y-13579378D01*
X16073409Y-13560330D01*
X16063886Y-13531759D01*
X16054362Y-13484140D01*
X16054362Y-13446044D01*
X16063886Y-13398425D01*
X16073409Y-13369854D01*
X16082933Y-13350806D01*
X16101981Y-13322235D01*
X16111505Y-13312711D01*
X16273409Y-13341282D02*
X16235314Y-13341282D01*
X16216267Y-13350806D01*
X16206743Y-13360330D01*
X16187695Y-13388901D01*
X16178171Y-13426997D01*
X16178171Y-13503187D01*
X16187695Y-13522235D01*
X16197219Y-13531759D01*
X16216267Y-13541282D01*
X16254362Y-13541282D01*
X16273409Y-13531759D01*
X16282933Y-13522235D01*
X16292457Y-13503187D01*
X16292457Y-13455568D01*
X16282933Y-13436520D01*
X16273409Y-13426997D01*
X16254362Y-13417473D01*
X16216267Y-13417473D01*
X16197219Y-13426997D01*
X16187695Y-13436520D01*
X16178171Y-13455568D01*
X16530552Y-13541282D02*
X16530552Y-13341282D01*
X16616267Y-13541282D02*
X16616267Y-13436520D01*
X16606743Y-13417473D01*
X16587695Y-13407949D01*
X16559124Y-13407949D01*
X16540076Y-13417473D01*
X16530552Y-13426997D01*
X16740076Y-13541282D02*
X16721028Y-13531759D01*
X16711505Y-13522235D01*
X16701981Y-13503187D01*
X16701981Y-13446044D01*
X16711505Y-13426997D01*
X16721028Y-13417473D01*
X16740076Y-13407949D01*
X16768648Y-13407949D01*
X16787695Y-13417473D01*
X16797219Y-13426997D01*
X16806743Y-13446044D01*
X16806743Y-13503187D01*
X16797219Y-13522235D01*
X16787695Y-13531759D01*
X16768648Y-13541282D01*
X16740076Y-13541282D01*
X16921029Y-13541282D02*
X16901981Y-13531759D01*
X16892457Y-13512711D01*
X16892457Y-13341282D01*
X17073410Y-13531759D02*
X17054362Y-13541282D01*
X17016267Y-13541282D01*
X16997219Y-13531759D01*
X16987695Y-13512711D01*
X16987695Y-13436520D01*
X16997219Y-13417473D01*
X17016267Y-13407949D01*
X17054362Y-13407949D01*
X17073410Y-13417473D01*
X17082933Y-13436520D01*
X17082933Y-13455568D01*
X16987695Y-13474616D01*
X17159124Y-13531759D02*
X17178171Y-13541282D01*
X17216267Y-13541282D01*
X17235314Y-13531759D01*
X17244838Y-13512711D01*
X17244838Y-13503187D01*
X17235314Y-13484140D01*
X17216267Y-13474616D01*
X17187695Y-13474616D01*
X17168648Y-13465092D01*
X17159124Y-13446044D01*
X17159124Y-13436520D01*
X17168648Y-13417473D01*
X17187695Y-13407949D01*
X17216267Y-13407949D01*
X17235314Y-13417473D01*
X17311505Y-13617473D02*
X17321029Y-13607949D01*
X17340076Y-13579378D01*
X17349600Y-13560330D01*
X17359124Y-13531759D01*
X17368648Y-13484140D01*
X17368648Y-13446044D01*
X17359124Y-13398425D01*
X17349600Y-13369854D01*
X17340076Y-13350806D01*
X17321029Y-13322235D01*
X17311505Y-13312711D01*
D17*
X12409600Y-13649806D02*
X12539600Y-13779806D01*
X12539600Y-13649806D02*
X12409600Y-13779806D01*
X12539600Y-13714806D02*
G75*
G03*
X12539600Y-13714806I-65000J0D01*
G01*
D11*
X12901981Y-13805282D02*
X12787695Y-13805282D01*
X12844838Y-13805282D02*
X12844838Y-13605282D01*
X12825790Y-13633854D01*
X12806743Y-13652901D01*
X12787695Y-13662425D01*
X12987695Y-13786235D02*
X12997219Y-13795759D01*
X12987695Y-13805282D01*
X12978171Y-13795759D01*
X12987695Y-13786235D01*
X12987695Y-13805282D01*
X13063886Y-13605282D02*
X13187695Y-13605282D01*
X13121028Y-13681473D01*
X13149600Y-13681473D01*
X13168648Y-13690997D01*
X13178171Y-13700520D01*
X13187695Y-13719568D01*
X13187695Y-13767187D01*
X13178171Y-13786235D01*
X13168648Y-13795759D01*
X13149600Y-13805282D01*
X13092457Y-13805282D01*
X13073409Y-13795759D01*
X13063886Y-13786235D01*
X13311505Y-13605282D02*
X13330552Y-13605282D01*
X13349600Y-13614806D01*
X13359124Y-13624330D01*
X13368648Y-13643378D01*
X13378171Y-13681473D01*
X13378171Y-13729092D01*
X13368648Y-13767187D01*
X13359124Y-13786235D01*
X13349600Y-13795759D01*
X13330552Y-13805282D01*
X13311505Y-13805282D01*
X13292457Y-13795759D01*
X13282933Y-13786235D01*
X13273409Y-13767187D01*
X13263886Y-13729092D01*
X13263886Y-13681473D01*
X13273409Y-13643378D01*
X13282933Y-13624330D01*
X13292457Y-13614806D01*
X13311505Y-13605282D01*
X13501981Y-13605282D02*
X13521028Y-13605282D01*
X13540076Y-13614806D01*
X13549600Y-13624330D01*
X13559124Y-13643378D01*
X13568648Y-13681473D01*
X13568648Y-13729092D01*
X13559124Y-13767187D01*
X13549600Y-13786235D01*
X13540076Y-13795759D01*
X13521028Y-13805282D01*
X13501981Y-13805282D01*
X13482933Y-13795759D01*
X13473409Y-13786235D01*
X13463886Y-13767187D01*
X13454362Y-13729092D01*
X13454362Y-13681473D01*
X13463886Y-13643378D01*
X13473409Y-13624330D01*
X13482933Y-13614806D01*
X13501981Y-13605282D01*
X13654362Y-13805282D02*
X13654362Y-13671949D01*
X13654362Y-13690997D02*
X13663886Y-13681473D01*
X13682933Y-13671949D01*
X13711505Y-13671949D01*
X13730552Y-13681473D01*
X13740076Y-13700520D01*
X13740076Y-13805282D01*
X13740076Y-13700520D02*
X13749600Y-13681473D01*
X13768648Y-13671949D01*
X13797219Y-13671949D01*
X13816267Y-13681473D01*
X13825790Y-13700520D01*
X13825790Y-13805282D01*
X13921028Y-13805282D02*
X13921028Y-13671949D01*
X13921028Y-13690997D02*
X13930552Y-13681473D01*
X13949600Y-13671949D01*
X13978171Y-13671949D01*
X13997219Y-13681473D01*
X14006743Y-13700520D01*
X14006743Y-13805282D01*
X14006743Y-13700520D02*
X14016267Y-13681473D01*
X14035314Y-13671949D01*
X14063886Y-13671949D01*
X14082933Y-13681473D01*
X14092457Y-13700520D01*
X14092457Y-13805282D01*
X14482933Y-13595759D02*
X14311505Y-13852901D01*
X14740076Y-13605282D02*
X14759124Y-13605282D01*
X14778171Y-13614806D01*
X14787695Y-13624330D01*
X14797219Y-13643378D01*
X14806743Y-13681473D01*
X14806743Y-13729092D01*
X14797219Y-13767187D01*
X14787695Y-13786235D01*
X14778171Y-13795759D01*
X14759124Y-13805282D01*
X14740076Y-13805282D01*
X14721028Y-13795759D01*
X14711505Y-13786235D01*
X14701981Y-13767187D01*
X14692457Y-13729092D01*
X14692457Y-13681473D01*
X14701981Y-13643378D01*
X14711505Y-13624330D01*
X14721028Y-13614806D01*
X14740076Y-13605282D01*
X14892457Y-13786235D02*
X14901981Y-13795759D01*
X14892457Y-13805282D01*
X14882933Y-13795759D01*
X14892457Y-13786235D01*
X14892457Y-13805282D01*
X15025790Y-13605282D02*
X15044838Y-13605282D01*
X15063886Y-13614806D01*
X15073409Y-13624330D01*
X15082933Y-13643378D01*
X15092457Y-13681473D01*
X15092457Y-13729092D01*
X15082933Y-13767187D01*
X15073409Y-13786235D01*
X15063886Y-13795759D01*
X15044838Y-13805282D01*
X15025790Y-13805282D01*
X15006743Y-13795759D01*
X14997219Y-13786235D01*
X14987695Y-13767187D01*
X14978171Y-13729092D01*
X14978171Y-13681473D01*
X14987695Y-13643378D01*
X14997219Y-13624330D01*
X15006743Y-13614806D01*
X15025790Y-13605282D01*
X15273409Y-13605282D02*
X15178171Y-13605282D01*
X15168648Y-13700520D01*
X15178171Y-13690997D01*
X15197219Y-13681473D01*
X15244838Y-13681473D01*
X15263886Y-13690997D01*
X15273409Y-13700520D01*
X15282933Y-13719568D01*
X15282933Y-13767187D01*
X15273409Y-13786235D01*
X15263886Y-13795759D01*
X15244838Y-13805282D01*
X15197219Y-13805282D01*
X15178171Y-13795759D01*
X15168648Y-13786235D01*
X15473409Y-13805282D02*
X15359124Y-13805282D01*
X15416267Y-13805282D02*
X15416267Y-13605282D01*
X15397219Y-13633854D01*
X15378171Y-13652901D01*
X15359124Y-13662425D01*
X15549600Y-13624330D02*
X15559124Y-13614806D01*
X15578171Y-13605282D01*
X15625790Y-13605282D01*
X15644838Y-13614806D01*
X15654362Y-13624330D01*
X15663886Y-13643378D01*
X15663886Y-13662425D01*
X15654362Y-13690997D01*
X15540076Y-13805282D01*
X15663886Y-13805282D01*
X15740076Y-13605282D02*
X15740076Y-13643378D01*
X15816267Y-13605282D02*
X15816267Y-13643378D01*
X16111505Y-13881473D02*
X16101981Y-13871949D01*
X16082933Y-13843378D01*
X16073409Y-13824330D01*
X16063886Y-13795759D01*
X16054362Y-13748140D01*
X16054362Y-13710044D01*
X16063886Y-13662425D01*
X16073409Y-13633854D01*
X16082933Y-13614806D01*
X16101981Y-13586235D01*
X16111505Y-13576711D01*
X16273409Y-13605282D02*
X16235314Y-13605282D01*
X16216267Y-13614806D01*
X16206743Y-13624330D01*
X16187695Y-13652901D01*
X16178171Y-13690997D01*
X16178171Y-13767187D01*
X16187695Y-13786235D01*
X16197219Y-13795759D01*
X16216267Y-13805282D01*
X16254362Y-13805282D01*
X16273409Y-13795759D01*
X16282933Y-13786235D01*
X16292457Y-13767187D01*
X16292457Y-13719568D01*
X16282933Y-13700520D01*
X16273409Y-13690997D01*
X16254362Y-13681473D01*
X16216267Y-13681473D01*
X16197219Y-13690997D01*
X16187695Y-13700520D01*
X16178171Y-13719568D01*
X16530552Y-13805282D02*
X16530552Y-13605282D01*
X16616267Y-13805282D02*
X16616267Y-13700520D01*
X16606743Y-13681473D01*
X16587695Y-13671949D01*
X16559124Y-13671949D01*
X16540076Y-13681473D01*
X16530552Y-13690997D01*
X16740076Y-13805282D02*
X16721028Y-13795759D01*
X16711505Y-13786235D01*
X16701981Y-13767187D01*
X16701981Y-13710044D01*
X16711505Y-13690997D01*
X16721028Y-13681473D01*
X16740076Y-13671949D01*
X16768648Y-13671949D01*
X16787695Y-13681473D01*
X16797219Y-13690997D01*
X16806743Y-13710044D01*
X16806743Y-13767187D01*
X16797219Y-13786235D01*
X16787695Y-13795759D01*
X16768648Y-13805282D01*
X16740076Y-13805282D01*
X16921029Y-13805282D02*
X16901981Y-13795759D01*
X16892457Y-13776711D01*
X16892457Y-13605282D01*
X17073410Y-13795759D02*
X17054362Y-13805282D01*
X17016267Y-13805282D01*
X16997219Y-13795759D01*
X16987695Y-13776711D01*
X16987695Y-13700520D01*
X16997219Y-13681473D01*
X17016267Y-13671949D01*
X17054362Y-13671949D01*
X17073410Y-13681473D01*
X17082933Y-13700520D01*
X17082933Y-13719568D01*
X16987695Y-13738616D01*
X17159124Y-13795759D02*
X17178171Y-13805282D01*
X17216267Y-13805282D01*
X17235314Y-13795759D01*
X17244838Y-13776711D01*
X17244838Y-13767187D01*
X17235314Y-13748140D01*
X17216267Y-13738616D01*
X17187695Y-13738616D01*
X17168648Y-13729092D01*
X17159124Y-13710044D01*
X17159124Y-13700520D01*
X17168648Y-13681473D01*
X17187695Y-13671949D01*
X17216267Y-13671949D01*
X17235314Y-13681473D01*
X17311505Y-13881473D02*
X17321029Y-13871949D01*
X17340076Y-13843378D01*
X17349600Y-13824330D01*
X17359124Y-13795759D01*
X17368648Y-13748140D01*
X17368648Y-13710044D01*
X17359124Y-13662425D01*
X17349600Y-13633854D01*
X17340076Y-13614806D01*
X17321029Y-13586235D01*
X17311505Y-13576711D01*
M02*
